<svg xmlns="http://www.w3.org/2000/svg" xmlns:xlink="http://www.w3.org/1999/xlink" width="42.621mm" height="46.025mm" viewBox="-19.9 -33.7 83.9 90.6"><title></title><style type="text/css">
*[layerid="1"] {stroke:#FF0000;fill:#FF0000;}
*[layerid="2"] {stroke:#0000FF;fill:#0000FF;}
*[layerid="3"] {stroke:#FFFF00;fill:#FFFF00;}
*[layerid="4"] {stroke:#808000;fill:#808000;}
*[layerid="5"] {stroke:#808080;fill:#808080;}
*[layerid="6"] {stroke:#800000;fill:#800000;}
*[layerid="7"] {stroke:#800080;fill:#800080;}
*[layerid="8"] {stroke:#AA00FF;fill:#AA00FF;}
*[layerid="9"] {stroke:#6464FF;fill:#6464FF;}
*[layerid="10"] {stroke:#FF00FF;fill:#FF00FF;}
*[layerid="11"] {stroke:#C0C0C0;fill:#C0C0C0;}
*[layerid="12"] {stroke:#FFFFFF;fill:#FFFFFF;}
*[layerid="13"] {stroke:#33CC99;fill:#33CC99;}
*[layerid="14"] {stroke:#5555FF;fill:#5555FF;}
*[layerid="15"] {stroke:#F022F0;fill:#F022F0;}
*[layerid="19"] {stroke:#66CCFF;fill:#66CCFF;}
*[layerid="21"] {stroke:#800000;fill:#800000;}
*[layerid="22"] {stroke:#008000;fill:#008000;}
*[layerid="23"] {stroke:#00FF00;fill:#00FF00;}
*[layerid="24"] {stroke:#000080;fill:#000080;}
*[layerid="25"] {stroke:#70DBFA;fill:#70DBFA;}
*[layerid="26"] {stroke:#00CC66;fill:#00CC66;}
*[layerid="27"] {stroke:#9966FF;fill:#9966FF;}
*[layerid="28"] {stroke:#800080;fill:#800080;}
*[layerid="29"] {stroke:#008080;fill:#008080;}
*[layerid="30"] {stroke:#15935F;fill:#15935F;}
*[layerid="31"] {stroke:#000080;fill:#000080;}
*[layerid="32"] {stroke:#00B400;fill:#00B400;}
*[layerid="33"] {stroke:#2E4736;fill:#2E4736;}
*[layerid="34"] {stroke:#99842F;fill:#99842F;}
*[layerid="35"] {stroke:#FFFFAA;fill:#FFFFAA;}
*[layerid="36"] {stroke:#99842F;fill:#99842F;}
*[layerid="37"] {stroke:#2E4736;fill:#2E4736;}
*[layerid="38"] {stroke:#3535FF;fill:#3535FF;}
*[layerid="39"] {stroke:#8000BC;fill:#8000BC;}
*[layerid="40"] {stroke:#43AE5F;fill:#43AE5F;}
*[layerid="41"] {stroke:#C3ECCE;fill:#C3ECCE;}
*[layerid="42"] {stroke:#728978;fill:#728978;}
*[layerid="43"] {stroke:#39503F;fill:#39503F;}
*[layerid="44"] {stroke:#0C715D;fill:#0C715D;}
*[layerid="45"] {stroke:#5A8A80;fill:#5A8A80;}
*[layerid="46"] {stroke:#2B937E;fill:#2B937E;}
*[layerid="47"] {stroke:#23999D;fill:#23999D;}
*[layerid="48"] {stroke:#45B4E3;fill:#45B4E3;}
*[layerid="49"] {stroke:#215DA1;fill:#215DA1;}
*[layerid="50"] {stroke:#4564D7;fill:#4564D7;}
*[layerid="51"] {stroke:#6969E9;fill:#6969E9;}
*[layerid="52"] {stroke:#9069E9;fill:#9069E9;}
*[layerid="99"] {stroke:#00CCCC;fill:#00CCCC;}
*[layerid="100"] {stroke:#CC9999;fill:#CC9999;}
*[layerid="Hole"] {stroke:#222222;fill:#222222;}
*[layerid="DRCError"] {stroke:#FFFFFF;fill:#FFFFFF;}
*[fill="none"] {fill: none;}
*[stroke="none"] {stroke: none;}
path, polyline, polygon, line {stroke-linecap:round;}
g[c_partid="part_pad"][layerid="1"] ellipse:not([c_etype="pad_outer"]) {fill:#FF0000;}
g[c_partid="part_pad"][layerid="1"] polygon:not([c_etype="pad_outer"]) {fill:#FF0000;}
g[c_partid="part_pad"][layerid="1"] polyline:not([c_etype="pad_outer"]) {stroke:#FF0000;}
g[c_partid="part_pad"][layerid="2"] ellipse:not([c_etype="pad_outer"]) {fill:#0000FF;}
g[c_partid="part_pad"][layerid="2"] polygon:not([c_etype="pad_outer"]) {fill:#0000FF;}
g[c_partid="part_pad"][layerid="2"] polyline:not([c_etype="pad_outer"]) {stroke:#0000FF;}
g[c_partid="part_pad"][layerid="11"] ellipse:not([c_etype="pad_outer"]) {fill:#C0C0C0;}
g[c_partid="part_pad"][layerid="11"] polygon:not([c_etype="pad_outer"]) {fill:#C0C0C0;}
g[c_partid="part_pad"][layerid="11"] polyline:not([c_etype="pad_outer"]) {stroke:#C0C0C0;}
g[c_partid="part_pad"][layerid="11"] circle {fill:#222222;}
g[c_partid="part_pad"][layerid="11"] > polyline:nth-of-type(2) {stroke:#222222;}
g[c_partid="part_pad"][layerid="11"][c_shape="ELLIPSE"]  polyline:nth-last-of-type(1) {stroke:#222222;}
g[c_partid="part_pad"][layerid="11"][c_shape="RECT"]  polyline:nth-last-of-type(1) {stroke:#222222;}
g[c_partid="part_pad"][layerid="11"][c_shape="POLYGON"]  polyline:nth-last-of-type(1) {stroke:#222222;}
g[c_partid="part_via"] > * + circle, #gCurParts g[c_partid="part_via"] > * + circle {fill:#222222;}
g[c_partid="part_pad"] > polygon[c_etype="pad_outer"], #gCurParts g[c_partid="part_pad"] > polygon[c_etype="pad_outer"] {stroke-linejoin: miter;stroke-miterlimit: 100;}
g[c_partid="part_hole"] > circle {fill: #222222;}path, polyline, polygon {stroke-linejoin:round;}
rect, circle, ellipse, polyline, line, polygon, path {shape-rendering:crispEdges;}
</style>
<rect x="-19.9" y="-33.7" width="83.9" height="90.6" fill="#000000" stroke="none"/><path d="M 22.42473 2.04356 A 0.4 0.4 0 0 1 22.08771 2.2281 0.4 0.4 0 0 1 21.7261 1.9991 L 21.7261 1.9991 A 2.187 2.187 0 0 0 21.54482 1.6858 L 21.54482 1.6858 A 0.4 0.4 0 0 1 21.47327 1.4575 0.4 0.4 0 0 1 21.87327 1.0575 L 21.87327 1.0575 22.36758 1.0575 A 0.4 0.4 0 0 1 22.76758 1.4575 0.4 0.4 0 0 1 22.66703 1.72269 L 22.66703 1.72269 A 2.5805 2.5805 0 0 0 22.42473 2.04356 Z " stroke-width="0" layerid="1" attachedcopperid="rep438" c_shapetype="line" id="rep438_0" class=""></path><path d="M 17.3855 10.70241 A 0.4 0.4 0 0 1 17.11383 10.596 L 16.26783 9.81315 A 0.4 0.4 0 0 1 16.1395 9.51957 L 16.1395 8.4225 16.1395 8.4225 A 0.612 0.612 0 0 0 16.06331 8.12678 0.4 0.4 0 0 1 16.01352 7.9335 0.4 0.4 0 0 1 16.06331 7.74022 L 16.06331 7.74022 A 0.612 0.612 0 0 0 16.1395 7.4445 L 16.1395 6.52506 A 0.4 0.4 0 0 1 16.32517 6.18733 L 18.35545 4.89888 A 0.4 0.4 0 0 1 18.56978 4.83661 0.4 0.4 0 0 1 18.75211 4.88058 L 18.75211 4.88058 A 2.187 2.187 0 0 0 19.749 5.121 2.187 2.187 0 0 0 20.03261 5.10253 0.4 0.4 0 0 1 20.08448 5.09916 0.4 0.4 0 0 1 20.48448 5.49916 0.4 0.4 0 0 1 20.36733 5.782 L 20.36733 5.782 18.97141 7.17791 18.97141 7.17791 A 0.913 0.913 0 0 0 18.8364 7.34996 L 18.8364 7.34996 A 0.4 0.4 0 0 1 18.49441 7.5425 L 18.49441 7.5425 18.3975 7.5425 A 0.612 0.612 0 0 0 17.7855 8.1545 L 17.7855 8.1545 17.7855 10.30241 A 0.4 0.4 0 0 1 17.3855 10.70241 Z " stroke-width="0" layerid="1" attachedcopperid="rep438" c_shapetype="line" id="rep438_1" class=""></path><path d="M 31.4438 30.05124 A 0.4 0.4 0 0 1 31.06594 29.78247 L 31.06594 29.78247 A 2.187 2.187 0 0 0 30.02464 28.56788 L 30.02464 28.56788 A 0.4 0.4 0 0 1 29.81205 28.2145 0.4 0.4 0 0 1 30.21205 27.8145 L 32.6245 27.8145 33.12999 27.8145 A 0.4 0.4 0 0 1 33.50958 28.08835 L 33.50958 28.08835 A 3.7616 3.7616 0 0 0 33.67208 28.49609 L 33.67208 28.49609 A 0.4 0.4 0 0 1 33.70977 28.66561 0.4 0.4 0 0 1 33.33609 29.06474 L 33.33609 29.06474 A 2.187 2.187 0 0 0 31.75864 29.89797 0.4 0.4 0 0 1 31.4438 30.05124 Z " stroke-width="0" layerid="1" attachedcopperid="rep438" c_shapetype="line" id="rep438_2" class=""></path><path d="M 26.31725 43.1405 A 0.4 0.4 0 0 1 25.91725 42.7405 0.4 0.4 0 0 1 26.03104 42.46107 1.7931 1.7931 0 0 0 26.5411 41.20847 L 26.5411 41.20847 26.5411 37.27953 26.5411 37.27953 A 1.7931 1.7931 0 0 0 26.19313 36.21802 0.4 0.4 0 0 1 26.1155 35.98122 L 26.1155 34.7565 26.1155 34.7565 A 1.104 1.104 0 0 0 25.9753 34.21807 0.4 0.4 0 0 1 25.9245 34.02298 L 25.9245 33.05236 A 0.4 0.4 0 0 1 26.04166 32.76952 L 26.82734 31.98384 A 0.4 0.4 0 0 1 27.11018 31.86668 0.4 0.4 0 0 1 27.40238 31.99352 L 27.40238 31.99352 A 2.187 2.187 0 0 0 29 32.687 2.187 2.187 0 0 0 30.72136 31.84903 0.4 0.4 0 0 1 31.0362 31.69576 0.4 0.4 0 0 1 31.41406 31.96453 L 31.41406 31.96453 A 2.187 2.187 0 0 0 31.43687 32.02713 L 31.43687 32.02713 A 0.4 0.4 0 0 1 31.46319 32.16982 0.4 0.4 0 0 1 31.34603 32.45266 L 29.13334 34.66534 A 1.2419 1.2419 0 0 0 28.7696 35.5435 L 28.7696 35.57456 A 0.4 0.4 0 0 1 28.62119 35.88553 L 28.62119 35.88553 A 1.7931 1.7931 0 0 0 27.9559 37.27953 L 27.9559 41.20847 A 1.7931 1.7931 0 0 0 28.46596 42.46107 0.4 0.4 0 0 1 28.57975 42.7405 0.4 0.4 0 0 1 28.17975 43.1405 L 26.31725 43.1405 Z " stroke-width="0" layerid="1" attachedcopperid="rep438" c_shapetype="line" id="rep438_3" class=""></path><path d="M 18.57875 42.7405 A 0.4 0.4 0 0 1 18.17875 43.1405 L 16.31725 43.1405 A 0.4 0.4 0 0 1 15.91725 42.7405 0.4 0.4 0 0 1 16.03104 42.46107 L 16.03104 42.46107 A 1.7931 1.7931 0 0 0 16.5411 41.20847 L 16.5411 41.20847 16.5411 37.27953 16.5411 37.27953 A 1.7931 1.7931 0 0 0 16.16326 36.17851 0.4 0.4 0 0 1 16.07897 35.93289 0.4 0.4 0 0 1 16.19613 35.65005 L 17.54252 34.30366 A 0.4 0.4 0 0 1 17.82536 34.1865 L 19.11164 34.1865 A 0.4 0.4 0 0 1 19.51164 34.5865 0.4 0.4 0 0 1 19.39448 34.86934 L 19.36591 34.89791 A 0.913 0.913 0 0 0 19.10891 35.40601 0.4 0.4 0 0 1 18.90216 35.69847 L 18.90216 35.69847 A 1.7931 1.7931 0 0 0 17.9549 37.27953 L 17.9549 37.27953 17.9549 41.20847 17.9549 41.20847 A 1.7931 1.7931 0 0 0 18.46496 42.46107 0.4 0.4 0 0 1 18.57875 42.7405 Z " stroke-width="0" layerid="1" attachedcopperid="rep438" c_shapetype="line" id="rep438_4" class=""></path><path d="M 21.31725 43.1405 A 0.4 0.4 0 0 1 20.91725 42.7405 0.4 0.4 0 0 1 21.03104 42.46107 1.7931 1.7931 0 0 0 21.5411 41.20847 L 21.5411 41.20847 21.5411 37.27953 21.5411 37.27953 A 1.7931 1.7931 0 0 0 21.16326 36.17851 0.4 0.4 0 0 1 21.07897 35.93289 0.4 0.4 0 0 1 21.19613 35.65005 L 23.41566 33.43052 A 0.4 0.4 0 0 1 23.6985 33.31336 0.4 0.4 0 0 1 24.0985 33.71336 L 24.0985 34.02298 A 0.4 0.4 0 0 1 24.0477 34.21807 1.104 1.104 0 0 0 23.9075 34.7565 L 23.9075 34.7565 23.9075 35.47099 A 0.4 0.4 0 0 1 23.73376 35.80085 1.7931 1.7931 0 0 0 22.9549 37.27953 L 22.9549 37.27953 22.9549 41.20847 22.9549 41.20847 A 1.7931 1.7931 0 0 0 23.46496 42.46107 0.4 0.4 0 0 1 23.57875 42.7405 0.4 0.4 0 0 1 23.17875 43.1405 L 21.31725 43.1405 Z " stroke-width="0" layerid="1" attachedcopperid="rep438" c_shapetype="line" id="rep438_5" class=""></path><path d="M 31.31825 43.1405 A 0.4 0.4 0 0 1 30.91825 42.7405 0.4 0.4 0 0 1 31.03204 42.46107 L 31.03204 42.46107 A 1.7931 1.7931 0 0 0 31.5421 41.20847 L 31.5421 37.27953 A 1.7931 1.7931 0 0 0 31.3154 36.40684 0.4 0.4 0 0 1 31.26483 36.21217 0.4 0.4 0 0 1 31.38199 35.92932 L 33.84175 33.46957 A 0.4 0.4 0 0 1 34.02492 33.36502 2.187 2.187 0 0 0 34.37077 33.24437 L 34.37077 33.24437 A 0.4 0.4 0 0 1 34.53369 33.20969 0.4 0.4 0 0 1 34.78644 33.29966 L 34.78644 33.29966 A 0.4 0.4 0 0 1 34.77433 33.20195 0.4 0.4 0 0 1 34.91235 32.89968 L 34.91235 32.89968 A 2.187 2.187 0 0 0 35.667 31.247 2.187 2.187 0 0 0 35.65091 30.98223 L 35.65091 30.98223 A 0.4 0.4 0 0 1 35.64797 30.93381 0.4 0.4 0 0 1 36.04797 30.53381 0.4 0.4 0 0 1 36.14709 30.54628 L 36.14709 30.54628 A 3.7616 3.7616 0 0 0 37.0792 30.6636 3.7616 3.7616 0 0 0 40.8408 26.902 3.7616 3.7616 0 0 0 37.0792 23.1404 3.7616 3.7616 0 0 0 33.50988 25.71475 0.4 0.4 0 0 1 33.13032 25.9885 L 32.6245 25.9885 29.85836 25.9885 A 0.4 0.4 0 0 1 29.45836 25.5885 0.4 0.4 0 0 1 29.57552 25.30566 L 33.80968 21.0715 A 0.4 0.4 0 0 1 34.04286 20.95744 L 34.04286 20.95744 A 0.913 0.913 0 0 0 34.57519 20.69699 L 34.57519 20.69699 34.93214 20.33992 A 0.4 0.4 0 0 1 35.21503 20.22272 0.4 0.4 0 0 1 35.39421 20.2651 3.7616 3.7616 0 0 0 37.0792 20.6636 3.7616 3.7616 0 0 0 40.8408 16.902 3.7616 3.7616 0 0 0 37.0792 13.1404 3.7616 3.7616 0 0 0 33.3176 16.902 3.7616 3.7616 0 0 0 33.70967 18.5741 0.4 0.4 0 0 1 33.75136 18.7519 0.4 0.4 0 0 1 33.40837 19.14782 L 33.40837 19.14782 A 0.913 0.913 0 0 0 32.89291 19.40591 L 32.89291 19.40591 20.05548 32.24334 A 0.4 0.4 0 0 1 19.77264 32.3605 L 17.2815 32.3605 A 0.913 0.913 0 0 0 16.63591 32.62791 L 16.63591 32.62791 14.36591 34.89791 14.36591 34.89791 A 0.913 0.913 0 0 0 14.10891 35.40601 L 14.10891 35.40601 A 0.4 0.4 0 0 1 13.90216 35.69847 L 13.90216 35.69847 A 1.7931 1.7931 0 0 0 12.9549 37.27953 L 12.9549 41.20847 A 1.7931 1.7931 0 0 0 13.46496 42.46107 L 13.46496 42.46107 A 0.4 0.4 0 0 1 13.57875 42.7405 0.4 0.4 0 0 1 13.17875 43.1405 L 4.3625 43.1405 1.4375 43.1405 A 0.4 0.4 0 0 1 1.0375 42.7405 L 1.0375 1.4575 A 0.4 0.4 0 0 1 1.4375 1.0575 L 4.3625 1.0575 17.62473 1.0575 A 0.4 0.4 0 0 1 18.02473 1.4575 0.4 0.4 0 0 1 17.95318 1.6858 L 17.95318 1.6858 A 2.187 2.187 0 0 0 17.562 2.934 2.187 2.187 0 0 0 17.56318 3.00583 L 17.56318 3.00583 A 0.4 0.4 0 0 1 17.563 3.00124 L 17.5634 3.01897 A 0.4 0.4 0 0 1 17.37773 3.3567 L 17.37773 3.3567 15.72076 4.40823 A 0.4 0.4 0 0 1 15.50643 4.4705 L 12.9695 4.4705 A 0.612 0.612 0 0 0 12.3575 5.0825 L 12.3575 7.4445 12.3575 7.4445 A 0.612 0.612 0 0 0 12.43369 7.74022 0.4 0.4 0 0 1 12.48348 7.9335 0.4 0.4 0 0 1 12.43369 8.12678 L 12.43369 8.12678 A 0.612 0.612 0 0 0 12.3575 8.4225 L 12.3575 10.7845 A 0.612 0.612 0 0 0 12.9695 11.3965 L 12.9695 11.3965 13.58772 11.3965 A 0.4 0.4 0 0 1 13.94759 11.62186 L 13.94759 11.62186 A 0.4 0.4 0 0 1 14.30745 11.3965 L 14.57125 11.3965 A 0.4 0.4 0 0 1 14.84292 11.50291 L 15.46022 12.07413 A 0.4 0.4 0 0 1 15.58855 12.36772 L 15.58855 13.79922 16.58922 13.79922 A 0.4 0.4 0 0 1 16.9411 13.58943 0.4 0.4 0 0 1 17.21277 13.69585 L 17.82757 14.26475 A 0.4 0.4 0 0 1 17.9559 14.55834 L 17.9559 17.58647 A 1.7931 1.7931 0 0 0 19.749 19.37957 1.7931 1.7931 0 0 0 21.5421 17.58647 L 21.5421 14.50546 A 0.4 0.4 0 0 1 21.9421 14.10546 0.4 0.4 0 0 1 22.22494 14.22262 L 22.83874 14.83642 A 0.4 0.4 0 0 1 22.9559 15.11926 L 22.9559 17.58647 A 1.7931 1.7931 0 0 0 24.749 19.37957 1.7931 1.7931 0 0 0 26.5421 17.58647 L 26.5421 13.65753 A 1.7931 1.7931 0 0 0 25.58345 12.07043 L 25.58345 12.07043 A 0.4 0.4 0 0 1 25.42609 11.92132 L 25.42609 11.92132 A 0.4 0.4 0 0 1 25.312 11.93793 0.4 0.4 0 0 1 25.20932 11.92453 L 25.20932 11.92453 A 1.7931 1.7931 0 0 0 24.77157 11.86458 L 24.77157 11.86458 A 0.4 0.4 0 0 1 24.37661 11.46461 0.4 0.4 0 0 1 24.50898 11.16733 L 24.50898 11.16733 A 0.612 0.612 0 0 0 24.64316 10.99352 L 24.64316 10.99352 A 0.4 0.4 0 0 1 24.9985 10.7772 0.4 0.4 0 0 1 25.35384 10.99352 0.612 0.612 0 0 0 25.54342 11.21167 L 25.54342 11.21167 A 0.4 0.4 0 0 1 25.65552 11.333 L 25.65552 11.333 A 0.4 0.4 0 0 1 25.7696 11.31639 0.4 0.4 0 0 1 25.82016 11.31959 L 25.82016 11.31959 A 0.612 0.612 0 0 0 25.8975 11.3245 L 26.238 11.3245 26.238 10.323 25.1115 10.323 24.8855 10.323 24.8855 10.323 23.759 10.323 23.759 11.32714 A 0.4 0.4 0 0 1 24.11311 11.7245 0.4 0.4 0 0 1 23.90205 12.07707 1.7931 1.7931 0 0 0 23.50539 12.36577 L 23.50539 12.36577 A 0.4 0.4 0 0 1 23.22797 12.47761 0.4 0.4 0 0 1 22.94513 12.36045 L 22.59202 12.00734 22.19516 11.61048 A 0.4 0.4 0 0 1 22.078 11.32764 L 22.078 10.323 21.7715 10.323 A 0.4 0.4 0 0 1 21.3715 9.923 L 21.3715 8.944 A 0.4 0.4 0 0 1 21.7715 8.544 L 22.078 8.544 22.078 7.53505 A 0.4 0.4 0 0 1 21.75486 7.1425 0.4 0.4 0 0 1 21.87202 6.85966 L 21.87202 6.85966 22.93815 5.79353 A 0.4 0.4 0 0 1 23.22099 5.67637 0.4 0.4 0 0 1 23.40592 5.72168 L 23.40592 5.72168 A 2.5805 2.5805 0 0 0 24.5989 6.014 2.5805 2.5805 0 0 0 27.1794 3.4335 2.5805 2.5805 0 0 0 26.53077 1.72269 L 26.53077 1.72269 A 0.4 0.4 0 0 1 26.43022 1.4575 0.4 0.4 0 0 1 26.83022 1.0575 L 26.83022 1.0575 28.66678 1.0575 A 0.4 0.4 0 0 1 29.06678 1.4575 0.4 0.4 0 0 1 28.96623 1.72269 L 28.96623 1.72269 A 2.5805 2.5805 0 0 0 28.3176 3.4335 2.5805 2.5805 0 0 0 29.53344 5.62363 L 29.53344 5.62363 A 0.4 0.4 0 0 1 29.72191 5.96312 0.4 0.4 0 0 1 29.71986 6.00353 L 29.60005 7.18353 A 0.4 0.4 0 0 1 29.21609 7.54287 L 29.21609 7.54287 A 0.612 0.612 0 0 0 28.94178 7.61869 L 28.94178 7.61869 A 0.4 0.4 0 0 1 28.7485 7.66848 0.4 0.4 0 0 1 28.55522 7.61869 L 28.55522 7.61869 A 0.612 0.612 0 0 0 28.2595 7.5425 L 27.919 7.5425 27.919 8.544 28.2255 8.544 A 0.4 0.4 0 0 1 28.6255 8.944 L 28.6255 9.923 A 0.4 0.4 0 0 1 28.2255 10.323 L 27.919 10.323 27.919 11.3245 28.2595 11.3245 A 0.612 0.612 0 0 0 28.55522 11.24831 L 28.55522 11.24831 A 0.4 0.4 0 0 1 28.7485 11.19852 0.4 0.4 0 0 1 28.94178 11.24831 L 28.94248 11.2487 A 0.4 0.4 0 0 1 29.14966 11.59915 0.4 0.4 0 0 1 29.14761 11.63956 L 29.13618 11.75213 A 0.4 0.4 0 0 1 28.9224 12.06681 L 28.9224 12.06681 A 1.7931 1.7931 0 0 0 27.9549 13.65853 L 27.9549 17.58747 A 1.7931 1.7931 0 0 0 29.748 19.38057 1.7931 1.7931 0 0 0 31.5411 17.58747 L 31.5411 17.58747 31.5411 13.65853 31.5411 13.65853 A 1.7931 1.7931 0 0 0 31.04462 12.42 0.4 0.4 0 0 1 30.93387 12.14371 0.4 0.4 0 0 1 30.93592 12.1033 L 30.97848 11.68409 A 0.4 0.4 0 0 1 31.37643 11.3245 L 31.5995 11.3245 A 0.612 0.612 0 0 0 32.2115 10.7125 L 32.2115 8.1545 A 0.612 0.612 0 0 0 31.74418 7.55985 L 31.74418 7.55985 A 0.4 0.4 0 0 1 31.43875 7.17119 0.4 0.4 0 0 1 31.44079 7.13078 L 31.53656 6.18759 A 0.4 0.4 0 0 1 31.79542 5.85296 L 31.79542 5.85296 A 2.5805 2.5805 0 0 0 32.94091 5.01018 L 32.94091 5.01018 A 0.4 0.4 0 0 1 33.25756 4.85457 0.4 0.4 0 0 1 33.65756 5.25457 0.4 0.4 0 0 1 33.62489 5.41292 L 33.62489 5.41292 A 3.7616 3.7616 0 0 0 33.3176 6.902 3.7616 3.7616 0 0 0 37.0792 10.6636 3.7616 3.7616 0 0 0 40.8408 6.902 3.7616 3.7616 0 0 0 37.0792 3.1404 3.7616 3.7616 0 0 0 34.00837 4.72952 0.4 0.4 0 0 1 33.68183 4.89851 0.4 0.4 0 0 1 33.28183 4.49851 0.4 0.4 0 0 1 33.30824 4.35558 L 33.30824 4.35558 A 2.5805 2.5805 0 0 0 33.4786 3.4335 2.5805 2.5805 0 0 0 32.82997 1.72269 L 32.82997 1.72269 A 0.4 0.4 0 0 1 32.72942 1.4575 0.4 0.4 0 0 1 33.12942 1.0575 L 33.12942 1.0575 42.7205 1.0575 A 0.4 0.4 0 0 1 43.1205 1.4575 L 43.1205 42.7405 A 0.4 0.4 0 0 1 42.7205 43.1405 L 31.31825 43.1405 Z M 37.0792 40.6636 A 3.7616 3.7616 0 0 0 40.8408 36.902 3.7616 3.7616 0 0 0 37.0792 33.1404 3.7616 3.7616 0 0 0 35.35742 33.55759 0.4 0.4 0 0 1 35.17433 33.60195 0.4 0.4 0 0 1 34.92158 33.51198 L 34.92158 33.51198 A 0.4 0.4 0 0 1 34.93369 33.60969 0.4 0.4 0 0 1 34.77836 33.92614 L 34.77836 33.92614 A 3.7616 3.7616 0 0 0 33.3176 36.902 3.7616 3.7616 0 0 0 37.0792 40.6636 Z M 7.0792 30.6951 A 3.7616 3.7616 0 0 0 10.8408 26.9335 3.7616 3.7616 0 0 0 7.0792 23.1719 3.7616 3.7616 0 0 0 3.3176 26.9335 3.7616 3.7616 0 0 0 7.0792 30.6951 Z M 3.3176 16.9335 A 3.7616 3.7616 0 0 0 7.0792 20.6951 3.7616 3.7616 0 0 0 10.8408 16.9335 3.7616 3.7616 0 0 0 7.0792 13.1719 3.7616 3.7616 0 0 0 3.3176 16.9335 Z M 7.0792 10.6951 A 3.7616 3.7616 0 0 0 10.8408 6.9335 3.7616 3.7616 0 0 0 7.0792 3.1719 3.7616 3.7616 0 0 0 3.3176 6.9335 3.7616 3.7616 0 0 0 7.0792 10.6951 Z M 23.759 7.5425 L 23.759 8.544 24.8855 8.544 25.1115 8.544 26.238 8.544 26.238 7.5425 25.8975 7.5425 A 0.612 0.612 0 0 0 25.35384 7.87348 L 25.35384 7.87348 A 0.4 0.4 0 0 1 24.9985 8.0898 0.4 0.4 0 0 1 24.64316 7.87348 L 24.64316 7.87348 A 0.612 0.612 0 0 0 24.0995 7.5425 L 23.759 7.5425 Z M 3.78986 38.7583 A 3.7616 3.7616 0 0 0 5.2544 40.22284 L 5.2544 40.22284 5.2544 38.7583 3.78986 38.7583 Z M 8.904 38.7583 L 8.904 40.22284 A 3.7616 3.7616 0 0 0 10.36854 38.7583 L 8.904 38.7583 Z M 5.2544 33.64416 A 3.7616 3.7616 0 0 0 3.78986 35.1087 L 5.2544 35.1087 5.2544 33.64416 Z M 10.36854 35.1087 A 3.7616 3.7616 0 0 0 8.904 33.64416 L 8.904 35.1087 10.36854 35.1087 Z M 13.90745 13.79922 L 13.90745 12.03687 A 0.4 0.4 0 0 1 13.79935 12.13593 L 13.79935 12.13593 A 1.7931 1.7931 0 0 0 12.9549 13.65753 L 12.9549 13.79922 13.90745 13.79922 Z M 15.58855 17.44478 L 15.58855 19.17035 A 1.7931 1.7931 0 0 0 16.5411 17.58647 L 16.5411 17.58647 16.5411 17.44478 15.58855 17.44478 Z M 12.9549 17.58647 A 1.7931 1.7931 0 0 0 13.90745 19.17035 L 13.90745 19.17035 13.90745 17.44478 12.9549 17.44478 12.9549 17.58647 Z " stroke-width="0" layerid="1" attachedcopperid="rep438" c_shapetype="line" id="rep438_6" class=""></path><polyline points="25.0115 37.4135 25.0115 32.5085 27.02 30.5 29 30.5" stroke-width="0.602"  stroke-linecap="round" fill="none" layerid="1" net="CLKO" id="gge2191" locked="0" /><polyline points="25.0115 37.4135 25.0115 34.7565" stroke-width="0.984"  stroke-linecap="round" fill="none" layerid="1" net="CLKO" id="gge2192" locked="0" /><polyline points="20.0115 37.4135 20.0115 35.5435 28.6535 26.9015 32.6245 26.9015 37.0785 26.9015" stroke-width="0.602"  stroke-linecap="round" fill="none" layerid="1" net="SCL" id="gge2193" locked="0" /><polyline points="30.0115 37.4135 30.0115 35.5435 33.4795 32.0755 33.4795 31.2465" stroke-width="1.2598"  stroke-linecap="round" fill="none" layerid="1" net="VCC" id="gge2194" locked="0" /><polyline points="20.0115 16.1535 20.0115 14.7815 14.5595 9.7365" stroke-width="0.984"  stroke-linecap="round" fill="none" layerid="1" net="U1_3" id="gge2195" locked="0" /><polyline points="19.7485 2.9335 14.5485 6.2335" stroke-width="0.602"  stroke-linecap="round" fill="none" layerid="1" net="TRIG" id="gge2196" locked="0" /><polyline points="27.0785 9.4335 22.9185 9.4335" stroke-width="1.2598"  stroke-linecap="round" fill="none" layerid="1" net="GND" id="gge2197" locked="0" /><polyline points="15.0115 37.4135 15.0115 35.5435 17.2815 33.2735 20.3165 33.2735 33.5385 20.0515 33.9295 20.0515 37.0785 16.9015" stroke-width="0.602"  stroke-linecap="round" fill="none" layerid="1" net="SDA" id="gge2198" locked="0" /><polyline points="24.88 16.0435 24.88 15.5865 19.617 10.3235 19.617 7.8235 24.007 3.4335 24.5985 3.4335" stroke-width="0.602"  stroke-linecap="round" fill="none" layerid="1" net="U1_2" id="gge2199" locked="0" /><polyline points="27.2485 11.9335 27.2485 19.4335" stroke-width="1.2598"  stroke-linecap="round" fill="none" layerid="1" net="GND" id="gge2200" locked="0" /><polyline points="30.8985 3.4335 30.0115 12.1695 30.0115 16.1535" stroke-width="0.602"  stroke-linecap="round" fill="none" layerid="1" net="U1_1" id="gge2201" locked="0" /><g c_partid="part_pad" c_etype="pinpart" c_origin="19.579,9.434" layerid="1" number="2" net="U1_2" plated ="Y"  id="gge1073" locked="0" c_rotation="180" c_width="2.362" c_height="2.559" title="U1_2" c_shape="RECT" pasteexpansion="0" solderexpansion="0.4"><polygon  c_etype="pad_shell" points="20.7595 10.7125 18.3975 10.7125 18.3975 8.1545 20.7595 8.1545" layerid="1" stroke-width="0" /><circle c_etype="pad_hole" cx="19.5785" cy="9.4335" r="0" layerid="1" stroke-width="0"/></g><g c_partid="part_pad" c_etype="pinpart" c_origin="22.919,9.434" layerid="1" number="1" net="GND" plated ="Y"  id="gge1078" locked="0" c_rotation="180" c_width="2.362" c_height="2.559" title="GND" c_shape="RECT" pasteexpansion="0" solderexpansion="0.4"><polygon  c_etype="pad_shell" points="24.0995 10.7125 21.7375 10.7125 21.7375 8.1545 24.0995 8.1545" layerid="1" stroke-width="0" /><circle c_etype="pad_hole" cx="22.9185" cy="9.4335" r="0" layerid="1" stroke-width="0"/></g><g c_partid="part_pad" c_etype="pinpart" c_origin="30.419,9.434" layerid="1" number="2" net="U1_1" plated ="Y"  id="gge1292" locked="0" c_rotation="0" c_width="2.362" c_height="2.559" title="U1_1" c_shape="RECT" pasteexpansion="0" solderexpansion="0.4"><polygon  c_etype="pad_shell" points="29.2375 8.1545 31.5995 8.1545 31.5995 10.7125 29.2375 10.7125" layerid="1" stroke-width="0" /><circle c_etype="pad_hole" cx="30.4185" cy="9.4335" r="0" layerid="1" stroke-width="0"/></g><g c_partid="part_pad" c_etype="pinpart" c_origin="27.079,9.434" layerid="1" number="1" net="GND" plated ="Y"  id="gge1297" locked="0" c_rotation="0" c_width="2.362" c_height="2.559" title="GND" c_shape="RECT" pasteexpansion="0" solderexpansion="0.4"><polygon  c_etype="pad_shell" points="25.8975 8.1545 28.2595 8.1545 28.2595 10.7125 25.8975 10.7125" layerid="1" stroke-width="0" /><circle c_etype="pad_hole" cx="27.0785" cy="9.4335" r="0" layerid="1" stroke-width="0"/></g><g c_partid="part_pad" c_etype="pinpart" c_origin="14.249,9.604" layerid="1" number="2" net="U1_3" plated ="Y"  id="gge1426" locked="0" c_rotation="270" c_width="2.362" c_height="2.559" title="U1_3" c_shape="RECT" pasteexpansion="0" solderexpansion="0.4"><polygon  c_etype="pad_shell" points="15.5275 8.4225 15.5275 10.7845 12.9695 10.7845 12.9695 8.4225" layerid="1" stroke-width="0" /><circle c_etype="pad_hole" cx="14.2485" cy="9.6035" r="0" layerid="1" stroke-width="0"/></g><g c_partid="part_pad" c_etype="pinpart" c_origin="14.249,6.264" layerid="1" number="1" net="TRIG" plated ="Y"  id="gge1431" locked="0" c_rotation="270" c_width="2.362" c_height="2.559" title="TRIG" c_shape="RECT" pasteexpansion="0" solderexpansion="0.4"><polygon  c_etype="pad_shell" points="15.5275 5.0825 15.5275 7.4445 12.9695 7.4445 12.9695 5.0825" layerid="1" stroke-width="0" /><circle c_etype="pad_hole" cx="14.2485" cy="6.2635" r="0" layerid="1" stroke-width="0"/></g><g c_partid="part_pad" c_etype="pinpart" c_origin="29.749,15.623" layerid="1" number="1" net="U1_1" plated ="Y"  id="gge657" locked="0" c_rotation="0" c_width="2.3622" c_height="6.2992" title="U1_1" c_shape="OVAL" pasteexpansion="0" solderexpansion="0.4"><polyline  c_etype="pad_shell" points="29.749 13.6545 29.749 17.5915" layerid="1" stroke-width="2.3622" /><circle c_etype="pad_hole" cx="29.7485" cy="15.6225" r="0" layerid="1" stroke-width="0"/></g><g c_partid="part_pad" c_etype="pinpart" c_origin="24.749,15.623" layerid="1" number="2" net="U1_2" plated ="Y"  id="gge662" locked="0" c_rotation="0" c_width="2.3622" c_height="6.2992" title="U1_2" c_shape="OVAL" pasteexpansion="0" solderexpansion="0.4"><polyline  c_etype="pad_shell" points="24.749 13.6545 24.749 17.5915" layerid="1" stroke-width="2.3622" /><circle c_etype="pad_hole" cx="24.7485" cy="15.6225" r="0" layerid="1" stroke-width="0"/></g><g c_partid="part_pad" c_etype="pinpart" c_origin="19.749,15.623" layerid="1" number="3" net="U1_3" plated ="Y"  id="gge667" locked="0" c_rotation="0" c_width="2.3622" c_height="6.2992" title="U1_3" c_shape="OVAL" pasteexpansion="0" solderexpansion="0.4"><polyline  c_etype="pad_shell" points="19.749 13.6545 19.749 17.5915" layerid="1" stroke-width="2.3622" /><circle c_etype="pad_hole" cx="19.7485" cy="15.6225" r="0" layerid="1" stroke-width="0"/></g><g c_partid="part_pad" c_etype="pinpart" c_origin="14.749,15.623" layerid="1" number="4" net="GND" plated ="Y"  id="gge672" locked="0" c_rotation="0" c_width="2.3622" c_height="6.2992" title="GND" c_shape="OVAL" pasteexpansion="0" solderexpansion="0.4"><polyline  c_etype="pad_shell" points="14.749 13.6545 14.749 17.5915" layerid="1" stroke-width="2.3622" /><circle c_etype="pad_hole" cx="14.7485" cy="15.6225" r="0" layerid="1" stroke-width="0"/></g><g c_partid="part_pad" c_etype="pinpart" c_origin="29.749,39.245" layerid="1" number="8" net="VCC" plated ="Y"  id="gge677" locked="0" c_rotation="0" c_width="2.3622" c_height="6.2992" title="VCC" c_shape="OVAL" pasteexpansion="0" solderexpansion="0.4"><polyline  c_etype="pad_shell" points="29.749 37.2765 29.749 41.2135" layerid="1" stroke-width="2.3622" /><circle c_etype="pad_hole" cx="29.7485" cy="39.2445" r="0" layerid="1" stroke-width="0"/></g><g c_partid="part_pad" c_etype="pinpart" c_origin="24.749,39.245" layerid="1" number="7" net="CLKO" plated ="Y"  id="gge682" locked="0" c_rotation="0" c_width="2.3622" c_height="6.2992" title="CLKO" c_shape="OVAL" pasteexpansion="0" solderexpansion="0.4"><polyline  c_etype="pad_shell" points="24.749 37.2765 24.749 41.2135" layerid="1" stroke-width="2.3622" /><circle c_etype="pad_hole" cx="24.7485" cy="39.2445" r="0" layerid="1" stroke-width="0"/></g><g c_partid="part_pad" c_etype="pinpart" c_origin="19.749,39.245" layerid="1" number="6" net="SCL" plated ="Y"  id="gge687" locked="0" c_rotation="0" c_width="2.3622" c_height="6.2992" title="SCL" c_shape="OVAL" pasteexpansion="0" solderexpansion="0.4"><polyline  c_etype="pad_shell" points="19.749 37.2765 19.749 41.2135" layerid="1" stroke-width="2.3622" /><circle c_etype="pad_hole" cx="19.7485" cy="39.2445" r="0" layerid="1" stroke-width="0"/></g><g c_partid="part_pad" c_etype="pinpart" c_origin="14.749,39.245" layerid="1" number="5" net="SDA" plated ="Y"  id="gge692" locked="0" c_rotation="0" c_width="2.3622" c_height="6.2992" title="SDA" c_shape="OVAL" pasteexpansion="0" solderexpansion="0.4"><polyline  c_etype="pad_shell" points="14.749 37.2765 14.749 41.2135" layerid="1" stroke-width="2.3622" /><circle c_etype="pad_hole" cx="14.7485" cy="39.2445" r="0" layerid="1" stroke-width="0"/></g><g c_partid="part_pad" c_etype="pinpart" c_origin="24.599,3.434" layerid="11" number="1" net="U1_2" plated ="Y"  id="gge1592" locked="0" c_rotation="0" c_width="3.937" c_height="3.937" title="U1_2" c_shape="ELLIPSE" pasteexpansion="0" solderexpansion="0.4"><ellipse c_etype="pad_shell" cx="24.599" cy="3.434" rx="1.9685" ry="1.9685" layerid="11" stroke-width="0"/><circle c_etype="pad_hole" cx="24.5989" cy="3.4335" r="0.9843" layerid="11" stroke-width="0"/></g><g c_partid="part_pad" c_etype="pinpart" c_origin="30.899,3.434" layerid="11" number="2" net="U1_1" plated ="Y"  id="gge1597" locked="0" c_rotation="0" c_width="3.937" c_height="3.937" title="U1_1" c_shape="ELLIPSE" pasteexpansion="0" solderexpansion="0.4"><ellipse c_etype="pad_shell" cx="30.899" cy="3.434" rx="1.9685" ry="1.9685" layerid="11" stroke-width="0"/><circle c_etype="pad_hole" cx="30.8981" cy="3.4335" r="0.9843" layerid="11" stroke-width="0"/></g><g c_partid="part_pad" c_etype="pinpart" c_origin="7.08,6.934" layerid="11" number="1" net="VBUS" plated ="Y"  id="gge501" locked="0" c_rotation="270" c_width="6.2992" c_height="6.2992" title="VBUS" c_shape="ELLIPSE" pasteexpansion="0" solderexpansion="0.4"><ellipse c_etype="pad_shell" cx="7.08" cy="6.934" rx="3.1496" ry="3.1496" layerid="11" stroke-width="0"/><circle c_etype="pad_hole" cx="7.0792" cy="6.9335" r="1.5748" layerid="11" stroke-width="0"/></g><g c_partid="part_pad" c_etype="pinpart" c_origin="7.08,16.934" layerid="11" number="2" net="SW" plated ="Y"  id="gge506" locked="0" c_rotation="0" c_width="6.2992" c_height="6.2992" title="SW" c_shape="ELLIPSE" pasteexpansion="0" solderexpansion="0.4"><ellipse c_etype="pad_shell" cx="7.08" cy="16.934" rx="3.1496" ry="3.1496" layerid="11" stroke-width="0"/><circle c_etype="pad_hole" cx="7.0792" cy="16.9335" r="1.5748" layerid="11" stroke-width="0"/></g><g c_partid="part_pad" c_etype="pinpart" c_origin="7.08,26.934" layerid="11" number="3" net="CLKO" plated ="Y"  id="gge511" locked="0" c_rotation="0" c_width="6.2992" c_height="6.2992" title="CLKO" c_shape="ELLIPSE" pasteexpansion="0" solderexpansion="0.4"><ellipse c_etype="pad_shell" cx="7.08" cy="26.934" rx="3.1496" ry="3.1496" layerid="11" stroke-width="0"/><circle c_etype="pad_hole" cx="7.0792" cy="26.9335" r="1.5748" layerid="11" stroke-width="0"/></g><g c_partid="part_pad" c_etype="pinpart" c_origin="7.08,36.934" layerid="11" number="4" net="GND" plated ="Y"  id="gge516" locked="0" c_rotation="0" c_width="6.2992" c_height="6.2992" title="GND" c_shape="ELLIPSE" pasteexpansion="0" solderexpansion="0.4"><ellipse c_etype="pad_shell" cx="7.08" cy="36.934" rx="3.1496" ry="3.1496" layerid="11" stroke-width="0"/><circle c_etype="pad_hole" cx="7.0792" cy="36.9335" r="1.5748" layerid="11" stroke-width="0"/></g><g c_partid="part_pad" c_etype="pinpart" c_origin="37.08,36.903" layerid="11" number="1" net="ON" plated ="Y"  id="gge526" locked="0" c_rotation="90" c_width="6.2992" c_height="6.2992" title="ON" c_shape="ELLIPSE" pasteexpansion="0" solderexpansion="0.4"><ellipse c_etype="pad_shell" cx="37.08" cy="36.903" rx="3.1496" ry="3.1496" layerid="11" stroke-width="0"/><circle c_etype="pad_hole" cx="37.0792" cy="36.902" r="1.5748" layerid="11" stroke-width="0"/></g><g c_partid="part_pad" c_etype="pinpart" c_origin="37.08,26.903" layerid="11" number="2" net="SCL" plated ="Y"  id="gge531" locked="0" c_rotation="180" c_width="6.2992" c_height="6.2992" title="SCL" c_shape="ELLIPSE" pasteexpansion="0" solderexpansion="0.4"><ellipse c_etype="pad_shell" cx="37.08" cy="26.903" rx="3.1496" ry="3.1496" layerid="11" stroke-width="0"/><circle c_etype="pad_hole" cx="37.0792" cy="26.902" r="1.5748" layerid="11" stroke-width="0"/></g><g c_partid="part_pad" c_etype="pinpart" c_origin="37.08,16.903" layerid="11" number="3" net="SDA" plated ="Y"  id="gge536" locked="0" c_rotation="180" c_width="6.2992" c_height="6.2992" title="SDA" c_shape="ELLIPSE" pasteexpansion="0" solderexpansion="0.4"><ellipse c_etype="pad_shell" cx="37.08" cy="16.903" rx="3.1496" ry="3.1496" layerid="11" stroke-width="0"/><circle c_etype="pad_hole" cx="37.0792" cy="16.902" r="1.5748" layerid="11" stroke-width="0"/></g><g c_partid="part_pad" c_etype="pinpart" c_origin="37.08,6.903" layerid="11" number="4" net="VCC" plated ="Y"  id="gge541" locked="0" c_rotation="180" c_width="6.2992" c_height="6.2992" title="VCC" c_shape="ELLIPSE" pasteexpansion="0" solderexpansion="0.4"><ellipse c_etype="pad_shell" cx="37.08" cy="6.903" rx="3.1496" ry="3.1496" layerid="11" stroke-width="0"/><circle c_etype="pad_hole" cx="37.0792" cy="6.902" r="1.5748" layerid="11" stroke-width="0"/></g><g c_partid="part_via" c_etype="pinpart" c_shapetype="group" net="VCC" c_origin="33.48,31.247" layerid="11" id="rep328" locked="0" solderexpansion=""><circle cx="33.48" cy="31.247" r="1.575" stroke-width="0" c_etype="pad_shell"/><circle cx="33.48" cy="31.247" r="0.787"  stroke-width="0" c_etype="pad_hole"/></g><g c_partid="part_via" c_etype="pinpart" c_shapetype="group" net="CLKO" c_origin="29,30.5" layerid="11" id="rep392" locked="0" solderexpansion=""><circle cx="29" cy="30.5" r="1.575" stroke-width="0" c_etype="pad_shell"/><circle cx="29" cy="30.5" r="0.787"  stroke-width="0" c_etype="pad_hole"/></g><g c_partid="part_via" c_etype="pinpart" c_shapetype="group" net="TRIG" c_origin="19.749,2.934" layerid="11" id="rep429" locked="0" solderexpansion=""><circle cx="19.749" cy="2.934" r="1.575" stroke-width="0" c_etype="pad_shell"/><circle cx="19.749" cy="2.934" r="0.787"  stroke-width="0" c_etype="pad_hole"/></g><polyline points="21.9785 11.1335 24.4785 11.1335 24.4785 7.7335 22.3785 7.7335 21.9785 7.7335" stroke-width="0.6"  stroke-linecap="round" fill="none" layerid="3" net="" id="gge1071" locked="0" /><polyline points="20.4785 7.7335 18.0785 7.7335 18.0785 11.1335 20.1785 11.1335 20.4785 11.1335" stroke-width="0.6"  stroke-linecap="round" fill="none" layerid="3" net="" id="gge1072" locked="0" /><polyline points="28.0185 7.7335 25.5185 7.7335 25.5185 11.1335 27.6185 11.1335 28.0185 11.1335" stroke-width="0.6"  stroke-linecap="round" fill="none" layerid="3" net="" id="gge1290" locked="0" /><polyline points="29.5185 11.1335 31.9185 11.1335 31.9185 7.7335 29.8185 7.7335 29.5185 7.7335" stroke-width="0.6"  stroke-linecap="round" fill="none" layerid="3" net="" id="gge1291" locked="0" /><polyline points="15.9485 7.2035 15.9485 4.7035 12.5485 4.7035 12.5485 6.8035 12.5485 7.2035" stroke-width="0.6"  stroke-linecap="round" fill="none" layerid="3" net="" id="gge1424" locked="0" /><polyline points="12.5485 8.7035 12.5485 11.1035 15.9485 11.1035 15.9485 9.0035 15.9485 8.7035" stroke-width="0.6"  stroke-linecap="round" fill="none" layerid="3" net="" id="gge1425" locked="0" /><polyline points="32.091 34.7335 12.406 34.7335" stroke-width="1"  stroke-linecap="round" fill="none" layerid="3" net="" id="gge652" locked="0" /><polyline points="32.091 20.2335 12.406 20.2335" stroke-width="1"  stroke-linecap="round" fill="none" layerid="3" net="" id="gge653" locked="0" /><polyline points="12.406 34.7335 12.406 20.2335" stroke-width="1"  stroke-linecap="round" fill="none" layerid="3" net="" id="gge654" locked="0" /><polyline points="32.091 34.7335 32.091 29.4335" stroke-width="1"  stroke-linecap="round" fill="none" layerid="3" net="" id="gge655" locked="0" /><polyline points="32.2485 25.4335 32.2485 20.2335" stroke-width="1"  stroke-linecap="round" fill="none" layerid="3" net="" id="gge656" locked="0" /><g c_partid="part_pcbtext" c_etype="pinpart" c_origin="14,33" c_rotation="0" c_mirror="0" id="gge2703" locked="0" layerid="3" c_shapetype="group" ><path c_fontsize="4.7244" c_fontfamily="NotoSerifCJKsc-Medium" c_text="FW V1" d="M 16.06 30.26 L 16.18 30.84 L 16.4 30.84 L 16.37 30.07 L 14.2 30.07 L 14.2 30.22 L 14.6 30.26 C 14.61 30.65 14.61 31.04 14.61 31.43 L 14.61 31.64 C 14.61 32.04 14.61 32.42 14.6 32.8 L 14.2 32.85 L 14.2 33 L 15.44 33 L 15.44 32.85 L 15.02 32.8 C 15.01 32.42 15.01 32.02 15.01 31.6 L 15.7 31.6 L 15.76 32.05 L 15.94 32.05 L 15.94 30.99 L 15.76 30.99 L 15.7 31.42 L 15.01 31.42 C 15.01 31.02 15.01 30.64 15.02 30.26 Z  M 20.71 30.07 L 19.72 30.07 L 19.72 30.22 L 20.13 30.28 L 19.56 32.38 L 18.9 30.27 L 19.34 30.22 L 19.34 30.07 L 18.17 30.07 L 18.17 30.22 L 18.61 30.27 L 17.93 32.37 L 17.36 30.27 L 17.78 30.22 L 17.78 30.07 L 16.6 30.07 L 16.6 30.22 L 16.96 30.26 L 17.75 33.03 L 17.93 33.03 L 18.65 30.71 L 19.41 33.03 L 19.59 33.03 L 20.34 30.27 L 20.71 30.22 Z  M 24.68 30.07 L 23.68 30.07 L 23.68 30.24 L 24.08 30.28 L 23.37 32.48 L 22.6 30.27 L 23.03 30.24 L 23.03 30.07 L 21.84 30.07 L 21.84 30.22 L 22.17 30.26 L 23.2 33.03 L 23.38 33.03 L 24.3 30.27 L 24.68 30.22 Z  M 26.05 32.78 C 26.05 32.54 26.04 32.31 26.04 32.08 L 26.04 30.7 L 26.06 30.07 L 26 30.02 L 25.1 30.26 L 25.1 30.41 L 25.68 30.36 L 25.68 32.08 C 25.68 32.31 25.68 32.54 25.68 32.78 L 25.05 32.86 L 25.05 33 L 26.67 33 L 26.67 32.86 Z "  stroke="none" stroke-width="0.8"  /></g><g c_partid="part_pcbtext" c_etype="pinpart" c_origin="13,25" c_rotation="0" c_mirror="0" id="gge2708" locked="0" layerid="3" c_shapetype="group" ><path c_fontsize="4.0157" c_fontfamily="NotoSansCJKsc-DemiLight" c_text="uPoff0.2.2" d="M14.00 25.05C14.30 25.05 14.52 24.89 14.72 24.66L14.74 24.66L14.76 25L15.03 25L15.03 22.84L14.71 22.84L14.71 24.39C14.49 24.65 14.33 24.77 14.10 24.77C13.80 24.77 13.67 24.58 13.67 24.17L13.67 22.84L13.35 22.84L13.35 24.21C13.35 24.76 13.55 25.05 14.00 25.05ZM15.82 25L16.15 25L16.15 23.82L16.64 23.82C17.29 23.82 17.72 23.53 17.72 22.92C17.72 22.29 17.29 22.07 16.63 22.07L15.82 22.07ZM16.15 23.54L16.15 22.34L16.58 22.34C17.12 22.34 17.39 22.48 17.39 22.92C17.39 23.36 17.13 23.54 16.60 23.54ZM19.01 25.05C19.54 25.05 20.00 24.64 20.00 23.92C20.00 23.20 19.54 22.78 19.01 22.78C18.48 22.78 18.02 23.20 18.02 23.92C18.02 24.64 18.48 25.05 19.01 25.05ZM19.01 24.78C18.62 24.78 18.35 24.44 18.35 23.92C18.35 23.41 18.62 23.06 19.01 23.06C19.40 23.06 19.67 23.41 19.67 23.92C19.67 24.44 19.40 24.78 19.01 24.78ZM21.89 25L22.22 25L22.22 23.11L22.68 23.11L22.68 22.84L22.22 22.84L22.22 22.47C22.22 22.18 22.32 22.03 22.53 22.03C22.61 22.03 22.70 22.05 22.78 22.09L22.85 21.84C22.75 21.79 22.62 21.76 22.50 21.76C22.09 21.76 21.89 22.03 21.89 22.46L21.89 22.84L20.97 22.84L20.97 22.54C20.97 22.24 21.09 22.07 21.32 22.07C21.42 22.07 21.52 22.09 21.61 22.14L21.68 21.89C21.57 21.84 21.43 21.81 21.29 21.81C20.86 21.81 20.64 22.08 20.64 22.52L20.64 22.84L20.34 22.86L20.34 23.11L20.64 23.11L20.64 25L20.97 25L20.97 23.11L21.89 23.11ZM23.83 25.05C24.38 25.05 24.72 24.55 24.72 23.52C24.72 22.51 24.38 22.02 23.83 22.02C23.28 22.02 22.93 22.51 22.93 23.52C22.93 24.55 23.28 25.05 23.83 25.05ZM23.83 24.79C23.48 24.79 23.25 24.40 23.25 23.52C23.25 22.67 23.48 22.28 23.83 22.28C24.18 22.28 24.41 22.67 24.41 23.52C24.41 24.40 24.18 24.79 23.83 24.79ZM25.46 25.05C25.60 25.05 25.71 24.95 25.71 24.80C25.71 24.64 25.60 24.53 25.46 24.53C25.33 24.53 25.22 24.64 25.22 24.80C25.22 24.95 25.33 25.05 25.46 25.05ZM26.19 25L28.00 25L28.00 24.72L27.16 24.72C27.01 24.72 26.84 24.73 26.68 24.74C27.40 24.07 27.86 23.47 27.86 22.88C27.86 22.36 27.54 22.02 27.02 22.02C26.66 22.02 26.40 22.19 26.17 22.45L26.36 22.63C26.53 22.44 26.74 22.28 26.98 22.28C27.36 22.28 27.54 22.54 27.54 22.89C27.54 23.40 27.12 23.99 26.19 24.80ZM28.74 25.05C28.88 25.05 28.99 24.95 28.99 24.80C28.99 24.64 28.88 24.53 28.74 24.53C28.61 24.53 28.50 24.64 28.50 24.80C28.50 24.95 28.61 25.05 28.74 25.05ZM29.46 25L31.28 25L31.28 24.72L30.44 24.72C30.29 24.72 30.11 24.73 29.96 24.74C30.67 24.07 31.14 23.47 31.14 22.88C31.14 22.36 30.82 22.02 30.30 22.02C29.93 22.02 29.68 22.19 29.44 22.45L29.64 22.63C29.80 22.44 30.02 22.28 30.26 22.28C30.64 22.28 30.82 22.54 30.82 22.89C30.82 23.40 30.40 23.99 29.46 24.80Z"  stroke="none" stroke-width="0.591"  /></g><g c_partid="part_pcbtext" c_etype="" c_origin="6.389,21.784" c_rotation="0" c_mirror="0" id="gge1067" locked="0" layerid="3" c_shapetype="group" display="none"><path c_fontsize="4.5" c_fontfamily="" c_text="22pF" d="M 6.5885 18.2635 L 6.5885 18.0635 L 6.7985 17.6535 L 6.9985 17.4435 L 7.4085 17.2435 L 8.2285 17.2435 L 8.6385 17.4435 L 8.8385 17.6535 L 9.0485 18.0635 L 9.0485 18.4735 L 8.8385 18.8835 L 8.4385 19.4935 L 6.3885 21.5335 L 9.2485 21.5335 M 10.8085 18.2635 L 10.8085 18.0635 L 11.0085 17.6535 L 11.2185 17.4435 L 11.6285 17.2435 L 12.4385 17.2435 L 12.8485 17.4435 L 13.0585 17.6535 L 13.2585 18.0635 L 13.2585 18.4735 L 13.0585 18.8835 L 12.6485 19.4935 L 10.5985 21.5335 L 13.4685 21.5335 M 14.8185 18.6735 L 14.8185 22.9735 M 14.8185 19.2835 L 15.2285 18.8835 L 15.6385 18.6735 L 16.2485 18.6735 L 16.6585 18.8835 L 17.0685 19.2835 L 17.2685 19.9035 L 17.2685 20.3135 L 17.0685 20.9235 L 16.6585 21.3335 L 16.2485 21.5335 L 15.6385 21.5335 L 15.2285 21.3335 L 14.8185 20.9235 M 18.6185 17.2435 L 18.6185 21.5335 M 18.6185 17.2435 L 21.2785 17.2435 M 18.6185 19.2835 L 20.2585 19.2835" fill="none"  stroke-width="0.6" c_note="note_name" /></g><g c_partid="part_pcbtext" c_etype="" c_origin="21.279,11.434" c_rotation="180" c_mirror="0" id="gge1069" locked="0" layerid="3" c_shapetype="group" display="none"><path c_fontsize="4.5" c_fontfamily="" c_text="C4" d="M 18.2085 14.9535 L 18.4185 15.3635 L 18.8285 15.7735 L 19.2285 15.9735 L 20.0485 15.9735 L 20.4585 15.7735 L 20.8685 15.3635 L 21.0785 14.9535 L 21.2785 14.3335 L 21.2785 13.3135 L 21.0785 12.7035 L 20.8685 12.2935 L 20.4585 11.8835 L 20.0485 11.6835 L 19.2285 11.6835 L 18.8285 11.8835 L 18.4185 12.2935 L 18.2085 12.7035 M 14.8185 15.9735 L 16.8585 13.1135 L 13.7885 13.1135 M 14.8185 15.9735 L 14.8185 11.6835" fill="none"  stroke-width="0.6" c_note="note_pre" /></g><g c_partid="part_pcbtext" c_etype="" c_origin="28.719,0.434" c_rotation="0" c_mirror="0" id="gge1050" locked="0" layerid="3" c_shapetype="group" display="none"><path c_fontsize="4.5" c_fontfamily="" c_text="22pF" d="M 28.9185 -3.0865 L 28.9185 -3.2865 L 29.1285 -3.6965 L 29.3285 -3.9065 L 29.7385 -4.1065 L 30.5585 -4.1065 L 30.9685 -3.9065 L 31.1685 -3.6965 L 31.3785 -3.2865 L 31.3785 -2.8765 L 31.1685 -2.4665 L 30.7685 -1.8565 L 28.7185 0.1835 L 31.5785 0.1835 M 33.1385 -3.0865 L 33.1385 -3.2865 L 33.3385 -3.6965 L 33.5485 -3.9065 L 33.9585 -4.1065 L 34.7685 -4.1065 L 35.1785 -3.9065 L 35.3885 -3.6965 L 35.5885 -3.2865 L 35.5885 -2.8765 L 35.3885 -2.4665 L 34.9785 -1.8565 L 32.9285 0.1835 L 35.7985 0.1835 M 37.1485 -2.6765 L 37.1485 1.6235 M 37.1485 -2.0665 L 37.5585 -2.4665 L 37.9685 -2.6765 L 38.5785 -2.6765 L 38.9885 -2.4665 L 39.3985 -2.0665 L 39.5985 -1.4465 L 39.5985 -1.0365 L 39.3985 -0.4265 L 38.9885 -0.0165 L 38.5785 0.1835 L 37.9685 0.1835 L 37.5585 -0.0165 L 37.1485 -0.4265 M 40.9485 -4.1065 L 40.9485 0.1835 M 40.9485 -4.1065 L 43.6085 -4.1065 M 40.9485 -2.0665 L 42.5885 -2.0665" fill="none"  stroke-width="0.6" c_note="note_name" /></g><g c_partid="part_pcbtext" c_etype="" c_origin="28.719,7.434" c_rotation="0" c_mirror="0" id="gge1052" locked="0" layerid="3" c_shapetype="group" display="none"><path c_fontsize="4.5" c_fontfamily="" c_text="C1" d="M 31.7885 3.9135 L 31.5785 3.5035 L 31.1685 3.0935 L 30.7685 2.8935 L 29.9485 2.8935 L 29.5385 3.0935 L 29.1285 3.5035 L 28.9185 3.9135 L 28.7185 4.5335 L 28.7185 5.5535 L 28.9185 6.1635 L 29.1285 6.5735 L 29.5385 6.9835 L 29.9485 7.1835 L 30.7685 7.1835 L 31.1685 6.9835 L 31.5785 6.5735 L 31.7885 6.1635 M 33.1385 3.7135 L 33.5485 3.5035 L 34.1585 2.8935 L 34.1585 7.1835" fill="none"  stroke-width="0.6" c_note="note_pre" /></g><g c_partid="part_pcbtext" c_etype="" c_origin="16.249,7.904" c_rotation="270" c_mirror="0" id="gge948" locked="0" layerid="3" c_shapetype="group" display="none"><path c_fontsize="4.5" c_fontfamily="" c_text="R1" d="M 20.7885 7.9035 L 16.4985 7.9035 M 20.7885 7.9035 L 20.7885 9.7435 L 20.5885 10.3535 L 20.3785 10.5635 L 19.9685 10.7635 L 19.5585 10.7635 L 19.1485 10.5635 L 18.9485 10.3535 L 18.7485 9.7435 L 18.7485 7.9035 M 18.7485 9.3335 L 16.4985 10.7635 M 19.9685 12.1135 L 20.1785 12.5235 L 20.7885 13.1435 L 16.4985 13.1435" fill="none"  stroke-width="0.6" c_note="note_pre" /></g><g c_partid="part_pcbtext" c_etype="" c_origin="28.249,7.934" c_rotation="270" c_mirror="0" id="rep8" locked="0" layerid="3" c_shapetype="group" display="none"><path c_fontsize="4.5" c_fontfamily="NotoSerifCJKsc-Medium" c_text="1,2kΩ" d="M 28.4685 9.2635 C 28.7085 9.2535 28.9385 9.2535 29.1685 9.2535 L 30.5485 9.2535 L 31.1785 9.2735 L 31.2285 9.2135 L 30.9885 8.3135 L 30.8385 8.3135 L 30.8885 8.8935 L 29.1685 8.8935 C 28.9385 8.8935 28.7085 8.8935 28.4685 8.8835 L 28.3885 8.2635 L 28.2485 8.2635 L 28.2485 9.8735 L 28.3885 9.8735 Z  M 28.0985 10.8135 C 27.7685 10.7235 27.5685 10.4935 27.4085 10.1935 L 27.2885 10.2535 C 27.4485 10.6535 27.8485 11.0535 28.3585 11.0535 C 28.4685 11.0535 28.5685 11.0435 28.6685 11.0035 C 28.7585 10.9135 28.7885 10.8235 28.7885 10.7435 C 28.7885 10.5835 28.6685 10.4935 28.5185 10.4935 C 28.4185 10.4935 28.3085 10.5335 28.2285 10.6535 Z  M 28.5885 11.9435 C 28.7985 12.1435 28.9985 12.3435 29.1185 12.4535 C 29.8085 13.1135 30.0885 13.3335 30.4685 13.3335 C 30.9185 13.3335 31.2385 13.0835 31.2385 12.5235 C 31.2385 12.0835 31.0185 11.7035 30.5785 11.6435 C 30.4985 11.6835 30.4485 11.7635 30.4485 11.8535 C 30.4485 11.9635 30.5185 12.0435 30.7185 12.0935 L 31.0385 12.1835 C 31.0585 12.2735 31.0685 12.3535 31.0685 12.4135 C 31.0685 12.7435 30.8185 12.9535 30.4485 12.9535 C 30.0885 12.9535 29.7585 12.7535 29.2685 12.3235 C 29.0485 12.1335 28.7885 11.9035 28.5185 11.6635 L 28.2485 11.6635 L 28.2485 13.4635 L 28.5885 13.4635 Z  M 28.4285 15.7635 L 29.6185 15.0235 L 30.1285 15.5235 L 30.1785 15.9335 L 30.3285 15.9335 L 30.3285 14.9235 L 30.1785 14.9235 L 30.1085 15.2735 L 29.2885 14.4735 L 30.8285 14.4735 L 31.4585 14.4935 L 31.4885 14.4335 L 31.3085 13.7635 L 31.1685 13.7635 L 31.1385 14.1135 L 29.1685 14.1135 C 28.9285 14.1135 28.6685 14.1135 28.4285 14.1135 L 28.3885 13.7635 L 28.2485 13.7635 L 28.2485 14.8335 L 28.3885 14.8335 L 28.4285 14.4835 C 28.6385 14.4835 28.8585 14.4735 29.0685 14.4735 L 29.3685 14.7735 L 28.2485 15.4535 L 28.2485 16.0435 L 28.3885 16.0435 Z  M 28.9885 18.8435 L 28.5585 18.7435 L 28.5585 18.1235 L 28.5585 18.1235 C 28.8785 18.5735 29.3485 18.9335 29.9185 18.9335 C 30.7785 18.9335 31.2485 18.3235 31.2485 17.6535 C 31.2485 16.9635 30.7785 16.3635 29.9185 16.3635 C 29.3485 16.3635 28.8785 16.7235 28.5585 17.1735 L 28.5585 17.1735 L 28.5585 16.5535 L 28.9885 16.4535 L 28.9885 16.2235 L 28.2485 16.2635 L 28.2485 17.4335 L 28.5185 17.4335 C 28.8485 17.0335 29.3685 16.7735 29.9185 16.7735 C 30.5685 16.7735 31.0585 17.0935 31.0585 17.6535 C 31.0585 18.1935 30.5685 18.5235 29.9185 18.5235 C 29.3685 18.5235 28.8485 18.2635 28.5185 17.8535 L 28.2485 17.8535 L 28.2485 19.0335 L 28.9885 19.0735 Z "  stroke="none" stroke-width="1" c_note="note_name" /></g><g c_partid="part_pcbtext" c_etype="" c_origin="14.748,22.433" c_rotation="90" c_mirror="0" id="gge624" locked="0" layerid="3" c_shapetype="group" display="none"><path c_fontsize="4.5" c_fontfamily="" c_text="32.768KHz" d="M 10.208 22.022 L 10.208 19.772 L 11.848 21.002 L 11.848 20.392 L 12.048 19.982 L 12.248 19.772 L 12.868 19.572 L 13.278 19.572 L 13.888 19.772 L 14.298 20.182 L 14.498 20.792 L 14.498 21.412 L 14.298 22.022 L 14.098 22.232 L 13.688 22.432 M 11.228 18.012 L 11.028 18.012 L 10.618 17.812 L 10.408 17.602 L 10.208 17.192 L 10.208 16.382 L 10.408 15.972 L 10.618 15.762 L 11.028 15.562 L 11.438 15.562 L 11.848 15.762 L 12.458 16.172 L 14.498 18.222 L 14.498 15.352 M 13.478 13.802 L 13.688 14.002 L 13.888 13.802 L 13.688 13.592 L 13.478 13.802 M 10.208 9.382 L 14.498 11.432 M 10.208 12.242 L 10.208 9.382 M 10.818 5.582 L 10.408 5.782 L 10.208 6.392 L 10.208 6.802 L 10.408 7.422 L 11.028 7.832 L 12.048 8.032 L 13.068 8.032 L 13.888 7.832 L 14.298 7.422 L 14.498 6.802 L 14.498 6.602 L 14.298 5.992 L 13.888 5.582 L 13.278 5.372 L 13.068 5.372 L 12.458 5.582 L 12.048 5.992 L 11.848 6.602 L 11.848 6.802 L 12.048 7.422 L 12.458 7.832 L 13.068 8.032 M 10.208 3.002 L 10.408 3.612 L 10.818 3.822 L 11.228 3.822 L 11.638 3.612 L 11.848 3.202 L 12.048 2.392 L 12.248 1.772 L 12.658 1.362 L 13.068 1.162 L 13.688 1.162 L 14.098 1.362 L 14.298 1.572 L 14.498 2.182 L 14.498 3.002 L 14.298 3.612 L 14.098 3.822 L 13.688 4.022 L 13.068 4.022 L 12.658 3.822 L 12.248 3.412 L 12.048 2.792 L 11.848 1.982 L 11.638 1.572 L 11.228 1.362 L 10.818 1.362 L 10.408 1.572 L 10.208 2.182 L 10.208 3.002 M 10.208 -0.188 L 14.498 -0.188 M 10.208 -3.058 L 13.068 -0.188 M 12.048 -1.208 L 14.498 -3.058 M 10.208 -4.408 L 14.498 -4.408 M 10.208 -7.268 L 14.498 -7.268 M 12.248 -4.408 L 12.248 -7.268 M 11.638 -10.868 L 14.498 -8.618 M 11.638 -8.618 L 11.638 -10.868 M 14.498 -8.618 L 14.498 -10.868" fill="none"  stroke-width="0.6" c_note="note_name" /></g><g c_partid="part_pcbtext" c_etype="" c_origin="21.748,22.433" c_rotation="90" c_mirror="0" id="gge626" locked="0" layerid="3" c_shapetype="group" display="none"><path c_fontsize="4.5" c_fontfamily="" c_text="X1" d="M 17.208 22.432 L 21.498 19.572 M 17.208 19.572 L 21.498 22.432 M 18.028 18.222 L 17.818 17.812 L 17.208 17.192 L 21.498 17.192" fill="none"  stroke-width="0.6" c_note="note_pre" /></g><g c_partid="part_pcbtext" c_etype="" c_origin="-13.731,53.224" c_rotation="0" c_mirror="0" id="gge647" locked="0" layerid="3" c_shapetype="group" display="none"><path c_fontsize="4.5" c_fontfamily="" c_text="BM8563ESA" d="M -13.7315 48.6835 L -13.7315 52.9735 M -13.7315 48.6835 L -11.8915 48.6835 L -11.2815 48.8835 L -11.0715 49.0935 L -10.8715 49.5035 L -10.8715 49.9135 L -11.0715 50.3235 L -11.2815 50.5235 L -11.8915 50.7235 M -13.7315 50.7235 L -11.8915 50.7235 L -11.2815 50.9335 L -11.0715 51.1335 L -10.8715 51.5435 L -10.8715 52.1635 L -11.0715 52.5735 L -11.2815 52.7735 L -11.8915 52.9735 L -13.7315 52.9735 M -9.5215 48.6835 L -9.5215 52.9735 M -9.5215 48.6835 L -7.8815 52.9735 M -6.2415 48.6835 L -7.8815 52.9735 M -6.2415 48.6835 L -6.2415 52.9735 M -3.8715 48.6835 L -4.4815 48.8835 L -4.6915 49.2935 L -4.6915 49.7035 L -4.4815 50.1135 L -4.0815 50.3235 L -3.2615 50.5235 L -2.6415 50.7235 L -2.2315 51.1335 L -2.0315 51.5435 L -2.0315 52.1635 L -2.2315 52.5735 L -2.4415 52.7735 L -3.0515 52.9735 L -3.8715 52.9735 L -4.4815 52.7735 L -4.6915 52.5735 L -4.8915 52.1635 L -4.8915 51.5435 L -4.6915 51.1335 L -4.2815 50.7235 L -3.6715 50.5235 L -2.8515 50.3235 L -2.4415 50.1135 L -2.2315 49.7035 L -2.2315 49.2935 L -2.4415 48.8835 L -3.0515 48.6835 L -3.8715 48.6835 M 1.7685 48.6835 L -0.2715 48.6835 L -0.4815 50.5235 L -0.2715 50.3235 L 0.3385 50.1135 L 0.9585 50.1135 L 1.5685 50.3235 L 1.9785 50.7235 L 2.1785 51.3435 L 2.1785 51.7535 L 1.9785 52.3635 L 1.5685 52.7735 L 0.9585 52.9735 L 0.3385 52.9735 L -0.2715 52.7735 L -0.4815 52.5735 L -0.6815 52.1635 M 5.9885 49.2935 L 5.7785 48.8835 L 5.1685 48.6835 L 4.7585 48.6835 L 4.1485 48.8835 L 3.7385 49.5035 L 3.5285 50.5235 L 3.5285 51.5435 L 3.7385 52.3635 L 4.1485 52.7735 L 4.7585 52.9735 L 4.9685 52.9735 L 5.5785 52.7735 L 5.9885 52.3635 L 6.1885 51.7535 L 6.1885 51.5435 L 5.9885 50.9335 L 5.5785 50.5235 L 4.9685 50.3235 L 4.7585 50.3235 L 4.1485 50.5235 L 3.7385 50.9335 L 3.5285 51.5435 M 7.9485 48.6835 L 10.1985 48.6835 L 8.9685 50.3235 L 9.5885 50.3235 L 9.9985 50.5235 L 10.1985 50.7235 L 10.4085 51.3435 L 10.4085 51.7535 L 10.1985 52.3635 L 9.7885 52.7735 L 9.1785 52.9735 L 8.5685 52.9735 L 7.9485 52.7735 L 7.7485 52.5735 L 7.5385 52.1635 M 11.7585 48.6835 L 11.7585 52.9735 M 11.7585 48.6835 L 14.4185 48.6835 M 11.7585 50.7235 L 13.3885 50.7235 M 11.7585 52.9735 L 14.4185 52.9735 M 18.6285 49.2935 L 18.2185 48.8835 L 17.6085 48.6835 L 16.7885 48.6835 L 16.1685 48.8835 L 15.7685 49.2935 L 15.7685 49.7035 L 15.9685 50.1135 L 16.1685 50.3235 L 16.5785 50.5235 L 17.8085 50.9335 L 18.2185 51.1335 L 18.4185 51.3435 L 18.6285 51.7535 L 18.6285 52.3635 L 18.2185 52.7735 L 17.6085 52.9735 L 16.7885 52.9735 L 16.1685 52.7735 L 15.7685 52.3635 M 21.6185 48.6835 L 19.9785 52.9735 M 21.6185 48.6835 L 23.2485 52.9735 M 20.5885 51.5435 L 22.6385 51.5435" fill="none"  stroke-width="0.6" c_note="note_name" /></g><g c_partid="part_pcbtext" c_etype="" c_origin="23.249,41.434" c_rotation="180" c_mirror="0" id="gge649" locked="0" layerid="3" c_shapetype="group" display="none"><path c_fontsize="4.5" c_fontfamily="" c_text="U1" d="M 23.2485 45.9735 L 23.2485 42.9035 L 23.0485 42.2935 L 22.6385 41.8835 L 22.0185 41.6835 L 21.6085 41.6835 L 20.9985 41.8835 L 20.5885 42.2935 L 20.3885 42.9035 L 20.3885 45.9735 M 19.0385 45.1535 L 18.6285 45.3635 L 18.0085 45.9735 L 18.0085 41.6835" fill="none"  stroke-width="0.6" c_note="note_pre" /></g><g c_partid="part_pcbtext" c_etype="" c_origin="6.58,-3.566" c_rotation="0" c_mirror="0" id="gge497" locked="0" layerid="3" c_shapetype="group" display="none"><path c_fontsize="4.5" c_fontfamily="" c_text="HEADER-MALE 1X4 MINIMAL" d="M 6.5792 -8.1065 L 6.5792 -3.8165 M 9.4392 -8.1065 L 9.4392 -3.8165 M 6.5792 -6.0665 L 9.4392 -6.0665 M 10.7892 -8.1065 L 10.7892 -3.8165 M 10.7892 -8.1065 L 13.4492 -8.1065 M 10.7892 -6.0665 L 12.4292 -6.0665 M 10.7892 -3.8165 L 13.4492 -3.8165 M 16.4392 -8.1065 L 14.7992 -3.8165 M 16.4392 -8.1065 L 18.0792 -3.8165 M 15.4192 -5.2465 L 17.4592 -5.2465 M 19.4292 -8.1065 L 19.4292 -3.8165 M 19.4292 -8.1065 L 20.8592 -8.1065 L 21.4692 -7.9065 L 21.8792 -7.4965 L 22.0792 -7.0865 L 22.2892 -6.4665 L 22.2892 -5.4465 L 22.0792 -4.8365 L 21.8792 -4.4265 L 21.4692 -4.0165 L 20.8592 -3.8165 L 19.4292 -3.8165 M 23.6392 -8.1065 L 23.6392 -3.8165 M 23.6392 -8.1065 L 26.2992 -8.1065 M 23.6392 -6.0665 L 25.2792 -6.0665 M 23.6392 -3.8165 L 26.2992 -3.8165 M 27.6492 -8.1065 L 27.6492 -3.8165 M 27.6492 -8.1065 L 29.4892 -8.1065 L 30.0992 -7.9065 L 30.3092 -7.6965 L 30.5092 -7.2865 L 30.5092 -6.8765 L 30.3092 -6.4665 L 30.0992 -6.2665 L 29.4892 -6.0665 L 27.6492 -6.0665 M 29.0792 -6.0665 L 30.5092 -3.8165 M 31.8592 -5.6565 L 35.5392 -5.6565 M 36.8892 -8.1065 L 36.8892 -3.8165 M 36.8892 -8.1065 L 38.5292 -3.8165 M 40.1692 -8.1065 L 38.5292 -3.8165 M 40.1692 -8.1065 L 40.1692 -3.8165 M 43.1492 -8.1065 L 41.5192 -3.8165 M 43.1492 -8.1065 L 44.7892 -3.8165 M 42.1292 -5.2465 L 44.1792 -5.2465 M 46.1392 -8.1065 L 46.1392 -3.8165 M 46.1392 -3.8165 L 48.5892 -3.8165 M 49.9392 -8.1065 L 49.9392 -3.8165 M 49.9392 -8.1065 L 52.5992 -8.1065 M 49.9392 -6.0665 L 51.5792 -6.0665 M 49.9392 -3.8165 L 52.5992 -3.8165 M 57.0992 -7.2865 L 57.5092 -7.4965 L 58.1292 -8.1065 L 58.1292 -3.8165 M 59.4792 -8.1065 L 62.3392 -3.8165 M 62.3392 -8.1065 L 59.4792 -3.8165 M 65.7292 -8.1065 L 63.6892 -5.2465 L 66.7592 -5.2465 M 65.7292 -8.1065 L 65.7292 -3.8165 M 71.2592 -8.1065 L 71.2592 -3.8165 M 71.2592 -8.1065 L 72.8892 -3.8165 M 74.5292 -8.1065 L 72.8892 -3.8165 M 74.5292 -8.1065 L 74.5292 -3.8165 M 75.8792 -8.1065 L 75.8792 -3.8165 M 77.2292 -8.1065 L 77.2292 -3.8165 M 77.2292 -8.1065 L 80.0892 -3.8165 M 80.0892 -8.1065 L 80.0892 -3.8165 M 81.4392 -8.1065 L 81.4392 -3.8165 M 82.7892 -8.1065 L 82.7892 -3.8165 M 82.7892 -8.1065 L 84.4292 -3.8165 M 86.0692 -8.1065 L 84.4292 -3.8165 M 86.0692 -8.1065 L 86.0692 -3.8165 M 89.0492 -8.1065 L 87.4192 -3.8165 M 89.0492 -8.1065 L 90.6892 -3.8165 M 88.0292 -5.2465 L 90.0792 -5.2465 M 92.0392 -8.1065 L 92.0392 -3.8165 M 92.0392 -3.8165 L 94.4892 -3.8165" fill="none"  stroke-width="0.6" c_note="note_name" /></g><g c_partid="part_pcbtext" c_etype="" c_origin="6.58,3.434" c_rotation="0" c_mirror="0" id="gge499" locked="0" layerid="3" c_shapetype="group" display="none"><path c_fontsize="4.5" c_fontfamily="" c_text="H1" d="M 6.5792 -1.1065 L 6.5792 3.1835 M 9.4392 -1.1065 L 9.4392 3.1835 M 6.5792 0.9335 L 9.4392 0.9335 M 10.7892 -0.2865 L 11.1992 -0.4965 L 11.8192 -1.1065 L 11.8192 3.1835" fill="none"  stroke-width="0.6" c_note="note_pre" /></g><g c_partid="part_pcbtext" c_etype="" c_origin="-50.33,52.193" c_rotation="0" c_mirror="0" id="gge522" locked="0" layerid="3" c_shapetype="group" display="none"><path c_fontsize="4.5" c_fontfamily="" c_text="HEADER-MALE 1X4 MINIMAL" d="M -50.3308 47.652 L -50.3308 51.942 M -47.4708 47.652 L -47.4708 51.942 M -50.3308 49.692 L -47.4708 49.692 M -46.1208 47.652 L -46.1208 51.942 M -46.1208 47.652 L -43.4608 47.652 M -46.1208 49.692 L -44.4808 49.692 M -46.1208 51.942 L -43.4608 51.942 M -40.4708 47.652 L -42.1108 51.942 M -40.4708 47.652 L -38.8308 51.942 M -41.4908 50.512 L -39.4508 50.512 M -37.4808 47.652 L -37.4808 51.942 M -37.4808 47.652 L -36.0508 47.652 L -35.4408 47.852 L -35.0308 48.262 L -34.8308 48.672 L -34.6208 49.292 L -34.6208 50.312 L -34.8308 50.922 L -35.0308 51.332 L -35.4408 51.742 L -36.0508 51.942 L -37.4808 51.942 M -33.2708 47.652 L -33.2708 51.942 M -33.2708 47.652 L -30.6108 47.652 M -33.2708 49.692 L -31.6308 49.692 M -33.2708 51.942 L -30.6108 51.942 M -29.2608 47.652 L -29.2608 51.942 M -29.2608 47.652 L -27.4208 47.652 L -26.8108 47.852 L -26.6008 48.062 L -26.4008 48.472 L -26.4008 48.882 L -26.6008 49.292 L -26.8108 49.492 L -27.4208 49.692 L -29.2608 49.692 M -27.8308 49.692 L -26.4008 51.942 M -25.0508 50.102 L -21.3708 50.102 M -20.0208 47.652 L -20.0208 51.942 M -20.0208 47.652 L -18.3808 51.942 M -16.7408 47.652 L -18.3808 51.942 M -16.7408 47.652 L -16.7408 51.942 M -13.7608 47.652 L -15.3908 51.942 M -13.7608 47.652 L -12.1208 51.942 M -14.7808 50.512 L -12.7308 50.512 M -10.7708 47.652 L -10.7708 51.942 M -10.7708 51.942 L -8.3208 51.942 M -6.9708 47.652 L -6.9708 51.942 M -6.9708 47.652 L -4.3108 47.652 M -6.9708 49.692 L -5.3308 49.692 M -6.9708 51.942 L -4.3108 51.942 M 0.1892 48.472 L 0.5992 48.262 L 1.2192 47.652 L 1.2192 51.942 M 2.5692 47.652 L 5.4292 51.942 M 5.4292 47.652 L 2.5692 51.942 M 8.8192 47.652 L 6.7792 50.512 L 9.8492 50.512 M 8.8192 47.652 L 8.8192 51.942 M 14.3492 47.652 L 14.3492 51.942 M 14.3492 47.652 L 15.9792 51.942 M 17.6192 47.652 L 15.9792 51.942 M 17.6192 47.652 L 17.6192 51.942 M 18.9692 47.652 L 18.9692 51.942 M 20.3192 47.652 L 20.3192 51.942 M 20.3192 47.652 L 23.1792 51.942 M 23.1792 47.652 L 23.1792 51.942 M 24.5292 47.652 L 24.5292 51.942 M 25.8792 47.652 L 25.8792 51.942 M 25.8792 47.652 L 27.5192 51.942 M 29.1592 47.652 L 27.5192 51.942 M 29.1592 47.652 L 29.1592 51.942 M 32.1392 47.652 L 30.5092 51.942 M 32.1392 47.652 L 33.7792 51.942 M 31.1192 50.512 L 33.1692 50.512 M 35.1292 47.652 L 35.1292 51.942 M 35.1292 51.942 L 37.5792 51.942" fill="none"  stroke-width="0.6" c_note="note_name" /></g><g c_partid="part_pcbtext" c_etype="" c_origin="37.58,40.403" c_rotation="180" c_mirror="0" id="gge524" locked="0" layerid="3" c_shapetype="group" display="none"><path c_fontsize="4.5" c_fontfamily="" c_text="H2" d="M 37.5792 44.942 L 37.5792 40.652 M 34.7192 44.942 L 34.7192 40.652 M 37.5792 42.902 L 34.7192 42.902 M 33.1592 43.922 L 33.1592 44.122 L 32.9592 44.532 L 32.7492 44.742 L 32.3392 44.942 L 31.5292 44.942 L 31.1192 44.742 L 30.9092 44.532 L 30.7092 44.122 L 30.7092 43.712 L 30.9092 43.302 L 31.3192 42.692 L 33.3692 40.652 L 30.4992 40.652" fill="none"  stroke-width="0.6" c_note="note_pre" /></g><path d="M 32.2485 25.4335 A 2.0016 2.0016 0 1 0 32.091 29.4335" locked="0"  fill="none" stroke-width="1" c_helper_type="arc2" net="" layerid="3" id="gge651" /><polyline points="43.7325 0.4455 43.7325 43.7525 4.3625 43.7525 0.4255 43.7525 0.4255 0.4455 4.3625 0.4455 43.7325 0.4455" stroke-width="1"  stroke-linecap="round" fill="none" layerid="10" net="" id="gge2202" locked="1" /><path d="M37.08,-7.0779L7.08,-7.0779M31.08,-8.5779L37.08,-7.0779L31.08,-5.5779M13.08,-8.5779L7.08,-7.0779L13.08,-5.5779M -3.51 -23.67L-8.06 -14.12 M -9.87 -23.67L-3.51 -23.67 M -0.06 -16.4L-0.51 -15.94 L-0.06 -15.49 L0.4 -15.94 L-0.06 -16.4 M 8.85 -22.31L8.4 -23.21 L7.03 -23.67 L6.13 -23.67 L4.76 -23.21 L3.85 -21.85 L3.4 -19.58 L3.4 -17.31 L3.85 -15.49 L4.76 -14.58 L6.13 -14.12 L6.58 -14.12 L7.94 -14.58 L8.85 -15.49 L9.31 -16.85 L9.31 -17.31 L8.85 -18.67 L7.94 -19.58 L6.58 -20.03 L6.13 -20.03 L4.76 -19.58 L3.85 -18.67 L3.4 -17.31 M 12.76 -21.4L12.76 -21.85 L13.22 -22.76 L13.67 -23.21 L14.58 -23.67 L16.4 -23.67 L17.31 -23.21 L17.76 -22.76 L18.22 -21.85 L18.22 -20.94 L17.76 -20.03 L16.85 -18.67 L12.31 -14.12 L18.67 -14.12 M 24.4 -23.67L23.03 -23.21 L22.13 -21.85 L21.67 -19.58 L21.67 -18.21 L22.13 -15.94 L23.03 -14.58 L24.4 -14.12 L25.31 -14.12 L26.67 -14.58 L27.58 -15.94 L28.03 -18.21 L28.03 -19.58 L27.58 -21.85 L26.67 -23.21 L25.31 -23.67 L24.4 -23.67 M 31.03 -20.49L31.03 -14.12 M 31.03 -18.67L32.4 -20.03 L33.31 -20.49 L34.67 -20.49 L35.58 -20.03 L36.03 -18.67 L36.03 -14.12 M 36.03 -18.67L37.4 -20.03 L38.31 -20.49 L39.67 -20.49 L40.58 -20.03 L41.03 -18.67 L41.03 -14.12 M 44.03 -20.49L44.03 -14.12 M 44.03 -18.67L45.4 -20.03 L46.31 -20.49 L47.67 -20.49 L48.58 -20.03 L49.03 -18.67 L49.03 -14.12 M 49.03 -18.67L50.4 -20.03 L51.31 -20.49 L52.67 -20.49 L53.58 -20.03 L54.03 -18.67 L54.03 -14.12 M 37.08 6.903 37.08 -17.0779 M 7.08 6.934 7.08 -17.0779" stroke-width="0.4" fill="none" c_shapetype="group" layerid="12" c_fontsize="" id="gge2710" locked="0" measuring_type="level"/></svg>