<svg xmlns="http://www.w3.org/2000/svg" xmlns:xlink="http://www.w3.org/1999/xlink" width="49.276mm" height="49.479mm" viewBox="-16.2 -39 97 97.4"><title></title><style type="text/css">
*[layerid="1"] {stroke:#FF0000;fill:#FF0000;}
*[layerid="2"] {stroke:#0000FF;fill:#0000FF;}
*[layerid="3"] {stroke:#FFFF00;fill:#FFFF00;}
*[layerid="4"] {stroke:#808000;fill:#808000;}
*[layerid="5"] {stroke:#808080;fill:#808080;}
*[layerid="6"] {stroke:#800000;fill:#800000;}
*[layerid="7"] {stroke:#800080;fill:#800080;}
*[layerid="8"] {stroke:#AA00FF;fill:#AA00FF;}
*[layerid="9"] {stroke:#6464FF;fill:#6464FF;}
*[layerid="10"] {stroke:#FF00FF;fill:#FF00FF;}
*[layerid="11"] {stroke:#C0C0C0;fill:#C0C0C0;}
*[layerid="12"] {stroke:#FFFFFF;fill:#FFFFFF;}
*[layerid="13"] {stroke:#33CC99;fill:#33CC99;}
*[layerid="14"] {stroke:#5555FF;fill:#5555FF;}
*[layerid="15"] {stroke:#F022F0;fill:#F022F0;}
*[layerid="19"] {stroke:#66CCFF;fill:#66CCFF;}
*[layerid="21"] {stroke:#800000;fill:#800000;}
*[layerid="22"] {stroke:#008000;fill:#008000;}
*[layerid="23"] {stroke:#00FF00;fill:#00FF00;}
*[layerid="24"] {stroke:#000080;fill:#000080;}
*[layerid="25"] {stroke:#70DBFA;fill:#70DBFA;}
*[layerid="26"] {stroke:#00CC66;fill:#00CC66;}
*[layerid="27"] {stroke:#9966FF;fill:#9966FF;}
*[layerid="28"] {stroke:#800080;fill:#800080;}
*[layerid="29"] {stroke:#008080;fill:#008080;}
*[layerid="30"] {stroke:#15935F;fill:#15935F;}
*[layerid="31"] {stroke:#000080;fill:#000080;}
*[layerid="32"] {stroke:#00B400;fill:#00B400;}
*[layerid="33"] {stroke:#2E4736;fill:#2E4736;}
*[layerid="34"] {stroke:#99842F;fill:#99842F;}
*[layerid="35"] {stroke:#FFFFAA;fill:#FFFFAA;}
*[layerid="36"] {stroke:#99842F;fill:#99842F;}
*[layerid="37"] {stroke:#2E4736;fill:#2E4736;}
*[layerid="38"] {stroke:#3535FF;fill:#3535FF;}
*[layerid="39"] {stroke:#8000BC;fill:#8000BC;}
*[layerid="40"] {stroke:#43AE5F;fill:#43AE5F;}
*[layerid="41"] {stroke:#C3ECCE;fill:#C3ECCE;}
*[layerid="42"] {stroke:#728978;fill:#728978;}
*[layerid="43"] {stroke:#39503F;fill:#39503F;}
*[layerid="44"] {stroke:#0C715D;fill:#0C715D;}
*[layerid="45"] {stroke:#5A8A80;fill:#5A8A80;}
*[layerid="46"] {stroke:#2B937E;fill:#2B937E;}
*[layerid="47"] {stroke:#23999D;fill:#23999D;}
*[layerid="48"] {stroke:#45B4E3;fill:#45B4E3;}
*[layerid="49"] {stroke:#215DA1;fill:#215DA1;}
*[layerid="50"] {stroke:#4564D7;fill:#4564D7;}
*[layerid="51"] {stroke:#6969E9;fill:#6969E9;}
*[layerid="52"] {stroke:#9069E9;fill:#9069E9;}
*[layerid="99"] {stroke:#00CCCC;fill:#00CCCC;}
*[layerid="100"] {stroke:#CC9999;fill:#CC9999;}
*[layerid="Hole"] {stroke:#222222;fill:#222222;}
*[layerid="DRCError"] {stroke:#FFFFFF;fill:#FFFFFF;}
*[fill="none"] {fill: none;}
*[stroke="none"] {stroke: none;}
path, polyline, polygon, line {stroke-linecap:round;}
g[c_partid="part_pad"][layerid="1"] ellipse:not([c_etype="pad_outer"]) {fill:#FF0000;}
g[c_partid="part_pad"][layerid="1"] polygon:not([c_etype="pad_outer"]) {fill:#FF0000;}
g[c_partid="part_pad"][layerid="1"] polyline:not([c_etype="pad_outer"]) {stroke:#FF0000;}
g[c_partid="part_pad"][layerid="2"] ellipse:not([c_etype="pad_outer"]) {fill:#0000FF;}
g[c_partid="part_pad"][layerid="2"] polygon:not([c_etype="pad_outer"]) {fill:#0000FF;}
g[c_partid="part_pad"][layerid="2"] polyline:not([c_etype="pad_outer"]) {stroke:#0000FF;}
g[c_partid="part_pad"][layerid="11"] ellipse:not([c_etype="pad_outer"]) {fill:#C0C0C0;}
g[c_partid="part_pad"][layerid="11"] polygon:not([c_etype="pad_outer"]) {fill:#C0C0C0;}
g[c_partid="part_pad"][layerid="11"] polyline:not([c_etype="pad_outer"]) {stroke:#C0C0C0;}
g[c_partid="part_pad"][layerid="11"] circle {fill:#222222;}
g[c_partid="part_pad"][layerid="11"] > polyline:nth-of-type(2) {stroke:#222222;}
g[c_partid="part_pad"][layerid="11"][c_shape="ELLIPSE"]  polyline:nth-last-of-type(1) {stroke:#222222;}
g[c_partid="part_pad"][layerid="11"][c_shape="RECT"]  polyline:nth-last-of-type(1) {stroke:#222222;}
g[c_partid="part_pad"][layerid="11"][c_shape="POLYGON"]  polyline:nth-last-of-type(1) {stroke:#222222;}
g[c_partid="part_via"] > * + circle, #gCurParts g[c_partid="part_via"] > * + circle {fill:#222222;}
g[c_partid="part_pad"] > polygon[c_etype="pad_outer"], #gCurParts g[c_partid="part_pad"] > polygon[c_etype="pad_outer"] {stroke-linejoin: miter;stroke-miterlimit: 100;}
g[c_partid="part_hole"] > circle {fill: #222222;}path, polyline, polygon {stroke-linejoin:round;}
rect, circle, ellipse, polyline, line, polygon, path {shape-rendering:crispEdges;}
</style>
<rect x="-16.2" y="-39" width="97" height="97.4" fill="#000000" stroke="none"/><path d="M 24.81014 20.81489 A 0.4 0.4 0 0 1 24.5273 20.93204 0.4 0.4 0 0 1 24.3452 20.88819 0.612 0.612 0 0 0 24.0666 20.8211 L 24.0666 20.8211 23.5035 20.8211 A 0.4 0.4 0 0 1 23.1035 20.4211 L 23.1035 19.4911 A 0.4 0.4 0 0 1 23.5035 19.0911 L 24.0668 19.0911 24.0668 19.0911 A 0.612 0.612 0 0 0 24.6788 18.4791 L 24.6788 18.4791 24.6788 13.5579 24.6788 13.5579 A 0.612 0.612 0 0 0 24.47201 13.09926 0.4 0.4 0 0 1 24.33685 12.7995 0.4 0.4 0 0 1 24.73685 12.3995 L 32.25454 12.3995 A 0.4 0.4 0 0 1 32.65454 12.7995 0.4 0.4 0 0 1 32.65087 12.85359 L 32.65087 12.85359 A 1.8148 1.8148 0 0 0 32.6342 13.099 1.8148 1.8148 0 0 0 32.64282 13.27568 L 32.64282 13.27568 A 0.4 0.4 0 0 1 32.64472 13.31462 0.4 0.4 0 0 1 32.52756 13.59746 L 29.23766 16.88736 A 1.0057 1.0057 0 0 0 28.9431 17.5985 L 28.9431 18.4681 A 0.4 0.4 0 0 1 28.5431 18.8681 L 27.7834 18.8681 27.7834 18.8681 A 0.612 0.612 0 0 0 27.1714 19.4801 L 27.1714 19.4801 27.1714 20.0428 A 0.4 0.4 0 0 1 26.7714 20.4428 L 25.5988 20.4428 A 1.0057 1.0057 0 0 0 24.88766 20.73736 L 24.81014 20.81489 Z " stroke-width="0" layerid="2" attachedcopperid="rep439" c_shapetype="line" id="rep439_0" class=""></path><path d="M 62.3801 45.4447 A 0.4 0.4 0 0 1 61.9801 45.8447 L -0.9565 45.8447 A 0.4 0.4 0 0 1 -1.3565 45.4447 L -1.3565 -0.5628 A 0.4 0.4 0 0 1 -0.9565 -0.9628 L 61.9801 -0.9628 A 0.4 0.4 0 0 1 62.3801 -0.5628 L 62.3801 45.4447 Z M 24.0668 43.5911 A 0.612 0.612 0 0 0 24.6788 42.9791 L 24.6788 42.9791 24.6788 41.9242 A 0.4 0.4 0 0 1 25.0788 41.5242 L 36.33534 41.5242 A 0.4 0.4 0 0 1 36.73038 41.86143 L 36.73038 41.86143 A 0.612 0.612 0 0 0 37.3348 42.3774 L 41.2718 42.3774 A 0.612 0.612 0 0 0 41.8838 41.7654 L 41.8838 37.4346 A 0.612 0.612 0 0 0 41.2718 36.8226 L 40.7045 36.8226 A 0.4 0.4 0 0 1 40.3045 36.4226 L 40.3045 34.7774 A 0.4 0.4 0 0 1 40.7045 34.3774 L 41.272 34.3774 41.272 34.3774 A 0.612 0.612 0 0 0 41.884 33.7654 L 41.884 29.4346 A 0.612 0.612 0 0 0 41.272 28.8226 L 41.272 28.8226 37.335 28.8226 37.335 28.8226 A 0.612 0.612 0 0 0 36.92063 28.98422 0.4 0.4 0 0 1 36.6498 29.08986 0.4 0.4 0 0 1 36.2498 28.68986 L 36.2498 26.80308 A 0.4 0.4 0 0 1 36.36696 26.52023 L 36.53437 26.35282 A 0.4 0.4 0 0 1 36.81722 26.23566 0.4 0.4 0 0 1 37.02037 26.29109 0.612 0.612 0 0 0 37.3312 26.3759 L 37.3312 26.3759 41.2682 26.3759 41.2682 26.3759 A 0.612 0.612 0 0 0 41.8802 25.7639 L 41.8802 25.7639 41.8802 21.4331 41.8802 21.4331 A 0.612 0.612 0 0 0 41.2682 20.8211 L 41.2682 20.8211 40.9998 20.8211 A 0.4 0.4 0 0 1 40.5998 20.4211 L 40.5998 18.7759 A 0.4 0.4 0 0 1 40.9998 18.3759 L 41.2682 18.3759 41.2682 18.3759 A 0.612 0.612 0 0 0 41.8802 17.7639 L 41.8802 17.7639 41.8802 13.4331 41.8802 13.4331 A 0.612 0.612 0 0 0 41.86373 13.29208 L 41.86373 13.29208 A 0.4 0.4 0 0 1 41.85297 13.19991 0.4 0.4 0 0 1 41.97012 12.91707 L 46.39373 8.49346 A 0.4 0.4 0 0 1 46.67658 8.3763 L 47.5668 8.3763 A 0.612 0.612 0 0 0 48.1788 7.7643 L 48.1788 7.2995 A 0.4 0.4 0 0 1 48.5788 6.8995 L 51.22062 6.8995 A 0.4 0.4 0 0 1 51.62062 7.2995 0.4 0.4 0 0 1 51.61968 7.32694 L 51.61968 7.32694 A 3.95845 3.95845 0 0 0 51.61035 7.5985 3.95845 3.95845 0 0 0 55.5688 11.55695 3.95845 3.95845 0 0 0 59.52725 7.5985 3.95845 3.95845 0 0 0 55.5688 3.64005 3.95845 3.95845 0 0 0 53.47817 4.23716 0.4 0.4 0 0 1 53.26691 4.2975 L 53.26691 4.2975 48.5788 4.2975 A 0.4 0.4 0 0 1 48.1788 3.8975 L 48.1788 3.4335 A 0.612 0.612 0 0 0 47.5668 2.8215 L 47.5668 2.8215 43.6298 2.8215 43.6298 2.8215 A 0.612 0.612 0 0 0 43.0178 3.4335 L 43.0178 7.7643 A 0.612 0.612 0 0 0 43.03418 7.90493 L 43.03418 7.90493 A 0.4 0.4 0 0 1 43.04488 7.99684 0.4 0.4 0 0 1 42.92772 8.27969 L 38.50347 12.70394 A 0.4 0.4 0 0 1 38.22062 12.8211 L 37.3312 12.8211 A 0.612 0.612 0 0 0 37.18131 12.83974 0.4 0.4 0 0 1 37.08334 12.85192 0.4 0.4 0 0 1 36.68334 12.45192 0.4 0.4 0 0 1 36.80049 12.16908 L 40.01094 8.95864 A 1.0057 1.0057 0 0 0 40.23174 8.62554 L 40.23174 8.62554 A 0.4 0.4 0 0 1 40.60241 8.3759 L 41.268 8.3759 A 0.612 0.612 0 0 0 41.88 7.7639 L 41.88 3.4331 A 0.612 0.612 0 0 0 41.268 2.8211 L 41.268 2.8211 37.331 2.8211 37.331 2.8211 A 0.612 0.612 0 0 0 36.719 3.4331 L 36.719 7.7639 A 0.612 0.612 0 0 0 37.0621 8.31366 L 37.0621 8.31366 A 0.4 0.4 0 0 1 37.28636 8.67298 0.4 0.4 0 0 1 37.1692 8.95583 L 37.1692 8.95583 36.90508 9.21994 36.90508 9.21994 A 0.4 0.4 0 0 1 36.62224 9.3371 0.4 0.4 0 0 1 36.23959 9.05364 1.8718 1.8718 0 0 0 34.449 7.7272 1.8718 1.8718 0 0 0 32.58458 9.43298 L 32.58458 9.43298 A 0.4 0.4 0 0 1 32.18615 9.7975 L 32.18615 9.7975 20.99685 9.7975 A 0.4 0.4 0 0 1 20.59685 9.3975 0.4 0.4 0 0 1 20.73201 9.09774 0.612 0.612 0 0 0 20.9388 8.6391 L 20.9388 8.6391 20.9388 3.7179 20.9388 3.7179 A 0.612 0.612 0 0 0 20.3268 3.1059 L 20.3268 3.1059 17.5708 3.1059 17.5708 3.1059 A 0.612 0.612 0 0 0 16.9588 3.7179 L 16.9588 3.7179 16.9588 4.4775 A 0.4 0.4 0 0 1 16.5588 4.8775 L 8.61108 4.8775 A 0.4 0.4 0 0 1 8.33187 4.76393 L 8.33187 4.76393 A 3.95845 3.95845 0 0 0 5.5688 3.64005 3.95845 3.95845 0 0 0 1.61035 7.5985 3.95845 3.95845 0 0 0 5.5688 11.55695 3.95845 3.95845 0 0 0 9.51901 7.85371 L 9.51901 7.85371 A 0.4 0.4 0 0 1 9.91818 7.4795 L 16.5588 7.4795 A 0.4 0.4 0 0 1 16.9588 7.8795 L 16.9588 8.6391 16.9588 8.6391 A 0.612 0.612 0 0 0 17.16604 9.09814 0.4 0.4 0 0 1 17.30149 9.39816 0.4 0.4 0 0 1 16.91262 9.798 L 16.91262 9.798 A 1.301 1.301 0 0 0 16.02885 10.17855 L 14.28885 11.91855 14.28885 11.91855 A 1.301 1.301 0 0 0 13.92142 12.65074 L 13.92142 12.65074 A 0.4 0.4 0 0 1 13.64624 12.97439 L 13.64624 12.97439 A 0.612 0.612 0 0 0 13.2188 13.5579 L 13.2188 18.4791 A 0.612 0.612 0 0 0 13.8308 19.0911 L 13.8308 19.0911 16.5868 19.0911 16.5868 19.0911 A 0.612 0.612 0 0 0 17.1988 18.4791 L 17.1988 18.4791 17.1988 13.5579 17.1988 13.5579 A 0.612 0.612 0 0 0 17.10258 13.22849 L 17.10258 13.22849 A 0.4 0.4 0 0 1 17.03969 13.01318 0.4 0.4 0 0 1 17.15685 12.73034 L 17.37053 12.51666 A 0.4 0.4 0 0 1 17.65338 12.3995 L 20.64075 12.3995 A 0.4 0.4 0 0 1 21.04075 12.7995 0.4 0.4 0 0 1 20.90559 13.09926 0.612 0.612 0 0 0 20.6988 13.5579 L 20.6988 13.5579 20.6988 18.4791 20.6988 18.4791 A 0.612 0.612 0 0 0 20.93665 18.96341 L 20.93665 18.96341 A 0.4 0.4 0 0 1 21.0921 19.27995 L 21.0921 20.4211 A 0.4 0.4 0 0 1 20.6921 20.8211 L 20.1296 20.8211 20.1296 20.8211 A 0.612 0.612 0 0 0 19.5176 21.4331 L 19.5176 25.7639 A 0.612 0.612 0 0 0 20.1296 26.3759 L 20.1296 26.3759 24.0666 26.3759 24.0666 26.3759 A 0.612 0.612 0 0 0 24.6786 25.7639 L 24.6786 23.95666 A 0.4 0.4 0 0 1 24.79576 23.67382 L 25.89822 22.57136 A 0.4 0.4 0 0 1 26.18106 22.4542 L 26.7714 22.4542 A 0.4 0.4 0 0 1 27.1714 22.8542 L 27.1714 23.4171 27.1714 23.4171 A 0.612 0.612 0 0 0 27.7834 24.0291 L 27.7834 24.0291 32.1142 24.0291 32.1142 24.0291 A 0.612 0.612 0 0 0 32.7262 23.4171 L 32.7262 19.4801 A 0.612 0.612 0 0 0 32.1142 18.8681 L 32.1142 18.8681 31.3545 18.8681 A 0.4 0.4 0 0 1 30.9545 18.4681 L 30.9545 18.18076 A 0.4 0.4 0 0 1 31.07166 17.89792 L 33.94926 15.02031 A 0.4 0.4 0 0 1 34.23211 14.90315 0.4 0.4 0 0 1 34.27128 14.90508 L 34.27128 14.90508 A 1.8148 1.8148 0 0 0 34.449 14.9138 1.8148 1.8148 0 0 0 35.98144 14.07118 0.4 0.4 0 0 1 36.3192 13.88546 0.4 0.4 0 0 1 36.7192 14.28546 L 36.7192 17.7639 36.7192 17.7639 A 0.612 0.612 0 0 0 37.3312 18.3759 L 37.3312 18.3759 37.5978 18.3759 A 0.4 0.4 0 0 1 37.9978 18.7759 L 37.9978 20.4211 A 0.4 0.4 0 0 1 37.5978 20.8211 L 37.3312 20.8211 37.3312 20.8211 A 0.612 0.612 0 0 0 36.7192 21.4331 L 36.7192 21.4331 36.7192 22.32673 A 0.4 0.4 0 0 1 36.58483 22.62579 1.301 1.301 0 0 0 36.52885 22.67855 L 34.02885 25.17855 A 1.301 1.301 0 0 0 33.6478 26.0985 L 33.6478 30.09335 A 0.4 0.4 0 0 1 33.54733 30.35845 1.8718 1.8718 0 0 0 33.0772 31.599 1.8718 1.8718 0 0 0 33.82388 33.0949 0.4 0.4 0 0 1 33.98344 33.41458 0.4 0.4 0 0 1 33.64946 33.80909 1.8148 1.8148 0 0 0 32.54691 34.44676 L 32.54691 34.44676 A 0.4 0.4 0 0 1 32.23788 34.5928 L 17.03106 34.5928 A 0.4 0.4 0 0 1 16.74822 34.47564 L 9.61038 27.33781 A 0.4 0.4 0 0 1 9.49635 27.10485 3.95845 3.95845 0 0 0 5.5688 23.64005 3.95845 3.95845 0 0 0 1.61035 27.5985 3.95845 3.95845 0 0 0 5.5688 31.55695 3.95845 3.95845 0 0 0 8.74347 29.96299 0.4 0.4 0 0 1 9.06426 29.80192 0.4 0.4 0 0 1 9.34711 29.91908 L 9.34711 29.91908 15.73766 36.30964 15.73766 36.30964 A 1.0057 1.0057 0 0 0 16.4488 36.6042 L 16.4488 36.6042 32.23706 36.6042 A 0.4 0.4 0 0 1 32.54624 36.75042 1.8148 1.8148 0 0 0 33.949 37.4138 1.8148 1.8148 0 0 0 35.7638 35.599 1.8148 1.8148 0 0 0 35.05561 34.16063 L 35.05561 34.16063 A 0.4 0.4 0 0 1 34.89952 33.8436 0.4 0.4 0 0 1 35.2378 33.44839 L 35.2378 33.44839 A 1.8718 1.8718 0 0 0 36.08108 33.08965 0.4 0.4 0 0 1 36.323 33.0082 0.4 0.4 0 0 1 36.723 33.4082 L 36.723 33.7654 A 0.612 0.612 0 0 0 37.335 34.3774 L 37.8931 34.3774 A 0.4 0.4 0 0 1 38.2931 34.7774 L 38.2931 36.4226 A 0.4 0.4 0 0 1 37.8931 36.8226 L 37.3348 36.8226 A 0.612 0.612 0 0 0 36.7228 37.4346 L 36.7228 39.1128 A 0.4 0.4 0 0 1 36.3228 39.5128 L 25.0788 39.5128 A 0.4 0.4 0 0 1 24.6788 39.1128 L 24.6788 38.0579 24.6788 38.0579 A 0.612 0.612 0 0 0 24.0668 37.4459 L 21.3108 37.4459 21.3108 37.4459 A 0.612 0.612 0 0 0 20.6988 38.0579 L 20.6988 38.0579 20.6988 42.9791 20.6988 42.9791 A 0.612 0.612 0 0 0 21.3108 43.5911 L 24.0668 43.5911 Z M 17.7682 26.3759 A 0.612 0.612 0 0 0 18.3802 25.7639 L 18.3802 21.4331 18.3802 21.4331 A 0.612 0.612 0 0 0 17.7682 20.8211 L 17.7682 20.8211 13.8312 20.8211 13.8312 20.8211 A 0.612 0.612 0 0 0 13.2192 21.4331 L 13.2192 22.1928 A 0.4 0.4 0 0 1 12.8192 22.5928 L 12.14906 22.5928 A 0.4 0.4 0 0 1 11.86622 22.47564 L 9.19648 19.8059 A 0.4 0.4 0 0 1 9.07932 19.52306 0.4 0.4 0 0 1 9.12043 19.34643 3.95845 3.95845 0 0 0 9.52725 17.5985 3.95845 3.95845 0 0 0 5.5688 13.64005 3.95845 3.95845 0 0 0 1.61035 17.5985 3.95845 3.95845 0 0 0 5.5688 21.55695 3.95845 3.95845 0 0 0 7.3143 21.15133 0.4 0.4 0 0 1 7.49068 21.11034 0.4 0.4 0 0 1 7.77352 21.22749 L 7.77352 21.22749 10.85566 24.30964 10.85566 24.30964 A 1.0057 1.0057 0 0 0 11.5668 24.6042 L 12.8192 24.6042 A 0.4 0.4 0 0 1 13.2192 25.0042 L 13.2192 25.7639 A 0.612 0.612 0 0 0 13.8312 26.3759 L 13.8312 26.3759 17.7682 26.3759 Z M 51.82219 28.8761 A 3.95845 3.95845 0 0 0 55.5688 31.55695 3.95845 3.95845 0 0 0 59.52725 27.5985 3.95845 3.95845 0 0 0 55.5688 23.64005 3.95845 3.95845 0 0 0 51.82157 26.32272 0.4 0.4 0 0 1 51.44292 26.5938 L 50.18106 26.5938 A 0.4 0.4 0 0 1 49.89822 26.47664 L 48.29576 24.87418 A 0.4 0.4 0 0 1 48.1786 24.59134 L 48.1786 21.4331 48.1786 21.4331 A 0.612 0.612 0 0 0 47.5666 20.8211 L 47.5666 20.8211 43.6296 20.8211 43.6296 20.8211 A 0.612 0.612 0 0 0 43.0176 21.4331 L 43.0176 25.7639 A 0.612 0.612 0 0 0 43.6296 26.3759 L 43.6296 26.3759 46.78724 26.3759 A 0.4 0.4 0 0 1 47.07008 26.49306 L 48.88766 28.31064 48.88766 28.31064 A 1.0057 1.0057 0 0 0 49.5988 28.6052 L 51.4436 28.6052 A 0.4 0.4 0 0 1 51.82219 28.8761 Z M 55.5688 21.55695 A 3.95845 3.95845 0 0 0 59.52725 17.5985 3.95845 3.95845 0 0 0 55.5688 13.64005 3.95845 3.95845 0 0 0 51.82157 16.32272 0.4 0.4 0 0 1 51.44292 16.5938 L 48.5786 16.5938 A 0.4 0.4 0 0 1 48.1786 16.1938 L 48.1786 13.4331 48.1786 13.4331 A 0.612 0.612 0 0 0 47.5666 12.8211 L 43.6296 12.8211 A 0.612 0.612 0 0 0 43.0176 13.4331 L 43.0176 17.7639 A 0.612 0.612 0 0 0 43.6296 18.3759 L 43.6296 18.3759 46.82934 18.3759 A 0.4 0.4 0 0 1 47.04829 18.44115 1.0057 1.0057 0 0 0 47.5988 18.6052 L 51.4436 18.6052 A 0.4 0.4 0 0 1 51.82219 18.8761 L 51.82219 18.8761 A 3.95845 3.95845 0 0 0 55.5688 21.55695 Z M 47.571 42.3774 A 0.612 0.612 0 0 0 48.183 41.7654 L 48.183 41.2404 A 0.4 0.4 0 0 1 48.583 40.8404 L 53.1745 40.8404 A 0.4 0.4 0 0 1 53.39424 40.90616 L 53.39424 40.90616 A 3.95845 3.95845 0 0 0 55.5688 41.55695 3.95845 3.95845 0 0 0 59.52725 37.5985 3.95845 3.95845 0 0 0 55.5688 33.64005 3.95845 3.95845 0 0 0 51.61035 37.5985 3.95845 3.95845 0 0 0 51.62373 37.92374 L 51.62373 37.92374 A 0.4 0.4 0 0 1 51.62509 37.9566 0.4 0.4 0 0 1 51.22509 38.3566 L 48.583 38.3566 A 0.4 0.4 0 0 1 48.183 37.9566 L 48.183 37.4346 A 0.612 0.612 0 0 0 47.571 36.8226 L 43.634 36.8226 A 0.612 0.612 0 0 0 43.022 37.4346 L 43.022 41.7654 A 0.612 0.612 0 0 0 43.634 42.3774 L 47.571 42.3774 Z M 20.3268 33.7511 A 0.612 0.612 0 0 0 20.9388 33.1391 L 20.9388 33.1391 20.9388 30.27646 A 0.4 0.4 0 0 1 21.05596 29.99362 L 21.32822 29.72136 A 0.4 0.4 0 0 1 21.61106 29.6042 L 26.81322 29.6042 A 0.4 0.4 0 0 1 27.19669 29.89041 L 27.19669 29.89041 A 0.612 0.612 0 0 0 27.7834 30.3283 L 32.1142 30.3283 32.1142 30.3283 A 0.612 0.612 0 0 0 32.7262 29.7163 L 32.7262 25.7793 A 0.612 0.612 0 0 0 32.1142 25.1673 L 32.1142 25.1673 27.7834 25.1673 27.7834 25.1673 A 0.612 0.612 0 0 0 27.1714 25.7793 L 27.1714 25.7793 27.1714 27.1928 A 0.4 0.4 0 0 1 26.7714 27.5928 L 21.0288 27.5928 A 1.0057 1.0057 0 0 0 20.74133 27.63476 L 20.74133 27.63476 A 0.4 0.4 0 0 1 20.627 27.65145 0.4 0.4 0 0 1 20.50834 27.63345 L 20.50834 27.63345 A 0.612 0.612 0 0 0 20.3268 27.6059 L 20.3268 27.6059 17.5708 27.6059 17.5708 27.6059 A 0.612 0.612 0 0 0 16.9588 28.2179 L 16.9588 28.2179 16.9588 33.1391 16.9588 33.1391 A 0.612 0.612 0 0 0 17.5708 33.7511 L 20.3268 33.7511 Z M 22.2187 4.5985 A 2.5805 2.5805 0 0 0 24.7992 7.179 2.5805 2.5805 0 0 0 27.3797 4.5985 2.5805 2.5805 0 0 0 24.7992 2.018 2.5805 2.5805 0 0 0 22.2187 4.5985 Z M 28.5179 4.5985 A 2.5805 2.5805 0 0 0 31.0984 7.179 2.5805 2.5805 0 0 0 33.6789 4.5985 2.5805 2.5805 0 0 0 31.0984 2.018 2.5805 2.5805 0 0 0 28.5179 4.5985 Z M 2.10895 39.52172 A 3.95845 3.95845 0 0 0 3.64558 41.05835 L 3.64558 41.05835 3.64558 39.52172 2.10895 39.52172 Z M 3.64558 34.13865 A 3.95845 3.95845 0 0 0 2.10895 35.67528 L 2.10895 35.67528 3.64558 35.67528 3.64558 34.13865 Z M 7.49202 41.05835 A 3.95845 3.95845 0 0 0 9.02865 39.52172 L 7.49203 39.52172 7.49203 41.05835 Z M 7.49203 34.13865 L 7.49203 35.67528 9.02865 35.67528 A 3.95845 3.95845 0 0 0 7.49203 34.13865 Z M 47.5704 34.3774 A 0.612 0.612 0 0 0 48.1824 33.7654 L 48.1824 32.9327 46.83615 32.9327 46.83615 34.3774 47.5704 34.3774 Z M 48.1824 30.2673 L 48.1824 29.4346 A 0.612 0.612 0 0 0 47.5704 28.8226 L 47.5704 28.8226 46.83615 28.8226 46.83615 30.2673 48.1824 30.2673 Z M 43.0214 29.4346 L 43.0214 30.2673 44.36765 30.2673 44.36765 28.8226 43.6334 28.8226 43.6334 28.8226 A 0.612 0.612 0 0 0 43.0214 29.4346 Z M 43.0214 33.7654 A 0.612 0.612 0 0 0 43.6334 34.3774 L 44.36765 34.3774 44.36765 32.9327 43.0214 32.9327 43.0214 33.7654 Z M 17.1988 39.0382 L 17.1988 38.0579 17.1988 38.0579 A 0.612 0.612 0 0 0 16.5868 37.4459 L 16.1478 37.4459 16.1478 39.0382 17.1988 39.0382 Z M 16.1478 41.9988 L 16.1478 43.5911 16.5868 43.5911 A 0.612 0.612 0 0 0 17.1988 42.9791 L 17.1988 42.9791 17.1988 41.9988 16.1478 41.9988 Z M 13.2188 38.0579 L 13.2188 39.0382 14.2698 39.0382 14.2698 37.4459 13.8308 37.4459 13.8308 37.4459 A 0.612 0.612 0 0 0 13.2188 38.0579 Z M 14.2698 43.5911 L 14.2698 41.9988 13.2188 41.9988 13.2188 42.9791 A 0.612 0.612 0 0 0 13.8308 43.5911 L 14.2698 43.5911 Z " stroke-width="0" layerid="2" attachedcopperid="rep439" c_shapetype="line" id="rep439_1" class=""></path><polyline points="39.2988 39.5985 38.3788 40.5185 22.6888 40.5185" stroke-width="0.7874"  stroke-linecap="round" fill="none" layerid="2" net="R5_1" id="gge7975" locked="0" /><polyline points="39.2998 31.5985 39.2988 31.5995 39.2988 39.5985" stroke-width="0.7874"  stroke-linecap="round" fill="none" layerid="2" net="R5_1" id="gge7974" locked="0" /><polyline points="45.5978 5.5985 45.5978 7.4495 39.2988 13.7485 39.2988 15.5985" stroke-width="1.378"  stroke-linecap="round" fill="none" layerid="2" net="VCC" id="gge7973" locked="0" /><polyline points="55.5668 7.5995 53.5658 5.5985 45.5978 5.5985" stroke-width="1.378"  stroke-linecap="round" fill="none" layerid="2" net="VCC" id="gge7972" locked="0" /><polyline points="55.5668 17.5995 47.5988 17.5995 45.5978 15.5985 45.2048 15.2055 45.2048 15.0985" stroke-width="0.7874"  stroke-linecap="round" fill="none" layerid="2" net="SDA" id="gge7971" locked="0" /><polyline points="55.5668 27.5995 49.5988 27.5995 45.5978 23.5985 45.2048 23.2055 45.2048 22.5985" stroke-width="0.7874"  stroke-linecap="round" fill="none" layerid="2" net="SCL" id="gge7970" locked="0" /><polyline points="45.5978 39.5985 53.5678 39.5985 55.5668 37.5995" stroke-width="1.2598"  stroke-linecap="round" fill="none" layerid="2" net="ON" id="gge7969" locked="0" /><polyline points="39.2988 15.5985 39.2988 23.5985" stroke-width="1.378"  stroke-linecap="round" fill="none" layerid="2" net="VCC" id="gge7968" locked="0" /><polyline points="5.5668 7.5985 6.9868 6.1785 18.9488 6.1785" stroke-width="1.378"  stroke-linecap="round" fill="none" layerid="2" net="VBUS" id="gge7967" locked="0" /><polyline points="22.6888 16.0185 22.0978 16.6095 22.0978 23.5985" stroke-width="0.7874"  stroke-linecap="round" fill="none" layerid="2" net="TRIG" id="gge7966" locked="0" /><polyline points="15.7988 23.5985 11.5668 23.5985 5.5668 17.5985" stroke-width="0.7874"  stroke-linecap="round" fill="none" layerid="2" net="SW" id="gge7965" locked="0" /><polyline points="22.0978 23.5985 23.4488 23.5985 25.5988 21.4485 29.9488 21.4485" stroke-width="0.7874"  stroke-linecap="round" fill="none" layerid="2" net="TRIG" id="gge7964" locked="0" /><polyline points="18.9488 30.6785 21.0288 28.5985 29.9488 28.5985 29.9488 27.7475" stroke-width="0.7874"  stroke-linecap="round" fill="none" layerid="2" net="R6_1" id="gge7963" locked="0" /><polyline points="34.9488 31.5985 34.9488 26.0985 37.4488 23.5985 39.2988 23.5985" stroke-width="1.378"  stroke-linecap="round" fill="none" layerid="2" net="VCC" id="gge7962" locked="0" /><polyline points="34.4488 13.0985 29.9488 17.5985 29.9488 21.4485" stroke-width="0.7874"  stroke-linecap="round" fill="none" layerid="2" net="TRIG" id="gge7961" locked="0" /><polyline points="39.2998 5.5985 39.2998 8.2475 34.4488 13.0985" stroke-width="0.7874"  stroke-linecap="round" fill="none" layerid="2" net="TRIG" id="gge7960" locked="0" /><polyline points="15.2088 16.0185 15.2088 12.8385 16.9488 11.0985 32.9488 11.0985 34.4488 9.5985" stroke-width="1.378"  stroke-linecap="round" fill="none" layerid="2" net="VCC" id="gge7959" locked="0" /><polyline points="5.5668 27.5985 8.4488 27.5985 16.4488 35.5985 33.9488 35.5985" stroke-width="0.7874"  stroke-linecap="round" fill="none" layerid="2" net="CLKO" id="gge7958" locked="0" /><g c_partid="part_pad" c_etype="pinpart" c_origin="45.603,39.6" layerid="2" number="2" net="ON" plated ="Y"  id="gge8762" locked="0" c_rotation="180" c_width="3.937" c_height="4.3307" title="ON" c_shape="RECT" pasteexpansion="0" solderexpansion="0.4"><polygon  c_etype="pad_shell" points="43.634 41.7654 47.571 41.7654 47.571 37.4346 43.634 37.4346" layerid="2" stroke-width="0" /><circle c_etype="pad_hole" cx="45.6021" cy="39.6" r="0" layerid="2" stroke-width="0"/></g><g c_partid="part_pad" c_etype="pinpart" c_origin="39.303,39.6" layerid="2" number="1" net="R5_1" plated ="Y"  id="gge8767" locked="0" c_rotation="180" c_width="3.937" c_height="4.3307" title="R5_1" c_shape="RECT" pasteexpansion="0" solderexpansion="0.4"><polygon  c_etype="pad_shell" points="37.3348 41.7654 41.2718 41.7654 41.2718 37.4346 37.3348 37.4346" layerid="2" stroke-width="0" /><circle c_etype="pad_hole" cx="39.3033" cy="39.6" r="0" layerid="2" stroke-width="0"/></g><g c_partid="part_pad" c_etype="pinpart" c_origin="39.303,31.6" layerid="2" number="2" net="R5_1" plated ="Y"  id="gge8784" locked="0" c_rotation="0" c_width="3.937" c_height="4.3307" title="R5_1" c_shape="RECT" pasteexpansion="0" solderexpansion="0.4"><polygon  c_etype="pad_shell" points="41.2712 29.4346 37.3342 29.4346 37.3342 33.7654 41.2712 33.7654" layerid="2" stroke-width="0" /><circle c_etype="pad_hole" cx="39.3031" cy="31.6" r="0" layerid="2" stroke-width="0"/></g><g c_partid="part_pad" c_etype="pinpart" c_origin="45.602,31.6" layerid="2" number="1" net="GND" plated ="Y"  id="gge8789" locked="0" c_rotation="0" c_width="3.937" c_height="4.3307" title="GND" c_shape="RECT" pasteexpansion="0" solderexpansion="0.4"><polygon  c_etype="pad_shell" points="47.5704 29.4346 43.6334 29.4346 43.6334 33.7654 47.5704 33.7654" layerid="2" stroke-width="0" /><circle c_etype="pad_hole" cx="45.6019" cy="31.6" r="0" layerid="2" stroke-width="0"/></g><g c_partid="part_pad" c_etype="pinpart" c_origin="29.949,21.449" layerid="2" number="2" net="TRIG" plated ="Y"  id="gge5903" locked="0" c_rotation="270" c_width="3.937" c_height="4.3307" title="TRIG" c_shape="RECT" pasteexpansion="0" solderexpansion="0.4"><polygon  c_etype="pad_shell" points="32.1142 23.4171 32.1142 19.4801 27.7834 19.4801 27.7834 23.4171" layerid="2" stroke-width="0" /><circle c_etype="pad_hole" cx="29.9488" cy="21.449" r="0" layerid="2" stroke-width="0"/></g><g c_partid="part_pad" c_etype="pinpart" c_origin="29.949,27.748" layerid="2" number="1" net="R6_1" plated ="Y"  id="gge5908" locked="0" c_rotation="270" c_width="3.937" c_height="4.3307" title="R6_1" c_shape="RECT" pasteexpansion="0" solderexpansion="0.4"><polygon  c_etype="pad_shell" points="32.1142 29.7163 32.1142 25.7793 27.7834 25.7793 27.7834 29.7163" layerid="2" stroke-width="0" /><circle c_etype="pad_hole" cx="29.9488" cy="27.7478" r="0" layerid="2" stroke-width="0"/></g><g c_partid="part_pad" c_etype="pinpart" c_origin="15.799,23.599" layerid="2" number="2" net="SW" plated ="Y"  id="gge5947" locked="0" c_rotation="0" c_width="3.937" c_height="4.3307" title="SW" c_shape="RECT" pasteexpansion="0" solderexpansion="0.4"><polygon  c_etype="pad_shell" points="17.7674 21.4331 13.8304 21.4331 13.8304 25.7639 17.7674 25.7639" layerid="2" stroke-width="0" /><circle c_etype="pad_hole" cx="15.7993" cy="23.5985" r="0" layerid="2" stroke-width="0"/></g><g c_partid="part_pad" c_etype="pinpart" c_origin="22.098,23.599" layerid="2" number="1" net="TRIG" plated ="Y"  id="gge5952" locked="0" c_rotation="0" c_width="3.937" c_height="4.3307" title="TRIG" c_shape="RECT" pasteexpansion="0" solderexpansion="0.4"><polygon  c_etype="pad_shell" points="24.0666 21.4331 20.1296 21.4331 20.1296 25.7639 24.0666 25.7639" layerid="2" stroke-width="0" /><circle c_etype="pad_hole" cx="22.0981" cy="23.5985" r="0" layerid="2" stroke-width="0"/></g><g c_partid="part_pad" c_etype="pinpart" c_origin="39.299,23.599" layerid="2" number="2" net="VCC" plated ="Y"  id="gge5969" locked="0" c_rotation="0" c_width="3.937" c_height="4.3307" title="VCC" c_shape="RECT" pasteexpansion="0" solderexpansion="0.4"><polygon  c_etype="pad_shell" points="41.2674 21.4331 37.3304 21.4331 37.3304 25.7639 41.2674 25.7639" layerid="2" stroke-width="0" /><circle c_etype="pad_hole" cx="39.2993" cy="23.5985" r="0" layerid="2" stroke-width="0"/></g><g c_partid="part_pad" c_etype="pinpart" c_origin="45.598,23.599" layerid="2" number="1" net="SCL" plated ="Y"  id="gge5974" locked="0" c_rotation="0" c_width="3.937" c_height="4.3307" title="SCL" c_shape="RECT" pasteexpansion="0" solderexpansion="0.4"><polygon  c_etype="pad_shell" points="47.5666 21.4331 43.6296 21.4331 43.6296 25.7639 47.5666 25.7639" layerid="2" stroke-width="0" /><circle c_etype="pad_hole" cx="45.5981" cy="23.5985" r="0" layerid="2" stroke-width="0"/></g><g c_partid="part_pad" c_etype="pinpart" c_origin="39.299,15.599" layerid="2" number="2" net="VCC" plated ="Y"  id="gge5991" locked="0" c_rotation="0" c_width="3.937" c_height="4.3307" title="VCC" c_shape="RECT" pasteexpansion="0" solderexpansion="0.4"><polygon  c_etype="pad_shell" points="41.2674 13.4331 37.3304 13.4331 37.3304 17.7639 41.2674 17.7639" layerid="2" stroke-width="0" /><circle c_etype="pad_hole" cx="39.2993" cy="15.5985" r="0" layerid="2" stroke-width="0"/></g><g c_partid="part_pad" c_etype="pinpart" c_origin="45.598,15.599" layerid="2" number="1" net="SDA" plated ="Y"  id="gge5996" locked="0" c_rotation="0" c_width="3.937" c_height="4.3307" title="SDA" c_shape="RECT" pasteexpansion="0" solderexpansion="0.4"><polygon  c_etype="pad_shell" points="47.5666 13.4331 43.6296 13.4331 43.6296 17.7639 47.5666 17.7639" layerid="2" stroke-width="0" /><circle c_etype="pad_hole" cx="45.5981" cy="15.5985" r="0" layerid="2" stroke-width="0"/></g><g c_partid="part_pad" c_etype="pinpart" c_origin="45.599,5.599" layerid="2" number="2" net="VCC" plated ="Y"  id="gge6013" locked="0" c_rotation="180" c_width="3.937" c_height="4.3307" title="VCC" c_shape="RECT" pasteexpansion="0" solderexpansion="0.4"><polygon  c_etype="pad_shell" points="43.6302 7.7639 47.5672 7.7639 47.5672 3.4331 43.6302 3.4331" layerid="2" stroke-width="0" /><circle c_etype="pad_hole" cx="45.5983" cy="5.5985" r="0" layerid="2" stroke-width="0"/></g><g c_partid="part_pad" c_etype="pinpart" c_origin="39.3,5.599" layerid="2" number="1" net="TRIG" plated ="Y"  id="gge6018" locked="0" c_rotation="180" c_width="3.937" c_height="4.3307" title="TRIG" c_shape="RECT" pasteexpansion="0" solderexpansion="0.4"><polygon  c_etype="pad_shell" points="37.331 7.7639 41.268 7.7639 41.268 3.4331 37.331 3.4331" layerid="2" stroke-width="0" /><circle c_etype="pad_hole" cx="39.2995" cy="5.5985" r="0" layerid="2" stroke-width="0"/></g><g c_partid="part_pad" c_etype="pinpart" c_origin="22.689,40.519" layerid="2" number="1" net="R5_1" plated ="Y"  id="gge4896" locked="0" c_rotation="180" c_width="2.7559" c_height="4.9213" title="R5_1" c_shape="RECT" pasteexpansion="0" solderexpansion="0.4"><polygon  c_etype="pad_shell" points="21.3108 42.9791 24.0668 42.9791 24.0668 38.0579 21.3108 38.0579" layerid="2" stroke-width="0" /><circle c_etype="pad_hole" cx="22.6888" cy="40.5185" r="0" layerid="2" stroke-width="0"/></g><g c_partid="part_pad" c_etype="pinpart" c_origin="15.209,40.519" layerid="2" number="2" net="GND" plated ="Y"  id="gge4901" locked="0" c_rotation="180" c_width="2.7559" c_height="4.9213" title="GND" c_shape="RECT" pasteexpansion="0" solderexpansion="0.4"><polygon  c_etype="pad_shell" points="13.8308 42.9791 16.5868 42.9791 16.5868 38.0579 13.8308 38.0579" layerid="2" stroke-width="0" /><circle c_etype="pad_hole" cx="15.2088" cy="40.5185" r="0" layerid="2" stroke-width="0"/></g><g c_partid="part_pad" c_etype="pinpart" c_origin="18.949,30.679" layerid="2" number="3" net="R6_1" plated ="Y"  id="gge4906" locked="0" c_rotation="180" c_width="2.7559" c_height="4.9213" title="R6_1" c_shape="RECT" pasteexpansion="0" solderexpansion="0.4"><polygon  c_etype="pad_shell" points="17.5708 33.1391 20.3268 33.1391 20.3268 28.2179 17.5708 28.2179" layerid="2" stroke-width="0" /><circle c_etype="pad_hole" cx="18.9488" cy="30.6785" r="0" layerid="2" stroke-width="0"/></g><g c_partid="part_pad" c_etype="pinpart" c_origin="22.689,16.019" layerid="2" number="1" net="TRIG" plated ="Y"  id="gge2724" locked="0" c_rotation="180" c_width="2.7559" c_height="4.9213" title="TRIG" c_shape="RECT" pasteexpansion="0" solderexpansion="0.4"><polygon  c_etype="pad_shell" points="21.3108 18.4791 24.0668 18.4791 24.0668 13.5579 21.3108 13.5579" layerid="2" stroke-width="0" /><circle c_etype="pad_hole" cx="22.6888" cy="16.0185" r="0" layerid="2" stroke-width="0"/></g><g c_partid="part_pad" c_etype="pinpart" c_origin="15.209,16.019" layerid="2" number="2" net="VCC" plated ="Y"  id="gge2729" locked="0" c_rotation="180" c_width="2.7559" c_height="4.9213" title="VCC" c_shape="RECT" pasteexpansion="0" solderexpansion="0.4"><polygon  c_etype="pad_shell" points="13.8308 18.4791 16.5868 18.4791 16.5868 13.5579 13.8308 13.5579" layerid="2" stroke-width="0" /><circle c_etype="pad_hole" cx="15.2088" cy="16.0185" r="0" layerid="2" stroke-width="0"/></g><g c_partid="part_pad" c_etype="pinpart" c_origin="18.949,6.179" layerid="2" number="3" net="VBUS" plated ="Y"  id="gge2734" locked="0" c_rotation="180" c_width="2.7559" c_height="4.9213" title="VBUS" c_shape="RECT" pasteexpansion="0" solderexpansion="0.4"><polygon  c_etype="pad_shell" points="17.5708 8.6391 20.3268 8.6391 20.3268 3.7179 17.5708 3.7179" layerid="2" stroke-width="0" /><circle c_etype="pad_hole" cx="18.9488" cy="6.1785" r="0" layerid="2" stroke-width="0"/></g><polyline points="36.3504 42.7497 36.3504 36.4503" stroke-width="1"  stroke-linecap="round" fill="none" layerid="4" net="" id="gge8754" locked="0" /><polyline points="43.6363 36.4704 48.5574 36.4704" stroke-width="1"  stroke-linecap="round" fill="none" layerid="4" net="" id="gge8755" locked="0" /><polyline points="43.6363 42.7698 48.5574 42.7698" stroke-width="1"  stroke-linecap="round" fill="none" layerid="4" net="" id="gge8756" locked="0" /><polyline points="41.2718 36.4503 36.3504 36.4503" stroke-width="1"  stroke-linecap="round" fill="none" layerid="4" net="" id="gge8757" locked="0" /><polyline points="41.2718 42.7497 36.3504 42.7497" stroke-width="1"  stroke-linecap="round" fill="none" layerid="4" net="" id="gge8758" locked="0" /><polyline points="48.5574 42.7698 48.5574 36.4704" stroke-width="1"  stroke-linecap="round" fill="none" layerid="4" net="" id="gge8759" locked="0" /><polyline points="48.5548 28.4503 48.5548 34.7497" stroke-width="1"  stroke-linecap="round" fill="none" layerid="4" net="" id="gge8776" locked="0" /><polyline points="41.2689 34.7296 36.3478 34.7296" stroke-width="1"  stroke-linecap="round" fill="none" layerid="4" net="" id="gge8777" locked="0" /><polyline points="41.2689 28.4302 36.3478 28.4302" stroke-width="1"  stroke-linecap="round" fill="none" layerid="4" net="" id="gge8778" locked="0" /><polyline points="43.6334 34.7497 48.5548 34.7497" stroke-width="1"  stroke-linecap="round" fill="none" layerid="4" net="" id="gge8779" locked="0" /><polyline points="43.6334 28.4503 48.5548 28.4503" stroke-width="1"  stroke-linecap="round" fill="none" layerid="4" net="" id="gge8780" locked="0" /><polyline points="36.3478 28.4302 36.3478 34.7296" stroke-width="1"  stroke-linecap="round" fill="none" layerid="4" net="" id="gge8781" locked="0" /><polyline points="33.0985 30.7007 26.7991 30.7007" stroke-width="1"  stroke-linecap="round" fill="none" layerid="4" net="" id="gge5895" locked="0" /><polyline points="26.8192 23.4148 26.8192 18.4937" stroke-width="1"  stroke-linecap="round" fill="none" layerid="4" net="" id="gge5896" locked="0" /><polyline points="33.1186 23.4148 33.1186 18.4937" stroke-width="1"  stroke-linecap="round" fill="none" layerid="4" net="" id="gge5897" locked="0" /><polyline points="26.7991 25.7793 26.7991 30.7007" stroke-width="1"  stroke-linecap="round" fill="none" layerid="4" net="" id="gge5898" locked="0" /><polyline points="33.0985 25.7793 33.0985 30.7007" stroke-width="1"  stroke-linecap="round" fill="none" layerid="4" net="" id="gge5899" locked="0" /><polyline points="33.1186 18.4937 26.8192 18.4937" stroke-width="1"  stroke-linecap="round" fill="none" layerid="4" net="" id="gge5900" locked="0" /><polyline points="25.051 20.4488 25.051 26.7482" stroke-width="1"  stroke-linecap="round" fill="none" layerid="4" net="" id="gge5939" locked="0" /><polyline points="17.7651 26.7281 12.844 26.7281" stroke-width="1"  stroke-linecap="round" fill="none" layerid="4" net="" id="gge5940" locked="0" /><polyline points="17.7651 20.4287 12.844 20.4287" stroke-width="1"  stroke-linecap="round" fill="none" layerid="4" net="" id="gge5941" locked="0" /><polyline points="20.1296 26.7482 25.051 26.7482" stroke-width="1"  stroke-linecap="round" fill="none" layerid="4" net="" id="gge5942" locked="0" /><polyline points="20.1296 20.4488 25.051 20.4488" stroke-width="1"  stroke-linecap="round" fill="none" layerid="4" net="" id="gge5943" locked="0" /><polyline points="12.844 20.4287 12.844 26.7281" stroke-width="1"  stroke-linecap="round" fill="none" layerid="4" net="" id="gge5944" locked="0" /><polyline points="48.551 20.4488 48.551 26.7482" stroke-width="1"  stroke-linecap="round" fill="none" layerid="4" net="" id="gge5961" locked="0" /><polyline points="41.2651 26.7281 36.344 26.7281" stroke-width="1"  stroke-linecap="round" fill="none" layerid="4" net="" id="gge5962" locked="0" /><polyline points="41.2651 20.4287 36.344 20.4287" stroke-width="1"  stroke-linecap="round" fill="none" layerid="4" net="" id="gge5963" locked="0" /><polyline points="43.6296 26.7482 48.551 26.7482" stroke-width="1"  stroke-linecap="round" fill="none" layerid="4" net="" id="gge5964" locked="0" /><polyline points="43.6296 20.4488 48.551 20.4488" stroke-width="1"  stroke-linecap="round" fill="none" layerid="4" net="" id="gge5965" locked="0" /><polyline points="36.344 20.4287 36.344 26.7281" stroke-width="1"  stroke-linecap="round" fill="none" layerid="4" net="" id="gge5966" locked="0" /><polyline points="48.551 12.4488 48.551 18.7482" stroke-width="1"  stroke-linecap="round" fill="none" layerid="4" net="" id="gge5983" locked="0" /><polyline points="41.2651 18.7281 36.344 18.7281" stroke-width="1"  stroke-linecap="round" fill="none" layerid="4" net="" id="gge5984" locked="0" /><polyline points="41.2651 12.4287 36.344 12.4287" stroke-width="1"  stroke-linecap="round" fill="none" layerid="4" net="" id="gge5985" locked="0" /><polyline points="43.6296 18.7482 48.551 18.7482" stroke-width="1"  stroke-linecap="round" fill="none" layerid="4" net="" id="gge5986" locked="0" /><polyline points="43.6296 12.4488 48.551 12.4488" stroke-width="1"  stroke-linecap="round" fill="none" layerid="4" net="" id="gge5987" locked="0" /><polyline points="36.344 12.4287 36.344 18.7281" stroke-width="1"  stroke-linecap="round" fill="none" layerid="4" net="" id="gge5988" locked="0" /><polyline points="36.3466 8.7482 36.3466 2.4488" stroke-width="1"  stroke-linecap="round" fill="none" layerid="4" net="" id="gge6005" locked="0" /><polyline points="43.6325 2.4689 48.5536 2.4689" stroke-width="1"  stroke-linecap="round" fill="none" layerid="4" net="" id="gge6006" locked="0" /><polyline points="43.6325 8.7683 48.5536 8.7683" stroke-width="1"  stroke-linecap="round" fill="none" layerid="4" net="" id="gge6007" locked="0" /><polyline points="41.268 2.4488 36.3466 2.4488" stroke-width="1"  stroke-linecap="round" fill="none" layerid="4" net="" id="gge6008" locked="0" /><polyline points="41.268 8.7482 36.3466 8.7482" stroke-width="1"  stroke-linecap="round" fill="none" layerid="4" net="" id="gge6009" locked="0" /><polyline points="48.5536 8.7683 48.5536 2.4689" stroke-width="1"  stroke-linecap="round" fill="none" layerid="4" net="" id="gge6010" locked="0" /><polyline points="25.2479 32.0551 21.2369 32.0551" stroke-width="1"  stroke-linecap="round" fill="none" layerid="4" net="" id="gge4887" locked="0" /><polyline points="12.9207 39.1418 12.6495 39.1418" stroke-width="1"  stroke-linecap="round" fill="none" layerid="4" net="" id="gge4888" locked="0" /><polyline points="20.4007 39.1418 17.4969 39.1418" stroke-width="1"  stroke-linecap="round" fill="none" layerid="4" net="" id="gge4889" locked="0" /><polyline points="25.2479 39.1418 24.9769 39.1418" stroke-width="1"  stroke-linecap="round" fill="none" layerid="4" net="" id="gge4890" locked="0" /><polyline points="12.6495 32.0551 12.6495 39.1418" stroke-width="1"  stroke-linecap="round" fill="none" layerid="4" net="" id="gge4891" locked="0" /><polyline points="25.2479 32.0551 25.2479 39.1418" stroke-width="1"  stroke-linecap="round" fill="none" layerid="4" net="" id="gge4892" locked="0" /><polyline points="16.6607 32.0551 12.6495 32.0551" stroke-width="1"  stroke-linecap="round" fill="none" layerid="4" net="" id="gge4893" locked="0" /><polyline points="25.2479 7.5551 21.2369 7.5551" stroke-width="1"  stroke-linecap="round" fill="none" layerid="4" net="" id="gge2715" locked="0" /><polyline points="12.9207 14.6418 12.6495 14.6418" stroke-width="1"  stroke-linecap="round" fill="none" layerid="4" net="" id="gge2716" locked="0" /><polyline points="20.4007 14.6418 17.4969 14.6418" stroke-width="1"  stroke-linecap="round" fill="none" layerid="4" net="" id="gge2717" locked="0" /><polyline points="25.2479 14.6418 24.9769 14.6418" stroke-width="1"  stroke-linecap="round" fill="none" layerid="4" net="" id="gge2718" locked="0" /><polyline points="12.6495 7.5551 12.6495 14.6418" stroke-width="1"  stroke-linecap="round" fill="none" layerid="4" net="" id="gge2719" locked="0" /><polyline points="25.2479 7.5551 25.2479 14.6418" stroke-width="1"  stroke-linecap="round" fill="none" layerid="4" net="" id="gge2720" locked="0" /><polyline points="16.6607 7.5551 12.6495 7.5551" stroke-width="1"  stroke-linecap="round" fill="none" layerid="4" net="" id="gge2721" locked="0" /><g c_partid="part_pcbtext" c_etype="pinpart" c_origin="1.89,3.228" c_rotation="0" c_mirror="1" id="gge4576" locked="0" layerid="4" c_shapetype="group" ><path c_fontsize="2.7559" c_fontfamily="" c_text="." d="M 1.7598 2.4484 L 1.8898 2.5784 L 1.7598 2.6984 L 1.6398 2.5784 L 1.7598 2.4484" fill="none"  stroke-width="2.7559"  /></g><g c_partid="part_pcbtext" c_etype="" c_origin="45.646,40.149" c_rotation="180" c_mirror="1" id="gge1008" locked="0" layerid="4" c_shapetype="group" display="none"><path c_fontsize="4.5" c_fontfamily="" c_text="R5" d="M45.646 44.6899L45.646 40.3945M45.646 44.6899L47.4869 44.6899 48.1005 44.4854 48.3051 44.2808 48.5096 43.8717 48.5096 43.4626 48.3051 43.0535 48.1005 42.849 47.4869 42.6445 45.646 42.6445M47.0778 42.6445L48.5096 40.3945M52.3142 44.6899L50.2687 44.6899 50.0642 42.849 50.2687 43.0535 50.8824 43.2581 51.496 43.2581 52.1096 43.0535 52.5187 42.6445 52.7233 42.0308 52.7233 41.6217 52.5187 41.0081 52.1096 40.599 51.496 40.3945 50.8824 40.3945 50.2687 40.599 50.0642 40.8035 49.8596 41.2126" fill="none"  stroke-width="0.6" c_note="note_pre" /></g><g c_partid="part_pcbtext" c_etype="" c_origin="45.646,32.149" c_rotation="180" c_mirror="true" id="rep2" locked="0" layerid="4" c_shapetype="group" display="none"><path c_fontsize="4.5" c_fontfamily="" c_text="_" d="M 45.65 33.34L49.33 33.34 " fill="none"  stroke-width="0.6" c_note="note_name" /></g><g c_partid="part_pcbtext" c_etype="" c_origin="33.846,28.149" c_rotation="0" c_mirror="1" id="gge933" locked="0" layerid="4" c_shapetype="group" display="none"><path c_fontsize="4.5" c_fontfamily="" c_text="R7" d="M33.846 23.6081L33.846 27.9035M33.846 23.6081L32.0051 23.6081 31.3915 23.8126 31.1869 24.0172 30.9824 24.4263 30.9824 24.8354 31.1869 25.2445 31.3915 25.449 32.0051 25.6535 33.846 25.6535M32.4142 25.6535L30.9824 27.9035M26.7687 23.6081L28.8142 27.9035M29.6324 23.6081L26.7687 23.6081" fill="none"  stroke-width="0.6" c_note="note_pre" /></g><g c_partid="part_pcbtext" c_etype="" c_origin="33.846,20.149" c_rotation="0" c_mirror="true" id="rep3" locked="0" layerid="4" c_shapetype="group" display="none"><path c_fontsize="4.5" c_fontfamily="" c_text="_" d="M33.846 21.33536363636364L30.164181818181817 21.33536363636364" fill="none"  stroke-width="0.6" c_note="note_name" /></g><g c_partid="part_pcbtext" c_etype="" c_origin="38.496,15.989" c_rotation="270" c_mirror="1" id="rep5" locked="0" layerid="4" c_shapetype="group" display="none"><path c_fontsize="4.5" c_fontfamily="NotoSerifCJKsc-Medium" c_text="1,2kΩ" d="M 39.0162 15.2085 C 39.2562 15.2185 39.4862 15.2185 39.7162 15.2185 L 41.0962 15.2185 L 41.7262 15.1985 L 41.7762 15.2585 L 41.5362 16.1585 L 41.3862 16.1585 L 41.4362 15.5785 L 39.7162 15.5785 C 39.4862 15.5785 39.2562 15.5785 39.0162 15.5885 L 38.9362 16.2085 L 38.7962 16.2085 L 38.7962 14.5985 L 38.9362 14.5985 Z  M 38.6462 13.6585 C 38.3162 13.7485 38.1162 13.9785 37.9562 14.2785 L 37.8362 14.2185 C 37.9962 13.8185 38.3962 13.4185 38.9062 13.4185 C 39.0162 13.4185 39.1162 13.4285 39.2162 13.4685 C 39.3062 13.5585 39.3362 13.6485 39.3362 13.7285 C 39.3362 13.8885 39.2162 13.9785 39.0662 13.9785 C 38.9662 13.9785 38.8562 13.9385 38.7762 13.8185 Z  M 39.1362 12.5285 C 39.3462 12.3285 39.5462 12.1285 39.6662 12.0185 C 40.3562 11.3585 40.6362 11.1385 41.0162 11.1385 C 41.4662 11.1385 41.7862 11.3885 41.7862 11.9485 C 41.7862 12.3885 41.5662 12.7685 41.1262 12.8285 C 41.0462 12.7885 40.9962 12.7085 40.9962 12.6185 C 40.9962 12.5085 41.0662 12.4285 41.2662 12.3785 L 41.5862 12.2885 C 41.6062 12.1985 41.6162 12.1185 41.6162 12.0585 C 41.6162 11.7285 41.3662 11.5185 40.9962 11.5185 C 40.6362 11.5185 40.3062 11.7185 39.8162 12.1485 C 39.5962 12.3385 39.3362 12.5685 39.0662 12.8085 L 38.7962 12.8085 L 38.7962 11.0085 L 39.1362 11.0085 Z  M 38.9762 8.7085 L 40.1662 9.4485 L 40.6762 8.9485 L 40.7262 8.5385 L 40.8762 8.5385 L 40.8762 9.5485 L 40.7262 9.5485 L 40.6562 9.1985 L 39.8362 9.9985 L 41.3762 9.9985 L 42.0062 9.9785 L 42.0362 10.0385 L 41.8562 10.7085 L 41.7162 10.7085 L 41.6862 10.3585 L 39.7162 10.3585 C 39.4762 10.3585 39.2162 10.3585 38.9762 10.3585 L 38.9362 10.7085 L 38.7962 10.7085 L 38.7962 9.6385 L 38.9362 9.6385 L 38.9762 9.9885 C 39.1862 9.9885 39.4062 9.9985 39.6162 9.9985 L 39.9162 9.6985 L 38.7962 9.0185 L 38.7962 8.4285 L 38.9362 8.4285 Z  M 39.5362 5.6285 L 39.1062 5.7285 L 39.1062 6.3485 L 39.1062 6.3485 C 39.4262 5.8985 39.8962 5.5385 40.4662 5.5385 C 41.3262 5.5385 41.7962 6.1485 41.7962 6.8185 C 41.7962 7.5085 41.3262 8.1085 40.4662 8.1085 C 39.8962 8.1085 39.4262 7.7485 39.1062 7.2985 L 39.1062 7.2985 L 39.1062 7.9185 L 39.5362 8.0185 L 39.5362 8.2485 L 38.7962 8.2085 L 38.7962 7.0385 L 39.0662 7.0385 C 39.3962 7.4385 39.9162 7.6985 40.4662 7.6985 C 41.1162 7.6985 41.6062 7.3785 41.6062 6.8185 C 41.6062 6.2785 41.1162 5.9485 40.4662 5.9485 C 39.9162 5.9485 39.3962 6.2085 39.0662 6.6185 L 38.7962 6.6185 L 38.7962 5.4385 L 39.5362 5.3985 Z "  stroke="none" stroke-width="1" c_note="note_name" /></g><g c_partid="part_pcbtext" c_etype="" c_origin="35.282,9.116" c_rotation="90" c_mirror="1" id="gge1130" locked="0" layerid="4" c_shapetype="group" display="none"><path c_fontsize="4.5" c_fontfamily="" c_text="R6" d="M 30.7413 9.1155 L 35.0367 9.1155 M 30.7413 9.1155 L 30.7413 10.9564 L 30.9458 11.57 L 31.1504 11.7746 L 31.5595 11.9791 L 31.9686 11.9791 L 32.3777 11.7746 L 32.5822 11.57 L 32.7867 10.9564 L 32.7867 9.1155 M 32.7867 10.5473 L 35.0367 11.9791 M 31.3549 15.7837 L 30.9458 15.5791 L 30.7413 14.9655 L 30.7413 14.5564 L 30.9458 13.9428 L 31.5595 13.5337 L 32.5822 13.3291 L 33.6049 13.3291 L 34.4231 13.5337 L 34.8322 13.9428 L 35.0367 14.5564 L 35.0367 14.761 L 34.8322 15.3746 L 34.4231 15.7837 L 33.8095 15.9882 L 33.6049 15.9882 L 32.9913 15.7837 L 32.5822 15.3746 L 32.3777 14.761 L 32.3777 14.5564 L 32.5822 13.9428 L 32.9913 13.5337 L 33.6049 13.3291" fill="none"  stroke-width="0.6" c_note="note_pre" /></g><g c_partid="part_pcbtext" c_etype="" c_origin="10.344,23.045" c_rotation="0" c_mirror="1" id="gge978" locked="0" layerid="4" c_shapetype="group" display="none"><path c_fontsize="4.5" c_fontfamily="" c_text="R8" d="M 10.3435 18.504 L 10.3435 22.7994 M 10.3435 18.504 L 8.5026 18.504 L 7.889 18.7085 L 7.6844 18.9131 L 7.4799 19.3222 L 7.4799 19.7313 L 7.6844 20.1404 L 7.889 20.3449 L 8.5026 20.5494 L 10.3435 20.5494 M 8.9117 20.5494 L 7.4799 22.7994 M 5.1071 18.504 L 5.7208 18.7085 L 5.9253 19.1176 L 5.9253 19.5267 L 5.7208 19.9358 L 5.3117 20.1404 L 4.4935 20.3449 L 3.8799 20.5494 L 3.4708 20.9585 L 3.2662 21.3676 L 3.2662 21.9813 L 3.4708 22.3904 L 3.6753 22.5949 L 4.289 22.7994 L 5.1071 22.7994 L 5.7208 22.5949 L 5.9253 22.3904 L 6.1299 21.9813 L 6.1299 21.3676 L 5.9253 20.9585 L 5.5162 20.5494 L 4.9026 20.3449 L 4.0844 20.1404 L 3.6753 19.9358 L 3.4708 19.5267 L 3.4708 19.1176 L 3.6753 18.7085 L 4.289 18.504 L 5.1071 18.504" fill="none"  stroke-width="0.6" c_note="note_pre" /></g><g c_partid="part_pcbtext" c_etype="" c_origin="33.844,20.149" c_rotation="0" c_mirror="1" id="gge1115" locked="0" layerid="4" c_shapetype="group" display="none"><path c_fontsize="4.5" c_fontfamily="" c_text="R4" d="M 33.8436 15.6076 L 33.8436 19.903 M 33.8436 15.6076 L 32.0027 15.6076 L 31.3891 15.8121 L 31.1845 16.0167 L 30.98 16.4258 L 30.98 16.8349 L 31.1845 17.244 L 31.3891 17.4485 L 32.0027 17.653 L 33.8436 17.653 M 32.4118 17.653 L 30.98 19.903 M 27.5845 15.6076 L 29.63 18.4712 L 26.5618 18.4712 M 27.5845 15.6076 L 27.5845 19.903" fill="none"  stroke-width="0.6" c_note="note_pre" /></g><g c_partid="part_pcbtext" c_etype="" c_origin="33.844,12.149" c_rotation="0" c_mirror="1" id="gge993" locked="0" layerid="4" c_shapetype="group" display="none"><path c_fontsize="4.5" c_fontfamily="" c_text="R3" d="M 33.8436 7.6076 L 33.8436 11.903 M 33.8436 7.6076 L 32.0027 7.6076 L 31.3891 7.8121 L 31.1845 8.0167 L 30.98 8.4258 L 30.98 8.8349 L 31.1845 9.244 L 31.3891 9.4485 L 32.0027 9.653 L 33.8436 9.653 M 32.4118 9.653 L 30.98 11.903 M 29.2209 7.6076 L 26.9709 7.6076 L 28.1981 9.244 L 27.5845 9.244 L 27.1754 9.4485 L 26.9709 9.653 L 26.7663 10.2667 L 26.7663 10.6758 L 26.9709 11.2894 L 27.38 11.6985 L 27.9936 11.903 L 28.6072 11.903 L 29.2209 11.6985 L 29.4254 11.494 L 29.63 11.0849" fill="none"  stroke-width="0.6" c_note="note_pre" /></g><g c_partid="part_pcbtext" c_etype="" c_origin="46.676,21.049" c_rotation="180" c_mirror="1" id="rep9" locked="0" layerid="4" c_shapetype="group" display="none"><path c_fontsize="4.5" c_fontfamily="NotoSerifCJKsc-Medium" c_text="120kΩ" d="M 47.6862 21.7185 C 47.6762 21.9585 47.6762 22.1885 47.6762 22.4185 L 47.6762 23.7985 L 47.6962 24.4285 L 47.6362 24.4785 L 46.7362 24.2385 L 46.7362 24.0885 L 47.3162 24.1385 L 47.3162 22.4185 C 47.3162 22.1885 47.3162 21.9585 47.3062 21.7185 L 46.6862 21.6385 L 46.6862 21.4985 L 48.2962 21.4985 L 48.2962 21.6385 Z  M 49.0462 21.8385 C 49.2562 22.0485 49.4462 22.2485 49.5662 22.3685 C 50.2162 23.0585 50.4462 23.3385 50.4462 23.7185 C 50.4462 24.1685 50.1962 24.4885 49.6262 24.4885 C 49.1962 24.4885 48.8062 24.2685 48.7462 23.8285 C 48.7962 23.7485 48.8662 23.6985 48.9562 23.6985 C 49.0762 23.6985 49.1462 23.7685 49.1962 23.9685 L 49.2862 24.2885 C 49.3762 24.3085 49.4562 24.3185 49.5262 24.3185 C 49.8562 24.3185 50.0562 24.0685 50.0562 23.6985 C 50.0562 23.3385 49.8562 23.0085 49.4362 22.5185 C 49.2362 22.2985 49.0062 22.0385 48.7662 21.7685 L 48.7662 21.4985 L 50.5662 21.4985 L 50.5662 21.8385 Z  M 51.3162 22.9885 C 51.3162 24.0385 51.5762 24.3185 51.8562 24.3185 C 52.1162 24.3185 52.3762 24.0385 52.3762 22.9885 C 52.3762 21.8985 52.1162 21.6085 51.8562 21.6085 C 51.5762 21.6085 51.3162 21.8985 51.3162 22.9885 Z  M 51.8562 24.4885 C 51.3762 24.4885 50.9262 24.0785 50.9262 22.9885 C 50.9262 21.8585 51.3762 21.4385 51.8562 21.4385 C 52.3162 21.4385 52.7662 21.8585 52.7662 22.9885 C 52.7662 24.0785 52.3162 24.4885 51.8562 24.4885 Z  M 55.0662 21.6785 L 54.3262 22.8685 L 54.8262 23.3785 L 55.2362 23.4285 L 55.2362 23.5785 L 54.2262 23.5785 L 54.2262 23.4285 L 54.5762 23.3585 L 53.7762 22.5385 L 53.7762 24.0785 L 53.7962 24.7085 L 53.7362 24.7385 L 53.0662 24.5585 L 53.0662 24.4185 L 53.4162 24.3885 L 53.4162 22.4185 C 53.4162 22.1785 53.4162 21.9185 53.4162 21.6785 L 53.0662 21.6385 L 53.0662 21.4985 L 54.1362 21.4985 L 54.1362 21.6385 L 53.7862 21.6785 C 53.7862 21.8885 53.7762 22.1085 53.7762 22.3185 L 54.0762 22.6185 L 54.7562 21.4985 L 55.3462 21.4985 L 55.3462 21.6385 Z  M 58.1462 22.2385 L 58.0462 21.8085 L 57.4262 21.8085 L 57.4262 21.8085 C 57.8762 22.1285 58.2362 22.5985 58.2362 23.1685 C 58.2362 24.0285 57.6262 24.4985 56.9562 24.4985 C 56.2662 24.4985 55.6662 24.0285 55.6662 23.1685 C 55.6662 22.5985 56.0262 22.1285 56.4762 21.8085 L 56.4762 21.8085 L 55.8562 21.8085 L 55.7562 22.2385 L 55.5262 22.2385 L 55.5662 21.4985 L 56.7362 21.4985 L 56.7362 21.7685 C 56.3362 22.0985 56.0762 22.6185 56.0762 23.1685 C 56.0762 23.8185 56.3962 24.3085 56.9562 24.3085 C 57.4962 24.3085 57.8262 23.8185 57.8262 23.1685 C 57.8262 22.6185 57.5662 22.0985 57.1562 21.7685 L 57.1562 21.4985 L 58.3362 21.4985 L 58.3762 22.2385 Z "  stroke="none" stroke-width="1" c_note="note_name" /></g><g c_partid="part_pcbtext" c_etype="" c_origin="45.646,9.049" c_rotation="180" c_mirror="1" id="gge963" locked="0" layerid="4" c_shapetype="group" display="none"><path c_fontsize="4.5" c_fontfamily="" c_text="R2" d="M 45.6462 13.5894 L 45.6462 9.294 M 45.6462 13.5894 L 47.4871 13.5894 L 48.1007 13.3849 L 48.3053 13.1803 L 48.5098 12.7712 L 48.5098 12.3621 L 48.3053 11.953 L 48.1007 11.7485 L 47.4871 11.544 L 45.6462 11.544 M 47.078 11.544 L 48.5098 9.294 M 50.0644 12.5667 L 50.0644 12.7712 L 50.2689 13.1803 L 50.4735 13.3849 L 50.8826 13.5894 L 51.7007 13.5894 L 52.1098 13.3849 L 52.3144 13.1803 L 52.5189 12.7712 L 52.5189 12.3621 L 52.3144 11.953 L 51.9053 11.3394 L 49.8598 9.294 L 52.7235 9.294" fill="none"  stroke-width="0.6" c_note="note_pre" /></g><g c_partid="part_pcbtext" c_etype="" c_origin="6.689,35.519" c_rotation="90" c_mirror="1" id="gge4883" locked="0" layerid="4" c_shapetype="group" display="none"><path c_fontsize="4.5" c_fontfamily="" c_text="SI2302" d="M 2.7588 38.3785 L 2.3488 37.9685 L 2.1488 37.3585 L 2.1488 36.5385 L 2.3488 35.9285 L 2.7588 35.5185 L 3.1688 35.5185 L 3.5788 35.7185 L 3.7888 35.9285 L 3.9888 36.3385 L 4.3988 37.5685 L 4.5988 37.9685 L 4.8088 38.1785 L 5.2188 38.3785 L 5.8288 38.3785 L 6.2388 37.9685 L 6.4388 37.3585 L 6.4388 36.5385 L 6.2388 35.9285 L 5.8288 35.5185 M 2.1488 39.7285 L 6.4388 39.7285 M 3.1688 41.2885 L 2.9688 41.2885 L 2.5588 41.4885 L 2.3488 41.6985 L 2.1488 42.1085 L 2.1488 42.9185 L 2.3488 43.3285 L 2.5588 43.5385 L 2.9688 43.7385 L 3.3788 43.7385 L 3.7888 43.5385 L 4.3988 43.1285 L 6.4388 41.0785 L 6.4388 43.9485 M 2.1488 45.7085 L 2.1488 47.9585 L 3.7888 46.7285 L 3.7888 47.3385 L 3.9888 47.7485 L 4.1888 47.9585 L 4.8088 48.1585 L 5.2188 48.1585 L 5.8288 47.9585 L 6.2388 47.5485 L 6.4388 46.9285 L 6.4388 46.3185 L 6.2388 45.7085 L 6.0388 45.4985 L 5.6288 45.2985 M 2.1488 50.7385 L 2.3488 50.1185 L 2.9688 49.7185 L 3.9888 49.5085 L 4.5988 49.5085 L 5.6288 49.7185 L 6.2388 50.1185 L 6.4388 50.7385 L 6.4388 51.1485 L 6.2388 51.7585 L 5.6288 52.1685 L 4.5988 52.3685 L 3.9888 52.3685 L 2.9688 52.1685 L 2.3488 51.7585 L 2.1488 51.1485 L 2.1488 50.7385 M 3.1688 53.9285 L 2.9688 53.9285 L 2.5588 54.1285 L 2.3488 54.3385 L 2.1488 54.7485 L 2.1488 55.5685 L 2.3488 55.9685 L 2.5588 56.1785 L 2.9688 56.3785 L 3.3788 56.3785 L 3.7888 56.1785 L 4.3988 55.7685 L 6.4388 53.7185 L 6.4388 56.5885" fill="none"  stroke-width="0.6" c_note="note_name" /></g><g c_partid="part_pcbtext" c_etype="" c_origin="13.689,35.519" c_rotation="90" c_mirror="1" id="gge4885" locked="0" layerid="4" c_shapetype="group" display="none"><path c_fontsize="4.5" c_fontfamily="" c_text="Q2" d="M 9.1488 36.7485 L 9.3488 36.3385 L 9.7588 35.9285 L 10.1688 35.7185 L 10.7888 35.5185 L 11.8088 35.5185 L 12.4188 35.7185 L 12.8288 35.9285 L 13.2388 36.3385 L 13.4388 36.7485 L 13.4388 37.5685 L 13.2388 37.9685 L 12.8288 38.3785 L 12.4188 38.5885 L 11.8088 38.7885 L 10.7888 38.7885 L 10.1688 38.5885 L 9.7588 38.3785 L 9.3488 37.9685 L 9.1488 37.5685 L 9.1488 36.7485 M 12.6288 37.3585 L 13.8488 38.5885 M 10.1688 40.3485 L 9.9688 40.3485 L 9.5588 40.5485 L 9.3488 40.7585 L 9.1488 41.1685 L 9.1488 41.9785 L 9.3488 42.3885 L 9.5588 42.5985 L 9.9688 42.7985 L 10.3788 42.7985 L 10.7888 42.5985 L 11.3988 42.1885 L 13.4388 40.1385 L 13.4388 43.0085" fill="none"  stroke-width="0.6" c_note="note_pre" /></g><g c_partid="part_pcbtext" c_etype="" c_origin="4.685,11.015" c_rotation="90" c_mirror="1" id="gge1023" locked="0" layerid="4" c_shapetype="group" display="none"><path c_fontsize="4.5" c_fontfamily="" c_text="AO3407" d="M 0.1443 12.6504 L 4.4397 11.014 M 0.1443 12.6504 L 4.4397 14.2867 M 3.0079 11.6276 L 3.0079 13.6731 M 0.1443 16.864 L 0.3488 16.4549 L 0.7579 16.0458 L 1.167 15.8413 L 1.7807 15.6367 L 2.8034 15.6367 L 3.417 15.8413 L 3.8261 16.0458 L 4.2352 16.4549 L 4.4397 16.864 L 4.4397 17.6822 L 4.2352 18.0913 L 3.8261 18.5004 L 3.417 18.7049 L 2.8034 18.9095 L 1.7807 18.9095 L 1.167 18.7049 L 0.7579 18.5004 L 0.3488 18.0913 L 0.1443 17.6822 L 0.1443 16.864 M 0.1443 20.6685 L 0.1443 22.9185 L 1.7807 21.6913 L 1.7807 22.3049 L 1.9852 22.714 L 2.1897 22.9185 L 2.8034 23.1231 L 3.2125 23.1231 L 3.8261 22.9185 L 4.2352 22.5095 L 4.4397 21.8958 L 4.4397 21.2822 L 4.2352 20.6685 L 4.0307 20.464 L 3.6216 20.2595 M 0.1443 26.5185 L 3.0079 24.4731 L 3.0079 27.5413 M 0.1443 26.5185 L 4.4397 26.5185 M 0.1443 30.1185 L 0.3488 29.5049 L 0.9625 29.0958 L 1.9852 28.8913 L 2.5988 28.8913 L 3.6216 29.0958 L 4.2352 29.5049 L 4.4397 30.1185 L 4.4397 30.5276 L 4.2352 31.1413 L 3.6216 31.5504 L 2.5988 31.7549 L 1.9852 31.7549 L 0.9625 31.5504 L 0.3488 31.1413 L 0.1443 30.5276 L 0.1443 30.1185 M 0.1443 35.9685 L 4.4397 33.9231 M 0.1443 33.1049 L 0.1443 35.9685" fill="none"  stroke-width="0.6" c_note="note_name" /></g><g c_partid="part_pcbtext" c_etype="" c_origin="11.689,11.019" c_rotation="90" c_mirror="1" id="gge1025" locked="0" layerid="4" c_shapetype="group" display="none"><path c_fontsize="4.5" c_fontfamily="" c_text="Q1" d="M 7.1479 12.2458 L 7.3524 11.8367 L 7.7615 11.4276 L 8.1706 11.223 L 8.7843 11.0185 L 9.807 11.0185 L 10.4206 11.223 L 10.8297 11.4276 L 11.2388 11.8367 L 11.4433 12.2458 L 11.4433 13.064 L 11.2388 13.473 L 10.8297 13.8821 L 10.4206 14.0867 L 9.807 14.2912 L 8.7843 14.2912 L 8.1706 14.0867 L 7.7615 13.8821 L 7.3524 13.473 L 7.1479 13.064 L 7.1479 12.2458 M 10.6252 12.8594 L 11.8524 14.0867 M 7.9661 15.6412 L 7.7615 16.0503 L 7.1479 16.664 L 11.4433 16.664" fill="none"  stroke-width="0.6" c_note="note_pre" /></g><g c_partid="part_pad" c_etype="pinpart" c_origin="55.569,37.599" layerid="11" number="1" net="ON" plated ="Y"  id="gge6762" locked="0" c_rotation="90" c_width="6.6929" c_height="6.6929" title="ON" c_shape="ELLIPSE" pasteexpansion="0" solderexpansion="0.4"><ellipse c_etype="pad_shell" cx="55.569" cy="37.599" rx="3.34645" ry="3.34645" layerid="11" stroke-width="0"/><circle c_etype="pad_hole" cx="55.5688" cy="37.5985" r="1.9685" layerid="11" stroke-width="0"/></g><g c_partid="part_pad" c_etype="pinpart" c_origin="55.569,27.599" layerid="11" number="2" net="SCL" plated ="Y"  id="gge6767" locked="0" c_rotation="180" c_width="6.6929" c_height="6.6929" title="SCL" c_shape="ELLIPSE" pasteexpansion="0" solderexpansion="0.4"><ellipse c_etype="pad_shell" cx="55.569" cy="27.599" rx="3.34645" ry="3.34645" layerid="11" stroke-width="0"/><circle c_etype="pad_hole" cx="55.5688" cy="27.5985" r="1.9685" layerid="11" stroke-width="0"/></g><g c_partid="part_pad" c_etype="pinpart" c_origin="55.569,17.599" layerid="11" number="3" net="SDA" plated ="Y"  id="gge6772" locked="0" c_rotation="180" c_width="6.6929" c_height="6.6929" title="SDA" c_shape="ELLIPSE" pasteexpansion="0" solderexpansion="0.4"><ellipse c_etype="pad_shell" cx="55.569" cy="17.599" rx="3.34645" ry="3.34645" layerid="11" stroke-width="0"/><circle c_etype="pad_hole" cx="55.5688" cy="17.5985" r="1.9685" layerid="11" stroke-width="0"/></g><g c_partid="part_pad" c_etype="pinpart" c_origin="55.569,7.599" layerid="11" number="4" net="VCC" plated ="Y"  id="gge6777" locked="0" c_rotation="180" c_width="6.6929" c_height="6.6929" title="VCC" c_shape="ELLIPSE" pasteexpansion="0" solderexpansion="0.4"><ellipse c_etype="pad_shell" cx="55.569" cy="7.599" rx="3.34645" ry="3.34645" layerid="11" stroke-width="0"/><circle c_etype="pad_hole" cx="55.5688" cy="7.5985" r="1.9685" layerid="11" stroke-width="0"/></g><g c_partid="part_pad" c_etype="pinpart" c_origin="5.569,7.599" layerid="11" number="1" net="VBUS" plated ="Y"  id="gge6787" locked="0" c_rotation="270" c_width="6.6929" c_height="6.6929" title="VBUS" c_shape="ELLIPSE" pasteexpansion="0" solderexpansion="0.4"><ellipse c_etype="pad_shell" cx="5.569" cy="7.599" rx="3.34645" ry="3.34645" layerid="11" stroke-width="0"/><circle c_etype="pad_hole" cx="5.5688" cy="7.5985" r="1.9685" layerid="11" stroke-width="0"/></g><g c_partid="part_pad" c_etype="pinpart" c_origin="5.569,17.599" layerid="11" number="2" net="SW" plated ="Y"  id="gge6792" locked="0" c_rotation="0" c_width="6.6929" c_height="6.6929" title="SW" c_shape="ELLIPSE" pasteexpansion="0" solderexpansion="0.4"><ellipse c_etype="pad_shell" cx="5.569" cy="17.599" rx="3.34645" ry="3.34645" layerid="11" stroke-width="0"/><circle c_etype="pad_hole" cx="5.5688" cy="17.5985" r="1.9685" layerid="11" stroke-width="0"/></g><g c_partid="part_pad" c_etype="pinpart" c_origin="5.569,27.599" layerid="11" number="3" net="CLKO" plated ="Y"  id="gge6797" locked="0" c_rotation="0" c_width="6.6929" c_height="6.6929" title="CLKO" c_shape="ELLIPSE" pasteexpansion="0" solderexpansion="0.4"><ellipse c_etype="pad_shell" cx="5.569" cy="27.599" rx="3.34645" ry="3.34645" layerid="11" stroke-width="0"/><circle c_etype="pad_hole" cx="5.5688" cy="27.5985" r="1.9685" layerid="11" stroke-width="0"/></g><g c_partid="part_pad" c_etype="pinpart" c_origin="5.569,37.599" layerid="11" number="4" net="GND" plated ="Y"  id="gge6802" locked="0" c_rotation="0" c_width="6.6929" c_height="6.6929" title="GND" c_shape="ELLIPSE" pasteexpansion="0" solderexpansion="0.4"><ellipse c_etype="pad_shell" cx="5.569" cy="37.599" rx="3.34645" ry="3.34645" layerid="11" stroke-width="0"/><circle c_etype="pad_hole" cx="5.5688" cy="37.5985" r="1.9685" layerid="11" stroke-width="0"/></g><g c_partid="part_pad" c_etype="pinpart" c_origin="31.099,4.599" layerid="11" number="1" net="OSCO" plated ="Y"  id="gge1592" locked="0" c_rotation="180" c_width="3.937" c_height="3.937" title="OSCO" c_shape="ELLIPSE" pasteexpansion="0" solderexpansion="0.4"><ellipse c_etype="pad_shell" cx="31.099" cy="4.599" rx="1.9685" ry="1.9685" layerid="11" stroke-width="0"/><circle c_etype="pad_hole" cx="31.0984" cy="4.5985" r="0.9843" layerid="11" stroke-width="0"/></g><g c_partid="part_pad" c_etype="pinpart" c_origin="24.799,4.599" layerid="11" number="2" net="OSCI" plated ="Y"  id="gge1597" locked="0" c_rotation="180" c_width="3.937" c_height="3.937" title="OSCI" c_shape="ELLIPSE" pasteexpansion="0" solderexpansion="0.4"><ellipse c_etype="pad_shell" cx="24.799" cy="4.599" rx="1.9685" ry="1.9685" layerid="11" stroke-width="0"/><circle c_etype="pad_hole" cx="24.7992" cy="4.5985" r="0.9843" layerid="11" stroke-width="0"/></g><g c_partid="part_via" c_etype="pinpart" c_shapetype="group" net="GND" c_origin="10.449,34.099" layerid="11" id="gge6855" locked="0" solderexpansion=""><circle cx="10.449" cy="34.099" r="1.1811" stroke-width="0" c_etype="pad_shell"/><circle cx="10.449" cy="34.099" r="0.6102"  stroke-width="0" c_etype="pad_hole"/></g><g c_partid="part_via" c_etype="pinpart" c_shapetype="group" net="VCC" c_origin="34.449,9.599" layerid="11" id="gge6251" locked="0" solderexpansion=""><circle cx="34.449" cy="9.599" r="1.2598" stroke-width="0" c_etype="pad_shell"/><circle cx="34.449" cy="9.599" r="0.7874"  stroke-width="0" c_etype="pad_hole"/></g><g c_partid="part_via" c_etype="pinpart" c_shapetype="group" net="VCC" c_origin="34.949,31.599" layerid="11" id="gge6218" locked="0" solderexpansion=""><circle cx="34.949" cy="31.599" r="1.2598" stroke-width="0" c_etype="pad_shell"/><circle cx="34.949" cy="31.599" r="0.7874"  stroke-width="0" c_etype="pad_hole"/></g><g c_partid="part_via" c_etype="pinpart" c_shapetype="group" net="TRIG" c_origin="34.449,13.099" layerid="11" id="gge6152" locked="0" solderexpansion=""><circle cx="34.449" cy="13.099" r="1.2028" stroke-width="0" c_etype="pad_shell"/><circle cx="34.449" cy="13.099" r="0.6"  stroke-width="0" c_etype="pad_hole"/></g><g c_partid="part_via" c_etype="pinpart" c_shapetype="group" net="CLKO" c_origin="33.949,35.599" layerid="11" id="gge6136" locked="0" solderexpansion=""><circle cx="33.949" cy="35.599" r="1.2028" stroke-width="0" c_etype="pad_shell"/><circle cx="33.949" cy="35.599" r="0.6"  stroke-width="0" c_etype="pad_hole"/></g><g c_partid="part_via" c_etype="pinpart" c_shapetype="group" net="GND" c_origin="51.949,12.599" layerid="11" id="gge4018" locked="0" solderexpansion=""><circle cx="51.949" cy="12.599" r="1.1811" stroke-width="0" c_etype="pad_shell"/><circle cx="51.949" cy="12.599" r="0.6102"  stroke-width="0" c_etype="pad_hole"/></g><g c_partid="part_via" c_etype="pinpart" c_shapetype="group" net="GND" c_origin="9.449,12.599" layerid="11" id="gge4652" locked="0" solderexpansion=""><circle cx="9.449" cy="12.599" r="1.1811" stroke-width="0" c_etype="pad_shell"/><circle cx="9.449" cy="12.599" r="0.6102"  stroke-width="0" c_etype="pad_hole"/></g><polyline points="-1.9685 -1.5748 62.9921 -1.5748 62.9921 46.4567 -1.9685 46.4567 -1.9685 -1.5748" stroke-width="1"  stroke-linecap="round" fill="none" layerid="10" net="" id="gge8364" locked="1" /></svg>