<svg xmlns="http://www.w3.org/2000/svg" xmlns:xlink="http://www.w3.org/1999/xlink" width="42.621mm" height="46.025mm" viewBox="-19.9 -33.7 83.9 90.6"><title></title><style type="text/css">
*[layerid="1"] {stroke:#FF0000;fill:#FF0000;}
*[layerid="2"] {stroke:#0000FF;fill:#0000FF;}
*[layerid="3"] {stroke:#FFFF00;fill:#FFFF00;}
*[layerid="4"] {stroke:#808000;fill:#808000;}
*[layerid="5"] {stroke:#808080;fill:#808080;}
*[layerid="6"] {stroke:#800000;fill:#800000;}
*[layerid="7"] {stroke:#800080;fill:#800080;}
*[layerid="8"] {stroke:#AA00FF;fill:#AA00FF;}
*[layerid="9"] {stroke:#6464FF;fill:#6464FF;}
*[layerid="10"] {stroke:#FF00FF;fill:#FF00FF;}
*[layerid="11"] {stroke:#C0C0C0;fill:#C0C0C0;}
*[layerid="12"] {stroke:#FFFFFF;fill:#FFFFFF;}
*[layerid="13"] {stroke:#33CC99;fill:#33CC99;}
*[layerid="14"] {stroke:#5555FF;fill:#5555FF;}
*[layerid="15"] {stroke:#F022F0;fill:#F022F0;}
*[layerid="19"] {stroke:#66CCFF;fill:#66CCFF;}
*[layerid="21"] {stroke:#800000;fill:#800000;}
*[layerid="22"] {stroke:#008000;fill:#008000;}
*[layerid="23"] {stroke:#00FF00;fill:#00FF00;}
*[layerid="24"] {stroke:#000080;fill:#000080;}
*[layerid="25"] {stroke:#70DBFA;fill:#70DBFA;}
*[layerid="26"] {stroke:#00CC66;fill:#00CC66;}
*[layerid="27"] {stroke:#9966FF;fill:#9966FF;}
*[layerid="28"] {stroke:#800080;fill:#800080;}
*[layerid="29"] {stroke:#008080;fill:#008080;}
*[layerid="30"] {stroke:#15935F;fill:#15935F;}
*[layerid="31"] {stroke:#000080;fill:#000080;}
*[layerid="32"] {stroke:#00B400;fill:#00B400;}
*[layerid="33"] {stroke:#2E4736;fill:#2E4736;}
*[layerid="34"] {stroke:#99842F;fill:#99842F;}
*[layerid="35"] {stroke:#FFFFAA;fill:#FFFFAA;}
*[layerid="36"] {stroke:#99842F;fill:#99842F;}
*[layerid="37"] {stroke:#2E4736;fill:#2E4736;}
*[layerid="38"] {stroke:#3535FF;fill:#3535FF;}
*[layerid="39"] {stroke:#8000BC;fill:#8000BC;}
*[layerid="40"] {stroke:#43AE5F;fill:#43AE5F;}
*[layerid="41"] {stroke:#C3ECCE;fill:#C3ECCE;}
*[layerid="42"] {stroke:#728978;fill:#728978;}
*[layerid="43"] {stroke:#39503F;fill:#39503F;}
*[layerid="44"] {stroke:#0C715D;fill:#0C715D;}
*[layerid="45"] {stroke:#5A8A80;fill:#5A8A80;}
*[layerid="46"] {stroke:#2B937E;fill:#2B937E;}
*[layerid="47"] {stroke:#23999D;fill:#23999D;}
*[layerid="48"] {stroke:#45B4E3;fill:#45B4E3;}
*[layerid="49"] {stroke:#215DA1;fill:#215DA1;}
*[layerid="50"] {stroke:#4564D7;fill:#4564D7;}
*[layerid="51"] {stroke:#6969E9;fill:#6969E9;}
*[layerid="52"] {stroke:#9069E9;fill:#9069E9;}
*[layerid="99"] {stroke:#00CCCC;fill:#00CCCC;}
*[layerid="100"] {stroke:#CC9999;fill:#CC9999;}
*[layerid="Hole"] {stroke:#222222;fill:#222222;}
*[layerid="DRCError"] {stroke:#FFFFFF;fill:#FFFFFF;}
*[fill="none"] {fill: none;}
*[stroke="none"] {stroke: none;}
path, polyline, polygon, line {stroke-linecap:round;}
g[c_partid="part_pad"][layerid="1"] ellipse:not([c_etype="pad_outer"]) {fill:#FF0000;}
g[c_partid="part_pad"][layerid="1"] polygon:not([c_etype="pad_outer"]) {fill:#FF0000;}
g[c_partid="part_pad"][layerid="1"] polyline:not([c_etype="pad_outer"]) {stroke:#FF0000;}
g[c_partid="part_pad"][layerid="2"] ellipse:not([c_etype="pad_outer"]) {fill:#0000FF;}
g[c_partid="part_pad"][layerid="2"] polygon:not([c_etype="pad_outer"]) {fill:#0000FF;}
g[c_partid="part_pad"][layerid="2"] polyline:not([c_etype="pad_outer"]) {stroke:#0000FF;}
g[c_partid="part_pad"][layerid="11"] ellipse:not([c_etype="pad_outer"]) {fill:#C0C0C0;}
g[c_partid="part_pad"][layerid="11"] polygon:not([c_etype="pad_outer"]) {fill:#C0C0C0;}
g[c_partid="part_pad"][layerid="11"] polyline:not([c_etype="pad_outer"]) {stroke:#C0C0C0;}
g[c_partid="part_pad"][layerid="11"] circle {fill:#222222;}
g[c_partid="part_pad"][layerid="11"] > polyline:nth-of-type(2) {stroke:#222222;}
g[c_partid="part_pad"][layerid="11"][c_shape="ELLIPSE"]  polyline:nth-last-of-type(1) {stroke:#222222;}
g[c_partid="part_pad"][layerid="11"][c_shape="RECT"]  polyline:nth-last-of-type(1) {stroke:#222222;}
g[c_partid="part_pad"][layerid="11"][c_shape="POLYGON"]  polyline:nth-last-of-type(1) {stroke:#222222;}
g[c_partid="part_via"] > * + circle, #gCurParts g[c_partid="part_via"] > * + circle {fill:#222222;}
g[c_partid="part_pad"] > polygon[c_etype="pad_outer"], #gCurParts g[c_partid="part_pad"] > polygon[c_etype="pad_outer"] {stroke-linejoin: miter;stroke-miterlimit: 100;}
g[c_partid="part_hole"] > circle {fill: #222222;}path, polyline, polygon {stroke-linejoin:round;}
rect, circle, ellipse, polyline, line, polygon, path {shape-rendering:crispEdges;}
</style>
<rect x="-19.9" y="-33.7" width="83.9" height="90.6" fill="#000000" stroke="none"/><path d="M 22.42473 2.04356 A 0.4 0.4 0 0 1 22.08771 2.2281 0.4 0.4 0 0 1 21.7261 1.9991 L 21.7261 1.9991 A 2.187 2.187 0 0 0 21.54482 1.6858 L 21.54482 1.6858 A 0.4 0.4 0 0 1 21.47327 1.4575 0.4 0.4 0 0 1 21.87327 1.0575 L 21.87327 1.0575 22.36758 1.0575 A 0.4 0.4 0 0 1 22.76758 1.4575 0.4 0.4 0 0 1 22.66703 1.72269 L 22.66703 1.72269 A 2.5805 2.5805 0 0 0 22.42473 2.04356 Z " stroke-width="0" layerid="2" attachedcopperid="rep439" c_shapetype="line" id="rep439_0" class=""></path><path d="M 33.27678 5.78468 A 0.4 0.4 0 0 1 33.12485 5.81465 0.4 0.4 0 0 1 32.72485 5.41465 0.4 0.4 0 0 1 32.82601 5.14877 L 32.82601 5.14877 A 2.5805 2.5805 0 0 0 32.94091 5.01018 L 32.94091 5.01018 A 0.4 0.4 0 0 1 33.25756 4.85457 0.4 0.4 0 0 1 33.65756 5.25457 0.4 0.4 0 0 1 33.62489 5.41292 L 33.62489 5.41292 A 3.7616 3.7616 0 0 0 33.57661 5.53032 L 33.57661 5.53032 A 0.4 0.4 0 0 1 33.33677 5.76184 L 33.33677 5.76184 A 1.2419 1.2419 0 0 0 33.27678 5.78468 Z " stroke-width="0" layerid="2" attachedcopperid="rep439" c_shapetype="line" id="rep439_1" class=""></path><path d="M 22.97395 5.6205 A 0.4 0.4 0 0 1 22.57395 6.0205 L 22.57395 6.0205 20.5965 6.0205 A 0.4 0.4 0 0 1 20.1965 5.6205 L 20.1965 5.37824 A 0.4 0.4 0 0 1 20.46546 5.00031 L 20.46546 5.00031 A 2.187 2.187 0 0 0 21.49404 4.25225 L 21.49404 4.25225 A 0.4 0.4 0 0 1 21.81321 4.09336 0.4 0.4 0 0 1 22.18706 4.35112 2.5805 2.5805 0 0 0 22.84571 5.32699 0.4 0.4 0 0 1 22.97395 5.6205 Z " stroke-width="0" layerid="2" attachedcopperid="rep439" c_shapetype="line" id="rep439_2" class=""></path><path d="M 29.5395 8.0664 A 0.4 0.4 0 0 1 29.1395 7.6664 L 29.1395 7.0825 29.1395 7.0825 A 0.612 0.612 0 0 0 28.5275 6.4705 L 28.5275 6.4705 26.91236 6.4705 A 0.4 0.4 0 0 1 26.62952 6.35334 L 26.56409 6.28791 26.56409 6.28791 A 0.913 0.913 0 0 0 26.30828 6.10788 L 26.30828 6.10788 A 0.4 0.4 0 0 1 26.07905 5.74617 0.4 0.4 0 0 1 26.22672 5.43579 L 26.22672 5.43579 A 2.5805 2.5805 0 0 0 27.1794 3.4335 2.5805 2.5805 0 0 0 26.53077 1.72269 L 26.53077 1.72269 A 0.4 0.4 0 0 1 26.43022 1.4575 0.4 0.4 0 0 1 26.83022 1.0575 L 26.83022 1.0575 28.66678 1.0575 A 0.4 0.4 0 0 1 29.06678 1.4575 0.4 0.4 0 0 1 28.96623 1.72269 L 28.96623 1.72269 A 2.5805 2.5805 0 0 0 28.3176 3.4335 2.5805 2.5805 0 0 0 30.8981 6.014 2.5805 2.5805 0 0 0 32.15539 5.68699 L 32.15539 5.68699 A 0.4 0.4 0 0 1 32.35028 5.6363 0.4 0.4 0 0 1 32.75028 6.0363 0.4 0.4 0 0 1 32.65006 6.30112 L 32.65006 6.30112 31.29476 7.83532 31.29476 7.83532 A 0.4 0.4 0 0 1 30.99498 7.9705 L 29.9695 7.9705 29.9695 7.9705 A 0.612 0.612 0 0 0 29.70946 8.02849 0.4 0.4 0 0 1 29.5395 8.0664 Z " stroke-width="0" layerid="2" attachedcopperid="rep439" c_shapetype="line" id="rep439_3" class=""></path><path d="M 25.42466 10.14377 A 0.4 0.4 0 0 1 25.06855 10.3616 L 24.8785 10.3616 A 0.4 0.4 0 0 1 24.4785 9.9616 L 24.4785 8.2465 A 0.4 0.4 0 0 1 24.8785 7.8465 L 24.9575 7.8465 A 0.4 0.4 0 0 1 25.3575 8.2465 L 25.3575 9.4445 25.3575 9.4445 A 0.612 0.612 0 0 0 25.43369 9.74022 0.4 0.4 0 0 1 25.48348 9.9335 0.4 0.4 0 0 1 25.43369 10.12678 L 25.43369 10.12678 A 0.612 0.612 0 0 0 25.42466 10.14377 Z " stroke-width="0" layerid="2" attachedcopperid="rep439" c_shapetype="line" id="rep439_4" class=""></path><path d="M 20.11226 13.54039 A 0.4 0.4 0 0 1 19.82941 13.42324 L 18.7801 12.37392 A 0.4 0.4 0 0 1 18.66294 12.09108 0.4 0.4 0 0 1 18.7786 11.80974 L 18.8895 11.69766 A 0.913 0.913 0 0 0 19.1535 11.0555 L 19.1535 9.23736 A 0.4 0.4 0 0 1 19.27066 8.95452 L 19.81566 8.40952 A 0.4 0.4 0 0 1 20.0985 8.29236 0.4 0.4 0 0 1 20.4985 8.69236 L 20.4985 12.9741 20.4985 12.9741 A 0.612 0.612 0 0 0 20.50682 13.07467 L 20.50682 13.07467 A 0.4 0.4 0 0 1 20.51226 13.14039 0.4 0.4 0 0 1 20.11226 13.54039 Z " stroke-width="0" layerid="2" attachedcopperid="rep439" c_shapetype="line" id="rep439_5" class=""></path><path d="M 17.06508 17.32809 A 0.4 0.4 0 0 1 16.78224 17.21093 L 13.84025 14.26894 A 0.4 0.4 0 0 1 13.7231 13.9861 0.4 0.4 0 0 1 14.1231 13.5861 L 16.3865 13.5861 A 0.612 0.612 0 0 0 16.77008 13.45097 0.4 0.4 0 0 1 17.02079 13.36265 0.4 0.4 0 0 1 17.30363 13.47981 L 20.42196 16.59814 A 0.4 0.4 0 0 1 20.53912 16.88098 0.4 0.4 0 0 1 20.13912 17.28098 0.4 0.4 0 0 1 20.14293 17.28096 L 20.13413 17.28095 A 0.612 0.612 0 0 0 20.13996 17.28105 L 20.1265 17.2809 20.1265 17.2809 17.3705 17.2809 17.3705 17.2809 A 0.612 0.612 0 0 0 17.1858 17.30944 L 17.1858 17.30944 A 0.4 0.4 0 0 1 17.06508 17.32809 Z " stroke-width="0" layerid="2" attachedcopperid="rep439" c_shapetype="line" id="rep439_6" class=""></path><path d="M 29.44178 20.11869 A 0.4 0.4 0 0 1 29.2485 20.16848 0.4 0.4 0 0 1 29.05522 20.11869 0.612 0.612 0 0 0 28.93193 20.06729 0.4 0.4 0 0 1 28.64464 19.6835 0.4 0.4 0 0 1 28.93193 19.29971 0.612 0.612 0 0 0 29.05522 19.24831 0.4 0.4 0 0 1 29.2485 19.19852 0.4 0.4 0 0 1 29.44178 19.24831 L 29.44178 19.24831 A 0.612 0.612 0 0 0 29.56507 19.29971 0.4 0.4 0 0 1 29.85236 19.6835 0.4 0.4 0 0 1 29.56507 20.06729 0.612 0.612 0 0 0 29.44178 20.11869 Z " stroke-width="0" layerid="2" attachedcopperid="rep439" c_shapetype="line" id="rep439_7" class=""></path><path d="M 21.1385 21.90493 A 0.4 0.4 0 0 1 20.7385 21.50493 L 20.7385 17.8929 20.7385 17.8929 A 0.612 0.612 0 0 0 20.73847 17.89873 L 20.73845 17.88527 20.73845 17.88527 A 0.4 0.4 0 0 1 20.73852 17.88908 L 20.73842 17.88028 A 0.4 0.4 0 0 1 21.13842 17.48028 0.4 0.4 0 0 1 21.42126 17.59744 L 22.21834 18.39452 A 0.4 0.4 0 0 1 22.3355 18.67736 L 22.3355 21.07107 A 0.4 0.4 0 0 1 21.94894 21.47085 L 21.94894 21.47085 A 0.612 0.612 0 0 0 21.46696 21.73322 0.4 0.4 0 0 1 21.1385 21.90493 Z " stroke-width="0" layerid="2" attachedcopperid="rep439" c_shapetype="line" id="rep439_8" class=""></path><path d="M 25.3855 21.94586 A 0.4 0.4 0 0 1 25.04637 21.75797 L 25.04637 21.75797 A 0.612 0.612 0 0 0 24.54806 21.47085 L 24.54806 21.47085 A 0.4 0.4 0 0 1 24.1615 21.07107 L 24.1615 18.1335 A 0.913 0.913 0 0 0 23.89409 17.48791 L 20.66136 14.25519 A 0.4 0.4 0 0 1 20.54421 13.97234 0.4 0.4 0 0 1 20.94421 13.57234 0.4 0.4 0 0 1 21.00993 13.57778 0.612 0.612 0 0 0 21.1105 13.5861 L 23.8665 13.5861 23.8665 13.5861 A 0.612 0.612 0 0 0 24.4561 13.13817 L 24.4561 13.13817 A 0.4 0.4 0 0 1 24.84146 12.8454 L 25.06855 12.8454 A 0.4 0.4 0 0 1 25.42466 13.06323 L 25.42466 13.06323 A 0.612 0.612 0 0 0 25.75004 13.3558 L 25.75004 13.3558 A 0.4 0.4 0 0 1 26.0066 13.72919 L 26.0066 15.52314 A 0.4 0.4 0 0 1 25.91921 15.77269 0.612 0.612 0 0 0 25.7855 16.1545 L 25.7855 16.1545 25.7855 18.7125 25.7855 18.7125 A 0.612 0.612 0 0 0 25.91921 19.09431 0.4 0.4 0 0 1 26.0066 19.34386 L 26.0066 20.02314 A 0.4 0.4 0 0 1 25.91921 20.27269 0.612 0.612 0 0 0 25.7855 20.6545 L 25.7855 20.6545 25.7855 21.54586 A 0.4 0.4 0 0 1 25.3855 21.94586 Z " stroke-width="0" layerid="2" attachedcopperid="rep439" c_shapetype="line" id="rep439_9" class=""></path><path d="M 16.08999 24.61793 A 0.4 0.4 0 0 1 15.99885 24.62845 0.4 0.4 0 0 1 15.59885 24.22845 0.4 0.4 0 0 1 15.61492 24.11622 L 15.61492 24.11622 A 0.612 0.612 0 0 0 15.6395 23.9445 L 15.6395 23.9445 15.6395 21.5825 A 0.612 0.612 0 0 0 15.0275 20.9705 L 15.0275 20.9705 12.4695 20.9705 12.4695 20.9705 A 0.612 0.612 0 0 0 12.34495 20.98331 L 12.34495 20.98331 A 0.4 0.4 0 0 1 12.26354 20.99168 0.4 0.4 0 0 1 11.9807 20.87452 L 10.40147 19.2953 A 0.4 0.4 0 0 1 10.28432 19.01245 0.4 0.4 0 0 1 10.3378 18.81263 L 10.3378 18.81263 A 3.7616 3.7616 0 0 0 10.8408 16.9335 3.7616 3.7616 0 0 0 10.60638 15.62636 0.4 0.4 0 0 1 10.58146 15.48736 0.4 0.4 0 0 1 10.98146 15.08736 0.4 0.4 0 0 1 11.27284 15.21332 L 11.27284 15.21332 A 1.2419 1.2419 0 0 0 11.29934 15.24066 L 16.64134 20.58265 A 0.4 0.4 0 0 1 16.7585 20.8655 L 16.7585 22.8141 16.7585 22.8141 A 0.612 0.612 0 0 0 17.3705 23.4261 L 17.3705 23.4261 17.71829 23.4261 A 0.4 0.4 0 0 1 18.11829 23.8261 0.4 0.4 0 0 1 17.80943 24.21558 L 16.08999 24.61793 Z " stroke-width="0" layerid="2" attachedcopperid="rep439" c_shapetype="line" id="rep439_10" class=""></path><path d="M 20.6385 27.75664 A 0.4 0.4 0 0 1 20.2385 27.35664 L 20.2385 26.5529 20.2385 26.5529 A 0.612 0.612 0 0 0 20.01081 26.07661 0.4 0.4 0 0 1 19.86199 25.76531 0.4 0.4 0 0 1 20.12063 25.39112 L 20.81614 25.12837 A 0.4 0.4 0 0 1 20.9575 25.10256 0.4 0.4 0 0 1 21.3575 25.50256 L 21.3575 27.03764 A 0.4 0.4 0 0 1 21.24034 27.32048 L 20.92134 27.63948 A 0.4 0.4 0 0 1 20.6385 27.75664 Z " stroke-width="0" layerid="2" attachedcopperid="rep439" c_shapetype="line" id="rep439_11" class=""></path><path d="M 29.44178 38.11869 A 0.4 0.4 0 0 1 29.2485 38.16848 0.4 0.4 0 0 1 29.05522 38.11869 L 29.05522 38.11869 A 0.612 0.612 0 0 0 28.93193 38.06729 0.4 0.4 0 0 1 28.64464 37.6835 0.4 0.4 0 0 1 28.93193 37.29971 L 28.93193 37.29971 A 0.612 0.612 0 0 0 29.05522 37.24831 0.4 0.4 0 0 1 29.2485 37.19852 0.4 0.4 0 0 1 29.44178 37.24831 L 29.44178 37.24831 A 0.612 0.612 0 0 0 29.56507 37.29971 L 29.56507 37.29971 A 0.4 0.4 0 0 1 29.85236 37.6835 0.4 0.4 0 0 1 29.56507 38.06729 0.612 0.612 0 0 0 29.44178 38.11869 Z " stroke-width="0" layerid="2" attachedcopperid="rep439" c_shapetype="line" id="rep439_12" class=""></path><path d="M 24.3785 39.0205 A 0.4 0.4 0 0 1 23.9785 38.6205 L 23.9785 36.3929 23.9785 36.3929 A 0.612 0.612 0 0 0 23.52748 35.80245 L 23.52748 35.80245 A 0.4 0.4 0 0 1 23.2327 35.41654 0.4 0.4 0 0 1 23.49525 35.0409 L 23.49525 35.0409 A 0.913 0.913 0 0 0 23.82709 34.82909 L 25.18548 33.4707 A 0.4 0.4 0 0 1 25.46832 33.35354 0.4 0.4 0 0 1 25.63122 33.38822 L 25.63122 33.38822 A 0.4 0.4 0 0 1 25.59654 33.22532 0.4 0.4 0 0 1 25.7137 32.94248 L 26.7541 31.90208 A 0.4 0.4 0 0 1 27.03694 31.78492 0.4 0.4 0 0 1 27.34047 31.9244 L 27.34047 31.9244 A 2.187 2.187 0 0 0 29 32.687 2.187 2.187 0 0 0 30.72136 31.84903 0.4 0.4 0 0 1 31.0362 31.69576 0.4 0.4 0 0 1 31.41406 31.96453 L 31.41406 31.96453 A 2.187 2.187 0 0 0 31.99164 32.84942 L 31.99164 32.84942 A 0.4 0.4 0 0 1 32.11942 33.1425 0.4 0.4 0 0 1 31.71942 33.5425 L 29.7375 33.5425 A 0.612 0.612 0 0 0 29.44178 33.61869 L 29.44178 33.61869 A 0.4 0.4 0 0 1 29.2485 33.66848 0.4 0.4 0 0 1 29.05522 33.61869 L 29.05522 33.61869 A 0.612 0.612 0 0 0 28.7595 33.5425 L 28.7595 33.5425 26.3975 33.5425 26.3975 33.5425 A 0.612 0.612 0 0 0 26.15502 33.59258 L 26.15502 33.59258 A 0.4 0.4 0 0 1 25.99654 33.62532 0.4 0.4 0 0 1 25.83365 33.59065 L 25.83365 33.59065 A 0.4 0.4 0 0 1 25.86832 33.75354 0.4 0.4 0 0 1 25.83558 33.91202 L 25.83558 33.91202 A 0.612 0.612 0 0 0 25.7855 34.1545 L 25.7855 34.1545 25.7855 36.7125 25.7855 36.7125 A 0.612 0.612 0 0 0 26.22507 37.29971 0.4 0.4 0 0 1 26.51236 37.6835 0.4 0.4 0 0 1 26.22507 38.06729 L 26.22507 38.06729 A 0.612 0.612 0 0 0 25.78585 38.63394 0.4 0.4 0 0 1 25.38607 39.0205 L 24.3785 39.0205 Z " stroke-width="0" layerid="2" attachedcopperid="rep439" c_shapetype="line" id="rep439_13" class=""></path><path d="M 1.4375 43.1405 A 0.4 0.4 0 0 1 1.0375 42.7405 L 1.0375 1.4575 A 0.4 0.4 0 0 1 1.4375 1.0575 L 4.3625 1.0575 17.62473 1.0575 A 0.4 0.4 0 0 1 18.02473 1.4575 0.4 0.4 0 0 1 17.95318 1.6858 L 17.95318 1.6858 A 2.187 2.187 0 0 0 17.57593 2.68757 0.4 0.4 0 0 1 17.259 3.03431 L 17.259 4.044 17.64841 4.044 A 0.4 0.4 0 0 1 17.9732 4.21052 2.187 2.187 0 0 0 18.24549 4.52222 L 18.24549 4.52222 A 0.4 0.4 0 0 1 18.3705 4.8127 L 18.3705 5.423 A 0.4 0.4 0 0 1 17.9705 5.823 L 17.259 5.823 17.259 6.8245 17.5995 6.8245 A 0.612 0.612 0 0 0 17.77972 6.79736 L 17.77972 6.79736 A 0.4 0.4 0 0 1 17.89751 6.77963 0.4 0.4 0 0 1 18.29751 7.17963 0.4 0.4 0 0 1 18.18035 7.46247 L 18.18035 7.46247 17.62883 8.01399 A 0.4 0.4 0 0 1 17.34599 8.13115 0.4 0.4 0 0 1 16.96674 7.85832 L 16.96674 7.85832 A 0.612 0.612 0 0 0 16.73803 7.55193 0.4 0.4 0 0 1 16.70739 7.52813 L 16.70739 7.52813 A 0.4 0.4 0 0 1 16.67224 7.5117 L 16.67224 7.5117 A 0.612 0.612 0 0 0 16.3865 7.4409 L 15.978 7.4409 A 0.4 0.4 0 0 1 15.578 7.0409 L 15.578 5.823 15.2715 5.823 A 0.4 0.4 0 0 1 14.8715 5.423 L 14.8715 4.444 A 0.4 0.4 0 0 1 15.2715 4.044 L 15.578 4.044 15.578 3.0425 15.2375 3.0425 15.2375 3.0425 A 0.612 0.612 0 0 0 14.94178 3.11869 L 14.94178 3.11869 A 0.4 0.4 0 0 1 14.7485 3.16848 0.4 0.4 0 0 1 14.55522 3.11869 L 14.55522 3.11869 A 0.612 0.612 0 0 0 14.2595 3.0425 L 14.2595 3.0425 11.8975 3.0425 11.8975 3.0425 A 0.612 0.612 0 0 0 11.3262 3.43504 L 11.3262 3.43504 A 0.4 0.4 0 0 1 10.95281 3.6916 L 10.95281 3.6916 9.09302 3.6916 A 0.4 0.4 0 0 1 8.89946 3.64165 L 8.89946 3.64165 A 3.7616 3.7616 0 0 0 7.0792 3.1719 3.7616 3.7616 0 0 0 3.3176 6.9335 3.7616 3.7616 0 0 0 7.0792 10.6951 3.7616 3.7616 0 0 0 10.20338 9.02852 0.4 0.4 0 0 1 10.5356 8.8513 0.4 0.4 0 0 1 10.9356 9.2513 L 10.9356 9.2513 10.9356 14.3625 A 1.2419 1.2419 0 0 0 10.95553 14.58411 L 10.95553 14.58411 A 0.4 0.4 0 0 1 10.96195 14.65548 0.4 0.4 0 0 1 10.56195 15.05548 0.4 0.4 0 0 1 10.2272 14.87444 L 10.2272 14.87444 A 3.7616 3.7616 0 0 0 7.0792 13.1719 3.7616 3.7616 0 0 0 3.3176 16.9335 3.7616 3.7616 0 0 0 7.0792 20.6951 3.7616 3.7616 0 0 0 8.55984 20.39144 L 8.55984 20.39144 A 0.4 0.4 0 0 1 8.71729 20.35915 0.4 0.4 0 0 1 9.00013 20.47631 L 9.00013 20.47631 11.74034 23.21652 A 0.4 0.4 0 0 1 11.8575 23.49936 L 11.8575 23.9445 11.8575 23.9445 A 0.612 0.612 0 0 0 11.93369 24.24022 0.4 0.4 0 0 1 11.98348 24.4335 0.4 0.4 0 0 1 11.93369 24.62678 L 11.93369 24.62678 A 0.612 0.612 0 0 0 11.8575 24.9225 L 11.8575 27.2845 A 0.612 0.612 0 0 0 12.4695 27.8965 L 12.4695 27.8965 15.0275 27.8965 15.0275 27.8965 A 0.612 0.612 0 0 0 15.53004 27.63378 L 15.53004 27.63378 A 0.4 0.4 0 0 1 15.8585 27.46207 0.4 0.4 0 0 1 16.2585 27.86207 L 16.2585 31.4741 16.2585 31.4741 A 0.612 0.612 0 0 0 16.8705 32.0861 L 19.6265 32.0861 A 0.612 0.612 0 0 0 20.2385 31.4741 L 20.2385 31.4741 20.2385 30.3265 A 0.4 0.4 0 0 1 20.6385 29.9265 L 20.8385 29.9265 A 0.913 0.913 0 0 0 21.48409 29.65909 L 22.62952 28.51366 A 0.4 0.4 0 0 1 22.91236 28.3965 L 24.5275 28.3965 24.5275 28.3965 A 0.612 0.612 0 0 0 25.1395 27.7845 L 25.1395 27.7845 25.1395 25.4225 25.1395 25.4225 A 0.612 0.612 0 0 0 25.06331 25.12678 0.4 0.4 0 0 1 25.01352 24.9335 0.4 0.4 0 0 1 25.06331 24.74022 L 25.06331 24.74022 A 0.612 0.612 0 0 0 25.1395 24.4445 L 25.1395 24.4445 25.1395 23.74914 A 0.4 0.4 0 0 1 25.5395 23.34914 0.4 0.4 0 0 1 25.87863 23.53703 0.612 0.612 0 0 0 26.27658 23.81244 L 26.27658 23.81244 A 0.4 0.4 0 0 1 26.4804 23.92171 L 30.48527 27.92658 A 0.4 0.4 0 0 1 30.60243 28.20942 0.4 0.4 0 0 1 30.20243 28.60942 0.4 0.4 0 0 1 30.01651 28.56359 2.187 2.187 0 0 0 29 28.313 2.187 2.187 0 0 0 27.11387 29.39299 L 27.11387 29.39299 A 0.4 0.4 0 0 1 26.79817 29.58945 L 26.79817 29.58945 A 0.913 0.913 0 0 0 26.21941 29.85441 L 22.92048 33.15334 A 0.4 0.4 0 0 1 22.63764 33.2705 L 14.54236 33.2705 A 0.4 0.4 0 0 1 14.25952 33.15334 L 10.40147 29.2953 A 0.4 0.4 0 0 1 10.28432 29.01245 0.4 0.4 0 0 1 10.3378 28.81263 L 10.3378 28.81263 A 3.7616 3.7616 0 0 0 10.8408 26.9335 3.7616 3.7616 0 0 0 7.0792 23.1719 3.7616 3.7616 0 0 0 3.3176 26.9335 3.7616 3.7616 0 0 0 7.0792 30.6951 3.7616 3.7616 0 0 0 8.55984 30.39144 L 8.55984 30.39144 A 0.4 0.4 0 0 1 8.71729 30.35915 0.4 0.4 0 0 1 9.00013 30.47631 L 9.00013 30.47631 13.35291 34.82909 A 0.913 0.913 0 0 0 13.62391 35.01612 L 13.62391 35.01612 A 0.4 0.4 0 0 1 13.78146 35.14313 L 13.78146 35.14313 A 0.4 0.4 0 0 1 13.9695 35.09618 0.4 0.4 0 0 1 13.9606 35.09628 L 13.97833 35.09628 13.97833 35.09628 A 0.913 0.913 0 0 0 13.9985 35.0965 L 13.9985 35.0965 15.0475 35.0965 A 0.4 0.4 0 0 1 15.4475 35.4965 L 15.4475 37.3732 16.4985 37.3732 16.4985 36.3929 16.4985 36.3929 A 0.612 0.612 0 0 0 16.17054 35.85081 L 16.17054 35.85081 A 0.4 0.4 0 0 1 15.95619 35.4965 0.4 0.4 0 0 1 16.35619 35.0965 L 20.14081 35.0965 A 0.4 0.4 0 0 1 20.54081 35.4965 0.4 0.4 0 0 1 20.32646 35.85081 0.612 0.612 0 0 0 19.9985 36.3929 L 19.9985 36.3929 19.9985 41.3141 19.9985 41.3141 A 0.612 0.612 0 0 0 20.6105 41.9261 L 23.3665 41.9261 A 0.612 0.612 0 0 0 23.9785 41.3141 L 23.9785 41.3141 23.9785 41.2465 A 0.4 0.4 0 0 1 24.3785 40.8465 L 25.38607 40.8465 A 0.4 0.4 0 0 1 25.78585 41.23306 L 25.78585 41.23306 A 0.612 0.612 0 0 0 26.3975 41.8245 L 26.3975 41.8245 28.7595 41.8245 28.7595 41.8245 A 0.612 0.612 0 0 0 29.05522 41.74831 L 29.05522 41.74831 A 0.4 0.4 0 0 1 29.2485 41.69852 0.4 0.4 0 0 1 29.44178 41.74831 L 29.44178 41.74831 A 0.612 0.612 0 0 0 29.7375 41.8245 L 29.7375 41.8245 30.078 41.8245 30.078 40.823 29.7715 40.823 A 0.4 0.4 0 0 1 29.3715 40.423 L 29.3715 39.444 A 0.4 0.4 0 0 1 29.7715 39.044 L 30.078 39.044 30.078 37.7245 A 0.4 0.4 0 0 1 30.478 37.3245 L 31.359 37.3245 A 0.4 0.4 0 0 1 31.759 37.7245 L 31.759 39.044 32.7115 39.044 32.7115 38.6545 A 0.612 0.612 0 0 0 32.27193 38.06729 L 32.27193 38.06729 A 0.4 0.4 0 0 1 31.98464 37.6835 0.4 0.4 0 0 1 32.27193 37.29971 L 32.27193 37.29971 A 0.612 0.612 0 0 0 32.60483 37.05773 L 32.60483 37.05773 A 0.4 0.4 0 0 1 32.93511 36.88337 0.4 0.4 0 0 1 33.33343 37.24672 L 33.33343 37.24672 A 3.7616 3.7616 0 0 0 37.0792 40.6636 3.7616 3.7616 0 0 0 40.8408 36.902 3.7616 3.7616 0 0 0 37.0792 33.1404 3.7616 3.7616 0 0 0 35.35742 33.55759 0.4 0.4 0 0 1 35.17433 33.60195 0.4 0.4 0 0 1 34.92158 33.51198 L 34.92158 33.51198 A 0.4 0.4 0 0 1 34.93369 33.60969 0.4 0.4 0 0 1 34.77836 33.92614 L 34.77836 33.92614 A 3.7616 3.7616 0 0 0 33.93326 34.83979 L 33.93326 34.83979 A 0.4 0.4 0 0 1 33.59873 35.0205 L 33.1115 35.0205 A 0.4 0.4 0 0 1 32.7115 34.6205 L 32.7115 34.1545 A 0.612 0.612 0 0 0 32.67213 33.93855 L 32.67213 33.93855 A 0.4 0.4 0 0 1 32.6464 33.7974 0.4 0.4 0 0 1 33.0464 33.3974 0.4 0.4 0 0 1 33.11345 33.40306 L 33.11345 33.40306 A 2.187 2.187 0 0 0 33.48 33.434 2.187 2.187 0 0 0 34.37077 33.24437 L 34.37077 33.24437 A 0.4 0.4 0 0 1 34.53369 33.20969 0.4 0.4 0 0 1 34.78644 33.29966 L 34.78644 33.29966 A 0.4 0.4 0 0 1 34.77433 33.20195 0.4 0.4 0 0 1 34.91235 32.89968 L 34.91235 32.89968 A 2.187 2.187 0 0 0 35.667 31.247 2.187 2.187 0 0 0 35.65091 30.98223 L 35.65091 30.98223 A 0.4 0.4 0 0 1 35.64797 30.93381 0.4 0.4 0 0 1 36.04797 30.53381 0.4 0.4 0 0 1 36.14709 30.54628 L 36.14709 30.54628 A 3.7616 3.7616 0 0 0 37.0792 30.6636 3.7616 3.7616 0 0 0 40.8408 26.902 3.7616 3.7616 0 0 0 37.0792 23.1404 3.7616 3.7616 0 0 0 34.19584 24.48625 L 34.19584 24.48625 A 0.4 0.4 0 0 1 33.88923 24.62936 0.4 0.4 0 0 1 33.60638 24.51221 L 33.60638 24.51221 32.80537 23.71119 32.80537 23.71119 A 0.4 0.4 0 0 1 32.68821 23.42835 0.4 0.4 0 0 1 32.69742 23.34303 L 32.69742 23.34303 A 0.612 0.612 0 0 0 32.7115 23.2125 L 32.7115 20.6545 A 0.612 0.612 0 0 0 32.27193 20.06729 0.4 0.4 0 0 1 31.98464 19.6835 0.4 0.4 0 0 1 32.27193 19.29971 L 32.27193 19.29971 A 0.612 0.612 0 0 0 32.71115 18.73306 0.4 0.4 0 0 1 33.11093 18.3465 L 33.34869 18.3465 A 0.4 0.4 0 0 1 33.70725 18.56921 3.7616 3.7616 0 0 0 37.0792 20.6636 3.7616 3.7616 0 0 0 40.8408 16.902 3.7616 3.7616 0 0 0 37.0792 13.1404 3.7616 3.7616 0 0 0 33.44455 15.933 0.4 0.4 0 0 1 33.05805 16.22996 0.4 0.4 0 0 1 32.67918 15.95824 L 32.67918 15.95824 A 0.612 0.612 0 0 0 32.41914 15.6326 L 32.41914 15.6326 A 0.4 0.4 0 0 1 32.22805 15.29149 0.4 0.4 0 0 1 32.58831 14.89347 L 32.58831 14.89347 A 0.612 0.612 0 0 0 33.1395 14.2845 L 33.1395 13.944 32.138 13.944 32.138 15.1425 A 0.4 0.4 0 0 1 31.738 15.5425 L 30.759 15.5425 A 0.4 0.4 0 0 1 30.359 15.1425 L 30.359 13.944 29.3575 13.944 29.3575 14.2845 29.3575 14.2845 A 0.612 0.612 0 0 0 29.67765 14.82243 L 29.67765 14.82243 A 0.4 0.4 0 0 1 29.8869 15.17402 0.4 0.4 0 0 1 29.58595 15.56156 L 29.58595 15.56156 A 0.612 0.612 0 0 0 29.44178 15.61869 0.4 0.4 0 0 1 29.2485 15.66848 0.4 0.4 0 0 1 29.05522 15.61869 L 29.05522 15.61869 A 0.612 0.612 0 0 0 28.83866 15.54764 L 28.83866 15.54764 A 0.4 0.4 0 0 1 28.4904 15.151 L 28.4904 13.72919 A 0.4 0.4 0 0 1 28.74696 13.3558 0.612 0.612 0 0 0 28.78754 13.33851 0.4 0.4 0 0 1 28.87201 13.30985 L 28.87201 13.30985 A 0.4 0.4 0 0 1 28.93196 13.2438 L 28.93196 13.2438 A 0.612 0.612 0 0 0 29.1395 12.7845 L 29.1395 12.7845 29.1395 12.663 A 0.4 0.4 0 0 1 29.5395 12.263 L 30.359 12.263 30.359 11.9565 A 0.4 0.4 0 0 1 30.759 11.5565 L 31.738 11.5565 A 0.4 0.4 0 0 1 32.138 11.9565 L 32.138 12.263 33.1395 12.263 33.1395 11.9225 A 0.612 0.612 0 0 0 33.06331 11.62678 L 33.06331 11.62678 A 0.4 0.4 0 0 1 33.01352 11.4335 0.4 0.4 0 0 1 33.06331 11.24022 L 33.06331 11.24022 A 0.612 0.612 0 0 0 33.1395 10.9445 L 33.1395 9.65008 A 0.4 0.4 0 0 1 33.23972 9.38525 L 33.45539 9.14112 A 0.4 0.4 0 0 1 33.75517 9.00594 0.4 0.4 0 0 1 34.07466 9.16527 L 34.07466 9.16527 A 3.7616 3.7616 0 0 0 37.0792 10.6636 3.7616 3.7616 0 0 0 40.8408 6.902 3.7616 3.7616 0 0 0 37.0792 3.1404 3.7616 3.7616 0 0 0 34.00837 4.72952 0.4 0.4 0 0 1 33.68183 4.89851 0.4 0.4 0 0 1 33.28183 4.49851 0.4 0.4 0 0 1 33.30824 4.35558 L 33.30824 4.35558 A 2.5805 2.5805 0 0 0 33.4786 3.4335 2.5805 2.5805 0 0 0 32.82997 1.72269 L 32.82997 1.72269 A 0.4 0.4 0 0 1 32.72942 1.4575 0.4 0.4 0 0 1 33.12942 1.0575 L 33.12942 1.0575 42.7205 1.0575 A 0.4 0.4 0 0 1 43.1205 1.4575 L 43.1205 42.7405 A 0.4 0.4 0 0 1 42.7205 43.1405 L 4.3625 43.1405 1.4375 43.1405 Z M 3.78986 38.7583 A 3.7616 3.7616 0 0 0 5.2544 40.22284 L 5.2544 40.22284 5.2544 38.7583 3.78986 38.7583 Z M 8.904 40.22284 A 3.7616 3.7616 0 0 0 10.36854 38.7583 L 8.904 38.7583 8.904 40.22284 Z M 5.2544 35.1087 L 5.2544 33.64416 A 3.7616 3.7616 0 0 0 3.78986 35.1087 L 5.2544 35.1087 Z M 10.36854 35.1087 A 3.7616 3.7616 0 0 0 8.904 33.64416 L 8.904 35.1087 10.36854 35.1087 Z M 13.5695 37.3732 L 13.5695 35.76556 A 0.4 0.4 0 0 1 13.4598 35.7809 L 13.1305 35.7809 A 0.612 0.612 0 0 0 12.5185 36.3929 L 12.5185 37.3732 13.5695 37.3732 Z M 15.8865 41.9261 A 0.612 0.612 0 0 0 16.4985 41.3141 L 16.4985 41.3141 16.4985 40.3338 15.4475 40.3338 15.4475 41.9261 15.8865 41.9261 Z M 13.5695 41.9261 L 13.5695 40.3338 12.5185 40.3338 12.5185 41.3141 A 0.612 0.612 0 0 0 13.1305 41.9261 L 13.5695 41.9261 Z M 32.0995 41.8245 A 0.612 0.612 0 0 0 32.7115 41.2125 L 32.7115 40.823 31.759 40.823 31.759 41.8245 32.0995 41.8245 Z " stroke-width="0" layerid="2" attachedcopperid="rep439" c_shapetype="line" id="rep439_14" class=""></path><polyline points="19.7485 2.9335 19.2835 3.3985 19.2835 7.6495" stroke-width="0.602"  stroke-linecap="round" fill="none" layerid="2" net="TRIG" id="gge2177" locked="0" /><polyline points="17.2085 12.0985 18.2405 11.0555 18.2405 8.6935 20.0005 6.9335 25.9185 6.9335 27.2485 8.2635" stroke-width="0.602"  stroke-linecap="round" fill="none" layerid="2" net="TRIG" id="gge2178" locked="0" /><polyline points="30.9185 17.4335 36.5465 17.4335 37.0785 16.9015" stroke-width="0.602"  stroke-linecap="round" fill="none" layerid="2" net="SDA" id="gge2179" locked="0" /><polyline points="6.7485 26.9335 13.9985 34.1835 23.1815 34.1835 26.865 30.5 29 30.5" stroke-width="0.602"  stroke-linecap="round" fill="none" layerid="2" net="CLKO" id="gge2180" locked="0" /><polyline points="31.5195 21.9335 31.5195 23.7165 34.7045 26.9015 37.0785 26.9015" stroke-width="0.602"  stroke-linecap="round" fill="none" layerid="2" net="SCL" id="gge2181" locked="0" /><polyline points="30.9185 35.9335 36.1105 35.9335 37.0785 36.9015" stroke-width="0.602"  stroke-linecap="round" fill="none" layerid="2" net="ON" id="gge2183" locked="0" /><polyline points="18.2485 29.0135 20.8385 29.0135 23.2485 26.6035" stroke-width="0.602"  stroke-linecap="round" fill="none" layerid="2" net="R6_1" id="gge2184" locked="0" /><polyline points="13.7485 22.7635 12.5785 22.7635 6.7485 16.9335" stroke-width="0.602"  stroke-linecap="round" fill="none" layerid="2" net="SW" id="gge2185" locked="0" /><polyline points="15.0485 11.9335 15.0485 12.1335 17.2485 12.1335 23.2485 18.1335 23.2485 23.2335 18.7485 24.9335 13.7485 26.1035" stroke-width="0.602"  stroke-linecap="round" fill="none" layerid="2" net="TRIG" id="gge2186" locked="0" /><polyline points="37.0785 6.9015 33.7485 6.9335 31.2485 9.7635 27.5785 11.6035 23.0065 11.6035 22.5115 12.0985" stroke-width="1.2598"  stroke-linecap="round" fill="none" layerid="2" net="VCC" id="gge2187" locked="0" /><polyline points="27.2485 11.6035 27.2485 22.9335 32.4985 28.1835 32.4985 30.2665 33.4795 31.2465" stroke-width="1.2598"  stroke-linecap="round" fill="none" layerid="2" net="VCC" id="gge2188" locked="0" /><polyline points="18.7715 19.9725 17.7875 19.9725 12.1775 14.3625 12.1775 5.8345 13.0785 4.9335 8.7485 4.9335 6.7485 6.9335" stroke-width="1.2598"  stroke-linecap="round" fill="none" layerid="2" net="VBUS" id="gge2189" locked="0" /><polyline points="21.9885 38.8535 23.0685 39.9335 27.5785 39.9335 27.5785 35.9335" stroke-width="0.602"  stroke-linecap="round" fill="none" layerid="2" net="R5_1" id="gge2190" locked="0" /><g c_partid="part_pad" c_etype="pinpart" c_origin="27.579,21.934" layerid="2" number="2" net="VCC" plated ="Y"  id="gge1808" locked="0" c_rotation="0" c_width="2.362" c_height="2.559" title="VCC" c_shape="RECT" pasteexpansion="0" solderexpansion="0.4"><polygon  c_etype="pad_shell" points="28.7595 20.6545 26.3975 20.6545 26.3975 23.2125 28.7595 23.2125" layerid="2" stroke-width="0" /><circle c_etype="pad_hole" cx="27.5785" cy="21.9335" r="0" layerid="2" stroke-width="0"/></g><g c_partid="part_pad" c_etype="pinpart" c_origin="30.919,21.934" layerid="2" number="1" net="SCL" plated ="Y"  id="gge1813" locked="0" c_rotation="0" c_width="2.362" c_height="2.559" title="SCL" c_shape="RECT" pasteexpansion="0" solderexpansion="0.4"><polygon  c_etype="pad_shell" points="32.0995 20.6545 29.7375 20.6545 29.7375 23.2125 32.0995 23.2125" layerid="2" stroke-width="0" /><circle c_etype="pad_hole" cx="30.9185" cy="21.9335" r="0" layerid="2" stroke-width="0"/></g><g c_partid="part_pad" c_etype="pinpart" c_origin="27.249,11.604" layerid="2" number="2" net="VCC" plated ="Y"  id="gge1824" locked="0" c_rotation="90" c_width="2.362" c_height="2.559" title="VCC" c_shape="RECT" pasteexpansion="0" solderexpansion="0.4"><polygon  c_etype="pad_shell" points="25.9695 10.4225 25.9695 12.7845 28.5275 12.7845 28.5275 10.4225" layerid="2" stroke-width="0" /><circle c_etype="pad_hole" cx="27.2485" cy="11.6035" r="0" layerid="2" stroke-width="0"/></g><g c_partid="part_pad" c_etype="pinpart" c_origin="27.249,8.264" layerid="2" number="1" net="TRIG" plated ="Y"  id="gge1829" locked="0" c_rotation="90" c_width="2.362" c_height="2.559" title="TRIG" c_shape="RECT" pasteexpansion="0" solderexpansion="0.4"><polygon  c_etype="pad_shell" points="25.9695 7.0825 25.9695 9.4445 28.5275 9.4445 28.5275 7.0825" layerid="2" stroke-width="0" /><circle c_etype="pad_hole" cx="27.2485" cy="8.2635" r="0" layerid="2" stroke-width="0"/></g><g c_partid="part_pad" c_etype="pinpart" c_origin="30.919,35.434" layerid="2" number="2" net="ON" plated ="Y"  id="gge1840" locked="0" c_rotation="180" c_width="2.362" c_height="2.559" title="ON" c_shape="RECT" pasteexpansion="0" solderexpansion="0.4"><polygon  c_etype="pad_shell" points="29.7375 36.7125 32.0995 36.7125 32.0995 34.1545 29.7375 34.1545" layerid="2" stroke-width="0" /><circle c_etype="pad_hole" cx="30.9185" cy="35.4335" r="0" layerid="2" stroke-width="0"/></g><g c_partid="part_pad" c_etype="pinpart" c_origin="27.579,35.434" layerid="2" number="1" net="R5_1" plated ="Y"  id="gge1845" locked="0" c_rotation="180" c_width="2.362" c_height="2.559" title="R5_1" c_shape="RECT" pasteexpansion="0" solderexpansion="0.4"><polygon  c_etype="pad_shell" points="26.3975 36.7125 28.7595 36.7125 28.7595 34.1545 26.3975 34.1545" layerid="2" stroke-width="0" /><circle c_etype="pad_hole" cx="27.5785" cy="35.4335" r="0" layerid="2" stroke-width="0"/></g><g c_partid="part_pad" c_etype="pinpart" c_origin="27.579,39.934" layerid="2" number="2" net="R5_1" plated ="Y"  id="gge1872" locked="0" c_rotation="0" c_width="2.362" c_height="2.559" title="R5_1" c_shape="RECT" pasteexpansion="0" solderexpansion="0.4"><polygon  c_etype="pad_shell" points="28.7595 38.6545 26.3975 38.6545 26.3975 41.2125 28.7595 41.2125" layerid="2" stroke-width="0" /><circle c_etype="pad_hole" cx="27.5785" cy="39.9335" r="0" layerid="2" stroke-width="0"/></g><g c_partid="part_pad" c_etype="pinpart" c_origin="30.919,39.934" layerid="2" number="1" net="GND" plated ="Y"  id="gge1877" locked="0" c_rotation="0" c_width="2.362" c_height="2.559" title="GND" c_shape="RECT" pasteexpansion="0" solderexpansion="0.4"><polygon  c_etype="pad_shell" points="32.0995 38.6545 29.7375 38.6545 29.7375 41.2125 32.0995 41.2125" layerid="2" stroke-width="0" /><circle c_etype="pad_hole" cx="30.9185" cy="39.9335" r="0" layerid="2" stroke-width="0"/></g><g c_partid="part_pad" c_etype="pinpart" c_origin="27.579,17.434" layerid="2" number="2" net="VCC" plated ="Y"  id="gge997" locked="0" c_rotation="0" c_width="2.362" c_height="2.559" title="VCC" c_shape="RECT" pasteexpansion="0" solderexpansion="0.4"><polygon  c_etype="pad_shell" points="28.7595 16.1545 26.3975 16.1545 26.3975 18.7125 28.7595 18.7125" layerid="2" stroke-width="0" /><circle c_etype="pad_hole" cx="27.5785" cy="17.4335" r="0" layerid="2" stroke-width="0"/></g><g c_partid="part_pad" c_etype="pinpart" c_origin="30.919,17.434" layerid="2" number="1" net="SDA" plated ="Y"  id="gge1002" locked="0" c_rotation="0" c_width="2.362" c_height="2.559" title="SDA" c_shape="RECT" pasteexpansion="0" solderexpansion="0.4"><polygon  c_etype="pad_shell" points="32.0995 16.1545 29.7375 16.1545 29.7375 18.7125 32.0995 18.7125" layerid="2" stroke-width="0" /><circle c_etype="pad_hole" cx="30.9185" cy="17.4335" r="0" layerid="2" stroke-width="0"/></g><g c_partid="part_pad" c_etype="pinpart" c_origin="15.009,10.514" layerid="2" number="1" net="TRIG" plated ="Y"  id="gge1034" locked="0" c_rotation="0" c_width="2.7559" c_height="4.9213" title="TRIG" c_shape="RECT" pasteexpansion="0" solderexpansion="0.4"><polygon  c_etype="pad_shell" points="16.3865 8.0529 13.6305 8.0529 13.6305 12.9741 16.3865 12.9741" layerid="2" stroke-width="0" /><circle c_etype="pad_hole" cx="15.0085" cy="10.5135" r="0" layerid="2" stroke-width="0"/></g><g c_partid="part_pad" c_etype="pinpart" c_origin="22.489,10.514" layerid="2" number="2" net="VCC" plated ="Y"  id="gge1039" locked="0" c_rotation="0" c_width="2.7559" c_height="4.9213" title="VCC" c_shape="RECT" pasteexpansion="0" solderexpansion="0.4"><polygon  c_etype="pad_shell" points="23.8665 8.0529 21.1105 8.0529 21.1105 12.9741 23.8665 12.9741" layerid="2" stroke-width="0" /><circle c_etype="pad_hole" cx="22.4885" cy="10.5135" r="0" layerid="2" stroke-width="0"/></g><g c_partid="part_pad" c_etype="pinpart" c_origin="18.749,20.354" layerid="2" number="3" net="VBUS" plated ="Y"  id="gge1044" locked="0" c_rotation="0" c_width="2.7559" c_height="4.9213" title="VBUS" c_shape="RECT" pasteexpansion="0" solderexpansion="0.4"><polygon  c_etype="pad_shell" points="20.1265 17.8929 17.3705 17.8929 17.3705 22.8141 20.1265 22.8141" layerid="2" stroke-width="0" /><circle c_etype="pad_hole" cx="18.7485" cy="20.3535" r="0" layerid="2" stroke-width="0"/></g><g c_partid="part_pad" c_etype="pinpart" c_origin="31.249,13.104" layerid="2" number="2" net="GND" plated ="Y"  id="gge1151" locked="0" c_rotation="90" c_width="2.362" c_height="2.559" title="GND" c_shape="RECT" pasteexpansion="0" solderexpansion="0.4"><polygon  c_etype="pad_shell" points="29.9695 11.9225 29.9695 14.2845 32.5275 14.2845 32.5275 11.9225" layerid="2" stroke-width="0" /><circle c_etype="pad_hole" cx="31.2485" cy="13.1035" r="0" layerid="2" stroke-width="0"/></g><g c_partid="part_pad" c_etype="pinpart" c_origin="31.249,9.764" layerid="2" number="1" net="VCC" plated ="Y"  id="gge1156" locked="0" c_rotation="90" c_width="2.362" c_height="2.559" title="VCC" c_shape="RECT" pasteexpansion="0" solderexpansion="0.4"><polygon  c_etype="pad_shell" points="29.9695 8.5825 29.9695 10.9445 32.5275 10.9445 32.5275 8.5825" layerid="2" stroke-width="0" /><circle c_etype="pad_hole" cx="31.2485" cy="9.7635" r="0" layerid="2" stroke-width="0"/></g><g c_partid="part_pad" c_etype="pinpart" c_origin="16.419,4.934" layerid="2" number="2" net="GND" plated ="Y"  id="gge1168" locked="0" c_rotation="180" c_width="2.362" c_height="2.559" title="GND" c_shape="RECT" pasteexpansion="0" solderexpansion="0.4"><polygon  c_etype="pad_shell" points="15.2375 6.2125 17.5995 6.2125 17.5995 3.6545 15.2375 3.6545" layerid="2" stroke-width="0" /><circle c_etype="pad_hole" cx="16.4185" cy="4.9335" r="0" layerid="2" stroke-width="0"/></g><g c_partid="part_pad" c_etype="pinpart" c_origin="13.079,4.934" layerid="2" number="1" net="VBUS" plated ="Y"  id="gge1173" locked="0" c_rotation="180" c_width="2.362" c_height="2.559" title="VBUS" c_shape="RECT" pasteexpansion="0" solderexpansion="0.4"><polygon  c_etype="pad_shell" points="11.8975 6.2125 14.2595 6.2125 14.2595 3.6545 11.8975 3.6545" layerid="2" stroke-width="0" /><circle c_etype="pad_hole" cx="13.0785" cy="4.9335" r="0" layerid="2" stroke-width="0"/></g><g c_partid="part_pad" c_etype="pinpart" c_origin="21.989,38.854" layerid="2" number="1" net="R5_1" plated ="Y"  id="gge1190" locked="0" c_rotation="180" c_width="2.7559" c_height="4.9213" title="R5_1" c_shape="RECT" pasteexpansion="0" solderexpansion="0.4"><polygon  c_etype="pad_shell" points="20.6105 41.3141 23.3665 41.3141 23.3665 36.3929 20.6105 36.3929" layerid="2" stroke-width="0" /><circle c_etype="pad_hole" cx="21.9885" cy="38.8535" r="0" layerid="2" stroke-width="0"/></g><g c_partid="part_pad" c_etype="pinpart" c_origin="14.509,38.854" layerid="2" number="2" net="GND" plated ="Y"  id="gge1195" locked="0" c_rotation="180" c_width="2.7559" c_height="4.9213" title="GND" c_shape="RECT" pasteexpansion="0" solderexpansion="0.4"><polygon  c_etype="pad_shell" points="13.1305 41.3141 15.8865 41.3141 15.8865 36.3929 13.1305 36.3929" layerid="2" stroke-width="0" /><circle c_etype="pad_hole" cx="14.5085" cy="38.8535" r="0" layerid="2" stroke-width="0"/></g><g c_partid="part_pad" c_etype="pinpart" c_origin="18.249,29.014" layerid="2" number="3" net="R6_1" plated ="Y"  id="gge1200" locked="0" c_rotation="180" c_width="2.7559" c_height="4.9213" title="R6_1" c_shape="RECT" pasteexpansion="0" solderexpansion="0.4"><polygon  c_etype="pad_shell" points="16.8705 31.4741 19.6265 31.4741 19.6265 26.5529 16.8705 26.5529" layerid="2" stroke-width="0" /><circle c_etype="pad_hole" cx="18.2485" cy="29.0135" r="0" layerid="2" stroke-width="0"/></g><g c_partid="part_pad" c_etype="pinpart" c_origin="13.749,22.764" layerid="2" number="2" net="SW" plated ="Y"  id="gge1528" locked="0" c_rotation="270" c_width="2.362" c_height="2.559" title="SW" c_shape="RECT" pasteexpansion="0" solderexpansion="0.4"><polygon  c_etype="pad_shell" points="15.0275 23.9445 15.0275 21.5825 12.4695 21.5825 12.4695 23.9445" layerid="2" stroke-width="0" /><circle c_etype="pad_hole" cx="13.7485" cy="22.7635" r="0" layerid="2" stroke-width="0"/></g><g c_partid="part_pad" c_etype="pinpart" c_origin="13.749,26.104" layerid="2" number="1" net="TRIG" plated ="Y"  id="gge1533" locked="0" c_rotation="270" c_width="2.362" c_height="2.559" title="TRIG" c_shape="RECT" pasteexpansion="0" solderexpansion="0.4"><polygon  c_etype="pad_shell" points="15.0275 27.2845 15.0275 24.9225 12.4695 24.9225 12.4695 27.2845" layerid="2" stroke-width="0" /><circle c_etype="pad_hole" cx="13.7485" cy="26.1035" r="0" layerid="2" stroke-width="0"/></g><g c_partid="part_pad" c_etype="pinpart" c_origin="23.249,26.604" layerid="2" number="1" net="R6_1" plated ="Y"  id="gge1861" locked="0" c_rotation="270" c_width="2.362" c_height="2.559" title="R6_1" c_shape="RECT" pasteexpansion="0" solderexpansion="0.4"><polygon  c_etype="pad_shell" points="24.5275 27.7845 24.5275 25.4225 21.9695 25.4225 21.9695 27.7845" layerid="2" stroke-width="0" /><circle c_etype="pad_hole" cx="23.2485" cy="26.6035" r="0" layerid="2" stroke-width="0"/></g><g c_partid="part_pad" c_etype="pinpart" c_origin="23.249,23.264" layerid="2" number="2" net="TRIG" plated ="Y"  id="gge1856" locked="0" c_rotation="270" c_width="2.362" c_height="2.559" title="TRIG" c_shape="RECT" pasteexpansion="0" solderexpansion="0.4"><polygon  c_etype="pad_shell" points="24.5275 24.4445 24.5275 22.0825 21.9695 22.0825 21.9695 24.4445" layerid="2" stroke-width="0" /><circle c_etype="pad_hole" cx="23.2485" cy="23.2635" r="0" layerid="2" stroke-width="0"/></g><polyline points="29.9785 20.2335 32.4785 20.2335 32.4785 23.6335 30.3785 23.6335 29.9785 23.6335" stroke-width="0.6"  stroke-linecap="round" fill="none" layerid="4" net="" id="gge1806" locked="0" /><polyline points="28.4785 23.6335 26.0785 23.6335 26.0785 20.2335 28.1785 20.2335 28.4785 20.2335" stroke-width="0.6"  stroke-linecap="round" fill="none" layerid="4" net="" id="gge1807" locked="0" /><polyline points="25.5485 9.2035 25.5485 6.7035 28.9485 6.7035 28.9485 8.8035 28.9485 9.2035" stroke-width="0.6"  stroke-linecap="round" fill="none" layerid="4" net="" id="gge1822" locked="0" /><polyline points="28.9485 10.7035 28.9485 13.1035 25.5485 13.1035 25.5485 11.0035 25.5485 10.7035" stroke-width="0.6"  stroke-linecap="round" fill="none" layerid="4" net="" id="gge1823" locked="0" /><polyline points="28.5185 37.1335 26.0185 37.1335 26.0185 33.7335 28.1185 33.7335 28.5185 33.7335" stroke-width="0.6"  stroke-linecap="round" fill="none" layerid="4" net="" id="gge1838" locked="0" /><polyline points="30.0185 33.7335 32.4185 33.7335 32.4185 37.1335 30.3185 37.1335 30.0185 37.1335" stroke-width="0.6"  stroke-linecap="round" fill="none" layerid="4" net="" id="gge1839" locked="0" /><polyline points="29.9785 38.2335 32.4785 38.2335 32.4785 41.6335 30.3785 41.6335 29.9785 41.6335" stroke-width="0.6"  stroke-linecap="round" fill="none" layerid="4" net="" id="gge1870" locked="0" /><polyline points="28.4785 41.6335 26.0785 41.6335 26.0785 38.2335 28.1785 38.2335 28.4785 38.2335" stroke-width="0.6"  stroke-linecap="round" fill="none" layerid="4" net="" id="gge1871" locked="0" /><polyline points="29.9785 15.7335 32.4785 15.7335 32.4785 19.1335 30.3785 19.1335 29.9785 19.1335" stroke-width="0.6"  stroke-linecap="round" fill="none" layerid="4" net="" id="gge995" locked="0" /><polyline points="28.4785 19.1335 26.0785 19.1335 26.0785 15.7335 28.1785 15.7335 28.4785 15.7335" stroke-width="0.6"  stroke-linecap="round" fill="none" layerid="4" net="VCC" id="gge996" locked="0" /><polyline points="12.4494 18.9769 16.4604 18.9769" stroke-width="1"  stroke-linecap="round" fill="none" layerid="4" net="null" id="gge1027" locked="0" /><polyline points="24.7766 11.8902 25.0478 11.8902" stroke-width="1"  stroke-linecap="round" fill="none" layerid="4" net="null" id="gge1028" locked="0" /><polyline points="17.2966 11.8902 20.2004 11.8902" stroke-width="1"  stroke-linecap="round" fill="none" layerid="4" net="null" id="gge1029" locked="0" /><polyline points="12.4494 11.8902 12.7204 11.8902" stroke-width="1"  stroke-linecap="round" fill="none" layerid="4" net="null" id="gge1030" locked="0" /><polyline points="25.0478 18.9769 25.0478 11.8902" stroke-width="1"  stroke-linecap="round" fill="none" layerid="4" net="null" id="gge1031" locked="0" /><polyline points="12.4494 18.9769 12.4494 11.8902" stroke-width="1"  stroke-linecap="round" fill="none" layerid="4" net="null" id="gge1032" locked="0" /><polyline points="21.0366 18.9769 25.0478 18.9769" stroke-width="1"  stroke-linecap="round" fill="none" layerid="4" net="null" id="gge1033" locked="0" /><polyline points="29.5485 10.7035 29.5485 8.2035 32.9485 8.2035 32.9485 10.3035 32.9485 10.7035" stroke-width="0.6"  stroke-linecap="round" fill="none" layerid="4" net="" id="gge1149" locked="0" /><polyline points="32.9485 12.2035 32.9485 14.6035 29.5485 14.6035 29.5485 12.5035 29.5485 12.2035" stroke-width="0.6"  stroke-linecap="round" fill="none" layerid="4" net="" id="gge1150" locked="0" /><polyline points="14.0185 6.6335 11.5185 6.6335 11.5185 3.2335 13.6185 3.2335 14.0185 3.2335" stroke-width="0.6"  stroke-linecap="round" fill="none" layerid="4" net="" id="gge1166" locked="0" /><polyline points="15.5185 3.2335 17.9185 3.2335 17.9185 6.6335 15.8185 6.6335 15.5185 6.6335" stroke-width="0.6"  stroke-linecap="round" fill="none" layerid="4" net="" id="gge1167" locked="0" /><polyline points="24.5476 30.3901 20.5366 30.3901" stroke-width="1"  stroke-linecap="round" fill="none" layerid="4" net="null" id="gge1183" locked="0" /><polyline points="12.2204 37.4768 11.9492 37.4768" stroke-width="1"  stroke-linecap="round" fill="none" layerid="4" net="null" id="gge1184" locked="0" /><polyline points="19.7004 37.4768 16.7966 37.4768" stroke-width="1"  stroke-linecap="round" fill="none" layerid="4" net="null" id="gge1185" locked="0" /><polyline points="24.5476 37.4768 24.2766 37.4768" stroke-width="1"  stroke-linecap="round" fill="none" layerid="4" net="null" id="gge1186" locked="0" /><polyline points="11.9492 30.3901 11.9492 37.4768" stroke-width="1"  stroke-linecap="round" fill="none" layerid="4" net="null" id="gge1187" locked="0" /><polyline points="24.5476 30.3901 24.5476 37.4768" stroke-width="1"  stroke-linecap="round" fill="none" layerid="4" net="null" id="gge1188" locked="0" /><polyline points="15.9604 30.3901 11.9492 30.3901" stroke-width="1"  stroke-linecap="round" fill="none" layerid="4" net="null" id="gge1189" locked="0" /><polyline points="15.4485 25.1635 15.4485 27.6635 12.0485 27.6635 12.0485 25.5635 12.0485 25.1635" stroke-width="0.6"  stroke-linecap="round" fill="none" layerid="4" net="" id="gge1526" locked="0" /><polyline points="12.0485 23.6635 12.0485 21.2635 15.4485 21.2635 15.4485 23.3635 15.4485 23.6635" stroke-width="0.6"  stroke-linecap="round" fill="none" layerid="4" net="" id="gge1527" locked="0" /><polyline points="24.9485 25.6635 24.9485 28.1635 21.5485 28.1635 21.5485 26.0635 21.5485 25.6635" stroke-width="0.6"  stroke-linecap="round" fill="none" layerid="4" net="" id="gge1854" locked="0" /><polyline points="21.5485 24.1635 21.5485 21.7635 24.9485 21.7635 24.9485 23.8635 24.9485 24.1635" stroke-width="0.6"  stroke-linecap="round" fill="none" layerid="4" net="" id="gge1855" locked="0" /><g c_partid="part_pcbtext" c_etype="" c_origin="29.279,19.934" c_rotation="0" c_mirror="1" id="gge1115" locked="0" layerid="4" c_shapetype="group" display="none"><path c_fontsize="4.5" c_fontfamily="" c_text="R4" d="M 29.2785 15.3926 L 29.2785 19.688 M 29.2785 15.3926 L 27.4376 15.3926 L 26.824 15.5971 L 26.6194 15.8017 L 26.4149 16.2108 L 26.4149 16.6199 L 26.6194 17.029 L 26.824 17.2335 L 27.4376 17.438 L 29.2785 17.438 M 27.8467 17.438 L 26.4149 19.688 M 23.0194 15.3926 L 25.0649 18.2562 L 21.9967 18.2562 M 23.0194 15.3926 L 23.0194 19.688" fill="none"  stroke-width="0.6" c_note="note_pre" /></g><g c_partid="part_pcbtext" c_etype="" c_origin="29.279,11.934" c_rotation="0" c_mirror="1" id="rep2" locked="0" layerid="4" c_shapetype="group" display="none"><path c_fontsize="4.5" c_fontfamily="" c_text="_" d="M 29.2785 13.1199 L 25.5967 13.1199" fill="none"  stroke-width="0.6" c_note="note_name" /></g><g c_partid="part_pcbtext" c_etype="" c_origin="25.249,9.904" c_rotation="90" c_mirror="1" id="gge963" locked="0" layerid="4" c_shapetype="group" display="none"><path c_fontsize="4.5" c_fontfamily="" c_text="R2" d="M 20.7076 9.9035 L 25.003 9.9035 M 20.7076 9.9035 L 20.7076 11.7444 L 20.9121 12.358 L 21.1167 12.5626 L 21.5258 12.7671 L 21.9349 12.7671 L 22.344 12.5626 L 22.5485 12.358 L 22.753 11.7444 L 22.753 9.9035 M 22.753 11.3353 L 25.003 12.7671 M 21.7303 14.3217 L 21.5258 14.3217 L 21.1167 14.5262 L 20.9121 14.7308 L 20.7076 15.1399 L 20.7076 15.958 L 20.9121 16.3671 L 21.1167 16.5717 L 21.5258 16.7762 L 21.9349 16.7762 L 22.344 16.5717 L 22.9576 16.1626 L 25.003 14.1171 L 25.003 16.9808" fill="none"  stroke-width="0.6" c_note="note_pre" /></g><g c_partid="part_pcbtext" c_etype="" c_origin="13.249,10.934" c_rotation="90" c_mirror="1" id="rep3" locked="0" layerid="4" c_shapetype="group" display="none"><path c_fontsize="4.5" c_fontfamily="NotoSerifCJKsc-Medium" c_text="120kΩ" d="M 12.5285 11.7635 C 12.2885 11.7535 12.0585 11.7535 11.8285 11.7535 L 10.4485 11.7535 L 9.8185 11.7735 L 9.7685 11.7135 L 10.0085 10.8135 L 10.1585 10.8135 L 10.1085 11.3935 L 11.8285 11.3935 C 12.0585 11.3935 12.2885 11.3935 12.5285 11.3835 L 12.6085 10.7635 L 12.7485 10.7635 L 12.7485 12.3735 L 12.6085 12.3735 Z  M 12.4085 13.1235 C 12.1985 13.3335 11.9985 13.5235 11.8785 13.6435 C 11.1885 14.2935 10.9085 14.5235 10.5285 14.5235 C 10.0785 14.5235 9.7585 14.2735 9.7585 13.7035 C 9.7585 13.2735 9.9785 12.8835 10.4185 12.8235 C 10.4985 12.8735 10.5485 12.9435 10.5485 13.0335 C 10.5485 13.1535 10.4785 13.2235 10.2785 13.2735 L 9.9585 13.3635 C 9.9385 13.4535 9.9285 13.5335 9.9285 13.6035 C 9.9285 13.9335 10.1785 14.1335 10.5485 14.1335 C 10.9085 14.1335 11.2385 13.9335 11.7285 13.5135 C 11.9485 13.3135 12.2085 13.0835 12.4785 12.8435 L 12.7485 12.8435 L 12.7485 14.6435 L 12.4085 14.6435 Z  M 11.2585 15.3935 C 10.2085 15.3935 9.9285 15.6535 9.9285 15.9335 C 9.9285 16.1935 10.2085 16.4535 11.2585 16.4535 C 12.3485 16.4535 12.6385 16.1935 12.6385 15.9335 C 12.6385 15.6535 12.3485 15.3935 11.2585 15.3935 Z  M 9.7585 15.9335 C 9.7585 15.4535 10.1685 15.0035 11.2585 15.0035 C 12.3885 15.0035 12.8085 15.4535 12.8085 15.9335 C 12.8085 16.3935 12.3885 16.8435 11.2585 16.8435 C 10.1685 16.8435 9.7585 16.3935 9.7585 15.9335 Z  M 12.5685 19.1435 L 11.3785 18.4035 L 10.8685 18.9035 L 10.8185 19.3135 L 10.6685 19.3135 L 10.6685 18.3035 L 10.8185 18.3035 L 10.8885 18.6535 L 11.7085 17.8535 L 10.1685 17.8535 L 9.5385 17.8735 L 9.5085 17.8135 L 9.6885 17.1435 L 9.8285 17.1435 L 9.8585 17.4935 L 11.8285 17.4935 C 12.0685 17.4935 12.3285 17.4935 12.5685 17.4935 L 12.6085 17.1435 L 12.7485 17.1435 L 12.7485 18.2135 L 12.6085 18.2135 L 12.5685 17.8635 C 12.3585 17.8635 12.1385 17.8535 11.9285 17.8535 L 11.6285 18.1535 L 12.7485 18.8335 L 12.7485 19.4235 L 12.6085 19.4235 Z  M 12.0085 22.2235 L 12.4385 22.1235 L 12.4385 21.5035 L 12.4385 21.5035 C 12.1185 21.9535 11.6485 22.3135 11.0785 22.3135 C 10.2185 22.3135 9.7485 21.7035 9.7485 21.0335 C 9.7485 20.3435 10.2185 19.7435 11.0785 19.7435 C 11.6485 19.7435 12.1185 20.1035 12.4385 20.5535 L 12.4385 20.5535 L 12.4385 19.9335 L 12.0085 19.8335 L 12.0085 19.6035 L 12.7485 19.6435 L 12.7485 20.8135 L 12.4785 20.8135 C 12.1485 20.4135 11.6285 20.1535 11.0785 20.1535 C 10.4285 20.1535 9.9385 20.4735 9.9385 21.0335 C 9.9385 21.5735 10.4285 21.9035 11.0785 21.9035 C 11.6285 21.9035 12.1485 21.6435 12.4785 21.2335 L 12.7485 21.2335 L 12.7485 22.4135 L 12.0085 22.4535 Z "  stroke="none" stroke-width="1" c_note="note_name" /></g><g c_partid="part_pcbtext" c_etype="" c_origin="29.219,37.434" c_rotation="180" c_mirror="1" id="gge1008" locked="0" layerid="4" c_shapetype="group" display="none"><path c_fontsize="4.5" c_fontfamily="" c_text="R5" d="M 29.2185 41.9744 L 29.2185 37.679 M 29.2185 41.9744 L 31.0594 41.9744 L 31.673 41.7699 L 31.8776 41.5653 L 32.0821 41.1562 L 32.0821 40.7471 L 31.8776 40.338 L 31.673 40.1335 L 31.0594 39.929 L 29.2185 39.929 M 30.6503 39.929 L 32.0821 37.679 M 35.8867 41.9744 L 33.8412 41.9744 L 33.6367 40.1335 L 33.8412 40.338 L 34.4549 40.5426 L 35.0685 40.5426 L 35.6821 40.338 L 36.0912 39.929 L 36.2958 39.3153 L 36.2958 38.9062 L 36.0912 38.2926 L 35.6821 37.8835 L 35.0685 37.679 L 34.4549 37.679 L 33.8412 37.8835 L 33.6367 38.088 L 33.4321 38.4971" fill="none"  stroke-width="0.6" c_note="note_pre" /></g><g c_partid="part_pcbtext" c_etype="" c_origin="29.219,29.434" c_rotation="180" c_mirror="1" id="rep4" locked="0" layerid="4" c_shapetype="group" display="none"><path c_fontsize="4.5" c_fontfamily="" c_text="_" d="M 29.2185 30.6235 L 32.8985 30.6235" fill="none"  stroke-width="0.6" c_note="note_name" /></g><g c_partid="part_pcbtext" c_etype="" c_origin="29.279,37.934" c_rotation="0" c_mirror="1" id="gge933" locked="0" layerid="4" c_shapetype="group" display="none"><path c_fontsize="4.5" c_fontfamily="" c_text="R7" d="M 29.2785 33.3926 L 29.2785 37.688 M 29.2785 33.3926 L 27.4376 33.3926 L 26.824 33.5971 L 26.6194 33.8017 L 26.4149 34.2108 L 26.4149 34.6199 L 26.6194 35.029 L 26.824 35.2335 L 27.4376 35.438 L 29.2785 35.438 M 27.8467 35.438 L 26.4149 37.688 M 22.2012 33.3926 L 24.2467 37.688 M 25.0649 33.3926 L 22.2012 33.3926" fill="none"  stroke-width="0.6" c_note="note_pre" /></g><g c_partid="part_pcbtext" c_etype="" c_origin="29.279,29.934" c_rotation="0" c_mirror="1" id="rep6" locked="0" layerid="4" c_shapetype="group" display="none"><path c_fontsize="4.5" c_fontfamily="" c_text="_" d="M 29.2785 31.1199 L 25.5967 31.1199" fill="none"  stroke-width="0.6" c_note="note_name" /></g><g c_partid="part_pcbtext" c_etype="" c_origin="29.279,15.434" c_rotation="0" c_mirror="1" id="gge993" locked="0" layerid="4" c_shapetype="group" display="none"><path c_fontsize="4.5" c_fontfamily="" c_text="R3" d="M 29.2785 10.8935 L 29.2785 15.1835 M 29.2785 10.8935 L 27.4385 10.8935 L 26.8285 11.0935 L 26.6185 11.3035 L 26.4185 11.7135 L 26.4185 12.1235 L 26.6185 12.5335 L 26.8285 12.7335 L 27.4385 12.9335 L 29.2785 12.9335 M 27.8485 12.9335 L 26.4185 15.1835 M 24.6585 10.8935 L 22.4085 10.8935 L 23.6285 12.5335 L 23.0185 12.5335 L 22.6085 12.7335 L 22.4085 12.9335 L 22.1985 13.5535 L 22.1985 13.9635 L 22.4085 14.5735 L 22.8185 14.9835 L 23.4285 15.1835 L 24.0385 15.1835 L 24.6585 14.9835 L 24.8585 14.7835 L 25.0685 14.3735" fill="none"  stroke-width="0.6" c_note="note_pre" /></g><g c_partid="part_pcbtext" c_etype="" c_origin="28.249,3.434" c_rotation="0" c_mirror="1" id="rep7" locked="0" layerid="4" c_shapetype="group" display="none"><path c_fontsize="4.5" c_fontfamily="" c_text="1,2kΩ" d="M 26.9185 3.2135 C 26.9285 2.9735 26.9285 2.7435 26.9285 2.5135 L 26.9285 1.1335 L 26.9085 0.5035 L 26.9685 0.4535 L 27.8685 0.6935 L 27.8685 0.8435 L 27.2885 0.7935 L 27.2885 2.5135 C 27.2885 2.7435 27.2885 2.9735 27.2985 3.2135 L 27.9185 3.2935 L 27.9185 3.4335 L 26.3085 3.4335 L 26.3085 3.2935 Z  M 25.3685 3.5835 C 25.4585 3.9135 25.6885 4.1135 25.9885 4.2735 L 25.9285 4.3935 C 25.5285 4.2335 25.1285 3.8335 25.1285 3.3235 C 25.1285 3.2135 25.1385 3.1135 25.1785 3.0135 C 25.2685 2.9235 25.3585 2.8935 25.4385 2.8935 C 25.5985 2.8935 25.6885 3.0135 25.6885 3.1635 C 25.6885 3.2635 25.6485 3.3735 25.5285 3.4535 Z  M 24.2385 3.0935 C 24.0385 2.8835 23.8385 2.6835 23.7285 2.5635 C 23.0685 1.8735 22.8485 1.5935 22.8485 1.2135 C 22.8485 0.7635 23.0985 0.4435 23.6585 0.4435 C 24.0985 0.4435 24.4785 0.6635 24.5385 1.1035 C 24.4985 1.1835 24.4185 1.2335 24.3285 1.2335 C 24.2185 1.2335 24.1385 1.1635 24.0885 0.9635 L 23.9985 0.6435 C 23.9085 0.6235 23.8285 0.6135 23.7685 0.6135 C 23.4385 0.6135 23.2285 0.8635 23.2285 1.2335 C 23.2285 1.5935 23.4285 1.9235 23.8585 2.4135 C 24.0485 2.6335 24.2785 2.8935 24.5185 3.1635 L 24.5185 3.4335 L 22.7185 3.4335 L 22.7185 3.0935 Z  M 20.4185 3.2535 L 21.1585 2.0635 L 20.6585 1.5535 L 20.2485 1.5035 L 20.2485 1.3535 L 21.2585 1.3535 L 21.2585 1.5035 L 20.9085 1.5735 L 21.7085 2.3935 L 21.7085 0.8535 L 21.6885 0.2235 L 21.7485 0.1935 L 22.4185 0.3735 L 22.4185 0.5135 L 22.0685 0.5435 L 22.0685 2.5135 C 22.0685 2.7535 22.0685 3.0135 22.0685 3.2535 L 22.4185 3.2935 L 22.4185 3.4335 L 21.3485 3.4335 L 21.3485 3.2935 L 21.6985 3.2535 C 21.6985 3.0435 21.7085 2.8235 21.7085 2.6135 L 21.4085 2.3135 L 20.7285 3.4335 L 20.1385 3.4335 L 20.1385 3.2935 Z  M 17.3385 2.6935 L 17.4385 3.1235 L 18.0585 3.1235 L 18.0585 3.1235 C 17.6085 2.8035 17.2485 2.3335 17.2485 1.7635 C 17.2485 0.9035 17.8585 0.4335 18.5285 0.4335 C 19.2185 0.4335 19.8185 0.9035 19.8185 1.7635 C 19.8185 2.3335 19.4585 2.8035 19.0085 3.1235 L 19.0085 3.1235 L 19.6285 3.1235 L 19.7285 2.6935 L 19.9585 2.6935 L 19.9185 3.4335 L 18.7485 3.4335 L 18.7485 3.1635 C 19.1485 2.8335 19.4085 2.3135 19.4085 1.7635 C 19.4085 1.1135 19.0885 0.6235 18.5285 0.6235 C 17.9885 0.6235 17.6585 1.1135 17.6585 1.7635 C 17.6585 2.3135 17.9185 2.8335 18.3285 3.1635 L 18.3285 3.4335 L 17.1485 3.4335 L 17.1085 2.6935 Z "  stroke="none" stroke-width="0.6" c_note="note_name" /></g><g c_partid="part_pcbtext" c_etype="" c_origin="37.799,-9.436" c_rotation="90" c_mirror="1" id="gge1023" locked="0" layerid="4" c_shapetype="group" display="none"><path c_fontsize="4.5" c_fontfamily="" c_text="AO3407" d="M 33.2585 -7.7965 L 37.5485 -9.4365 M 33.2585 -7.7965 L 37.5485 -6.1665 M 36.1185 -8.8265 L 36.1185 -6.7765 M 33.2585 -3.5865 L 33.4585 -3.9965 L 33.8685 -4.4065 L 34.2785 -4.6065 L 34.8985 -4.8165 L 35.9185 -4.8165 L 36.5285 -4.6065 L 36.9385 -4.4065 L 37.3485 -3.9965 L 37.5485 -3.5865 L 37.5485 -2.7665 L 37.3485 -2.3565 L 36.9385 -1.9465 L 36.5285 -1.7465 L 35.9185 -1.5365 L 34.8985 -1.5365 L 34.2785 -1.7465 L 33.8685 -1.9465 L 33.4585 -2.3565 L 33.2585 -2.7665 L 33.2585 -3.5865 M 33.2585 0.2135 L 33.2585 2.4635 L 34.8985 1.2435 L 34.8985 1.8535 L 35.0985 2.2635 L 35.2985 2.4635 L 35.9185 2.6735 L 36.3285 2.6735 L 36.9385 2.4635 L 37.3485 2.0635 L 37.5485 1.4435 L 37.5485 0.8335 L 37.3485 0.2135 L 37.1485 0.0135 L 36.7385 -0.1865 M 33.2585 6.0635 L 36.1185 4.0235 L 36.1185 7.0935 M 33.2585 6.0635 L 37.5485 6.0635 M 33.2585 9.6635 L 33.4585 9.0535 L 34.0785 8.6435 L 35.0985 8.4435 L 35.7085 8.4435 L 36.7385 8.6435 L 37.3485 9.0535 L 37.5485 9.6635 L 37.5485 10.0735 L 37.3485 10.6935 L 36.7385 11.1035 L 35.7085 11.3035 L 35.0985 11.3035 L 34.0785 11.1035 L 33.4585 10.6935 L 33.2585 10.0735 L 33.2585 9.6635 M 33.2585 15.5135 L 37.5485 13.4735 M 33.2585 12.6535 L 33.2585 15.5135" fill="none"  stroke-width="0.6" c_note="note_name" /></g><g c_partid="part_pcbtext" c_etype="" c_origin="26.009,15.514" c_rotation="270" c_mirror="1" id="gge1025" locked="0" layerid="4" c_shapetype="group" display="none"><path c_fontsize="4.5" c_fontfamily="" c_text="Q1" d="M 30.5485 14.2835 L 30.3485 14.6935 L 29.9385 15.1035 L 29.5285 15.3135 L 28.9085 15.5135 L 27.8885 15.5135 L 27.2785 15.3135 L 26.8685 15.1035 L 26.4585 14.6935 L 26.2585 14.2835 L 26.2585 13.4635 L 26.4585 13.0635 L 26.8685 12.6535 L 27.2785 12.4435 L 27.8885 12.2435 L 28.9085 12.2435 L 29.5285 12.4435 L 29.9385 12.6535 L 30.3485 13.0635 L 30.5485 13.4635 L 30.5485 14.2835 M 27.0685 13.6735 L 25.8485 12.4435 M 29.7285 10.8935 L 29.9385 10.4835 L 30.5485 9.8635 L 26.2585 9.8635" fill="none"  stroke-width="0.6" c_note="note_pre" /></g><g c_partid="part_pcbtext" c_etype="" c_origin="22.249,11.404" c_rotation="90" c_mirror="1" id="gge1145" locked="0" layerid="4" c_shapetype="group" display="none"><path c_fontsize="4.5" c_fontfamily="" c_text="100nF" d="M 18.5285 11.4035 L 18.3185 11.8135 L 17.7085 12.4235 L 21.9985 12.4235 M 17.7085 15.0035 L 17.9085 14.3935 L 18.5285 13.9835 L 19.5485 13.7735 L 20.1585 13.7735 L 21.1885 13.9835 L 21.7985 14.3935 L 21.9985 15.0035 L 21.9985 15.4135 L 21.7985 16.0235 L 21.1885 16.4335 L 20.1585 16.6435 L 19.5485 16.6435 L 18.5285 16.4335 L 17.9085 16.0235 L 17.7085 15.4135 L 17.7085 15.0035 M 17.7085 19.2135 L 17.9085 18.6035 L 18.5285 18.1935 L 19.5485 17.9935 L 20.1585 17.9935 L 21.1885 18.1935 L 21.7985 18.6035 L 21.9985 19.2135 L 21.9985 19.6235 L 21.7985 20.2435 L 21.1885 20.6535 L 20.1585 20.8535 L 19.5485 20.8535 L 18.5285 20.6535 L 17.9085 20.2435 L 17.7085 19.6235 L 17.7085 19.2135 M 19.1385 22.2035 L 21.9985 22.2035 M 19.9585 22.2035 L 19.3485 22.8135 L 19.1385 23.2235 L 19.1385 23.8435 L 19.3485 24.2535 L 19.9585 24.4535 L 21.9985 24.4535 M 17.7085 25.8035 L 21.9985 25.8035 M 17.7085 25.8035 L 17.7085 28.4635 M 19.7485 25.8035 L 19.7485 27.4435" fill="none"  stroke-width="0.6" c_note="note_name" /></g><g c_partid="part_pcbtext" c_etype="" c_origin="29.249,11.404" c_rotation="90" c_mirror="1" id="gge1147" locked="0" layerid="4" c_shapetype="group" display="none"><path c_fontsize="4.5" c_fontfamily="" c_text="C2" d="M 25.7285 14.4735 L 25.3185 14.2635 L 24.9085 13.8535 L 24.7085 13.4535 L 24.7085 12.6335 L 24.9085 12.2235 L 25.3185 11.8135 L 25.7285 11.6035 L 26.3485 11.4035 L 27.3685 11.4035 L 27.9785 11.6035 L 28.3885 11.8135 L 28.7985 12.2235 L 28.9985 12.6335 L 28.9985 13.4535 L 28.7985 13.8535 L 28.3885 14.2635 L 27.9785 14.4735 M 25.7285 16.0235 L 25.5285 16.0235 L 25.1185 16.2335 L 24.9085 16.4335 L 24.7085 16.8435 L 24.7085 17.6635 L 24.9085 18.0735 L 25.1185 18.2735 L 25.5285 18.4835 L 25.9385 18.4835 L 26.3485 18.2735 L 26.9585 17.8635 L 28.9985 15.8235 L 28.9985 18.6835" fill="none"  stroke-width="0.6" c_note="note_pre" /></g><g c_partid="part_pcbtext" c_etype="" c_origin="31.779,18.724" c_rotation="0" c_mirror="1" id="gge1162" locked="0" layerid="4" c_shapetype="group" display="none"><path c_fontsize="4.5" c_fontfamily="" c_text="100nF" d="M 31.7785 15.0035 L 31.3685 14.7935 L 30.7585 14.1835 L 30.7585 18.4735 M 28.1785 14.1835 L 28.7885 14.3835 L 29.1985 15.0035 L 29.4085 16.0235 L 29.4085 16.6335 L 29.1985 17.6635 L 28.7885 18.2735 L 28.1785 18.4735 L 27.7685 18.4735 L 27.1585 18.2735 L 26.7485 17.6635 L 26.5385 16.6335 L 26.5385 16.0235 L 26.7485 15.0035 L 27.1585 14.3835 L 27.7685 14.1835 L 28.1785 14.1835 M 23.9685 14.1835 L 24.5785 14.3835 L 24.9885 15.0035 L 25.1885 16.0235 L 25.1885 16.6335 L 24.9885 17.6635 L 24.5785 18.2735 L 23.9685 18.4735 L 23.5585 18.4735 L 22.9385 18.2735 L 22.5285 17.6635 L 22.3285 16.6335 L 22.3285 16.0235 L 22.5285 15.0035 L 22.9385 14.3835 L 23.5585 14.1835 L 23.9685 14.1835 M 20.9785 15.6135 L 20.9785 18.4735 M 20.9785 16.4335 L 20.3685 15.8235 L 19.9585 15.6135 L 19.3385 15.6135 L 18.9285 15.8235 L 18.7285 16.4335 L 18.7285 18.4735 M 17.3785 14.1835 L 17.3785 18.4735 M 17.3785 14.1835 L 14.7185 14.1835 M 17.3785 16.2235 L 15.7385 16.2235" fill="none"  stroke-width="0.6" c_note="note_name" /></g><g c_partid="part_pcbtext" c_etype="" c_origin="14.719,6.934" c_rotation="180" c_mirror="1" id="gge1164" locked="0" layerid="4" c_shapetype="group" display="none"><path c_fontsize="4.5" c_fontfamily="" c_text="C3" d="M 17.7885 10.4535 L 17.5785 10.8635 L 17.1685 11.2735 L 16.7685 11.4735 L 15.9485 11.4735 L 15.5385 11.2735 L 15.1285 10.8635 L 14.9185 10.4535 L 14.7185 9.8335 L 14.7185 8.8135 L 14.9185 8.2035 L 15.1285 7.7935 L 15.5385 7.3835 L 15.9485 7.1835 L 16.7685 7.1835 L 17.1685 7.3835 L 17.5785 7.7935 L 17.7885 8.2035 M 19.5485 11.4735 L 21.7985 11.4735 L 20.5685 9.8335 L 21.1785 9.8335 L 21.5885 9.6335 L 21.7985 9.4335 L 21.9985 8.8135 L 21.9985 8.4035 L 21.7985 7.7935 L 21.3885 7.3835 L 20.7685 7.1835 L 20.1585 7.1835 L 19.5485 7.3835 L 19.3385 7.5835 L 19.1385 7.9935" fill="none"  stroke-width="0.6" c_note="note_pre" /></g><g c_partid="part_pcbtext" c_etype="" c_origin="3.989,33.854" c_rotation="90" c_mirror="1" id="gge1179" locked="0" layerid="4" c_shapetype="group" display="none"><path c_fontsize="4.5" c_fontfamily="" c_text="SI2302" d="M 0.0585 36.7135 L -0.3515 36.3035 L -0.5515 35.6935 L -0.5515 34.8735 L -0.3515 34.2635 L 0.0585 33.8535 L 0.4685 33.8535 L 0.8785 34.0535 L 1.0885 34.2635 L 1.2885 34.6735 L 1.6985 35.9035 L 1.8985 36.3035 L 2.1085 36.5135 L 2.5185 36.7135 L 3.1285 36.7135 L 3.5385 36.3035 L 3.7385 35.6935 L 3.7385 34.8735 L 3.5385 34.2635 L 3.1285 33.8535 M -0.5515 38.0635 L 3.7385 38.0635 M 0.4685 39.6235 L 0.2685 39.6235 L -0.1415 39.8235 L -0.3515 40.0335 L -0.5515 40.4435 L -0.5515 41.2535 L -0.3515 41.6635 L -0.1415 41.8735 L 0.2685 42.0735 L 0.6785 42.0735 L 1.0885 41.8735 L 1.6985 41.4635 L 3.7385 39.4135 L 3.7385 42.2835 M -0.5515 44.0435 L -0.5515 46.2935 L 1.0885 45.0635 L 1.0885 45.6735 L 1.2885 46.0835 L 1.4885 46.2935 L 2.1085 46.4935 L 2.5185 46.4935 L 3.1285 46.2935 L 3.5385 45.8835 L 3.7385 45.2635 L 3.7385 44.6535 L 3.5385 44.0435 L 3.3385 43.8335 L 2.9285 43.6335 M -0.5515 49.0735 L -0.3515 48.4535 L 0.2685 48.0535 L 1.2885 47.8435 L 1.8985 47.8435 L 2.9285 48.0535 L 3.5385 48.4535 L 3.7385 49.0735 L 3.7385 49.4835 L 3.5385 50.0935 L 2.9285 50.5035 L 1.8985 50.7035 L 1.2885 50.7035 L 0.2685 50.5035 L -0.3515 50.0935 L -0.5515 49.4835 L -0.5515 49.0735 M 0.4685 52.2635 L 0.2685 52.2635 L -0.1415 52.4635 L -0.3515 52.6735 L -0.5515 53.0835 L -0.5515 53.9035 L -0.3515 54.3035 L -0.1415 54.5135 L 0.2685 54.7135 L 0.6785 54.7135 L 1.0885 54.5135 L 1.6985 54.1035 L 3.7385 52.0535 L 3.7385 54.9235" fill="none"  stroke-width="0.6" c_note="note_name" /></g><g c_partid="part_pcbtext" c_etype="" c_origin="10.989,33.854" c_rotation="90" c_mirror="1" id="gge1181" locked="0" layerid="4" c_shapetype="group" display="none"><path c_fontsize="4.5" c_fontfamily="" c_text="Q2" d="M 6.4485 35.0835 L 6.6485 34.6735 L 7.0585 34.2635 L 7.4685 34.0535 L 8.0885 33.8535 L 9.1085 33.8535 L 9.7185 34.0535 L 10.1285 34.2635 L 10.5385 34.6735 L 10.7385 35.0835 L 10.7385 35.9035 L 10.5385 36.3035 L 10.1285 36.7135 L 9.7185 36.9235 L 9.1085 37.1235 L 8.0885 37.1235 L 7.4685 36.9235 L 7.0585 36.7135 L 6.6485 36.3035 L 6.4485 35.9035 L 6.4485 35.0835 M 9.9285 35.6935 L 11.1485 36.9235 M 7.4685 38.6835 L 7.2685 38.6835 L 6.8585 38.8835 L 6.6485 39.0935 L 6.4485 39.5035 L 6.4485 40.3135 L 6.6485 40.7235 L 6.8585 40.9335 L 7.2685 41.1335 L 7.6785 41.1335 L 8.0885 40.9335 L 8.6985 40.5235 L 10.7385 38.4735 L 10.7385 41.3435" fill="none"  stroke-width="0.6" c_note="note_pre" /></g><g c_partid="part_pcbtext" c_etype="" c_origin="20.539,17.384" c_rotation="90" c_mirror="1" id="gge978" locked="0" layerid="4" c_shapetype="group" display="none"><path c_fontsize="4.5" c_fontfamily="" c_text="R8" d="M 15.9985 17.3835 L 20.2885 17.3835 M 15.9985 17.3835 L 15.9985 19.2235 L 16.1985 19.8335 L 16.4085 20.0435 L 16.8185 20.2435 L 17.2285 20.2435 L 17.6385 20.0435 L 17.8385 19.8335 L 18.0385 19.2235 L 18.0385 17.3835 M 18.0385 18.8135 L 20.2885 20.2435 M 15.9985 22.6235 L 16.1985 22.0035 L 16.6085 21.8035 L 17.0185 21.8035 L 17.4285 22.0035 L 17.6385 22.4135 L 17.8385 23.2335 L 18.0385 23.8435 L 18.4485 24.2535 L 18.8585 24.4635 L 19.4785 24.4635 L 19.8885 24.2535 L 20.0885 24.0535 L 20.2885 23.4335 L 20.2885 22.6235 L 20.0885 22.0035 L 19.8885 21.8035 L 19.4785 21.5935 L 18.8585 21.5935 L 18.4485 21.8035 L 18.0385 22.2135 L 17.8385 22.8235 L 17.6385 23.6435 L 17.4285 24.0535 L 17.0185 24.2535 L 16.6085 24.2535 L 16.1985 24.0535 L 15.9985 23.4335 L 15.9985 22.6235" fill="none"  stroke-width="0.6" c_note="note_pre" /></g><g c_partid="part_pcbtext" c_etype="" c_origin="27.749,23.434" c_rotation="270" c_mirror="1" id="rep9" locked="0" layerid="4" c_shapetype="group" display="none"><path c_fontsize="4.5" c_fontfamily="NotoSerifCJKsc-Medium" c_text="1,2kΩ" d="M 27.9685 22.1035 C 28.2085 22.1135 28.4385 22.1135 28.6685 22.1135 L 30.0485 22.1135 L 30.6785 22.0935 L 30.7285 22.1535 L 30.4885 23.0535 L 30.3385 23.0535 L 30.3885 22.4735 L 28.6685 22.4735 C 28.4385 22.4735 28.2085 22.4735 27.9685 22.4835 L 27.8885 23.1035 L 27.7485 23.1035 L 27.7485 21.4935 L 27.8885 21.4935 Z  M 27.5985 20.5535 C 27.2685 20.6435 27.0685 20.8735 26.9085 21.1735 L 26.7885 21.1135 C 26.9485 20.7135 27.3485 20.3135 27.8585 20.3135 C 27.9685 20.3135 28.0685 20.3235 28.1685 20.3635 C 28.2585 20.4535 28.2885 20.5435 28.2885 20.6235 C 28.2885 20.7835 28.1685 20.8735 28.0185 20.8735 C 27.9185 20.8735 27.8085 20.8335 27.7285 20.7135 Z  M 28.0885 19.4235 C 28.2985 19.2235 28.4985 19.0235 28.6185 18.9135 C 29.3085 18.2535 29.5885 18.0335 29.9685 18.0335 C 30.4185 18.0335 30.7385 18.2835 30.7385 18.8435 C 30.7385 19.2835 30.5185 19.6635 30.0785 19.7235 C 29.9985 19.6835 29.9485 19.6035 29.9485 19.5135 C 29.9485 19.4035 30.0185 19.3235 30.2185 19.2735 L 30.5385 19.1835 C 30.5585 19.0935 30.5685 19.0135 30.5685 18.9535 C 30.5685 18.6235 30.3185 18.4135 29.9485 18.4135 C 29.5885 18.4135 29.2585 18.6135 28.7685 19.0435 C 28.5485 19.2335 28.2885 19.4635 28.0185 19.7035 L 27.7485 19.7035 L 27.7485 17.9035 L 28.0885 17.9035 Z  M 27.9285 15.6035 L 29.1185 16.3435 L 29.6285 15.8435 L 29.6785 15.4335 L 29.8285 15.4335 L 29.8285 16.4435 L 29.6785 16.4435 L 29.6085 16.0935 L 28.7885 16.8935 L 30.3285 16.8935 L 30.9585 16.8735 L 30.9885 16.9335 L 30.8085 17.6035 L 30.6685 17.6035 L 30.6385 17.2535 L 28.6685 17.2535 C 28.4285 17.2535 28.1685 17.2535 27.9285 17.2535 L 27.8885 17.6035 L 27.7485 17.6035 L 27.7485 16.5335 L 27.8885 16.5335 L 27.9285 16.8835 C 28.1385 16.8835 28.3585 16.8935 28.5685 16.8935 L 28.8685 16.5935 L 27.7485 15.9135 L 27.7485 15.3235 L 27.8885 15.3235 Z  M 28.4885 12.5235 L 28.0585 12.6235 L 28.0585 13.2435 L 28.0585 13.2435 C 28.3785 12.7935 28.8485 12.4335 29.4185 12.4335 C 30.2785 12.4335 30.7485 13.0435 30.7485 13.7135 C 30.7485 14.4035 30.2785 15.0035 29.4185 15.0035 C 28.8485 15.0035 28.3785 14.6435 28.0585 14.1935 L 28.0585 14.1935 L 28.0585 14.8135 L 28.4885 14.9135 L 28.4885 15.1435 L 27.7485 15.1035 L 27.7485 13.9335 L 28.0185 13.9335 C 28.3485 14.3335 28.8685 14.5935 29.4185 14.5935 C 30.0685 14.5935 30.5585 14.2735 30.5585 13.7135 C 30.5585 13.1735 30.0685 12.8435 29.4185 12.8435 C 28.8685 12.8435 28.3485 13.1035 28.0185 13.5135 L 27.7485 13.5135 L 27.7485 12.3335 L 28.4885 12.2935 Z "  stroke="none" stroke-width="1" c_note="note_name" /></g><g c_partid="part_pcbtext" c_etype="" c_origin="30.035,18.091" c_rotation="90" c_mirror="1" id="gge1130" locked="0" layerid="4" c_shapetype="group" display="none"><path c_fontsize="4.5" c_fontfamily="" c_text="R6" d="M 25.494 18.0908 L 29.7894 18.0908 M 25.494 18.0908 L 25.494 19.9317 L 25.6985 20.5453 L 25.9031 20.7499 L 26.3122 20.9544 L 26.7213 20.9544 L 27.1304 20.7499 L 27.3349 20.5453 L 27.5394 19.9317 L 27.5394 18.0908 M 27.5394 19.5226 L 29.7894 20.9544 M 26.1076 24.759 L 25.6985 24.5544 L 25.494 23.9408 L 25.494 23.5317 L 25.6985 22.9181 L 26.3122 22.509 L 27.3349 22.3044 L 28.3576 22.3044 L 29.1758 22.509 L 29.5849 22.9181 L 29.7894 23.5317 L 29.7894 23.7363 L 29.5849 24.3499 L 29.1758 24.759 L 28.5622 24.9635 L 28.3576 24.9635 L 27.744 24.759 L 27.3349 24.3499 L 27.1304 23.7363 L 27.1304 23.5317 L 27.3349 22.9181 L 27.744 22.509 L 28.3576 22.3044" fill="none"  stroke-width="0.6" c_note="note_pre" /></g><g c_partid="part_pcbtext" c_etype="" c_origin="33.249,24.964" c_rotation="270" c_mirror="1" id="rep5" locked="0" layerid="4" c_shapetype="group" display="none"><path c_fontsize="4.5" c_fontfamily="" c_text="_" d="M 32.0621 24.9635 L 32.0621 21.2817" fill="none"  stroke-width="0.6" c_note="note_name" /></g><g c_partid="part_pad" c_etype="pinpart" c_origin="24.599,3.434" layerid="11" number="1" net="U1_2" plated ="Y"  id="gge1592" locked="0" c_rotation="0" c_width="3.937" c_height="3.937" title="U1_2" c_shape="ELLIPSE" pasteexpansion="0" solderexpansion="0.4"><ellipse c_etype="pad_shell" cx="24.599" cy="3.434" rx="1.9685" ry="1.9685" layerid="11" stroke-width="0"/><circle c_etype="pad_hole" cx="24.5989" cy="3.4335" r="0.9843" layerid="11" stroke-width="0"/></g><g c_partid="part_pad" c_etype="pinpart" c_origin="30.899,3.434" layerid="11" number="2" net="U1_1" plated ="Y"  id="gge1597" locked="0" c_rotation="0" c_width="3.937" c_height="3.937" title="U1_1" c_shape="ELLIPSE" pasteexpansion="0" solderexpansion="0.4"><ellipse c_etype="pad_shell" cx="30.899" cy="3.434" rx="1.9685" ry="1.9685" layerid="11" stroke-width="0"/><circle c_etype="pad_hole" cx="30.8981" cy="3.4335" r="0.9843" layerid="11" stroke-width="0"/></g><g c_partid="part_pad" c_etype="pinpart" c_origin="7.08,6.934" layerid="11" number="1" net="VBUS" plated ="Y"  id="gge501" locked="0" c_rotation="270" c_width="6.2992" c_height="6.2992" title="VBUS" c_shape="ELLIPSE" pasteexpansion="0" solderexpansion="0.4"><ellipse c_etype="pad_shell" cx="7.08" cy="6.934" rx="3.1496" ry="3.1496" layerid="11" stroke-width="0"/><circle c_etype="pad_hole" cx="7.0792" cy="6.9335" r="1.5748" layerid="11" stroke-width="0"/></g><g c_partid="part_pad" c_etype="pinpart" c_origin="7.08,16.934" layerid="11" number="2" net="SW" plated ="Y"  id="gge506" locked="0" c_rotation="0" c_width="6.2992" c_height="6.2992" title="SW" c_shape="ELLIPSE" pasteexpansion="0" solderexpansion="0.4"><ellipse c_etype="pad_shell" cx="7.08" cy="16.934" rx="3.1496" ry="3.1496" layerid="11" stroke-width="0"/><circle c_etype="pad_hole" cx="7.0792" cy="16.9335" r="1.5748" layerid="11" stroke-width="0"/></g><g c_partid="part_pad" c_etype="pinpart" c_origin="7.08,26.934" layerid="11" number="3" net="CLKO" plated ="Y"  id="gge511" locked="0" c_rotation="0" c_width="6.2992" c_height="6.2992" title="CLKO" c_shape="ELLIPSE" pasteexpansion="0" solderexpansion="0.4"><ellipse c_etype="pad_shell" cx="7.08" cy="26.934" rx="3.1496" ry="3.1496" layerid="11" stroke-width="0"/><circle c_etype="pad_hole" cx="7.0792" cy="26.9335" r="1.5748" layerid="11" stroke-width="0"/></g><g c_partid="part_pad" c_etype="pinpart" c_origin="7.08,36.934" layerid="11" number="4" net="GND" plated ="Y"  id="gge516" locked="0" c_rotation="0" c_width="6.2992" c_height="6.2992" title="GND" c_shape="ELLIPSE" pasteexpansion="0" solderexpansion="0.4"><ellipse c_etype="pad_shell" cx="7.08" cy="36.934" rx="3.1496" ry="3.1496" layerid="11" stroke-width="0"/><circle c_etype="pad_hole" cx="7.0792" cy="36.9335" r="1.5748" layerid="11" stroke-width="0"/></g><g c_partid="part_pad" c_etype="pinpart" c_origin="37.08,36.903" layerid="11" number="1" net="ON" plated ="Y"  id="gge526" locked="0" c_rotation="90" c_width="6.2992" c_height="6.2992" title="ON" c_shape="ELLIPSE" pasteexpansion="0" solderexpansion="0.4"><ellipse c_etype="pad_shell" cx="37.08" cy="36.903" rx="3.1496" ry="3.1496" layerid="11" stroke-width="0"/><circle c_etype="pad_hole" cx="37.0792" cy="36.902" r="1.5748" layerid="11" stroke-width="0"/></g><g c_partid="part_pad" c_etype="pinpart" c_origin="37.08,26.903" layerid="11" number="2" net="SCL" plated ="Y"  id="gge531" locked="0" c_rotation="180" c_width="6.2992" c_height="6.2992" title="SCL" c_shape="ELLIPSE" pasteexpansion="0" solderexpansion="0.4"><ellipse c_etype="pad_shell" cx="37.08" cy="26.903" rx="3.1496" ry="3.1496" layerid="11" stroke-width="0"/><circle c_etype="pad_hole" cx="37.0792" cy="26.902" r="1.5748" layerid="11" stroke-width="0"/></g><g c_partid="part_pad" c_etype="pinpart" c_origin="37.08,16.903" layerid="11" number="3" net="SDA" plated ="Y"  id="gge536" locked="0" c_rotation="180" c_width="6.2992" c_height="6.2992" title="SDA" c_shape="ELLIPSE" pasteexpansion="0" solderexpansion="0.4"><ellipse c_etype="pad_shell" cx="37.08" cy="16.903" rx="3.1496" ry="3.1496" layerid="11" stroke-width="0"/><circle c_etype="pad_hole" cx="37.0792" cy="16.902" r="1.5748" layerid="11" stroke-width="0"/></g><g c_partid="part_pad" c_etype="pinpart" c_origin="37.08,6.903" layerid="11" number="4" net="VCC" plated ="Y"  id="gge541" locked="0" c_rotation="180" c_width="6.2992" c_height="6.2992" title="VCC" c_shape="ELLIPSE" pasteexpansion="0" solderexpansion="0.4"><ellipse c_etype="pad_shell" cx="37.08" cy="6.903" rx="3.1496" ry="3.1496" layerid="11" stroke-width="0"/><circle c_etype="pad_hole" cx="37.0792" cy="6.902" r="1.5748" layerid="11" stroke-width="0"/></g><g c_partid="part_via" c_etype="pinpart" c_shapetype="group" net="VCC" c_origin="33.48,31.247" layerid="11" id="rep328" locked="0" solderexpansion=""><circle cx="33.48" cy="31.247" r="1.575" stroke-width="0" c_etype="pad_shell"/><circle cx="33.48" cy="31.247" r="0.787"  stroke-width="0" c_etype="pad_hole"/></g><g c_partid="part_via" c_etype="pinpart" c_shapetype="group" net="CLKO" c_origin="29,30.5" layerid="11" id="rep392" locked="0" solderexpansion=""><circle cx="29" cy="30.5" r="1.575" stroke-width="0" c_etype="pad_shell"/><circle cx="29" cy="30.5" r="0.787"  stroke-width="0" c_etype="pad_hole"/></g><g c_partid="part_via" c_etype="pinpart" c_shapetype="group" net="TRIG" c_origin="19.749,2.934" layerid="11" id="rep429" locked="0" solderexpansion=""><circle cx="19.749" cy="2.934" r="1.575" stroke-width="0" c_etype="pad_shell"/><circle cx="19.749" cy="2.934" r="0.787"  stroke-width="0" c_etype="pad_hole"/></g><polyline points="43.7325 0.4455 43.7325 43.7525 4.3625 43.7525 0.4255 43.7525 0.4255 0.4455 4.3625 0.4455 43.7325 0.4455" stroke-width="1"  stroke-linecap="round" fill="none" layerid="10" net="" id="gge2202" locked="1" /></svg>