<svg xmlns="http://www.w3.org/2000/svg" xmlns:xlink="http://www.w3.org/1999/xlink" width="49.276mm" height="49.479mm" viewBox="-16.2 -39 97 97.4"><title></title><style type="text/css">
*[layerid="1"] {stroke:#FF0000;fill:#FF0000;}
*[layerid="2"] {stroke:#0000FF;fill:#0000FF;}
*[layerid="3"] {stroke:#FFFF00;fill:#FFFF00;}
*[layerid="4"] {stroke:#808000;fill:#808000;}
*[layerid="5"] {stroke:#808080;fill:#808080;}
*[layerid="6"] {stroke:#800000;fill:#800000;}
*[layerid="7"] {stroke:#800080;fill:#800080;}
*[layerid="8"] {stroke:#AA00FF;fill:#AA00FF;}
*[layerid="9"] {stroke:#6464FF;fill:#6464FF;}
*[layerid="10"] {stroke:#FF00FF;fill:#FF00FF;}
*[layerid="11"] {stroke:#C0C0C0;fill:#C0C0C0;}
*[layerid="12"] {stroke:#FFFFFF;fill:#FFFFFF;}
*[layerid="13"] {stroke:#33CC99;fill:#33CC99;}
*[layerid="14"] {stroke:#5555FF;fill:#5555FF;}
*[layerid="15"] {stroke:#F022F0;fill:#F022F0;}
*[layerid="19"] {stroke:#66CCFF;fill:#66CCFF;}
*[layerid="21"] {stroke:#800000;fill:#800000;}
*[layerid="22"] {stroke:#008000;fill:#008000;}
*[layerid="23"] {stroke:#00FF00;fill:#00FF00;}
*[layerid="24"] {stroke:#000080;fill:#000080;}
*[layerid="25"] {stroke:#70DBFA;fill:#70DBFA;}
*[layerid="26"] {stroke:#00CC66;fill:#00CC66;}
*[layerid="27"] {stroke:#9966FF;fill:#9966FF;}
*[layerid="28"] {stroke:#800080;fill:#800080;}
*[layerid="29"] {stroke:#008080;fill:#008080;}
*[layerid="30"] {stroke:#15935F;fill:#15935F;}
*[layerid="31"] {stroke:#000080;fill:#000080;}
*[layerid="32"] {stroke:#00B400;fill:#00B400;}
*[layerid="33"] {stroke:#2E4736;fill:#2E4736;}
*[layerid="34"] {stroke:#99842F;fill:#99842F;}
*[layerid="35"] {stroke:#FFFFAA;fill:#FFFFAA;}
*[layerid="36"] {stroke:#99842F;fill:#99842F;}
*[layerid="37"] {stroke:#2E4736;fill:#2E4736;}
*[layerid="38"] {stroke:#3535FF;fill:#3535FF;}
*[layerid="39"] {stroke:#8000BC;fill:#8000BC;}
*[layerid="40"] {stroke:#43AE5F;fill:#43AE5F;}
*[layerid="41"] {stroke:#C3ECCE;fill:#C3ECCE;}
*[layerid="42"] {stroke:#728978;fill:#728978;}
*[layerid="43"] {stroke:#39503F;fill:#39503F;}
*[layerid="44"] {stroke:#0C715D;fill:#0C715D;}
*[layerid="45"] {stroke:#5A8A80;fill:#5A8A80;}
*[layerid="46"] {stroke:#2B937E;fill:#2B937E;}
*[layerid="47"] {stroke:#23999D;fill:#23999D;}
*[layerid="48"] {stroke:#45B4E3;fill:#45B4E3;}
*[layerid="49"] {stroke:#215DA1;fill:#215DA1;}
*[layerid="50"] {stroke:#4564D7;fill:#4564D7;}
*[layerid="51"] {stroke:#6969E9;fill:#6969E9;}
*[layerid="52"] {stroke:#9069E9;fill:#9069E9;}
*[layerid="99"] {stroke:#00CCCC;fill:#00CCCC;}
*[layerid="100"] {stroke:#CC9999;fill:#CC9999;}
*[layerid="Hole"] {stroke:#222222;fill:#222222;}
*[layerid="DRCError"] {stroke:#FFFFFF;fill:#FFFFFF;}
*[fill="none"] {fill: none;}
*[stroke="none"] {stroke: none;}
path, polyline, polygon, line {stroke-linecap:round;}
g[c_partid="part_pad"][layerid="1"] ellipse:not([c_etype="pad_outer"]) {fill:#FF0000;}
g[c_partid="part_pad"][layerid="1"] polygon:not([c_etype="pad_outer"]) {fill:#FF0000;}
g[c_partid="part_pad"][layerid="1"] polyline:not([c_etype="pad_outer"]) {stroke:#FF0000;}
g[c_partid="part_pad"][layerid="2"] ellipse:not([c_etype="pad_outer"]) {fill:#0000FF;}
g[c_partid="part_pad"][layerid="2"] polygon:not([c_etype="pad_outer"]) {fill:#0000FF;}
g[c_partid="part_pad"][layerid="2"] polyline:not([c_etype="pad_outer"]) {stroke:#0000FF;}
g[c_partid="part_pad"][layerid="11"] ellipse:not([c_etype="pad_outer"]) {fill:#C0C0C0;}
g[c_partid="part_pad"][layerid="11"] polygon:not([c_etype="pad_outer"]) {fill:#C0C0C0;}
g[c_partid="part_pad"][layerid="11"] polyline:not([c_etype="pad_outer"]) {stroke:#C0C0C0;}
g[c_partid="part_pad"][layerid="11"] circle {fill:#222222;}
g[c_partid="part_pad"][layerid="11"] > polyline:nth-of-type(2) {stroke:#222222;}
g[c_partid="part_pad"][layerid="11"][c_shape="ELLIPSE"]  polyline:nth-last-of-type(1) {stroke:#222222;}
g[c_partid="part_pad"][layerid="11"][c_shape="RECT"]  polyline:nth-last-of-type(1) {stroke:#222222;}
g[c_partid="part_pad"][layerid="11"][c_shape="POLYGON"]  polyline:nth-last-of-type(1) {stroke:#222222;}
g[c_partid="part_via"] > * + circle, #gCurParts g[c_partid="part_via"] > * + circle {fill:#222222;}
g[c_partid="part_pad"] > polygon[c_etype="pad_outer"], #gCurParts g[c_partid="part_pad"] > polygon[c_etype="pad_outer"] {stroke-linejoin: miter;stroke-miterlimit: 100;}
g[c_partid="part_hole"] > circle {fill: #222222;}path, polyline, polygon {stroke-linejoin:round;}
rect, circle, ellipse, polyline, line, polygon, path {shape-rendering:crispEdges;}
</style>
<rect x="-16.2" y="-39" width="97" height="97.4" fill="#000000" stroke="none"/><path d="M 32.8545 11.96182 A 0.4 0.4 0 0 1 32.4545 11.56182 L 32.4545 11.21722 A 0.4 0.4 0 0 1 32.8545 10.81722 0.4 0.4 0 0 1 33.13525 10.9323 L 33.13525 10.9323 A 1.8718 1.8718 0 0 0 33.29275 11.07098 L 33.29275 11.07098 A 0.4 0.4 0 0 1 33.44566 11.38553 0.4 0.4 0 0 1 33.29911 11.69499 1.8148 1.8148 0 0 0 33.14247 11.83944 L 33.14247 11.83944 A 0.4 0.4 0 0 1 32.8545 11.96182 Z " stroke-width="0" layerid="1" attachedcopperid="rep438" c_shapetype="line" id="rep438_0" class=""></path><path d="M 32.85013 25.10921 A 0.4 0.4 0 0 1 32.45013 24.70921 0.4 0.4 0 0 1 32.45138 24.6777 L 32.45138 24.6777 A 1.0057 1.0057 0 0 0 32.4545 24.5985 L 32.4545 24.5985 32.4545 14.63618 A 0.4 0.4 0 0 1 32.8545 14.23618 0.4 0.4 0 0 1 33.14247 14.35856 L 33.14247 14.35856 A 1.8148 1.8148 0 0 0 34.449 14.9138 1.8148 1.8148 0 0 0 36.10531 13.84072 L 36.10531 13.84072 A 0.4 0.4 0 0 1 36.47037 13.6042 L 36.47037 13.6042 37.92879 13.6042 A 0.4 0.4 0 0 1 38.32879 14.0042 0.4 0.4 0 0 1 38.08753 14.37135 0.612 0.612 0 0 0 37.7184 14.9331 L 37.7184 14.9331 37.7184 19.2639 37.7184 19.2639 A 0.612 0.612 0 0 0 37.88721 19.68595 0.4 0.4 0 0 1 37.99754 19.9618 0.4 0.4 0 0 1 37.88038 20.24464 L 33.13298 24.99205 A 0.4 0.4 0 0 1 32.85013 25.10921 Z " stroke-width="0" layerid="1" attachedcopperid="rep438" c_shapetype="line" id="rep438_1" class=""></path><path d="M 35.26836 29.74976 A 0.4 0.4 0 0 1 35.21213 29.74579 1.8718 1.8718 0 0 0 35.15146 29.73818 L 35.15146 29.73818 A 0.4 0.4 0 0 1 34.79473 29.34053 0.4 0.4 0 0 1 34.91189 29.05769 L 40.24822 23.72136 A 0.4 0.4 0 0 1 40.53106 23.6042 L 44.14435 23.6042 A 0.4 0.4 0 0 1 44.54435 24.0042 0.4 0.4 0 0 1 44.26317 24.38614 1.7931 1.7931 0 0 0 43.66382 24.70771 L 43.66382 24.70771 A 0.4 0.4 0 0 1 43.41129 24.7975 L 40.9252 24.7975 A 1.301 1.301 0 0 0 40.00525 25.17855 L 35.55121 29.6326 A 0.4 0.4 0 0 1 35.26836 29.74976 Z " stroke-width="0" layerid="1" attachedcopperid="rep438" c_shapetype="line" id="rep438_2" class=""></path><path d="M 31.8545 35.27899 A 0.4 0.4 0 0 1 31.4545 34.87899 L 31.4545 32.68076 A 0.4 0.4 0 0 1 31.57166 32.39792 L 32.40769 31.56189 A 0.4 0.4 0 0 1 32.69053 31.44473 0.4 0.4 0 0 1 33.08818 31.80146 L 33.08818 31.80146 A 1.8718 1.8718 0 0 0 33.82388 33.0949 0.4 0.4 0 0 1 33.98344 33.41458 0.4 0.4 0 0 1 33.64946 33.80909 1.8148 1.8148 0 0 0 32.23277 35.00903 0.4 0.4 0 0 1 31.8545 35.27899 Z " stroke-width="0" layerid="1" attachedcopperid="rep438" c_shapetype="line" id="rep438_3" class=""></path><path d="M 62.3801 45.4447 A 0.4 0.4 0 0 1 61.9801 45.8447 L -0.9565 45.8447 A 0.4 0.4 0 0 1 -1.3565 45.4447 L -1.3565 -0.5628 A 0.4 0.4 0 0 1 -0.9565 -0.9628 L 61.9801 -0.9628 A 0.4 0.4 0 0 1 62.3801 -0.5628 L 62.3801 45.4447 Z M 48.72477 42.8914 A 1.7931 1.7931 0 0 0 50.51787 41.0983 1.7931 1.7931 0 0 0 48.72477 39.3052 L 44.79583 39.3052 A 1.7931 1.7931 0 0 0 43.41937 39.94915 0.4 0.4 0 0 1 43.11231 40.0928 L 32.53106 40.0928 A 0.4 0.4 0 0 1 32.24822 39.97564 L 31.57166 39.29908 A 0.4 0.4 0 0 1 31.4545 39.01624 L 31.4545 36.31901 A 0.4 0.4 0 0 1 31.8545 35.91901 0.4 0.4 0 0 1 32.23277 36.18897 L 32.23277 36.18897 A 1.8148 1.8148 0 0 0 33.949 37.4138 1.8148 1.8148 0 0 0 35.35176 36.75042 0.4 0.4 0 0 1 35.66094 36.6042 L 40.9488 36.6042 40.9488 36.6042 A 1.0057 1.0057 0 0 0 41.65994 36.30964 L 41.65994 36.30964 42.32669 35.64288 A 0.4 0.4 0 0 1 42.60953 35.52573 0.4 0.4 0 0 1 43.00953 35.92573 0.4 0.4 0 0 1 43.00829 35.9572 L 43.00829 35.9572 A 1.7931 1.7931 0 0 0 43.00273 36.0983 1.7931 1.7931 0 0 0 44.79583 37.8914 L 48.72477 37.8914 A 1.7931 1.7931 0 0 0 50.5178 36.11398 0.4 0.4 0 0 1 50.63494 35.83464 L 51.90758 34.56199 A 0.4 0.4 0 0 1 52.19043 34.44483 0.4 0.4 0 0 1 52.59043 34.84483 0.4 0.4 0 0 1 52.50048 35.09755 L 52.50048 35.09755 A 3.95845 3.95845 0 0 0 51.61035 37.5985 3.95845 3.95845 0 0 0 55.5688 41.55695 3.95845 3.95845 0 0 0 59.52725 37.5985 3.95845 3.95845 0 0 0 55.5688 33.64005 3.95845 3.95845 0 0 0 53.06785 34.53018 0.4 0.4 0 0 1 52.81513 34.62013 0.4 0.4 0 0 1 52.41513 34.22013 0.4 0.4 0 0 1 52.53229 33.93728 L 54.8204 31.64917 A 0.4 0.4 0 0 1 55.10325 31.53201 0.4 0.4 0 0 1 55.14597 31.5343 L 55.14597 31.5343 A 3.95845 3.95845 0 0 0 55.5688 31.55695 3.95845 3.95845 0 0 0 59.52725 27.5985 3.95845 3.95845 0 0 0 55.5688 23.64005 3.95845 3.95845 0 0 0 51.61035 27.5985 3.95845 3.95845 0 0 0 52.72116 30.34809 0.4 0.4 0 0 1 52.8334 30.62594 0.4 0.4 0 0 1 52.71625 30.90878 L 49.40135 34.22368 A 0.4 0.4 0 0 1 49.11851 34.34083 0.4 0.4 0 0 1 49.04669 34.33434 L 49.04669 34.33434 A 1.7931 1.7931 0 0 0 48.72477 34.3052 L 44.79583 34.3052 A 1.7931 1.7931 0 0 0 44.65474 34.31076 L 44.65474 34.31076 A 0.4 0.4 0 0 1 44.62326 34.312 0.4 0.4 0 0 1 44.22326 33.912 0.4 0.4 0 0 1 44.34042 33.62916 L 44.96032 33.00926 A 0.4 0.4 0 0 1 45.24316 32.8921 L 48.72447 32.8921 A 1.7931 1.7931 0 0 0 50.51757 31.099 1.7931 1.7931 0 0 0 48.72447 29.3059 L 44.79553 29.3059 A 1.7931 1.7931 0 0 0 43.00243 31.099 1.7931 1.7931 0 0 0 43.10529 31.69757 0.4 0.4 0 0 1 43.12824 31.8311 0.4 0.4 0 0 1 43.01108 32.11394 L 40.64938 34.47564 A 0.4 0.4 0 0 1 40.36654 34.5928 L 35.66012 34.5928 A 0.4 0.4 0 0 1 35.35109 34.44676 L 35.35109 34.44676 A 1.8148 1.8148 0 0 0 35.05561 34.16063 L 35.05561 34.16063 A 0.4 0.4 0 0 1 34.89952 33.8436 0.4 0.4 0 0 1 35.2378 33.44839 L 35.2378 33.44839 A 1.8718 1.8718 0 0 0 36.72155 32.20041 L 36.72155 32.20041 A 0.4 0.4 0 0 1 36.8175 32.04609 L 41.34693 27.51666 A 0.4 0.4 0 0 1 41.62978 27.3995 L 43.41178 27.3995 A 0.4 0.4 0 0 1 43.66422 27.48922 1.7931 1.7931 0 0 0 44.79583 27.8914 L 48.72477 27.8914 A 1.7931 1.7931 0 0 0 50.51787 26.0983 1.7931 1.7931 0 0 0 49.25743 24.38614 L 49.25743 24.38614 A 0.4 0.4 0 0 1 48.97625 24.0042 0.4 0.4 0 0 1 49.37625 23.6042 L 50.5678 23.6042 A 1.0057 1.0057 0 0 0 51.27894 23.30964 L 53.36207 21.22651 A 0.4 0.4 0 0 1 53.64491 21.10935 0.4 0.4 0 0 1 53.82148 21.15043 L 53.82148 21.15043 A 3.95845 3.95845 0 0 0 55.5688 21.55695 3.95845 3.95845 0 0 0 59.52725 17.5985 3.95845 3.95845 0 0 0 55.5688 13.64005 3.95845 3.95845 0 0 0 51.61035 17.5985 3.95845 3.95845 0 0 0 52.01627 19.3446 0.4 0.4 0 0 1 52.05729 19.52105 0.4 0.4 0 0 1 51.94013 19.80389 L 50.26838 21.47564 A 0.4 0.4 0 0 1 49.98554 21.5928 L 40.34246 21.5928 A 0.4 0.4 0 0 1 39.94246 21.1928 0.4 0.4 0 0 1 40.05962 20.90996 L 40.97652 19.99306 A 0.4 0.4 0 0 1 41.25936 19.8759 L 42.2674 19.8759 42.2674 19.8759 A 0.612 0.612 0 0 0 42.8794 19.2639 L 42.8794 19.2639 42.8794 14.9331 42.8794 14.9331 A 0.612 0.612 0 0 0 42.51027 14.37135 L 42.51027 14.37135 A 0.4 0.4 0 0 1 42.26901 14.0042 0.4 0.4 0 0 1 42.66901 13.6042 L 44.22799 13.6042 A 0.4 0.4 0 0 1 44.62799 14.0042 0.4 0.4 0 0 1 44.38673 14.37135 L 44.38673 14.37135 A 0.612 0.612 0 0 0 44.0176 14.9331 L 44.0176 19.2639 A 0.612 0.612 0 0 0 44.6296 19.8759 L 44.6296 19.8759 48.5666 19.8759 48.5666 19.8759 A 0.612 0.612 0 0 0 49.1786 19.2639 L 49.1786 14.9331 A 0.612 0.612 0 0 0 48.5666 14.3211 L 48.0035 14.3211 A 0.4 0.4 0 0 1 47.6035 13.9211 L 47.6035 13.7475 47.6035 13.7475 A 1.0057 1.0057 0 0 0 47.30894 13.03636 L 47.30894 13.03636 46.15994 11.88736 46.15994 11.88736 A 1.0057 1.0057 0 0 0 45.4488 11.5928 L 43.76247 11.5928 A 0.4 0.4 0 0 1 43.36247 11.1928 0.4 0.4 0 0 1 43.62303 10.81789 L 43.62303 10.81789 A 1.301 1.301 0 0 0 44.08945 10.51845 L 46.19973 8.40816 A 0.4 0.4 0 0 1 46.48258 8.291 L 48.8299 8.291 A 0.612 0.612 0 0 0 49.4419 7.679 L 49.4419 7.2995 A 0.4 0.4 0 0 1 49.8419 6.8995 L 51.22062 6.8995 A 0.4 0.4 0 0 1 51.62062 7.2995 0.4 0.4 0 0 1 51.61968 7.32694 L 51.61968 7.32694 A 3.95845 3.95845 0 0 0 51.61035 7.5985 3.95845 3.95845 0 0 0 55.5688 11.55695 3.95845 3.95845 0 0 0 59.52725 7.5985 3.95845 3.95845 0 0 0 55.5688 3.64005 3.95845 3.95845 0 0 0 53.47817 4.23716 0.4 0.4 0 0 1 53.26691 4.2975 L 53.26691 4.2975 49.8419 4.2975 A 0.4 0.4 0 0 1 49.4419 3.8975 L 49.4419 3.3482 A 0.612 0.612 0 0 0 48.8299 2.7362 L 48.8299 2.7362 44.8929 2.7362 44.8929 2.7362 A 0.612 0.612 0 0 0 44.2809 3.3482 L 44.2809 3.3482 44.2809 6.48152 A 0.4 0.4 0 0 1 44.16374 6.76437 L 43.03814 7.88997 A 0.4 0.4 0 0 1 42.7553 8.00712 0.4 0.4 0 0 1 42.3553 7.60712 L 42.3553 6.8459 41.00905 6.8459 41.00905 7.8975 A 0.4 0.4 0 0 1 40.60905 8.2975 L 38.94055 8.2975 A 0.4 0.4 0 0 1 38.54055 7.8975 L 38.54055 6.8459 37.1943 6.8459 37.1943 7.6786 A 0.612 0.612 0 0 0 37.20879 7.81098 0.4 0.4 0 0 1 37.21826 7.8975 0.4 0.4 0 0 1 36.81826 8.2975 L 35.95431 8.2975 A 0.4 0.4 0 0 1 35.68927 8.19709 L 35.68927 8.19709 A 1.8718 1.8718 0 0 0 34.449 7.7272 1.8718 1.8718 0 0 0 33.13525 8.2657 L 33.13525 8.2657 A 0.4 0.4 0 0 1 32.8545 8.38078 0.4 0.4 0 0 1 32.4545 7.98078 L 32.4545 7.00671 A 0.4 0.4 0 0 1 32.61882 6.68352 L 32.61882 6.68352 A 2.5805 2.5805 0 0 0 33.6789 4.5985 2.5805 2.5805 0 0 0 31.0984 2.018 2.5805 2.5805 0 0 0 28.5179 4.5985 2.5805 2.5805 0 0 0 30.18473 7.01183 L 30.18473 7.01183 A 0.4 0.4 0 0 1 30.4431 7.38592 L 30.4431 10.36544 A 0.4 0.4 0 0 1 30.32594 10.64828 L 30.04258 10.93164 A 0.4 0.4 0 0 1 29.75974 11.0488 L 29.6258 11.0488 A 0.4 0.4 0 0 1 29.2258 10.6488 L 29.2258 10.0866 29.2258 10.0866 A 0.612 0.612 0 0 0 28.6138 9.4746 L 24.283 9.4746 24.283 9.4746 A 0.612 0.612 0 0 0 23.671 10.0866 L 23.671 10.0866 23.671 14.0236 23.671 14.0236 A 0.612 0.612 0 0 0 24.283 14.6356 L 28.6138 14.6356 A 0.612 0.612 0 0 0 29.2258 14.0236 L 29.2258 14.0236 29.2258 13.4602 A 0.4 0.4 0 0 1 29.6258 13.0602 L 30.0431 13.0602 A 0.4 0.4 0 0 1 30.4431 13.4602 L 30.4431 24.01624 A 0.4 0.4 0 0 1 30.32594 24.29908 L 27.41675 27.20827 A 0.4 0.4 0 0 1 27.13391 27.32543 0.4 0.4 0 0 1 26.73391 26.92543 0.4 0.4 0 0 1 26.76345 26.77457 L 26.76345 26.77457 A 1.7931 1.7931 0 0 0 26.89587 26.0983 1.7931 1.7931 0 0 0 25.10277 24.3052 L 25.10277 24.3052 22.93246 24.3052 A 0.4 0.4 0 0 1 22.64962 24.18804 L 22.57166 24.11008 A 0.4 0.4 0 0 1 22.4545 23.82724 L 22.4545 20.4234 22.4545 19.5985 22.4545 8.53076 A 0.4 0.4 0 0 1 22.57166 8.24792 L 23.65162 7.16796 A 0.4 0.4 0 0 1 23.93446 7.0508 0.4 0.4 0 0 1 24.05051 7.068 L 24.05051 7.068 A 2.5805 2.5805 0 0 0 24.7992 7.179 2.5805 2.5805 0 0 0 27.3797 4.5985 2.5805 2.5805 0 0 0 24.7992 2.018 2.5805 2.5805 0 0 0 22.2187 4.5985 2.5805 2.5805 0 0 0 22.32953 5.34665 0.4 0.4 0 0 1 22.34672 5.46262 0.4 0.4 0 0 1 22.22956 5.74547 L 20.73766 7.23736 A 1.0057 1.0057 0 0 0 20.4431 7.9485 L 20.4431 19.5985 20.4431 19.6488 A 0.4 0.4 0 0 1 20.0431 20.0488 L 18.6258 20.0488 A 0.4 0.4 0 0 1 18.2258 19.6488 L 18.2258 19.0866 18.2258 19.0866 A 0.612 0.612 0 0 0 17.6138 18.4746 L 17.6138 18.4746 13.283 18.4746 13.283 18.4746 A 0.612 0.612 0 0 0 12.671 19.0866 L 12.671 23.0236 A 0.612 0.612 0 0 0 13.283 23.6356 L 13.283 23.6356 17.6138 23.6356 17.6138 23.6356 A 0.612 0.612 0 0 0 18.2258 23.0236 L 18.2258 23.0236 18.2258 22.4602 A 0.4 0.4 0 0 1 18.6258 22.0602 L 20.0431 22.0602 A 0.4 0.4 0 0 1 20.4431 22.4602 L 20.4431 24.21917 A 0.4 0.4 0 0 1 20.24933 24.56191 L 20.24933 24.56191 A 1.7931 1.7931 0 0 0 19.38073 26.0983 1.7931 1.7931 0 0 0 21.17383 27.8914 L 21.17383 27.8914 25.10277 27.8914 25.10277 27.8914 A 1.7931 1.7931 0 0 0 25.77904 27.75898 0.4 0.4 0 0 1 25.9299 27.72944 0.4 0.4 0 0 1 26.3299 28.12944 0.4 0.4 0 0 1 26.21274 28.41229 L 25.43639 29.18863 A 0.4 0.4 0 0 1 25.15355 29.30579 0.4 0.4 0 0 1 25.16202 29.3057 L 25.14429 29.30568 25.14429 29.30568 A 1.7931 1.7931 0 0 0 25.10277 29.3052 L 21.17383 29.3052 A 1.7931 1.7931 0 0 0 19.38073 31.0983 1.7931 1.7931 0 0 0 21.17383 32.8914 L 25.10277 32.8914 A 1.7931 1.7931 0 0 0 26.6892 31.93402 L 26.6892 31.93402 A 0.4 0.4 0 0 1 27.0431 31.72045 0.4 0.4 0 0 1 27.4431 32.12045 L 27.4431 34.01624 A 0.4 0.4 0 0 1 27.32594 34.29908 L 26.86388 34.76114 A 0.4 0.4 0 0 1 26.58104 34.8783 0.4 0.4 0 0 1 26.31142 34.77377 L 26.31142 34.77377 A 1.7931 1.7931 0 0 0 25.10277 34.3052 L 21.17383 34.3052 A 1.7931 1.7931 0 0 0 19.38073 36.0983 1.7931 1.7931 0 0 0 21.17383 37.8914 L 25.10277 37.8914 A 1.7931 1.7931 0 0 0 26.47896 37.24778 0.4 0.4 0 0 1 26.78596 37.1042 L 26.9488 37.1042 26.9488 37.1042 A 1.0057 1.0057 0 0 0 27.65994 36.80964 L 28.76026 35.70932 A 0.4 0.4 0 0 1 29.0431 35.59216 0.4 0.4 0 0 1 29.4431 35.99216 L 29.4431 39.5985 A 1.0057 1.0057 0 0 0 29.73766 40.30964 L 31.23766 41.80964 A 1.0057 1.0057 0 0 0 31.9488 42.1042 L 31.9488 42.1042 43.11264 42.1042 A 0.4 0.4 0 0 1 43.41964 42.24778 1.7931 1.7931 0 0 0 44.79583 42.8914 L 48.72477 42.8914 Z M 1.61035 7.5985 A 3.95845 3.95845 0 0 0 5.5688 11.55695 3.95845 3.95845 0 0 0 9.52468 7.74109 L 9.52468 7.74109 A 0.4 0.4 0 0 1 9.92442 7.3555 L 9.92442 7.3555 12.1804 7.3555 A 0.4 0.4 0 0 1 12.5804 7.7555 L 12.5804 8.0732 12.5804 8.0732 A 0.612 0.612 0 0 0 13.1924 8.6852 L 13.1924 8.6852 17.5232 8.6852 17.5232 8.6852 A 0.612 0.612 0 0 0 18.1352 8.0732 L 18.1352 8.0732 18.1352 4.1362 18.1352 4.1362 A 0.612 0.612 0 0 0 17.5232 3.5242 L 17.5232 3.5242 13.1924 3.5242 13.1924 3.5242 A 0.612 0.612 0 0 0 12.5804 4.1362 L 12.5804 4.3535 A 0.4 0.4 0 0 1 12.1804 4.7535 L 8.47845 4.7535 A 0.4 0.4 0 0 1 8.21141 4.65131 L 8.21141 4.65131 A 3.95845 3.95845 0 0 0 5.5688 3.64005 3.95845 3.95845 0 0 0 1.61035 7.5985 Z M 5.5688 21.55695 A 3.95845 3.95845 0 0 0 9.52725 17.5985 3.95845 3.95845 0 0 0 5.5688 13.64005 3.95845 3.95845 0 0 0 1.61035 17.5985 3.95845 3.95845 0 0 0 5.5688 21.55695 Z M 5.5688 31.55695 A 3.95845 3.95845 0 0 0 9.52725 27.5985 3.95845 3.95845 0 0 0 5.5688 23.64005 3.95845 3.95845 0 0 0 1.61035 27.5985 3.95845 3.95845 0 0 0 5.5688 31.55695 Z M 3.64558 41.05835 L 3.64558 39.52172 2.10895 39.52172 2.10895 39.52172 A 3.95845 3.95845 0 0 0 3.64558 41.05835 Z M 3.64558 34.13865 A 3.95845 3.95845 0 0 0 2.10895 35.67528 L 2.10895 35.67528 3.64558 35.67528 3.64558 34.13865 Z M 7.49202 41.05835 A 3.95845 3.95845 0 0 0 9.02865 39.52172 L 7.49203 39.52172 7.49203 41.05835 Z M 9.02865 35.67528 A 3.95845 3.95845 0 0 0 7.49203 34.13865 L 7.49203 34.13865 7.49203 35.67528 9.02865 35.67528 Z M 37.1943 3.3478 L 37.1943 4.1805 38.54055 4.1805 38.54055 2.7358 37.8063 2.7358 37.8063 2.7358 A 0.612 0.612 0 0 0 37.1943 3.3478 Z M 42.3553 4.1805 L 42.3553 3.3478 A 0.612 0.612 0 0 0 41.7433 2.7358 L 41.7433 2.7358 41.00905 2.7358 41.00905 4.1805 42.3553 4.1805 Z M 16.7815 29.37595 L 16.7815 30.7222 17.6142 30.7222 17.6142 30.7222 A 0.612 0.612 0 0 0 18.2262 30.1102 L 18.2262 30.1102 18.2262 29.37595 16.7815 29.37595 Z M 17.5236 15.7718 A 0.612 0.612 0 0 0 18.1356 15.1598 L 18.1356 15.1598 18.1356 14.42555 16.6909 14.42555 16.6909 15.7718 17.5236 15.7718 Z M 18.1356 11.95705 L 18.1356 11.2228 18.1356 11.2228 A 0.612 0.612 0 0 0 17.5236 10.6108 L 17.5236 10.6108 16.6909 10.6108 16.6909 11.95705 18.1356 11.95705 Z M 14.1161 26.90745 L 14.1161 25.5612 13.2834 25.5612 13.2834 25.5612 A 0.612 0.612 0 0 0 12.6714 26.1732 L 12.6714 26.90745 14.1161 26.90745 Z M 16.7815 25.5612 L 16.7815 26.90745 18.2262 26.90745 18.2262 26.1732 18.2262 26.1732 A 0.612 0.612 0 0 0 17.6142 25.5612 L 17.6142 25.5612 16.7815 25.5612 Z M 27.7815 20.37595 L 27.7815 21.7222 28.6142 21.7222 28.6142 21.7222 A 0.612 0.612 0 0 0 29.2262 21.1102 L 29.2262 21.1102 29.2262 20.37595 27.7815 20.37595 Z M 25.1161 21.7222 L 25.1161 20.37595 23.6714 20.37595 23.6714 21.1102 23.6714 21.1102 A 0.612 0.612 0 0 0 24.2834 21.7222 L 24.2834 21.7222 25.1161 21.7222 Z M 27.7815 16.5612 L 27.7815 17.90745 29.2262 17.90745 29.2262 17.1732 29.2262 17.1732 A 0.612 0.612 0 0 0 28.6142 16.5612 L 28.6142 16.5612 27.7815 16.5612 Z M 25.1161 17.90745 L 25.1161 16.5612 24.2834 16.5612 24.2834 16.5612 A 0.612 0.612 0 0 0 23.6714 17.1732 L 23.6714 17.1732 23.6714 17.90745 25.1161 17.90745 Z M 14.1161 30.7222 L 14.1161 29.37595 12.6714 29.37595 12.6714 30.1102 A 0.612 0.612 0 0 0 13.2834 30.7222 L 13.2834 30.7222 14.1161 30.7222 Z M 14.0255 11.95705 L 14.0255 10.6108 13.1928 10.6108 13.1928 10.6108 A 0.612 0.612 0 0 0 12.5808 11.2228 L 12.5808 11.95705 14.0255 11.95705 Z M 12.5808 15.1598 A 0.612 0.612 0 0 0 13.1928 15.7718 L 13.1928 15.7718 14.0255 15.7718 14.0255 14.42555 12.5808 14.42555 12.5808 15.1598 Z M 21.17383 39.3052 A 1.7931 1.7931 0 0 0 19.58995 40.25775 L 21.31552 40.25775 21.31552 39.3052 21.17383 39.3052 Z M 25.10277 42.8914 A 1.7931 1.7931 0 0 0 26.68665 41.93885 L 24.96108 41.93885 24.96108 42.8914 25.10277 42.8914 Z M 21.31552 42.8914 L 21.31552 41.93885 19.58995 41.93885 A 1.7931 1.7931 0 0 0 21.17383 42.8914 L 21.31552 42.8914 Z M 24.96108 39.3052 L 24.96108 40.25775 26.68665 40.25775 A 1.7931 1.7931 0 0 0 25.10277 39.3052 L 24.96108 39.3052 Z " stroke-width="0" layerid="1" attachedcopperid="rep438" c_shapetype="line" id="rep438_4" class=""></path><polyline points="21.4488 19.5985 21.4488 7.9485 24.7988 4.5985" stroke-width="0.7874"  stroke-linecap="round" fill="none" layerid="1" net="OSCI" id="gge7956" locked="0" /><polyline points="15.4488 21.0545 20.8177 21.0545 21.4488 20.4234" stroke-width="0.7874"  stroke-linecap="round" fill="none" layerid="1" net="OSCI" id="gge7955" locked="0" /><polyline points="5.4488 7.5985 6.9928 6.0545 15.4488 6.0545" stroke-width="1.378"  stroke-linecap="round" fill="none" layerid="1" net="VBUS" id="gge7954" locked="0" /><polyline points="55.5668 7.5995 53.5658 5.5985 46.9928 5.5985" stroke-width="1.378"  stroke-linecap="round" fill="none" layerid="1" net="VCC" id="gge7953" locked="0" /><polyline points="46.7598 36.0985 48.9488 36.0985 55.5668 29.4805 55.5668 27.5995" stroke-width="0.7874"  stroke-linecap="round" fill="none" layerid="1" net="SCL" id="gge7952" locked="0" /><polyline points="23.1378 26.0985 21.4488 24.4095 21.4488 19.5985" stroke-width="0.7874"  stroke-linecap="round" fill="none" layerid="1" net="OSCI" id="gge7951" locked="0" /><polyline points="33.9488 35.5985 40.9488 35.5985 45.4488 31.0985 46.7598 31.0985" stroke-width="0.7874"  stroke-linecap="round" fill="none" layerid="1" net="CLKO" id="gge7950" locked="0" /><polyline points="46.7598 41.0985 31.9488 41.0985 30.4488 39.5985 30.4488 32.0985 39.9488 22.5985 50.5678 22.5985 55.5668 17.5995" stroke-width="0.7874"  stroke-linecap="round" fill="none" layerid="1" net="SDA" id="gge7949" locked="0" /><polyline points="23.1378 31.0985 24.9488 31.0985 31.4488 24.5985 31.4488 4.9485 31.0988 4.5985" stroke-width="0.7874"  stroke-linecap="round" fill="none" layerid="1" net="OSCO" id="gge7948" locked="0" /><polyline points="26.4488 12.0545 30.342 12.0545 31.4488 10.9477" stroke-width="0.7874"  stroke-linecap="round" fill="none" layerid="1" net="OSCO" id="gge7947" locked="0" /><polyline points="46.5978 17.0985 46.5978 13.7475 45.4488 12.5985 34.9488 12.5985 34.4488 13.0985" stroke-width="0.7874"  stroke-linecap="round" fill="none" layerid="1" net="TRIG" id="gge7946" locked="0" /><polyline points="46.7598 26.0985 40.9252 26.0985 35.4252 31.5985 34.9488 31.5985" stroke-width="1.378"  stroke-linecap="round" fill="none" layerid="1" net="VCC" id="gge7945" locked="0" /><polyline points="40.2988 17.0985 40.2988 19.2485 28.4488 31.0985 28.4488 34.5985 26.9488 36.0985 23.1378 36.0985" stroke-width="0.7874"  stroke-linecap="round" fill="none" layerid="1" net="R1_2" id="gge7944" locked="0" /><polyline points="34.4488 9.5985 43.1695 9.5985 47.452 5.316 47.1695 5.5985 46.9928 5.5985" stroke-width="1.378"  stroke-linecap="round" fill="none" layerid="1" net="VCC" id="gge7943" locked="0" /><g c_partid="part_pad" c_etype="pinpart" c_origin="15.358,13.191" layerid="1" number="1" net="GND" plated ="Y"  id="gge8710" locked="0" c_rotation="90" c_width="3.937" c_height="4.3307" title="GND" c_shape="RECT" pasteexpansion="0" solderexpansion="0.4"><polygon  c_etype="pad_shell" points="13.1928 15.1598 13.1928 11.2228 17.5236 11.2228 17.5236 15.1598" layerid="1" stroke-width="0" /><circle c_etype="pad_hole" cx="15.3582" cy="13.1913" r="0" layerid="1" stroke-width="0"/></g><g c_partid="part_pad" c_etype="pinpart" c_origin="15.358,6.104" layerid="1" number="2" net="VBUS" plated ="Y"  id="gge8715" locked="0" c_rotation="90" c_width="3.937" c_height="4.3307" title="VBUS" c_shape="RECT" pasteexpansion="0" solderexpansion="0.4"><polygon  c_etype="pad_shell" points="13.1928 8.0728 13.1928 4.1358 17.5236 4.1358 17.5236 8.0728" layerid="1" stroke-width="0" /><circle c_etype="pad_hole" cx="15.3582" cy="6.1047" r="0" layerid="1" stroke-width="0"/></g><g c_partid="part_pad" c_etype="pinpart" c_origin="39.775,5.513" layerid="1" number="1" net="GND" plated ="Y"  id="gge8741" locked="0" c_rotation="0" c_width="3.937" c_height="4.3307" title="GND" c_shape="RECT" pasteexpansion="0" solderexpansion="0.4"><polygon  c_etype="pad_shell" points="37.8063 3.3478 41.7433 3.3478 41.7433 7.6786 37.8063 7.6786" layerid="1" stroke-width="0" /><circle c_etype="pad_hole" cx="39.7748" cy="5.5132" r="0" layerid="1" stroke-width="0"/></g><g c_partid="part_pad" c_etype="pinpart" c_origin="46.862,5.513" layerid="1" number="2" net="VCC" plated ="Y"  id="gge8746" locked="0" c_rotation="0" c_width="3.937" c_height="4.3307" title="VCC" c_shape="RECT" pasteexpansion="0" solderexpansion="0.4"><polygon  c_etype="pad_shell" points="44.8933 3.3478 48.8303 3.3478 48.8303 7.6786 44.8933 7.6786" layerid="1" stroke-width="0" /><circle c_etype="pad_hole" cx="46.8614" cy="5.5132" r="0" layerid="1" stroke-width="0"/></g><g c_partid="part_pad" c_etype="pinpart" c_origin="15.449,21.055" layerid="1" number="2" net="OSCI" plated ="Y"  id="gge5564" locked="0" c_rotation="90" c_width="3.937" c_height="4.3307" title="OSCI" c_shape="RECT" pasteexpansion="0" solderexpansion="0.4"><polygon  c_etype="pad_shell" points="13.2834 23.0232 13.2834 19.0862 17.6142 19.0862 17.6142 23.0232" layerid="1" stroke-width="0" /><circle c_etype="pad_hole" cx="15.4488" cy="21.0551" r="0" layerid="1" stroke-width="0"/></g><g c_partid="part_pad" c_etype="pinpart" c_origin="15.449,28.142" layerid="1" number="1" net="GND" plated ="Y"  id="gge5559" locked="0" c_rotation="90" c_width="3.937" c_height="4.3307" title="GND" c_shape="RECT" pasteexpansion="0" solderexpansion="0.4"><polygon  c_etype="pad_shell" points="13.2834 30.1102 13.2834 26.1732 17.6142 26.1732 17.6142 30.1102" layerid="1" stroke-width="0" /><circle c_etype="pad_hole" cx="15.4488" cy="28.1417" r="0" layerid="1" stroke-width="0"/></g><g c_partid="part_pad" c_etype="pinpart" c_origin="40.299,17.099" layerid="1" number="2" net="R1_2" plated ="Y"  id="gge5527" locked="0" c_rotation="180" c_width="3.937" c_height="4.3307" title="R1_2" c_shape="RECT" pasteexpansion="0" solderexpansion="0.4"><polygon  c_etype="pad_shell" points="42.2674 19.2639 38.3304 19.2639 38.3304 14.9331 42.2674 14.9331" layerid="1" stroke-width="0" /><circle c_etype="pad_hole" cx="40.2993" cy="17.0985" r="0" layerid="1" stroke-width="0"/></g><g c_partid="part_pad" c_etype="pinpart" c_origin="46.598,17.099" layerid="1" number="1" net="TRIG" plated ="Y"  id="gge5532" locked="0" c_rotation="180" c_width="3.937" c_height="4.3307" title="TRIG" c_shape="RECT" pasteexpansion="0" solderexpansion="0.4"><polygon  c_etype="pad_shell" points="48.5666 19.2639 44.6296 19.2639 44.6296 14.9331 48.5666 14.9331" layerid="1" stroke-width="0" /><circle c_etype="pad_hole" cx="46.5981" cy="17.0985" r="0" layerid="1" stroke-width="0"/></g><g c_partid="part_pad" c_etype="pinpart" c_origin="26.449,19.142" layerid="1" number="1" net="GND" plated ="Y"  id="gge5590" locked="0" c_rotation="90" c_width="3.937" c_height="4.3307" title="GND" c_shape="RECT" pasteexpansion="0" solderexpansion="0.4"><polygon  c_etype="pad_shell" points="24.2834 21.1102 24.2834 17.1732 28.6142 17.1732 28.6142 21.1102" layerid="1" stroke-width="0" /><circle c_etype="pad_hole" cx="26.4488" cy="19.1417" r="0" layerid="1" stroke-width="0"/></g><g c_partid="part_pad" c_etype="pinpart" c_origin="26.449,12.055" layerid="1" number="2" net="OSCO" plated ="Y"  id="gge5595" locked="0" c_rotation="90" c_width="3.937" c_height="4.3307" title="OSCO" c_shape="RECT" pasteexpansion="0" solderexpansion="0.4"><polygon  c_etype="pad_shell" points="24.2834 14.0232 24.2834 10.0862 28.6142 10.0862 28.6142 14.0232" layerid="1" stroke-width="0" /><circle c_etype="pad_hole" cx="26.4488" cy="12.0551" r="0" layerid="1" stroke-width="0"/></g><g c_partid="part_pad" c_etype="pinpart" c_origin="23.138,26.099" layerid="1" number="1" net="OSCI" plated ="Y"  id="gge2896" locked="0" c_rotation="90" c_width="2.3622" c_height="6.2992" title="OSCI" c_shape="OVAL" pasteexpansion="0" solderexpansion="0.4"><polyline  c_etype="pad_shell" points="21.1695 26.099 25.1065 26.099" layerid="1" stroke-width="2.3622" /><circle c_etype="pad_hole" cx="23.1378" cy="26.0985" r="0" layerid="1" stroke-width="0"/></g><g c_partid="part_pad" c_etype="pinpart" c_origin="23.138,31.099" layerid="1" number="2" net="OSCO" plated ="Y"  id="gge2901" locked="0" c_rotation="90" c_width="2.3622" c_height="6.2992" title="OSCO" c_shape="OVAL" pasteexpansion="0" solderexpansion="0.4"><polyline  c_etype="pad_shell" points="21.1695 31.099 25.1065 31.099" layerid="1" stroke-width="2.3622" /><circle c_etype="pad_hole" cx="23.1378" cy="31.0985" r="0" layerid="1" stroke-width="0"/></g><g c_partid="part_pad" c_etype="pinpart" c_origin="23.138,36.099" layerid="1" number="3" net="R1_2" plated ="Y"  id="gge2906" locked="0" c_rotation="90" c_width="2.3622" c_height="6.2992" title="R1_2" c_shape="OVAL" pasteexpansion="0" solderexpansion="0.4"><polyline  c_etype="pad_shell" points="21.1695 36.099 25.1065 36.099" layerid="1" stroke-width="2.3622" /><circle c_etype="pad_hole" cx="23.1378" cy="36.0985" r="0" layerid="1" stroke-width="0"/></g><g c_partid="part_pad" c_etype="pinpart" c_origin="23.138,41.099" layerid="1" number="4" net="GND" plated ="Y"  id="gge2911" locked="0" c_rotation="90" c_width="2.3622" c_height="6.2992" title="GND" c_shape="OVAL" pasteexpansion="0" solderexpansion="0.4"><polyline  c_etype="pad_shell" points="21.1695 41.099 25.1065 41.099" layerid="1" stroke-width="2.3622" /><circle c_etype="pad_hole" cx="23.1378" cy="41.0985" r="0" layerid="1" stroke-width="0"/></g><g c_partid="part_pad" c_etype="pinpart" c_origin="46.76,26.099" layerid="1" number="8" net="VCC" plated ="Y"  id="gge2916" locked="0" c_rotation="90" c_width="2.3622" c_height="6.2992" title="VCC" c_shape="OVAL" pasteexpansion="0" solderexpansion="0.4"><polyline  c_etype="pad_shell" points="44.7915 26.099 48.7285 26.099" layerid="1" stroke-width="2.3622" /><circle c_etype="pad_hole" cx="46.7598" cy="26.0985" r="0" layerid="1" stroke-width="0"/></g><g c_partid="part_pad" c_etype="pinpart" c_origin="46.76,31.099" layerid="1" number="7" net="CLKO" plated ="Y"  id="gge2921" locked="0" c_rotation="90" c_width="2.3622" c_height="6.2992" title="CLKO" c_shape="OVAL" pasteexpansion="0" solderexpansion="0.4"><polyline  c_etype="pad_shell" points="44.7915 31.099 48.7285 31.099" layerid="1" stroke-width="2.3622" /><circle c_etype="pad_hole" cx="46.7598" cy="31.0985" r="0" layerid="1" stroke-width="0"/></g><g c_partid="part_pad" c_etype="pinpart" c_origin="46.76,36.099" layerid="1" number="6" net="SCL" plated ="Y"  id="gge2926" locked="0" c_rotation="90" c_width="2.3622" c_height="6.2992" title="SCL" c_shape="OVAL" pasteexpansion="0" solderexpansion="0.4"><polyline  c_etype="pad_shell" points="44.7915 36.099 48.7285 36.099" layerid="1" stroke-width="2.3622" /><circle c_etype="pad_hole" cx="46.7598" cy="36.0985" r="0" layerid="1" stroke-width="0"/></g><g c_partid="part_pad" c_etype="pinpart" c_origin="46.76,41.099" layerid="1" number="5" net="SDA" plated ="Y"  id="gge2931" locked="0" c_rotation="90" c_width="2.3622" c_height="6.2992" title="SDA" c_shape="OVAL" pasteexpansion="0" solderexpansion="0.4"><polyline  c_etype="pad_shell" points="44.7915 41.099 48.7285 41.099" layerid="1" stroke-width="2.3622" /><circle c_etype="pad_hole" cx="46.7598" cy="41.0985" r="0" layerid="1" stroke-width="0"/></g><g c_partid="part_pad" c_etype="pinpart" c_origin="55.569,37.599" layerid="11" number="1" net="ON" plated ="Y"  id="gge6762" locked="0" c_rotation="90" c_width="6.6929" c_height="6.6929" title="ON" c_shape="ELLIPSE" pasteexpansion="0" solderexpansion="0.4"><ellipse c_etype="pad_shell" cx="55.569" cy="37.599" rx="3.34645" ry="3.34645" layerid="11" stroke-width="0"/><circle c_etype="pad_hole" cx="55.5688" cy="37.5985" r="1.9685" layerid="11" stroke-width="0"/></g><g c_partid="part_pad" c_etype="pinpart" c_origin="55.569,27.599" layerid="11" number="2" net="SCL" plated ="Y"  id="gge6767" locked="0" c_rotation="180" c_width="6.6929" c_height="6.6929" title="SCL" c_shape="ELLIPSE" pasteexpansion="0" solderexpansion="0.4"><ellipse c_etype="pad_shell" cx="55.569" cy="27.599" rx="3.34645" ry="3.34645" layerid="11" stroke-width="0"/><circle c_etype="pad_hole" cx="55.5688" cy="27.5985" r="1.9685" layerid="11" stroke-width="0"/></g><g c_partid="part_pad" c_etype="pinpart" c_origin="55.569,17.599" layerid="11" number="3" net="SDA" plated ="Y"  id="gge6772" locked="0" c_rotation="180" c_width="6.6929" c_height="6.6929" title="SDA" c_shape="ELLIPSE" pasteexpansion="0" solderexpansion="0.4"><ellipse c_etype="pad_shell" cx="55.569" cy="17.599" rx="3.34645" ry="3.34645" layerid="11" stroke-width="0"/><circle c_etype="pad_hole" cx="55.5688" cy="17.5985" r="1.9685" layerid="11" stroke-width="0"/></g><g c_partid="part_pad" c_etype="pinpart" c_origin="55.569,7.599" layerid="11" number="4" net="VCC" plated ="Y"  id="gge6777" locked="0" c_rotation="180" c_width="6.6929" c_height="6.6929" title="VCC" c_shape="ELLIPSE" pasteexpansion="0" solderexpansion="0.4"><ellipse c_etype="pad_shell" cx="55.569" cy="7.599" rx="3.34645" ry="3.34645" layerid="11" stroke-width="0"/><circle c_etype="pad_hole" cx="55.5688" cy="7.5985" r="1.9685" layerid="11" stroke-width="0"/></g><g c_partid="part_pad" c_etype="pinpart" c_origin="5.569,7.599" layerid="11" number="1" net="VBUS" plated ="Y"  id="gge6787" locked="0" c_rotation="270" c_width="6.6929" c_height="6.6929" title="VBUS" c_shape="ELLIPSE" pasteexpansion="0" solderexpansion="0.4"><ellipse c_etype="pad_shell" cx="5.569" cy="7.599" rx="3.34645" ry="3.34645" layerid="11" stroke-width="0"/><circle c_etype="pad_hole" cx="5.5688" cy="7.5985" r="1.9685" layerid="11" stroke-width="0"/></g><g c_partid="part_pad" c_etype="pinpart" c_origin="5.569,17.599" layerid="11" number="2" net="SW" plated ="Y"  id="gge6792" locked="0" c_rotation="0" c_width="6.6929" c_height="6.6929" title="SW" c_shape="ELLIPSE" pasteexpansion="0" solderexpansion="0.4"><ellipse c_etype="pad_shell" cx="5.569" cy="17.599" rx="3.34645" ry="3.34645" layerid="11" stroke-width="0"/><circle c_etype="pad_hole" cx="5.5688" cy="17.5985" r="1.9685" layerid="11" stroke-width="0"/></g><g c_partid="part_pad" c_etype="pinpart" c_origin="5.569,27.599" layerid="11" number="3" net="CLKO" plated ="Y"  id="gge6797" locked="0" c_rotation="0" c_width="6.6929" c_height="6.6929" title="CLKO" c_shape="ELLIPSE" pasteexpansion="0" solderexpansion="0.4"><ellipse c_etype="pad_shell" cx="5.569" cy="27.599" rx="3.34645" ry="3.34645" layerid="11" stroke-width="0"/><circle c_etype="pad_hole" cx="5.5688" cy="27.5985" r="1.9685" layerid="11" stroke-width="0"/></g><g c_partid="part_pad" c_etype="pinpart" c_origin="5.569,37.599" layerid="11" number="4" net="GND" plated ="Y"  id="gge6802" locked="0" c_rotation="0" c_width="6.6929" c_height="6.6929" title="GND" c_shape="ELLIPSE" pasteexpansion="0" solderexpansion="0.4"><ellipse c_etype="pad_shell" cx="5.569" cy="37.599" rx="3.34645" ry="3.34645" layerid="11" stroke-width="0"/><circle c_etype="pad_hole" cx="5.5688" cy="37.5985" r="1.9685" layerid="11" stroke-width="0"/></g><g c_partid="part_pad" c_etype="pinpart" c_origin="31.099,4.599" layerid="11" number="1" net="OSCO" plated ="Y"  id="gge1592" locked="0" c_rotation="180" c_width="3.937" c_height="3.937" title="OSCO" c_shape="ELLIPSE" pasteexpansion="0" solderexpansion="0.4"><ellipse c_etype="pad_shell" cx="31.099" cy="4.599" rx="1.9685" ry="1.9685" layerid="11" stroke-width="0"/><circle c_etype="pad_hole" cx="31.0984" cy="4.5985" r="0.9843" layerid="11" stroke-width="0"/></g><g c_partid="part_pad" c_etype="pinpart" c_origin="24.799,4.599" layerid="11" number="2" net="OSCI" plated ="Y"  id="gge1597" locked="0" c_rotation="180" c_width="3.937" c_height="3.937" title="OSCI" c_shape="ELLIPSE" pasteexpansion="0" solderexpansion="0.4"><ellipse c_etype="pad_shell" cx="24.799" cy="4.599" rx="1.9685" ry="1.9685" layerid="11" stroke-width="0"/><circle c_etype="pad_hole" cx="24.7992" cy="4.5985" r="0.9843" layerid="11" stroke-width="0"/></g><g c_partid="part_via" c_etype="pinpart" c_shapetype="group" net="GND" c_origin="10.449,34.099" layerid="11" id="gge6855" locked="0" solderexpansion=""><circle cx="10.449" cy="34.099" r="1.1811" stroke-width="0" c_etype="pad_shell"/><circle cx="10.449" cy="34.099" r="0.6102"  stroke-width="0" c_etype="pad_hole"/></g><g c_partid="part_via" c_etype="pinpart" c_shapetype="group" net="VCC" c_origin="34.449,9.599" layerid="11" id="gge6251" locked="0" solderexpansion=""><circle cx="34.449" cy="9.599" r="1.2598" stroke-width="0" c_etype="pad_shell"/><circle cx="34.449" cy="9.599" r="0.7874"  stroke-width="0" c_etype="pad_hole"/></g><g c_partid="part_via" c_etype="pinpart" c_shapetype="group" net="VCC" c_origin="34.949,31.599" layerid="11" id="gge6218" locked="0" solderexpansion=""><circle cx="34.949" cy="31.599" r="1.2598" stroke-width="0" c_etype="pad_shell"/><circle cx="34.949" cy="31.599" r="0.7874"  stroke-width="0" c_etype="pad_hole"/></g><g c_partid="part_via" c_etype="pinpart" c_shapetype="group" net="TRIG" c_origin="34.449,13.099" layerid="11" id="gge6152" locked="0" solderexpansion=""><circle cx="34.449" cy="13.099" r="1.2028" stroke-width="0" c_etype="pad_shell"/><circle cx="34.449" cy="13.099" r="0.6"  stroke-width="0" c_etype="pad_hole"/></g><g c_partid="part_via" c_etype="pinpart" c_shapetype="group" net="CLKO" c_origin="33.949,35.599" layerid="11" id="gge6136" locked="0" solderexpansion=""><circle cx="33.949" cy="35.599" r="1.2028" stroke-width="0" c_etype="pad_shell"/><circle cx="33.949" cy="35.599" r="0.6"  stroke-width="0" c_etype="pad_hole"/></g><g c_partid="part_via" c_etype="pinpart" c_shapetype="group" net="GND" c_origin="51.949,12.599" layerid="11" id="gge4018" locked="0" solderexpansion=""><circle cx="51.949" cy="12.599" r="1.1811" stroke-width="0" c_etype="pad_shell"/><circle cx="51.949" cy="12.599" r="0.6102"  stroke-width="0" c_etype="pad_hole"/></g><g c_partid="part_via" c_etype="pinpart" c_shapetype="group" net="GND" c_origin="9.449,12.599" layerid="11" id="gge4652" locked="0" solderexpansion=""><circle cx="9.449" cy="12.599" r="1.1811" stroke-width="0" c_etype="pad_shell"/><circle cx="9.449" cy="12.599" r="0.6102"  stroke-width="0" c_etype="pad_hole"/></g><polyline points="12.9959 3.152 17.7204 3.152" stroke-width="1"  stroke-linecap="round" fill="none" layerid="3" net="" id="gge8694" locked="0" /><polyline points="12.2085 11.2228 12.2085 15.1599" stroke-width="1"  stroke-linecap="round" fill="none" layerid="3" net="" id="gge8695" locked="0" /><polyline points="18.5079 11.2228 18.5079 15.1599" stroke-width="1"  stroke-linecap="round" fill="none" layerid="3" net="" id="gge8696" locked="0" /><polyline points="12.2085 8.0729 12.2085 4.1363" stroke-width="1"  stroke-linecap="round" fill="none" layerid="3" net="" id="gge8697" locked="0" /><polyline points="18.5079 8.0729 18.5079 4.1363" stroke-width="1"  stroke-linecap="round" fill="none" layerid="3" net="" id="gge8698" locked="0" /><polyline points="12.9959 16.1442 17.7204 16.1442" stroke-width="1"  stroke-linecap="round" fill="none" layerid="3" net="" id="gge8699" locked="0" /><polyline points="12.2085 15.3568 12.2085 15.1599" stroke-width="1"  stroke-linecap="round" fill="none" layerid="3" net="" id="gge8700" locked="0" /><polyline points="18.5079 15.3567 18.5079 15.1599" stroke-width="1"  stroke-linecap="round" fill="none" layerid="3" net="" id="gge8701" locked="0" /><polyline points="12.2085 3.9394 12.2085 4.1363" stroke-width="1"  stroke-linecap="round" fill="none" layerid="3" net="" id="gge8702" locked="0" /><polyline points="18.5079 3.9395 18.5079 4.1363" stroke-width="1"  stroke-linecap="round" fill="none" layerid="3" net="" id="gge8703" locked="0" /><polyline points="49.8141 3.1509 49.8141 7.8754" stroke-width="1"  stroke-linecap="round" fill="none" layerid="3" net="" id="gge8725" locked="0" /><polyline points="41.7433 2.3635 37.8062 2.3635" stroke-width="1"  stroke-linecap="round" fill="none" layerid="3" net="" id="gge8726" locked="0" /><polyline points="41.7433 8.6629 37.8062 8.6629" stroke-width="1"  stroke-linecap="round" fill="none" layerid="3" net="" id="gge8727" locked="0" /><polyline points="44.8932 2.3635 48.8298 2.3635" stroke-width="1"  stroke-linecap="round" fill="none" layerid="3" net="" id="gge8728" locked="0" /><polyline points="44.8932 8.6629 48.8298 8.6629" stroke-width="1"  stroke-linecap="round" fill="none" layerid="3" net="" id="gge8729" locked="0" /><polyline points="36.8219 3.1509 36.8219 7.8754" stroke-width="1"  stroke-linecap="round" fill="none" layerid="3" net="" id="gge8730" locked="0" /><polyline points="37.6093 2.3635 37.8062 2.3635" stroke-width="1"  stroke-linecap="round" fill="none" layerid="3" net="" id="gge8731" locked="0" /><polyline points="37.6094 8.6629 37.8062 8.6629" stroke-width="1"  stroke-linecap="round" fill="none" layerid="3" net="" id="gge8732" locked="0" /><polyline points="49.0267 2.3635 48.8298 2.3635" stroke-width="1"  stroke-linecap="round" fill="none" layerid="3" net="" id="gge8733" locked="0" /><polyline points="49.0266 8.6629 48.8298 8.6629" stroke-width="1"  stroke-linecap="round" fill="none" layerid="3" net="" id="gge8734" locked="0" /><polyline points="13.0865 18.1024 17.811 18.1024" stroke-width="1"  stroke-linecap="round" fill="none" layerid="3" net="" id="gge5543" locked="0" /><polyline points="12.2991 26.1732 12.2991 30.1103" stroke-width="1"  stroke-linecap="round" fill="none" layerid="3" net="" id="gge5544" locked="0" /><polyline points="18.5985 26.1732 18.5985 30.1103" stroke-width="1"  stroke-linecap="round" fill="none" layerid="3" net="" id="gge5545" locked="0" /><polyline points="12.2991 23.0233 12.2991 19.0867" stroke-width="1"  stroke-linecap="round" fill="none" layerid="3" net="" id="gge5546" locked="0" /><polyline points="18.5985 23.0233 18.5985 19.0867" stroke-width="1"  stroke-linecap="round" fill="none" layerid="3" net="" id="gge5547" locked="0" /><polyline points="13.0865 31.0946 17.811 31.0946" stroke-width="1"  stroke-linecap="round" fill="none" layerid="3" net="" id="gge5548" locked="0" /><polyline points="12.2991 30.3072 12.2991 30.1103" stroke-width="1"  stroke-linecap="round" fill="none" layerid="3" net="" id="gge5549" locked="0" /><polyline points="18.5985 30.3071 18.5985 30.1103" stroke-width="1"  stroke-linecap="round" fill="none" layerid="3" net="" id="gge5550" locked="0" /><polyline points="12.2991 18.8898 12.2991 19.0867" stroke-width="1"  stroke-linecap="round" fill="none" layerid="3" net="" id="gge5551" locked="0" /><polyline points="18.5985 18.8899 18.5985 19.0867" stroke-width="1"  stroke-linecap="round" fill="none" layerid="3" net="" id="gge5552" locked="0" /><polyline points="49.551 20.2482 49.551 13.9488" stroke-width="1"  stroke-linecap="round" fill="none" layerid="3" net="" id="gge5519" locked="0" /><polyline points="42.2651 13.9689 37.344 13.9689" stroke-width="1"  stroke-linecap="round" fill="none" layerid="3" net="" id="gge5520" locked="0" /><polyline points="42.2651 20.2683 37.344 20.2683" stroke-width="1"  stroke-linecap="round" fill="none" layerid="3" net="" id="gge5521" locked="0" /><polyline points="44.6296 13.9488 49.551 13.9488" stroke-width="1"  stroke-linecap="round" fill="none" layerid="3" net="" id="gge5522" locked="0" /><polyline points="44.6296 20.2482 49.551 20.2482" stroke-width="1"  stroke-linecap="round" fill="none" layerid="3" net="" id="gge5523" locked="0" /><polyline points="37.344 20.2683 37.344 13.9689" stroke-width="1"  stroke-linecap="round" fill="none" layerid="3" net="" id="gge5524" locked="0" /><polyline points="24.0865 9.1024 28.811 9.1024" stroke-width="1"  stroke-linecap="round" fill="none" layerid="3" net="" id="gge5574" locked="0" /><polyline points="23.2991 17.1732 23.2991 21.1103" stroke-width="1"  stroke-linecap="round" fill="none" layerid="3" net="" id="gge5575" locked="0" /><polyline points="29.5985 17.1732 29.5985 21.1103" stroke-width="1"  stroke-linecap="round" fill="none" layerid="3" net="" id="gge5576" locked="0" /><polyline points="23.2991 14.0233 23.2991 10.0867" stroke-width="1"  stroke-linecap="round" fill="none" layerid="3" net="" id="gge5577" locked="0" /><polyline points="29.5985 14.0233 29.5985 10.0867" stroke-width="1"  stroke-linecap="round" fill="none" layerid="3" net="" id="gge5578" locked="0" /><polyline points="24.0865 22.0946 28.811 22.0946" stroke-width="1"  stroke-linecap="round" fill="none" layerid="3" net="" id="gge5579" locked="0" /><polyline points="23.2991 21.3072 23.2991 21.1103" stroke-width="1"  stroke-linecap="round" fill="none" layerid="3" net="" id="gge5580" locked="0" /><polyline points="29.5985 21.3071 29.5985 21.1103" stroke-width="1"  stroke-linecap="round" fill="none" layerid="3" net="" id="gge5581" locked="0" /><polyline points="23.2991 9.8898 23.2991 10.0867" stroke-width="1"  stroke-linecap="round" fill="none" layerid="3" net="" id="gge5582" locked="0" /><polyline points="29.5985 9.8899 29.5985 10.0867" stroke-width="1"  stroke-linecap="round" fill="none" layerid="3" net="" id="gge5583" locked="0" /><polyline points="42.2488 23.756 42.2488 43.441" stroke-width="1"  stroke-linecap="round" fill="none" layerid="3" net="" id="gge2888" locked="0" /><polyline points="27.7488 23.756 27.7488 43.441" stroke-width="1"  stroke-linecap="round" fill="none" layerid="3" net="" id="gge2889" locked="0" /><polyline points="42.2488 43.441 27.7488 43.441" stroke-width="1"  stroke-linecap="round" fill="none" layerid="3" net="" id="gge2890" locked="0" /><polyline points="42.2488 23.756 36.9488 23.756" stroke-width="1"  stroke-linecap="round" fill="none" layerid="3" net="" id="gge2891" locked="0" /><polyline points="32.9488 23.5985 27.7488 23.5985" stroke-width="1"  stroke-linecap="round" fill="none" layerid="3" net="" id="gge2892" locked="0" /><g c_partid="part_pcbtext" c_etype="pinpart" c_origin="41.535,42.126" c_rotation="90" c_mirror="0" id="gge2703" locked="0" layerid="3" c_shapetype="group" ><path c_fontsize="3.5" c_fontfamily="" c_text="fwV1.2" d="M 37.9995 40.8513L37.9995 41.1713 L38.1595 41.4913 L38.6395 41.6513 L41.3395 41.6513 M 39.1195 42.1213L39.1195 41.0113 M 39.1195 39.8013L41.3395 39.1713 M 39.1195 38.5313L41.3395 39.1713 M 39.1195 38.5313L41.3395 37.8913 M 39.1195 37.2613L41.3395 37.8913 M 37.9995 36.2113L41.3395 34.9313 M 37.9995 33.6613L41.3395 34.9313 M 38.6395 32.6113L38.4795 32.2913 L37.9995 31.8213 L41.3395 31.8213 M 40.5495 30.6113L40.7095 30.7713 L40.8695 30.6113 L40.7095 30.4513 L40.5495 30.6113 M 38.7995 29.2413L38.6395 29.2413 L38.3195 29.0813 L38.1595 28.9213 L37.9995 28.6013 L37.9995 27.9713 L38.1595 27.6513 L38.3195 27.4913 L38.6395 27.3313 L38.9595 27.3313 L39.2795 27.4913 L39.7495 27.8113 L41.3395 29.4013 L41.3395 27.1713 " fill="none"  stroke-width="0.6"  /></g><g c_partid="part_pcbtext" c_etype="pinpart" c_origin="33.842,42.099" c_rotation="90" c_mirror="0" id="gge2708" locked="0" layerid="3" c_shapetype="group" ><path c_fontsize="4.5" c_fontfamily="" c_text="uPoff" d="M 30.7324 42.0985 L 32.7824 42.0985 L 33.3924 41.8985 L 33.5924 41.4885 L 33.5924 40.8685 L 33.3924 40.4585 L 32.7824 39.8485 M 30.7324 39.8485 L 33.5924 39.8485 M 29.3024 38.4985 L 33.5924 38.4985 M 29.3024 38.4985 L 29.3024 36.6585 L 29.5024 36.0485 L 29.7124 35.8385 L 30.1224 35.6385 L 30.7324 35.6385 L 31.1424 35.8385 L 31.3424 36.0485 L 31.5524 36.6585 L 31.5524 38.4985 M 30.7324 33.2585 L 30.9424 33.6685 L 31.3424 34.0785 L 31.9624 34.2885 L 32.3724 34.2885 L 32.9824 34.0785 L 33.3924 33.6685 L 33.5924 33.2585 L 33.5924 32.6485 L 33.3924 32.2385 L 32.9824 31.8285 L 32.3724 31.6285 L 31.9624 31.6285 L 31.3424 31.8285 L 30.9424 32.2385 L 30.7324 32.6485 L 30.7324 33.2585 M 29.3024 28.6385 L 29.3024 29.0485 L 29.5024 29.4585 L 30.1224 29.6585 L 33.5924 29.6585 M 30.7324 30.2785 L 30.7324 28.8485 M 29.3024 25.6485 L 29.3024 26.0585 L 29.5024 26.4685 L 30.1224 26.6785 L 33.5924 26.6785 M 30.7324 27.2885 L 30.7324 25.8585" fill="none"  stroke-width="1"  /></g><g c_partid="part_pcbtext" c_etype="pinpart" c_origin="2,3.197" c_rotation="0" c_mirror="0" id="gge4558" locked="0" layerid="3" c_shapetype="group" ><path c_fontsize="2.7559" c_fontfamily="" c_text="." d="M 2.1299 2.4169 L 1.9999 2.5469 L 2.1299 2.6669 L 2.2499 2.5469 L 2.1299 2.4169" fill="none"  stroke-width="2.7559"  /></g><g c_partid="part_pcbtext" c_etype="" c_origin="4.858,9.692" c_rotation="90" c_mirror="0" id="gge8690" locked="0" layerid="3" c_shapetype="group" display="none"><path c_fontsize="4.5" c_fontfamily="" c_text="100nF" d="M 1.1382 9.6916 L 0.9282 9.2816 L 0.3182 8.6716 L 4.6082 8.6716 M 0.3182 6.0916 L 0.5182 6.7016 L 1.1382 7.1116 L 2.1582 7.3216 L 2.7682 7.3216 L 3.7982 7.1116 L 4.4082 6.7016 L 4.6082 6.0916 L 4.6082 5.6816 L 4.4082 5.0716 L 3.7982 4.6616 L 2.7682 4.4516 L 2.1582 4.4516 L 1.1382 4.6616 L 0.5182 5.0716 L 0.3182 5.6816 L 0.3182 6.0916 M 0.3182 1.8816 L 0.5182 2.4916 L 1.1382 2.9016 L 2.1582 3.1016 L 2.7682 3.1016 L 3.7982 2.9016 L 4.4082 2.4916 L 4.6082 1.8816 L 4.6082 1.4716 L 4.4082 0.8516 L 3.7982 0.4416 L 2.7682 0.2416 L 2.1582 0.2416 L 1.1382 0.4416 L 0.5182 0.8516 L 0.3182 1.4716 L 0.3182 1.8816 M 1.7482 -1.1084 L 4.6082 -1.1084 M 2.5682 -1.1084 L 1.9582 -1.7184 L 1.7482 -2.1284 L 1.7482 -2.7484 L 1.9582 -3.1584 L 2.5682 -3.3584 L 4.6082 -3.3584 M 0.3182 -4.7084 L 4.6082 -4.7084 M 0.3182 -4.7084 L 0.3182 -7.3684 M 2.3582 -4.7084 L 2.3582 -6.3484" fill="none"  stroke-width="0.6" c_note="note_name" /></g><g c_partid="part_pcbtext" c_etype="" c_origin="11.858,9.692" c_rotation="90" c_mirror="0" id="gge8692" locked="0" layerid="3" c_shapetype="group" display="none"><path c_fontsize="4.5" c_fontfamily="" c_text="C3" d="M 8.3382 6.6216 L 7.9282 6.8316 L 7.5182 7.2416 L 7.3182 7.6416 L 7.3182 8.4616 L 7.5182 8.8716 L 7.9282 9.2816 L 8.3382 9.4916 L 8.9582 9.6916 L 9.9782 9.6916 L 10.5882 9.4916 L 10.9982 9.2816 L 11.4082 8.8716 L 11.6082 8.4616 L 11.6082 7.6416 L 11.4082 7.2416 L 10.9982 6.8316 L 10.5882 6.6216 M 7.3182 4.8616 L 7.3182 2.6116 L 8.9582 3.8416 L 8.9582 3.2316 L 9.1582 2.8216 L 9.3582 2.6116 L 9.9782 2.4116 L 10.3882 2.4116 L 10.9982 2.6116 L 11.4082 3.0216 L 11.6082 3.6416 L 11.6082 4.2516 L 11.4082 4.8616 L 11.2082 5.0716 L 10.7982 5.2716" fill="none"  stroke-width="0.6" c_note="note_pre" /></g><g c_partid="part_pcbtext" c_etype="" c_origin="43.275,-4.987" c_rotation="0" c_mirror="0" id="gge8721" locked="0" layerid="3" c_shapetype="group" display="none"><path c_fontsize="4.5" c_fontfamily="" c_text="100nF" d="M 43.2745 -8.7068 L 43.6845 -8.9168 L 44.2945 -9.5268 L 44.2945 -5.2368 M 46.8745 -9.5268 L 46.2645 -9.3268 L 45.8545 -8.7068 L 45.6445 -7.6868 L 45.6445 -7.0768 L 45.8545 -6.0468 L 46.2645 -5.4368 L 46.8745 -5.2368 L 47.2845 -5.2368 L 47.8945 -5.4368 L 48.3045 -6.0468 L 48.5145 -7.0768 L 48.5145 -7.6868 L 48.3045 -8.7068 L 47.8945 -9.3268 L 47.2845 -9.5268 L 46.8745 -9.5268 M 51.0845 -9.5268 L 50.4745 -9.3268 L 50.0645 -8.7068 L 49.8645 -7.6868 L 49.8645 -7.0768 L 50.0645 -6.0468 L 50.4745 -5.4368 L 51.0845 -5.2368 L 51.4945 -5.2368 L 52.1145 -5.4368 L 52.5245 -6.0468 L 52.7245 -7.0768 L 52.7245 -7.6868 L 52.5245 -8.7068 L 52.1145 -9.3268 L 51.4945 -9.5268 L 51.0845 -9.5268 M 54.0745 -8.0968 L 54.0745 -5.2368 M 54.0745 -7.2768 L 54.6845 -7.8868 L 55.0945 -8.0968 L 55.7145 -8.0968 L 56.1245 -7.8868 L 56.3245 -7.2768 L 56.3245 -5.2368 M 57.6745 -9.5268 L 57.6745 -5.2368 M 57.6745 -9.5268 L 60.3345 -9.5268 M 57.6745 -7.4868 L 59.3145 -7.4868" fill="none"  stroke-width="0.6" c_note="note_name" /></g><g c_partid="part_pcbtext" c_etype="" c_origin="43.275,2.013" c_rotation="0" c_mirror="0" id="gge8723" locked="0" layerid="3" c_shapetype="group" display="none"><path c_fontsize="4.5" c_fontfamily="" c_text="C2" d="M 46.3445 -1.5068 L 46.1345 -1.9168 L 45.7245 -2.3268 L 45.3245 -2.5268 L 44.5045 -2.5268 L 44.0945 -2.3268 L 43.6845 -1.9168 L 43.4745 -1.5068 L 43.2745 -0.8868 L 43.2745 0.1332 L 43.4745 0.7432 L 43.6845 1.1532 L 44.0945 1.5632 L 44.5045 1.7632 L 45.3245 1.7632 L 45.7245 1.5632 L 46.1345 1.1532 L 46.3445 0.7432 M 47.8945 -1.5068 L 47.8945 -1.7068 L 48.1045 -2.1168 L 48.3045 -2.3268 L 48.7145 -2.5268 L 49.5345 -2.5268 L 49.9445 -2.3268 L 50.1445 -2.1168 L 50.3545 -1.7068 L 50.3545 -1.2968 L 50.1445 -0.8868 L 49.7345 -0.2768 L 47.6945 1.7632 L 50.5545 1.7632" fill="none"  stroke-width="0.6" c_note="note_pre" /></g><g c_partid="part_pcbtext" c_etype="" c_origin="-0.184,22.049" c_rotation="90" c_mirror="0" id="rep4" locked="0" layerid="3" c_shapetype="group" display="none"><path c_fontsize="4.5" c_fontfamily="NotoSerifCJKsc-Medium" c_text="1,2k" d="M -0.8538 20.4885 C -1.0938 20.4985 -1.3238 20.4985 -1.5538 20.4985 L -2.9338 20.4985 L -3.5638 20.4785 L -3.6138 20.5385 L -3.3738 21.4385 L -3.2238 21.4385 L -3.2738 20.8585 L -1.5538 20.8585 C -1.3238 20.8585 -1.0938 20.8585 -0.8538 20.8685 L -0.7738 21.4885 L -0.6338 21.4885 L -0.6338 19.8785 L -0.7738 19.8785 Z  M -0.4838 18.9385 C -0.1538 19.0285 0.0462 19.2585 0.2062 19.5585 L 0.3262 19.4985 C 0.1662 19.0985 -0.2338 18.6985 -0.7438 18.6985 C -0.8538 18.6985 -0.9538 18.7085 -1.0538 18.7485 C -1.1438 18.8385 -1.1738 18.9285 -1.1738 19.0085 C -1.1738 19.1685 -1.0538 19.2585 -0.9038 19.2585 C -0.8038 19.2585 -0.6938 19.2185 -0.6138 19.0985 Z  M -0.9738 17.8085 C -1.1838 17.6085 -1.3838 17.4085 -1.5038 17.2985 C -2.1938 16.6385 -2.4738 16.4185 -2.8538 16.4185 C -3.3038 16.4185 -3.6238 16.6685 -3.6238 17.2285 C -3.6238 17.6685 -3.4038 18.0485 -2.9638 18.1085 C -2.8838 18.0685 -2.8338 17.9885 -2.8338 17.8985 C -2.8338 17.7885 -2.9038 17.7085 -3.1038 17.6585 L -3.4238 17.5685 C -3.4438 17.4785 -3.4538 17.3985 -3.4538 17.3385 C -3.4538 17.0085 -3.2038 16.7985 -2.8338 16.7985 C -2.4738 16.7985 -2.1438 16.9985 -1.6538 17.4285 C -1.4338 17.6185 -1.1738 17.8485 -0.9038 18.0885 L -0.6338 18.0885 L -0.6338 16.2885 L -0.9738 16.2885 Z  M -0.8138 13.9885 L -2.0038 14.7285 L -2.5138 14.2285 L -2.5638 13.8185 L -2.7138 13.8185 L -2.7138 14.8285 L -2.5638 14.8285 L -2.4938 14.4785 L -1.6738 15.2785 L -3.2138 15.2785 L -3.8438 15.2585 L -3.8738 15.3185 L -3.6938 15.9885 L -3.5538 15.9885 L -3.5238 15.6385 L -1.5538 15.6385 C -1.3138 15.6385 -1.0538 15.6385 -0.8138 15.6385 L -0.7738 15.9885 L -0.6338 15.9885 L -0.6338 14.9185 L -0.7738 14.9185 L -0.8138 15.2685 C -1.0238 15.2685 -1.2438 15.2785 -1.4538 15.2785 L -1.7538 14.9785 L -0.6338 14.2985 L -0.6338 13.7085 L -0.7738 13.7085 Z  M -1.3738 10.9085 L -0.9438 11.0085 L -0.9438 11.6285 L -0.9438 11.6285 C -1.2638 11.1785 -1.7338 10.8185 -2.3038 10.8185 C -3.1638 10.8185 -3.6338 11.4285 -3.6338 12.0985 C -3.6338 12.7885 -3.1638 13.3885 -2.3038 13.3885 C -1.7338 13.3885 -1.2638 13.0285 -0.9438 12.5785 L -0.9438 12.5785 L -0.9438 13.1985 L -1.3738 13.2985 L -1.3738 13.5285 L -0.6338 13.4885 L -0.6338 12.3185 L -0.9038 12.3185 C -1.2338 12.7185 -1.7538 12.9785 -2.3038 12.9785 C -2.9538 12.9785 -3.4438 12.6585 -3.4438 12.0985 C -3.4438 11.5585 -2.9538 11.2285 -2.3038 11.2285 C -1.7538 11.2285 -1.2338 11.4885 -0.9038 11.8985 L -0.6338 11.8985 L -0.6338 10.7185 L -1.3738 10.6785 Z "  stroke="none" stroke-width="1" c_note="note_name" /></g><g c_partid="part_pcbtext" c_etype="" c_origin="19.046,12.599" c_rotation="0" c_mirror="0" id="rep6" locked="0" layerid="3" c_shapetype="group" display="none"><path c_fontsize="4.5" c_fontfamily="" c_text="1,2k" d="M 20.3762 12.3785 C 20.3662 12.1385 20.3662 11.9085 20.3662 11.6785 L 20.3662 10.2985 L 20.3862 9.6685 L 20.3262 9.6185 L 19.4262 9.8585 L 19.4262 10.0085 L 20.0062 9.9585 L 20.0062 11.6785 C 20.0062 11.9085 20.0062 12.1385 19.9962 12.3785 L 19.3762 12.4585 L 19.3762 12.5985 L 20.9862 12.5985 L 20.9862 12.4585 Z  M 21.9262 12.7485 C 21.8362 13.0785 21.6062 13.2785 21.3062 13.4385 L 21.3662 13.5585 C 21.7662 13.3985 22.1662 12.9985 22.1662 12.4885 C 22.1662 12.3785 22.1562 12.2785 22.1162 12.1785 C 22.0262 12.0885 21.9362 12.0585 21.8562 12.0585 C 21.6962 12.0585 21.6062 12.1785 21.6062 12.3285 C 21.6062 12.4285 21.6462 12.5385 21.7662 12.6185 Z  M 23.0562 12.2585 C 23.2562 12.0485 23.4562 11.8485 23.5662 11.7285 C 24.2262 11.0385 24.4462 10.7585 24.4462 10.3785 C 24.4462 9.9285 24.1962 9.6085 23.6362 9.6085 C 23.1962 9.6085 22.8162 9.8285 22.7562 10.2685 C 22.7962 10.3485 22.8762 10.3985 22.9662 10.3985 C 23.0762 10.3985 23.1562 10.3285 23.2062 10.1285 L 23.2962 9.8085 C 23.3862 9.7885 23.4662 9.7785 23.5262 9.7785 C 23.8562 9.7785 24.0662 10.0285 24.0662 10.3985 C 24.0662 10.7585 23.8662 11.0885 23.4362 11.5785 C 23.2462 11.7985 23.0162 12.0585 22.7762 12.3285 L 22.7762 12.5985 L 24.5762 12.5985 L 24.5762 12.2585 Z  M 26.8762 12.4185 L 26.1362 11.2285 L 26.6362 10.7185 L 27.0462 10.6685 L 27.0462 10.5185 L 26.0362 10.5185 L 26.0362 10.6685 L 26.3862 10.7385 L 25.5862 11.5585 L 25.5862 10.0185 L 25.6062 9.3885 L 25.5462 9.3585 L 24.8762 9.5385 L 24.8762 9.6785 L 25.2262 9.7085 L 25.2262 11.6785 C 25.2262 11.9185 25.2262 12.1785 25.2262 12.4185 L 24.8762 12.4585 L 24.8762 12.5985 L 25.9462 12.5985 L 25.9462 12.4585 L 25.5962 12.4185 C 25.5962 12.2085 25.5862 11.9885 25.5862 11.7785 L 25.8862 11.4785 L 26.5662 12.5985 L 27.1562 12.5985 L 27.1562 12.4585 Z  M 29.9562 11.8585 L 29.8562 12.2885 L 29.2362 12.2885 L 29.2362 12.2885 C 29.6862 11.9685 30.0462 11.4985 30.0462 10.9285 C 30.0462 10.0685 29.4362 9.5985 28.7662 9.5985 C 28.0762 9.5985 27.4762 10.0685 27.4762 10.9285 C 27.4762 11.4985 27.8362 11.9685 28.2862 12.2885 L 28.2862 12.2885 L 27.6662 12.2885 L 27.5662 11.8585 L 27.3362 11.8585 L 27.3762 12.5985 L 28.5462 12.5985 L 28.5462 12.3285 C 28.1462 11.9985 27.8862 11.4785 27.8862 10.9285 C 27.8862 10.2785 28.2062 9.7885 28.7662 9.7885 C 29.3062 9.7885 29.6362 10.2785 29.6362 10.9285 C 29.6362 11.4785 29.3762 11.9985 28.9662 12.3285 L 28.9662 12.5985 L 30.1462 12.5985 L 30.1862 11.8585 Z "  stroke="none" stroke-width="0.6" c_note="note_name" /></g><g c_partid="part_pcbtext" c_etype="" c_origin="54.314,13.149" c_rotation="0" c_mirror="0" id="rep7" locked="0" layerid="3" c_shapetype="group" display="none"><path c_fontsize="4.5" c_fontfamily="NotoSerifCJKsc-Medium" c_text="1,2k" d="M 54.7762 12.3785 C 54.7662 12.1385 54.7662 11.9085 54.7662 11.6785 L 54.7662 10.2985 L 54.7862 9.6685 L 54.7262 9.6185 L 53.8262 9.8585 L 53.8262 10.0085 L 54.4062 9.9585 L 54.4062 11.6785 C 54.4062 11.9085 54.4062 12.1385 54.3962 12.3785 L 53.7762 12.4585 L 53.7762 12.5985 L 55.3862 12.5985 L 55.3862 12.4585 Z  M 56.3262 12.7485 C 56.2362 13.0785 56.0062 13.2785 55.7062 13.4385 L 55.7662 13.5585 C 56.1662 13.3985 56.5662 12.9985 56.5662 12.4885 C 56.5662 12.3785 56.5562 12.2785 56.5162 12.1785 C 56.4262 12.0885 56.3362 12.0585 56.2562 12.0585 C 56.0962 12.0585 56.0062 12.1785 56.0062 12.3285 C 56.0062 12.4285 56.0462 12.5385 56.1662 12.6185 Z  M 57.4562 12.2585 C 57.6562 12.0485 57.8562 11.8485 57.9662 11.7285 C 58.6262 11.0385 58.8462 10.7585 58.8462 10.3785 C 58.8462 9.9285 58.5962 9.6085 58.0362 9.6085 C 57.5962 9.6085 57.2162 9.8285 57.1562 10.2685 C 57.1962 10.3485 57.2762 10.3985 57.3662 10.3985 C 57.4762 10.3985 57.5562 10.3285 57.6062 10.1285 L 57.6962 9.8085 C 57.7862 9.7885 57.8662 9.7785 57.9262 9.7785 C 58.2562 9.7785 58.4662 10.0285 58.4662 10.3985 C 58.4662 10.7585 58.2662 11.0885 57.8362 11.5785 C 57.6462 11.7985 57.4162 12.0585 57.1762 12.3285 L 57.1762 12.5985 L 58.9762 12.5985 L 58.9762 12.2585 Z  M 61.2762 12.4185 L 60.5362 11.2285 L 61.0362 10.7185 L 61.4462 10.6685 L 61.4462 10.5185 L 60.4362 10.5185 L 60.4362 10.6685 L 60.7862 10.7385 L 59.9862 11.5585 L 59.9862 10.0185 L 60.0062 9.3885 L 59.9462 9.3585 L 59.2762 9.5385 L 59.2762 9.6785 L 59.6262 9.7085 L 59.6262 11.6785 C 59.6262 11.9185 59.6262 12.1785 59.6262 12.4185 L 59.2762 12.4585 L 59.2762 12.5985 L 60.3462 12.5985 L 60.3462 12.4585 L 59.9962 12.4185 C 59.9962 12.2085 59.9862 11.9885 59.9862 11.7785 L 60.2862 11.4785 L 60.9662 12.5985 L 61.5562 12.5985 L 61.5562 12.4585 Z  M 64.3562 11.8585 L 64.2562 12.2885 L 63.6362 12.2885 L 63.6362 12.2885 C 64.0862 11.9685 64.4462 11.4985 64.4462 10.9285 C 64.4462 10.0685 63.8362 9.5985 63.1662 9.5985 C 62.4762 9.5985 61.8762 10.0685 61.8762 10.9285 C 61.8762 11.4985 62.2362 11.9685 62.6862 12.2885 L 62.6862 12.2885 L 62.0662 12.2885 L 61.9662 11.8585 L 61.7362 11.8585 L 61.7762 12.5985 L 62.9462 12.5985 L 62.9462 12.3285 C 62.5462 11.9985 62.2862 11.4785 62.2862 10.9285 C 62.2862 10.2785 62.6062 9.7885 63.1662 9.7885 C 63.7062 9.7885 64.0362 10.2785 64.0362 10.9285 C 64.0362 11.4785 63.7762 11.9985 63.3662 12.3285 L 63.3662 12.5985 L 64.5462 12.5985 L 64.5862 11.8585 Z "  stroke="none" stroke-width="1" c_note="note_name" /></g><g c_partid="part_pcbtext" c_etype="" c_origin="41.544,5.099" c_rotation="0" c_mirror="0" id="rep8" locked="0" layerid="3" c_shapetype="group" display="none"><path c_fontsize="4.5" c_fontfamily="NotoSerifCJKsc-Medium" c_text="1,2k" d="M 40.3162 4.3785 C 40.3162 4.1385 40.3162 3.9085 40.3162 3.6785 L 40.3162 2.2985 L 40.3062 1.6685 L 40.3662 1.6185 L 41.2662 1.8585 L 41.2662 2.0085 L 40.6762 1.9585 L 40.6762 3.6785 C 40.6762 3.9085 40.6862 4.1385 40.6862 4.3785 L 41.3162 4.4585 L 41.3162 4.5985 L 39.6962 4.5985 L 39.6962 4.4585 Z  M 38.7562 4.7485 C 38.8562 5.0785 39.0762 5.2785 39.3862 5.4385 L 39.3262 5.5585 C 38.9262 5.3985 38.5162 4.9985 38.5162 4.4885 C 38.5162 4.3785 38.5362 4.2785 38.5662 4.1785 C 38.6662 4.0885 38.7462 4.0585 38.8262 4.0585 C 38.9962 4.0585 39.0862 4.1785 39.0862 4.3285 C 39.0862 4.4285 39.0362 4.5385 38.9262 4.6185 Z  M 37.6362 4.2585 C 37.4262 4.0485 37.2362 3.8485 37.1162 3.7285 C 36.4562 3.0385 36.2362 2.7585 36.2362 2.3785 C 36.2362 1.9285 36.4862 1.6085 37.0562 1.6085 C 37.4862 1.6085 37.8762 1.8285 37.9362 2.2685 C 37.8862 2.3485 37.8162 2.3985 37.7162 2.3985 C 37.6062 2.3985 37.5362 2.3285 37.4762 2.1285 L 37.3962 1.8085 C 37.2962 1.7885 37.2162 1.7785 37.1562 1.7785 C 36.8262 1.7785 36.6162 2.0285 36.6162 2.3985 C 36.6162 2.7585 36.8162 3.0885 37.2462 3.5785 C 37.4362 3.7985 37.6762 4.0585 37.9162 4.3285 L 37.9162 4.5985 L 36.1162 4.5985 L 36.1162 4.2585 Z  M 33.8162 4.4185 L 34.5562 3.2285 L 34.0462 2.7185 L 33.6362 2.6685 L 33.6362 2.5185 L 34.6462 2.5185 L 34.6462 2.6685 L 34.3062 2.7385 L 35.0962 3.5585 L 35.0962 2.0185 L 35.0762 1.3885 L 35.1362 1.3585 L 35.8162 1.5385 L 35.8162 1.6785 L 35.4562 1.7085 L 35.4562 3.6785 C 35.4562 3.9185 35.4562 4.1785 35.4662 4.4185 L 35.8062 4.4585 L 35.8062 4.5985 L 34.7462 4.5985 L 34.7462 4.4585 L 35.0862 4.4185 C 35.0962 4.2085 35.0962 3.9885 35.0962 3.7785 L 34.8062 3.4785 L 34.1262 4.5985 L 33.5262 4.5985 L 33.5262 4.4585 Z  M 30.7262 3.8585 L 30.8362 4.2885 L 31.4562 4.2885 L 31.4562 4.2885 C 30.9962 3.9685 30.6462 3.4985 30.6462 2.9285 C 30.6462 2.0685 31.2462 1.5985 31.9262 1.5985 C 32.6062 1.5985 33.2062 2.0685 33.2062 2.9285 C 33.2062 3.4985 32.8462 3.9685 32.3962 4.2885 L 32.3962 4.2885 L 33.0162 4.2885 L 33.1262 3.8585 L 33.3562 3.8585 L 33.3062 4.5985 L 32.1362 4.5985 L 32.1362 4.3285 C 32.5462 3.9985 32.7962 3.4785 32.7962 2.9285 C 32.7962 2.2785 32.4762 1.7885 31.9262 1.7885 C 31.3762 1.7885 31.0562 2.2785 31.0562 2.9285 C 31.0562 3.4785 31.3062 3.9985 31.7162 4.3285 L 31.7162 4.5985 L 30.5362 4.5985 L 30.4962 3.8585 Z "  stroke="none" stroke-width="1" c_note="note_name" /></g><g c_partid="part_pcbtext" c_etype="" c_origin="-31.843,52.89" c_rotation="0" c_mirror="0" id="gge522" locked="0" layerid="3" c_shapetype="group" display="none"><path c_fontsize="4.5" c_fontfamily="" c_text="HEADER-MALE 1X4 MINIMAL" d="M -31.8412 48.3485 L -31.8412 52.6485 M -28.9812 48.3485 L -28.9812 52.6485 M -31.8412 50.3985 L -28.9812 50.3985 M -27.6312 48.3485 L -27.6312 52.6485 M -27.6312 48.3485 L -24.9712 48.3485 M -27.6312 50.3985 L -25.9912 50.3985 M -27.6312 52.6485 L -24.9712 52.6485 M -21.9812 48.3485 L -23.6212 52.6485 M -21.9812 48.3485 L -20.3512 52.6485 M -23.0112 51.2085 L -20.9612 51.2085 M -19.0012 48.3485 L -19.0012 52.6485 M -19.0012 48.3485 L -17.5612 48.3485 L -16.9512 48.5485 L -16.5412 48.9585 L -16.3412 49.3685 L -16.1312 49.9885 L -16.1312 51.0085 L -16.3412 51.6185 L -16.5412 52.0285 L -16.9512 52.4385 L -17.5612 52.6485 L -19.0012 52.6485 M -14.7812 48.3485 L -14.7812 52.6485 M -14.7812 48.3485 L -12.1212 48.3485 M -14.7812 50.3985 L -13.1512 50.3985 M -14.7812 52.6485 L -12.1212 52.6485 M -10.7712 48.3485 L -10.7712 52.6485 M -10.7712 48.3485 L -8.9312 48.3485 L -8.3212 48.5485 L -8.1112 48.7585 L -7.9112 49.1685 L -7.9112 49.5785 L -8.1112 49.9885 L -8.3212 50.1885 L -8.9312 50.3985 L -10.7712 50.3985 M -9.3412 50.3985 L -7.9112 52.6485 M -6.5612 50.7985 L -2.8812 50.7985 M -1.5312 48.3485 L -1.5312 52.6485 M -1.5312 48.3485 L 0.1088 52.6485 M 1.7388 48.3485 L 0.1088 52.6485 M 1.7388 48.3485 L 1.7388 52.6485 M 4.7288 48.3485 L 3.0888 52.6485 M 4.7288 48.3485 L 6.3688 52.6485 M 3.7088 51.2085 L 5.7488 51.2085 M 7.7188 48.3485 L 7.7188 52.6485 M 7.7188 52.6485 L 10.1688 52.6485 M 11.5188 48.3485 L 11.5188 52.6485 M 11.5188 48.3485 L 14.1788 48.3485 M 11.5188 50.3985 L 13.1588 50.3985 M 11.5188 52.6485 L 14.1788 52.6485 M 18.6788 49.1685 L 19.0888 48.9585 L 19.6988 48.3485 L 19.6988 52.6485 M 21.0488 48.3485 L 23.9188 52.6485 M 23.9188 48.3485 L 21.0488 52.6485 M 27.3088 48.3485 L 25.2688 51.2085 L 28.3388 51.2085 M 27.3088 48.3485 L 27.3088 52.6485 M 32.8388 48.3485 L 32.8388 52.6485 M 32.8388 48.3485 L 34.4688 52.6485 M 36.1088 48.3485 L 34.4688 52.6485 M 36.1088 48.3485 L 36.1088 52.6485 M 37.4588 48.3485 L 37.4588 52.6485 M 38.8088 48.3485 L 38.8088 52.6485 M 38.8088 48.3485 L 41.6688 52.6485 M 41.6688 48.3485 L 41.6688 52.6485 M 43.0188 48.3485 L 43.0188 52.6485 M 44.3688 48.3485 L 44.3688 52.6485 M 44.3688 48.3485 L 46.0088 52.6485 M 47.6388 48.3485 L 46.0088 52.6485 M 47.6388 48.3485 L 47.6388 52.6485 M 50.6288 48.3485 L 48.9888 52.6485 M 50.6288 48.3485 L 52.2688 52.6485 M 49.6088 51.2085 L 51.6488 51.2085 M 53.6188 48.3485 L 53.6188 52.6485 M 53.6188 52.6485 L 56.0688 52.6485" fill="none"  stroke-width="0.6" c_note="note_name" /></g><g c_partid="part_pcbtext" c_etype="" c_origin="56.067,41.1" c_rotation="180" c_mirror="0" id="gge524" locked="0" layerid="3" c_shapetype="group" display="none"><path c_fontsize="4.5" c_fontfamily="" c_text="H2" d="M 56.0648 45.6405 L 56.0648 41.3405 M 53.2048 45.6405 L 53.2048 41.3405 M 56.0648 43.5905 L 53.2048 43.5905 M 51.6448 44.6205 L 51.6448 44.8205 L 51.4448 45.2305 L 51.2348 45.4405 L 50.8348 45.6405 L 50.0148 45.6405 L 49.6048 45.4405 L 49.3948 45.2305 L 49.1948 44.8205 L 49.1948 44.4105 L 49.3948 44.0005 L 49.8048 43.3905 L 51.8548 41.3405 L 48.9848 41.3405" fill="none"  stroke-width="0.6" c_note="note_pre" /></g><g c_partid="part_pcbtext" c_etype="" c_origin="5.067,-2.901" c_rotation="0" c_mirror="0" id="gge497" locked="0" layerid="3" c_shapetype="group" display="none"><path c_fontsize="4.5" c_fontfamily="" c_text="HEADER-MALE 1X4 MINIMAL" d="M 5.0688 -7.4415 L 5.0688 -3.1515 M 7.9288 -7.4415 L 7.9288 -3.1515 M 5.0688 -5.4015 L 7.9288 -5.4015 M 9.2788 -7.4415 L 9.2788 -3.1515 M 9.2788 -7.4415 L 11.9388 -7.4415 M 9.2788 -5.4015 L 10.9188 -5.4015 M 9.2788 -3.1515 L 11.9388 -3.1515 M 14.9288 -7.4415 L 13.2888 -3.1515 M 14.9288 -7.4415 L 16.5588 -3.1515 M 13.8988 -4.5815 L 15.9488 -4.5815 M 17.9088 -7.4415 L 17.9088 -3.1515 M 17.9088 -7.4415 L 19.3488 -7.4415 L 19.9588 -7.2415 L 20.3688 -6.8315 L 20.5688 -6.4215 L 20.7788 -5.8015 L 20.7788 -4.7815 L 20.5688 -4.1715 L 20.3688 -3.7615 L 19.9588 -3.3515 L 19.3488 -3.1515 L 17.9088 -3.1515 M 22.1288 -7.4415 L 22.1288 -3.1515 M 22.1288 -7.4415 L 24.7888 -7.4415 M 22.1288 -5.4015 L 23.7588 -5.4015 M 22.1288 -3.1515 L 24.7888 -3.1515 M 26.1388 -7.4415 L 26.1388 -3.1515 M 26.1388 -7.4415 L 27.9788 -7.4415 L 28.5888 -7.2415 L 28.7988 -7.0315 L 28.9988 -6.6215 L 28.9988 -6.2115 L 28.7988 -5.8015 L 28.5888 -5.6015 L 27.9788 -5.4015 L 26.1388 -5.4015 M 27.5688 -5.4015 L 28.9988 -3.1515 M 30.3488 -4.9915 L 34.0288 -4.9915 M 35.3788 -7.4415 L 35.3788 -3.1515 M 35.3788 -7.4415 L 37.0188 -3.1515 M 38.6488 -7.4415 L 37.0188 -3.1515 M 38.6488 -7.4415 L 38.6488 -3.1515 M 41.6388 -7.4415 L 39.9988 -3.1515 M 41.6388 -7.4415 L 43.2788 -3.1515 M 40.6188 -4.5815 L 42.6588 -4.5815 M 44.6288 -7.4415 L 44.6288 -3.1515 M 44.6288 -3.1515 L 47.0788 -3.1515 M 48.4288 -7.4415 L 48.4288 -3.1515 M 48.4288 -7.4415 L 51.0888 -7.4415 M 48.4288 -5.4015 L 50.0688 -5.4015 M 48.4288 -3.1515 L 51.0888 -3.1515 M 55.5888 -6.6215 L 55.9988 -6.8315 L 56.6088 -7.4415 L 56.6088 -3.1515 M 57.9588 -7.4415 L 60.8288 -3.1515 M 60.8288 -7.4415 L 57.9588 -3.1515 M 64.2188 -7.4415 L 62.1788 -4.5815 L 65.2488 -4.5815 M 64.2188 -7.4415 L 64.2188 -3.1515 M 69.7488 -7.4415 L 69.7488 -3.1515 M 69.7488 -7.4415 L 71.3788 -3.1515 M 73.0188 -7.4415 L 71.3788 -3.1515 M 73.0188 -7.4415 L 73.0188 -3.1515 M 74.3688 -7.4415 L 74.3688 -3.1515 M 75.7188 -7.4415 L 75.7188 -3.1515 M 75.7188 -7.4415 L 78.5788 -3.1515 M 78.5788 -7.4415 L 78.5788 -3.1515 M 79.9288 -7.4415 L 79.9288 -3.1515 M 81.2788 -7.4415 L 81.2788 -3.1515 M 81.2788 -7.4415 L 82.9188 -3.1515 M 84.5488 -7.4415 L 82.9188 -3.1515 M 84.5488 -7.4415 L 84.5488 -3.1515 M 87.5388 -7.4415 L 85.8988 -3.1515 M 87.5388 -7.4415 L 89.1788 -3.1515 M 86.5188 -4.5815 L 88.5588 -4.5815 M 90.5288 -7.4415 L 90.5288 -3.1515 M 90.5288 -3.1515 L 92.9788 -3.1515" fill="none"  stroke-width="0.6" c_note="note_name" /></g><g c_partid="part_pcbtext" c_etype="" c_origin="5.067,4.099" c_rotation="0" c_mirror="0" id="gge499" locked="0" layerid="3" c_shapetype="group" display="none"><path c_fontsize="4.5" c_fontfamily="" c_text="H1" d="M 5.0688 -0.4415 L 5.0688 3.8485 M 7.9288 -0.4415 L 7.9288 3.8485 M 5.0688 1.5985 L 7.9288 1.5985 M 9.2788 0.3785 L 9.6888 0.1685 L 10.2988 -0.4415 L 10.2988 3.8485" fill="none"  stroke-width="0.6" c_note="note_pre" /></g><g c_partid="part_pcbtext" c_etype="" c_origin="6.449,29.845" c_rotation="90" c_mirror="0" id="gge1050" locked="0" layerid="3" c_shapetype="group" display="none"><path c_fontsize="4.5" c_fontfamily="" c_text="22pF" d="M 2.9288 29.645 L 2.7288 29.645 L 2.3188 29.435 L 2.1088 29.235 L 1.9088 28.825 L 1.9088 28.005 L 2.1088 27.595 L 2.3188 27.395 L 2.7288 27.185 L 3.1388 27.185 L 3.5488 27.395 L 4.1588 27.795 L 6.1988 29.845 L 6.1988 26.985 M 2.9288 25.425 L 2.7288 25.425 L 2.3188 25.225 L 2.1088 25.015 L 1.9088 24.605 L 1.9088 23.795 L 2.1088 23.385 L 2.3188 23.175 L 2.7288 22.975 L 3.1388 22.975 L 3.5488 23.175 L 4.1588 23.585 L 6.1988 25.635 L 6.1988 22.765 M 3.3388 21.415 L 7.6388 21.415 M 3.9488 21.415 L 3.5488 21.005 L 3.3388 20.595 L 3.3388 19.985 L 3.5488 19.575 L 3.9488 19.165 L 4.5688 18.965 L 4.9788 18.965 L 5.5888 19.165 L 5.9988 19.575 L 6.1988 19.985 L 6.1988 20.595 L 5.9988 21.005 L 5.5888 21.415 M 1.9088 17.615 L 6.1988 17.615 M 1.9088 17.615 L 1.9088 14.955 M 3.9488 17.615 L 3.9488 15.975" fill="none"  stroke-width="0.6" c_note="note_name" /></g><g c_partid="part_pcbtext" c_etype="" c_origin="13.449,29.846" c_rotation="90" c_mirror="0" id="gge1052" locked="0" layerid="3" c_shapetype="group" display="none"><path c_fontsize="4.5" c_fontfamily="" c_text="C1" d="M 9.9288 26.775 L 9.5188 26.985 L 9.1088 27.395 L 8.9088 27.795 L 8.9088 28.615 L 9.1088 29.025 L 9.5188 29.435 L 9.9288 29.645 L 10.5488 29.845 L 11.5688 29.845 L 12.1788 29.645 L 12.5888 29.435 L 12.9988 29.025 L 13.1988 28.615 L 13.1988 27.795 L 12.9988 27.395 L 12.5888 26.985 L 12.1788 26.775 M 9.7288 25.425 L 9.5188 25.015 L 8.9088 24.405 L 13.1988 24.405" fill="none"  stroke-width="0.6" c_note="note_pre" /></g><g c_partid="part_pcbtext" c_etype="" c_origin="28.159,32.747" c_rotation="0" c_mirror="0" id="rep12" locked="0" layerid="3" c_shapetype="group" display="none"><path c_fontsize="4.5" c_fontfamily="NotoSerifCJKsc-Medium" c_text="1,2k" d="M 29.3788 32.3959 C 29.3688 32.1559 29.3688 31.9259 29.3688 31.6959 L 29.3688 30.3159 L 29.3888 29.6859 L 29.3288 29.6359 L 28.4288 29.8759 L 28.4288 30.0259 L 29.0088 29.9759 L 29.0088 31.6959 C 29.0088 31.9259 29.0088 32.1559 28.9988 32.3959 L 28.3788 32.4759 L 28.3788 32.6159 L 29.9888 32.6159 L 29.9888 32.4759 Z  M 30.9288 32.7659 C 30.8388 33.0959 30.6088 33.2959 30.3088 33.4559 L 30.3688 33.5759 C 30.7688 33.4159 31.1688 33.0159 31.1688 32.5059 C 31.1688 32.3959 31.1588 32.2959 31.1188 32.1959 C 31.0288 32.1059 30.9388 32.0759 30.8588 32.0759 C 30.6988 32.0759 30.6088 32.1959 30.6088 32.3459 C 30.6088 32.4459 30.6488 32.5559 30.7688 32.6359 Z  M 32.0588 32.2759 C 32.2588 32.0659 32.4588 31.8659 32.5688 31.7459 C 33.2288 31.0559 33.4488 30.7759 33.4488 30.3959 C 33.4488 29.9459 33.1988 29.6259 32.6388 29.6259 C 32.1988 29.6259 31.8188 29.8459 31.7588 30.2859 C 31.7988 30.3659 31.8788 30.4159 31.9688 30.4159 C 32.0788 30.4159 32.1588 30.3459 32.2088 30.1459 L 32.2988 29.8259 C 32.3888 29.8059 32.4688 29.7959 32.5288 29.7959 C 32.8588 29.7959 33.0688 30.0459 33.0688 30.4159 C 33.0688 30.7759 32.8688 31.1059 32.4388 31.5959 C 32.2488 31.8159 32.0188 32.0759 31.7788 32.3459 L 31.7788 32.6159 L 33.5788 32.6159 L 33.5788 32.2759 Z  M 35.8788 32.4359 L 35.1388 31.2459 L 35.6388 30.7359 L 36.0488 30.6859 L 36.0488 30.5359 L 35.0388 30.5359 L 35.0388 30.6859 L 35.3888 30.7559 L 34.5888 31.5759 L 34.5888 30.0359 L 34.6088 29.4059 L 34.5488 29.3759 L 33.8788 29.5559 L 33.8788 29.6959 L 34.2288 29.7259 L 34.2288 31.6959 C 34.2288 31.9359 34.2288 32.1959 34.2288 32.4359 L 33.8788 32.4759 L 33.8788 32.6159 L 34.9488 32.6159 L 34.9488 32.4759 L 34.5988 32.4359 C 34.5988 32.2259 34.5888 32.0059 34.5888 31.7959 L 34.8888 31.4959 L 35.5688 32.6159 L 36.1588 32.6159 L 36.1588 32.4759 Z  M 38.9588 31.8759 L 38.8588 32.3059 L 38.2388 32.3059 L 38.2388 32.3059 C 38.6888 31.9859 39.0488 31.5159 39.0488 30.9459 C 39.0488 30.0859 38.4388 29.6159 37.7688 29.6159 C 37.0788 29.6159 36.4788 30.0859 36.4788 30.9459 C 36.4788 31.5159 36.8388 31.9859 37.2888 32.3059 L 37.2888 32.3059 L 36.6688 32.3059 L 36.5688 31.8759 L 36.3388 31.8759 L 36.3788 32.6159 L 37.5488 32.6159 L 37.5488 32.3459 C 37.1488 32.0159 36.8888 31.4959 36.8888 30.9459 C 36.8888 30.2959 37.2088 29.8059 37.7688 29.8059 C 38.3088 29.8059 38.6388 30.2959 38.6388 30.9459 C 38.6388 31.4959 38.3788 32.0159 37.9688 32.3459 L 37.9688 32.6159 L 39.1488 32.6159 L 39.1888 31.8759 Z "  stroke="none" stroke-width="1" c_note="note_name" /></g><g c_partid="part_pcbtext" c_etype="" c_origin="39.439,18.206" c_rotation="180" c_mirror="0" id="gge948" locked="0" layerid="3" c_shapetype="group" display="none"><path c_fontsize="4.5" c_fontfamily="" c_text="R1" d="M 39.4388 22.7459 L 39.4388 18.4559 M 39.4388 22.7459 L 37.5988 22.7459 L 36.9888 22.5459 L 36.7788 22.3359 L 36.5788 21.9259 L 36.5788 21.5159 L 36.7788 21.1059 L 36.9888 20.9059 L 37.5988 20.7059 L 39.4388 20.7059 M 38.0088 20.7059 L 36.5788 18.4559 M 35.2288 21.9259 L 34.8188 22.1359 L 34.1988 22.7459 L 34.1988 18.4559" fill="none"  stroke-width="0.6" c_note="note_pre" /></g><g c_partid="part_pcbtext" c_etype="" c_origin="52.944,23.971" c_rotation="0" c_mirror="0" id="rep10" locked="0" layerid="3" c_shapetype="group" display="none"><path c_fontsize="4.5" c_fontfamily="" c_text="1,2k" d="M 54.2738 23.7509 C 54.2638 23.5109 54.2638 23.2809 54.2638 23.0509 L 54.2638 21.6709 L 54.2838 21.0409 L 54.2238 20.9909 L 53.3238 21.2309 L 53.3238 21.3809 L 53.9038 21.3309 L 53.9038 23.0509 C 53.9038 23.2809 53.9038 23.5109 53.8938 23.7509 L 53.2738 23.8309 L 53.2738 23.9709 L 54.8838 23.9709 L 54.8838 23.8309 Z  M 55.8238 24.1209 C 55.7338 24.4509 55.5038 24.6509 55.2038 24.8109 L 55.2638 24.9309 C 55.6638 24.7709 56.0638 24.3709 56.0638 23.8609 C 56.0638 23.7509 56.0538 23.6509 56.0138 23.5509 C 55.9238 23.4609 55.8338 23.4309 55.7538 23.4309 C 55.5938 23.4309 55.5038 23.5509 55.5038 23.7009 C 55.5038 23.8009 55.5438 23.9109 55.6638 23.9909 Z  M 56.9538 23.6309 C 57.1538 23.4209 57.3538 23.2209 57.4638 23.1009 C 58.1238 22.4109 58.3438 22.1309 58.3438 21.7509 C 58.3438 21.3009 58.0938 20.9809 57.5338 20.9809 C 57.0938 20.9809 56.7138 21.2009 56.6538 21.6409 C 56.6938 21.7209 56.7738 21.7709 56.8638 21.7709 C 56.9738 21.7709 57.0538 21.7009 57.1038 21.5009 L 57.1938 21.1809 C 57.2838 21.1609 57.3638 21.1509 57.4238 21.1509 C 57.7538 21.1509 57.9638 21.4009 57.9638 21.7709 C 57.9638 22.1309 57.7638 22.4609 57.3338 22.9509 C 57.1438 23.1709 56.9138 23.4309 56.6738 23.7009 L 56.6738 23.9709 L 58.4738 23.9709 L 58.4738 23.6309 Z  M 60.7738 23.7909 L 60.0338 22.6009 L 60.5338 22.0909 L 60.9438 22.0409 L 60.9438 21.8909 L 59.9338 21.8909 L 59.9338 22.0409 L 60.2838 22.1109 L 59.4838 22.9309 L 59.4838 21.3909 L 59.5038 20.7609 L 59.4438 20.7309 L 58.7738 20.9109 L 58.7738 21.0509 L 59.1238 21.0809 L 59.1238 23.0509 C 59.1238 23.2909 59.1238 23.5509 59.1238 23.7909 L 58.7738 23.8309 L 58.7738 23.9709 L 59.8438 23.9709 L 59.8438 23.8309 L 59.4938 23.7909 C 59.4938 23.5809 59.4838 23.3609 59.4838 23.1509 L 59.7838 22.8509 L 60.4638 23.9709 L 61.0538 23.9709 L 61.0538 23.8309 Z  M 63.8538 23.2309 L 63.7538 23.6609 L 63.1338 23.6609 L 63.1338 23.6609 C 63.5838 23.3409 63.9438 22.8709 63.9438 22.3009 C 63.9438 21.4409 63.3338 20.9709 62.6638 20.9709 C 61.9738 20.9709 61.3738 21.4409 61.3738 22.3009 C 61.3738 22.8709 61.7338 23.3409 62.1838 23.6609 L 62.1838 23.6609 L 61.5638 23.6609 L 61.4638 23.2309 L 61.2338 23.2309 L 61.2738 23.9709 L 62.4438 23.9709 L 62.4438 23.7009 C 62.0438 23.3709 61.7838 22.8509 61.7838 22.3009 C 61.7838 21.6509 62.1038 21.1609 62.6638 21.1609 C 63.2038 21.1609 63.5338 21.6509 63.5338 22.3009 C 63.5338 22.8509 63.2738 23.3709 62.8638 23.7009 L 62.8638 23.9709 L 64.0438 23.9709 L 64.0838 23.2309 Z "  stroke="none" stroke-width="0.6" c_note="note_name" /></g><g c_partid="part_pcbtext" c_etype="" c_origin="17.449,20.842" c_rotation="90" c_mirror="0" id="gge1067" locked="0" layerid="3" c_shapetype="group" display="none"><path c_fontsize="4.5" c_fontfamily="" c_text="22pF" d="M 13.9288 20.642 L 13.7288 20.642 L 13.3188 20.432 L 13.1088 20.232 L 12.9088 19.822 L 12.9088 19.002 L 13.1088 18.592 L 13.3188 18.392 L 13.7288 18.182 L 14.1388 18.182 L 14.5488 18.392 L 15.1588 18.792 L 17.1988 20.842 L 17.1988 17.982 M 13.9288 16.422 L 13.7288 16.422 L 13.3188 16.222 L 13.1088 16.012 L 12.9088 15.602 L 12.9088 14.792 L 13.1088 14.382 L 13.3188 14.172 L 13.7288 13.972 L 14.1388 13.972 L 14.5488 14.172 L 15.1588 14.582 L 17.1988 16.632 L 17.1988 13.762 M 14.3388 12.412 L 18.6388 12.412 M 14.9488 12.412 L 14.5488 12.002 L 14.3388 11.592 L 14.3388 10.982 L 14.5488 10.572 L 14.9488 10.162 L 15.5688 9.962 L 15.9788 9.962 L 16.5888 10.162 L 16.9988 10.572 L 17.1988 10.982 L 17.1988 11.592 L 16.9988 12.002 L 16.5888 12.412 M 12.9088 8.612 L 17.1988 8.612 M 12.9088 8.612 L 12.9088 5.952 M 14.9488 8.612 L 14.9488 6.972" fill="none"  stroke-width="0.6" c_note="note_name" /></g><g c_partid="part_pcbtext" c_etype="" c_origin="24.449,20.842" c_rotation="90" c_mirror="0" id="gge1069" locked="0" layerid="3" c_shapetype="group" display="none"><path c_fontsize="4.5" c_fontfamily="" c_text="C4" d="M 20.9288 17.772 L 20.5188 17.982 L 20.1088 18.392 L 19.9088 18.792 L 19.9088 19.612 L 20.1088 20.022 L 20.5188 20.432 L 20.9288 20.642 L 21.5488 20.842 L 22.5688 20.842 L 23.1788 20.642 L 23.5888 20.432 L 23.9988 20.022 L 24.1988 19.612 L 24.1988 18.792 L 23.9988 18.392 L 23.5888 17.982 L 23.1788 17.772 M 19.9088 14.382 L 22.7688 16.422 L 22.7688 13.352 M 19.9088 14.382 L 24.1988 14.382" fill="none"  stroke-width="0.6" c_note="note_pre" /></g><g c_partid="part_pcbtext" c_etype="" c_origin="60.739,69.579" c_rotation="90" c_mirror="0" id="gge647" locked="0" layerid="3" c_shapetype="group" display="none"><path c_fontsize="4.5" c_fontfamily="" c_text="BM8563ESA" d="M 56.1988 69.5785 L 60.4888 69.5785 M 56.1988 69.5785 L 56.1988 67.7385 L 56.3988 67.1285 L 56.6088 66.9185 L 57.0188 66.7185 L 57.4288 66.7185 L 57.8388 66.9185 L 58.0388 67.1285 L 58.2388 67.7385 M 58.2388 69.5785 L 58.2388 67.7385 L 58.4488 67.1285 L 58.6488 66.9185 L 59.0588 66.7185 L 59.6788 66.7185 L 60.0888 66.9185 L 60.2888 67.1285 L 60.4888 67.7385 L 60.4888 69.5785 M 56.1988 65.3685 L 60.4888 65.3685 M 56.1988 65.3685 L 60.4888 63.7285 M 56.1988 62.0885 L 60.4888 63.7285 M 56.1988 62.0885 L 60.4888 62.0885 M 56.1988 59.7185 L 56.3988 60.3285 L 56.8088 60.5385 L 57.2188 60.5385 L 57.6288 60.3285 L 57.8388 59.9285 L 58.0388 59.1085 L 58.2388 58.4885 L 58.6488 58.0785 L 59.0588 57.8785 L 59.6788 57.8785 L 60.0888 58.0785 L 60.2888 58.2885 L 60.4888 58.8985 L 60.4888 59.7185 L 60.2888 60.3285 L 60.0888 60.5385 L 59.6788 60.7385 L 59.0588 60.7385 L 58.6488 60.5385 L 58.2388 60.1285 L 58.0388 59.5185 L 57.8388 58.6985 L 57.6288 58.2885 L 57.2188 58.0785 L 56.8088 58.0785 L 56.3988 58.2885 L 56.1988 58.8985 L 56.1988 59.7185 M 56.1988 54.0785 L 56.1988 56.1185 L 58.0388 56.3285 L 57.8388 56.1185 L 57.6288 55.5085 L 57.6288 54.8885 L 57.8388 54.2785 L 58.2388 53.8685 L 58.8588 53.6685 L 59.2688 53.6685 L 59.8788 53.8685 L 60.2888 54.2785 L 60.4888 54.8885 L 60.4888 55.5085 L 60.2888 56.1185 L 60.0888 56.3285 L 59.6788 56.5285 M 56.8088 49.8585 L 56.3988 50.0685 L 56.1988 50.6785 L 56.1988 51.0885 L 56.3988 51.6985 L 57.0188 52.1085 L 58.0388 52.3185 L 59.0588 52.3185 L 59.8788 52.1085 L 60.2888 51.6985 L 60.4888 51.0885 L 60.4888 50.8785 L 60.2888 50.2685 L 59.8788 49.8585 L 59.2688 49.6585 L 59.0588 49.6585 L 58.4488 49.8585 L 58.0388 50.2685 L 57.8388 50.8785 L 57.8388 51.0885 L 58.0388 51.6985 L 58.4488 52.1085 L 59.0588 52.3185 M 56.1988 47.8985 L 56.1988 45.6485 L 57.8388 46.8785 L 57.8388 46.2585 L 58.0388 45.8485 L 58.2388 45.6485 L 58.8588 45.4385 L 59.2688 45.4385 L 59.8788 45.6485 L 60.2888 46.0585 L 60.4888 46.6685 L 60.4888 47.2785 L 60.2888 47.8985 L 60.0888 48.0985 L 59.6788 48.3085 M 56.1988 44.0885 L 60.4888 44.0885 M 56.1988 44.0885 L 56.1988 41.4285 M 58.2388 44.0885 L 58.2388 42.4585 M 60.4888 44.0885 L 60.4888 41.4285 M 56.8088 37.2185 L 56.3988 37.6285 L 56.1988 38.2385 L 56.1988 39.0585 L 56.3988 39.6785 L 56.8088 40.0785 L 57.2188 40.0785 L 57.6288 39.8785 L 57.8388 39.6785 L 58.0388 39.2685 L 58.4488 38.0385 L 58.6488 37.6285 L 58.8588 37.4285 L 59.2688 37.2185 L 59.8788 37.2185 L 60.2888 37.6285 L 60.4888 38.2385 L 60.4888 39.0585 L 60.2888 39.6785 L 59.8788 40.0785 M 56.1988 34.2285 L 60.4888 35.8685 M 56.1988 34.2285 L 60.4888 32.5985 M 59.0588 35.2585 L 59.0588 33.2085" fill="none"  stroke-width="0.6" c_note="note_name" /></g><g c_partid="part_pcbtext" c_etype="" c_origin="48.949,32.599" c_rotation="270" c_mirror="0" id="gge649" locked="0" layerid="3" c_shapetype="group" display="none"><path c_fontsize="4.5" c_fontfamily="" c_text="U1" d="M 53.4888 32.5985 L 50.4188 32.5985 L 49.8088 32.7985 L 49.3988 33.2085 L 49.1988 33.8285 L 49.1988 34.2385 L 49.3988 34.8485 L 49.8088 35.2585 L 50.4188 35.4585 L 53.4888 35.4585 M 52.6688 36.8085 L 52.8788 37.2185 L 53.4888 37.8385 L 49.1988 37.8385" fill="none"  stroke-width="0.6" c_note="note_pre" /></g><g c_partid="part_pcbtext" c_etype="" c_origin="45.739,18.901" c_rotation="90" c_mirror="0" id="gge624" locked="0" layerid="3" c_shapetype="group" display="none"><path c_fontsize="4.5" c_fontfamily="" c_text="32.768KHz" d="M 41.1993 18.49 L 41.1993 16.24 L 42.8393 17.47 L 42.8393 16.86 L 43.0393 16.45 L 43.2393 16.24 L 43.8593 16.04 L 44.2693 16.04 L 44.8793 16.24 L 45.2893 16.65 L 45.4893 17.26 L 45.4893 17.88 L 45.2893 18.49 L 45.0893 18.7 L 44.6793 18.9 M 42.2193 14.48 L 42.0193 14.48 L 41.6093 14.28 L 41.3993 14.07 L 41.1993 13.66 L 41.1993 12.85 L 41.3993 12.44 L 41.6093 12.23 L 42.0193 12.03 L 42.4293 12.03 L 42.8393 12.23 L 43.4493 12.64 L 45.4893 14.69 L 45.4893 11.82 M 44.4693 10.27 L 44.6793 10.47 L 44.8793 10.27 L 44.6793 10.06 L 44.4693 10.27 M 41.1993 5.85 L 45.4893 7.9 M 41.1993 8.71 L 41.1993 5.85 M 41.8093 2.05 L 41.3993 2.25 L 41.1993 2.86 L 41.1993 3.27 L 41.3993 3.89 L 42.0193 4.3 L 43.0393 4.5 L 44.0593 4.5 L 44.8793 4.3 L 45.2893 3.89 L 45.4893 3.27 L 45.4893 3.07 L 45.2893 2.46 L 44.8793 2.05 L 44.2693 1.84 L 44.0593 1.84 L 43.4493 2.05 L 43.0393 2.46 L 42.8393 3.07 L 42.8393 3.27 L 43.0393 3.89 L 43.4493 4.3 L 44.0593 4.5 M 41.1993 -0.53 L 41.3993 0.08 L 41.8093 0.29 L 42.2193 0.29 L 42.6293 0.08 L 42.8393 -0.33 L 43.0393 -1.14 L 43.2393 -1.76 L 43.6493 -2.17 L 44.0593 -2.37 L 44.6793 -2.37 L 45.0893 -2.17 L 45.2893 -1.96 L 45.4893 -1.35 L 45.4893 -0.53 L 45.2893 0.08 L 45.0893 0.29 L 44.6793 0.49 L 44.0593 0.49 L 43.6493 0.29 L 43.2393 -0.12 L 43.0393 -0.74 L 42.8393 -1.55 L 42.6293 -1.96 L 42.2193 -2.17 L 41.8093 -2.17 L 41.3993 -1.96 L 41.1993 -1.35 L 41.1993 -0.53 M 41.1993 -3.72 L 45.4893 -3.72 M 41.1993 -6.59 L 44.0593 -3.72 M 43.0393 -4.74 L 45.4893 -6.59 M 41.1993 -7.94 L 45.4893 -7.94 M 41.1993 -10.8 L 45.4893 -10.8 M 43.2393 -7.94 L 43.2393 -10.8 M 42.6293 -14.4 L 45.4893 -12.15 M 42.6293 -12.15 L 42.6293 -14.4 M 45.4893 -12.15 L 45.4893 -14.4" fill="none"  stroke-width="0.6" c_note="note_name" /></g><g c_partid="part_pcbtext" c_etype="" c_origin="33.95,-14.4" c_rotation="270" c_mirror="0" id="gge626" locked="0" layerid="3" c_shapetype="group" display="none"><path c_fontsize="4.5" c_fontfamily="" c_text="X1" d="M 38.4893 -14.4 L 34.1993 -11.54 M 38.4893 -11.54 L 34.1993 -14.4 M 37.6693 -10.19 L 37.8793 -9.78 L 38.4893 -9.16 L 34.1993 -9.16" fill="none"  stroke-width="0.6" c_note="note_pre" /></g><path d="M 12.9959 16.1442 A 0.7874 0.7874 0 0 1 12.2085 15.3568" locked="0"  fill="none" stroke-width="1" c_helper_type="arc2" net="" layerid="3" id="gge8704" /><path d="M 17.7204 16.1442 A 0.7875 0.7875 0 0 0 18.5079 15.3567" locked="0"  fill="none" stroke-width="1" c_helper_type="arc2" net="" layerid="3" id="gge8705" /><path d="M 12.9959 3.152 A 0.7874 0.7874 0 0 0 12.2085 3.9394" locked="0"  fill="none" stroke-width="1" c_helper_type="arc2" net="" layerid="3" id="gge8706" /><path d="M 17.7204 3.152 A 0.7875 0.7875 0 0 1 18.5079 3.9395" locked="0"  fill="none" stroke-width="1" c_helper_type="arc2" net="" layerid="3" id="gge8707" /><path d="M 36.8219 3.1509 A 0.7874 0.7874 0 0 1 37.6093 2.3635" locked="0"  fill="none" stroke-width="1" c_helper_type="arc2" net="" layerid="3" id="gge8735" /><path d="M 36.8219 7.8754 A 0.7875 0.7875 0 0 0 37.6094 8.6629" locked="0"  fill="none" stroke-width="1" c_helper_type="arc2" net="" layerid="3" id="gge8736" /><path d="M 49.8141 3.1509 A 0.7874 0.7874 0 0 0 49.0267 2.3635" locked="0"  fill="none" stroke-width="1" c_helper_type="arc2" net="" layerid="3" id="gge8737" /><path d="M 49.8141 7.8754 A 0.7875 0.7875 0 0 1 49.0266 8.6629" locked="0"  fill="none" stroke-width="1" c_helper_type="arc2" net="" layerid="3" id="gge8738" /><path d="M 13.0865 31.0946 A 0.7874 0.7874 0 0 1 12.2991 30.3072" locked="0"  fill="none" stroke-width="1" c_helper_type="arc2" net="" layerid="3" id="gge5553" /><path d="M 17.811 31.0946 A 0.7875 0.7875 0 0 0 18.5985 30.3071" locked="0"  fill="none" stroke-width="1" c_helper_type="arc2" net="" layerid="3" id="gge5554" /><path d="M 13.0865 18.1024 A 0.7874 0.7874 0 0 0 12.2991 18.8898" locked="0"  fill="none" stroke-width="1" c_helper_type="arc2" net="" layerid="3" id="gge5555" /><path d="M 17.811 18.1024 A 0.7875 0.7875 0 0 1 18.5985 18.8899" locked="0"  fill="none" stroke-width="1" c_helper_type="arc2" net="" layerid="3" id="gge5556" /><path d="M 24.0865 22.0946 A 0.7874 0.7874 0 0 1 23.2991 21.3072" locked="0"  fill="none" stroke-width="1" c_helper_type="arc2" net="" layerid="3" id="gge5584" /><path d="M 28.811 22.0946 A 0.7875 0.7875 0 0 0 29.5985 21.3071" locked="0"  fill="none" stroke-width="1" c_helper_type="arc2" net="" layerid="3" id="gge5585" /><path d="M 24.0865 9.1024 A 0.7874 0.7874 0 0 0 23.2991 9.8898" locked="0"  fill="none" stroke-width="1" c_helper_type="arc2" net="" layerid="3" id="gge5586" /><path d="M 28.811 9.1024 A 0.7875 0.7875 0 0 1 29.5985 9.8899" locked="0"  fill="none" stroke-width="1" c_helper_type="arc2" net="" layerid="3" id="gge5587" /><path d="M 32.9488 23.5985 A 2.0016 2.0016 0 1 0 36.9488 23.756" locked="0"  fill="none" stroke-width="1" c_helper_type="arc2" net="" layerid="3" id="gge2893" /><polyline points="-1.9685 -1.5748 62.9921 -1.5748 62.9921 46.4567 -1.9685 46.4567 -1.9685 -1.5748" stroke-width="1"  stroke-linecap="round" fill="none" layerid="10" net="" id="gge8364" locked="1" /><path d="M 55.5688 -12.4015 L 5.5688 -12.4015 M 49.5688 -13.9015 L 55.5688 -12.4015 L 49.5688 -10.9015 M 11.5688 -13.9015 L 5.5688 -12.4015 L 11.5688 -10.9015 M -4.2512 -27.1715 L -3.3412 -27.6315 L -1.9812 -28.9915 L -1.9812 -19.4515 M 1.4788 -26.7215 L 1.4788 -27.1715 L 1.9288 -28.0815 L 2.3888 -28.5415 L 3.2988 -28.9915 L 5.1188 -28.9915 L 6.0188 -28.5415 L 6.4788 -28.0815 L 6.9288 -27.1715 L 6.9288 -26.2615 L 6.4788 -25.3515 L 5.5688 -23.9915 L 1.0188 -19.4515 L 7.3888 -19.4515 M 10.8388 -21.7215 L 10.3888 -21.2615 L 10.8388 -20.8115 L 11.2988 -21.2615 L 10.8388 -21.7215 M 20.6588 -28.9915 L 16.1188 -19.4515 M 14.2988 -28.9915 L 20.6588 -28.9915 M 26.3888 -28.9915 L 25.0188 -28.5415 L 24.1188 -27.1715 L 23.6588 -24.9015 L 23.6588 -23.5415 L 24.1188 -21.2615 L 25.0188 -19.9015 L 26.3888 -19.4515 L 27.2988 -19.4515 L 28.6588 -19.9015 L 29.5688 -21.2615 L 30.0188 -23.5415 L 30.0188 -24.9015 L 29.5688 -27.1715 L 28.6588 -28.5415 L 27.2988 -28.9915 L 26.3888 -28.9915 M 35.7488 -28.9915 L 34.3888 -28.5415 L 33.4788 -27.1715 L 33.0188 -24.9015 L 33.0188 -23.5415 L 33.4788 -21.2615 L 34.3888 -19.9015 L 35.7488 -19.4515 L 36.6588 -19.4515 L 38.0188 -19.9015 L 38.9288 -21.2615 L 39.3888 -23.5415 L 39.3888 -24.9015 L 38.9288 -27.1715 L 38.0188 -28.5415 L 36.6588 -28.9915 L 35.7488 -28.9915 M 42.3888 -25.8115 L 42.3888 -19.4515 M 42.3888 -23.9915 L 43.7488 -25.3515 L 44.6588 -25.8115 L 46.0188 -25.8115 L 46.9288 -25.3515 L 47.3888 -23.9915 L 47.3888 -19.4515 M 47.3888 -23.9915 L 48.7488 -25.3515 L 49.6588 -25.8115 L 51.0188 -25.8115 L 51.9288 -25.3515 L 52.3888 -23.9915 L 52.3888 -19.4515 M 55.3888 -25.8115 L 55.3888 -19.4515 M 55.3888 -23.9915 L 56.7488 -25.3515 L 57.6588 -25.8115 L 59.0188 -25.8115 L 59.9288 -25.3515 L 60.3888 -23.9915 L 60.3888 -19.4515 M 60.3888 -23.9915 L 61.7488 -25.3515 L 62.6588 -25.8115 L 64.0188 -25.8115 L 64.9288 -25.3515 L 65.3888 -23.9915 L 65.3888 -19.4515 M 55.5688 7.5985 L 55.5688 -22.4015 M 5.5688 7.5985 L 5.5688 -22.4015" stroke-width="0.4" fill="none" c_shapetype="group" layerid="12" c_fontsize="" id="gge1909" locked="0" measuring_type="level"/></svg>